<svg class="main-svg" xmlns="http://www.w3.org/2000/svg" xmlns:xlink="http://www.w3.org/1999/xlink" width="700" height="450" style="" viewBox="0 0 700 450"><rect x="0" y="0" width="700" height="450" style="fill: rgb(255, 255, 255); fill-opacity: 1;"/><defs id="defs-698ca3"><g class="clips"><clipPath id="clip698ca3xyplot" class="plotclip"><rect width="462" height="270"/></clipPath><clipPath class="axesclip" id="clip698ca3x"><rect x="80" y="0" width="462" height="450"/></clipPath><clipPath class="axesclip" id="clip698ca3y"><rect x="0" y="100" width="700" height="270"/></clipPath><clipPath class="axesclip" id="clip698ca3xy"><rect x="80" y="100" width="462" height="270"/></clipPath></g><g class="gradients"/><g class="patterns"/></defs><g class="bglayer"/><g class="layer-below"><g class="imagelayer"/><g class="shapelayer"/></g><g class="cartesianlayer"><g class="subplot xy"><g class="layer-subplot"><g class="shapelayer"/><g class="imagelayer"/></g><g class="minor-gridlayer"><g class="x"/><g class="y"/></g><g class="gridlayer"><g class="x"><path class="xgrid crisp" transform="translate(235.05,0)" d="M0,100v270" style="stroke: rgb(238, 238, 238); stroke-opacity: 1; stroke-width: 1px;"/><path class="xgrid crisp" transform="translate(393.27,0)" d="M0,100v270" style="stroke: rgb(238, 238, 238); stroke-opacity: 1; stroke-width: 1px;"/></g><g class="y"><path class="ygrid crisp" transform="translate(0,311.5)" d="M80,0h462" style="stroke: rgb(238, 238, 238); stroke-opacity: 1; stroke-width: 1px;"/><path class="ygrid crisp" transform="translate(0,266.5)" d="M80,0h462" style="stroke: rgb(238, 238, 238); stroke-opacity: 1; stroke-width: 1px;"/><path class="ygrid crisp" transform="translate(0,221.5)" d="M80,0h462" style="stroke: rgb(238, 238, 238); stroke-opacity: 1; stroke-width: 1px;"/><path class="ygrid crisp" transform="translate(0,176.5)" d="M80,0h462" style="stroke: rgb(238, 238, 238); stroke-opacity: 1; stroke-width: 1px;"/><path class="ygrid crisp" transform="translate(0,131.5)" d="M80,0h462" style="stroke: rgb(238, 238, 238); stroke-opacity: 1; stroke-width: 1px;"/></g></g><g class="zerolinelayer"><path class="yzl zl crisp" transform="translate(0,356.5)" d="M80,0h462" style="stroke: rgb(68, 68, 68); stroke-opacity: 1; stroke-width: 1px;"/></g><path class="xlines-below"/><path class="ylines-below"/><g class="overlines-below"/><g class="xaxislayer-below"/><g class="yaxislayer-below"/><g class="overaxes-below"/><g class="plot" transform="translate(80,100)" clip-path="url(#clip698ca3xyplot)"><g class="scatterlayer mlayer"><g class="trace scatter tracee6baac" style="stroke-miterlimit: 2; opacity: 1;"><g class="fills"/><g class="errorbars"/><g class="lines"><path class="js-line" d="M0,256.5L75.95,256.5L79.11,238.5L82.27,184.5L85.44,220.5L88.6,238.5L91.77,220.5L94.93,148.5L98.1,148.5L101.26,121.5L104.42,103.5L107.59,58.5L110.75,85.5L113.92,94.5L117.08,58.5L120.25,49.5L123.41,58.5L126.58,49.5L129.74,58.5L132.9,58.5L136.07,85.5L139.23,58.5L142.4,67.5L145.56,85.5L148.73,76.5L151.89,58.5L155.05,76.5L158.22,58.5L161.38,67.5L164.55,85.5L167.71,58.5L170.88,58.5L174.04,103.5L177.21,58.5L180.37,67.5L183.53,94.5L186.7,58.5L189.86,85.5L193.03,58.5L196.19,58.5L199.36,40.5L202.52,31.5L205.68,40.5L208.85,76.5L212.01,76.5L215.18,40.5L218.34,49.5L221.51,49.5L224.67,67.5L227.84,76.5L231,67.5L234.16,40.5L237.33,49.5L240.49,13.5L243.66,85.5L253.15,31.5L256.32,67.5L259.48,49.5L262.64,58.5L265.81,67.5L268.97,49.5L272.14,58.5L275.3,58.5L278.47,85.5L281.63,67.5L284.79,67.5L287.96,58.5" style="vector-effect: none; fill: none; stroke: rgb(156, 39, 176); stroke-opacity: 1; stroke-width: 2px; opacity: 1;"/></g><g class="points"/><g class="text"/></g><g class="trace scatter trace4d1479" style="stroke-miterlimit: 2; opacity: 1;"><g class="fills"/><g class="errorbars"/><g class="lines"><path class="js-line" d="M0,256.5L63.29,256.5L66.45,247.5L69.62,184.5L72.78,220.5L75.95,157.5L79.11,175.5L82.27,211.5L85.44,184.5L88.6,202.5L91.77,175.5L94.93,220.5L98.1,166.5L101.26,184.5L104.42,121.5L107.59,121.5L110.75,130.5L113.92,85.5L117.08,130.5L120.25,58.5L123.41,76.5L126.58,121.5L129.74,67.5L132.9,112.5L136.07,139.5L139.23,76.5L142.4,76.5L145.56,85.5L148.73,31.5L151.89,76.5L155.05,85.5L158.22,85.5L161.38,58.5L164.55,85.5L167.71,76.5L170.88,85.5L174.04,103.5L177.21,40.5L180.37,58.5L183.53,76.5L186.7,49.5L189.86,76.5L193.03,49.5L196.19,58.5L199.36,40.5L202.52,58.5L205.68,67.5L208.85,67.5L212.01,40.5L215.18,67.5L218.34,49.5L221.51,94.5L224.67,76.5L227.84,76.5L231,94.5L234.16,67.5L237.33,49.5L240.49,40.5L243.66,58.5L246.82,76.5L249.99,76.5L253.15,58.5L256.32,67.5L259.48,58.5L262.64,67.5L265.81,67.5L268.97,49.5L272.14,58.5L275.3,76.5L287.96,40.5L291.12,85.5L294.29,76.5L297.45,76.5L300.62,94.5L303.78,31.5L306.95,94.5L310.11,85.5L313.27,67.5L316.44,76.5L319.6,76.5L322.77,31.5L325.93,76.5L329.1,22.5L332.26,76.5L335.42,76.5L338.59,40.5L341.75,85.5L348.08,31.5L351.25,58.5L354.41,58.5L357.58,67.5L360.74,85.5L363.9,49.5L367.07,31.5L370.23,85.5L373.4,67.5L376.56,58.5L379.73,76.5L382.89,76.5L386.05,85.5L389.22,76.5L392.38,31.5L395.55,94.5L398.71,58.5L401.88,76.5L405.04,67.5L408.21,40.5L411.37,67.5L414.53,49.5L417.7,76.5L420.86,85.5L424.03,58.5L427.19,49.5L430.36,13.5L433.52,67.5L436.68,49.5L439.85,76.5L443.01,94.5L446.18,58.5L449.34,67.5L452.51,67.5L458.84,49.5L462,85.5" style="vector-effect: none; fill: none; stroke: rgb(33, 150, 243); stroke-opacity: 1; stroke-width: 2px; opacity: 1;"/></g><g class="points"/><g class="text"/></g><g class="trace scatter tracefb90d4" style="stroke-miterlimit: 2; opacity: 1;"><g class="fills"/><g class="errorbars"/><g class="lines"><path class="js-line" d="M0,256.5L3.16,256.5L6.33,247.5L9.49,247.5L12.66,229.5L15.82,247.5L18.99,256.5L22.15,256.5L25.32,247.5L28.48,238.5L31.64,247.5L34.81,220.5L37.97,238.5L41.14,238.5L44.3,229.5L47.47,247.5L50.63,238.5L53.79,238.5L56.96,193.5L60.12,211.5L63.29,220.5L66.45,211.5L69.62,229.5L72.78,247.5L75.95,175.5L79.11,166.5L82.27,184.5L85.44,211.5L88.6,211.5L91.77,247.5L94.93,211.5L98.1,202.5L101.26,202.5L104.42,202.5L107.59,166.5L110.75,175.5L113.92,211.5L117.08,238.5L120.25,220.5L123.41,238.5L126.58,229.5L129.74,238.5L132.9,238.5L136.07,247.5L139.23,211.5L142.4,193.5L145.56,184.5L148.73,166.5L151.89,184.5L155.05,157.5L158.22,193.5L161.38,175.5L164.55,175.5L167.71,148.5L170.88,130.5L174.04,175.5L177.21,148.5L180.37,148.5L183.53,166.5L186.7,139.5L189.86,130.5L193.03,139.5L196.19,121.5L199.36,103.5L202.52,94.5L205.68,130.5L208.85,112.5L212.01,130.5L215.18,94.5L218.34,76.5L221.51,94.5L224.67,94.5L227.84,103.5L231,85.5L234.16,58.5L237.33,85.5L240.49,76.5L243.66,139.5L246.82,94.5L249.99,94.5L253.15,67.5L256.32,94.5L259.48,49.5L262.64,76.5L265.81,76.5L268.97,58.5L272.14,58.5L275.3,85.5L278.47,103.5L281.63,67.5L284.79,76.5L287.96,67.5L291.12,85.5L294.29,103.5L297.45,58.5L300.62,130.5L303.78,94.5L306.95,67.5L310.11,76.5L313.27,76.5L316.44,94.5L319.6,67.5L322.77,67.5L325.93,67.5L329.1,103.5L335.42,67.5L338.59,94.5L341.75,67.5L344.92,49.5L354.41,103.5L357.58,85.5L360.74,58.5L363.9,76.5L367.07,76.5L370.23,49.5L373.4,76.5L376.56,85.5L379.73,58.5L382.89,85.5L389.22,67.5L392.38,40.5L395.55,94.5L398.71,67.5L401.88,22.5L405.04,85.5L408.21,85.5L411.37,67.5L417.7,67.5L420.86,94.5L424.03,67.5L427.19,58.5L433.52,94.5L436.68,94.5L439.85,58.5L443.01,76.5L446.18,49.5L449.34,76.5L452.51,67.5L455.67,94.5L458.84,58.5L462,85.5" style="vector-effect: none; fill: none; stroke: rgb(0, 150, 136); stroke-opacity: 1; stroke-width: 2px; opacity: 1;"/></g><g class="points"/><g class="text"/></g></g></g><g class="overplot"/><path class="xlines-above crisp" d="M79,370.5H542" style="fill: none; stroke-width: 1px; stroke: rgb(68, 68, 68); stroke-opacity: 1;"/><path class="ylines-above crisp" d="M79.5,100V370" style="fill: none; stroke-width: 1px; stroke: rgb(68, 68, 68); stroke-opacity: 1;"/><g class="overlines-above"/><g class="xaxislayer-above"><path class="xtick ticks crisp" d="M0,371v5" transform="translate(235.05,0)" style="stroke: rgb(68, 68, 68); stroke-opacity: 1; stroke-width: 1px;"/><path class="xtick ticks crisp" d="M0,371v5" transform="translate(393.27,0)" style="stroke: rgb(68, 68, 68); stroke-opacity: 1; stroke-width: 1px;"/><g class="xtick"><text text-anchor="middle" x="0" y="390.4" transform="translate(235.05,0)" style="font-family: 'Open Sans', verdana, arial, sans-serif; font-size: 12px; fill: rgb(68, 68, 68); fill-opacity: 1; white-space: pre; opacity: 1;">50</text></g><g class="xtick"><text text-anchor="middle" x="0" y="390.4" style="font-family: 'Open Sans', verdana, arial, sans-serif; font-size: 12px; fill: rgb(68, 68, 68); fill-opacity: 1; white-space: pre; opacity: 1;" transform="translate(393.27,0)">100</text></g></g><g class="yaxislayer-above"><path class="ytick ticks crisp" d="M79,0h-5" transform="translate(0,356.5)" style="stroke: rgb(68, 68, 68); stroke-opacity: 1; stroke-width: 1px;"/><path class="ytick ticks crisp" d="M79,0h-5" transform="translate(0,311.5)" style="stroke: rgb(68, 68, 68); stroke-opacity: 1; stroke-width: 1px;"/><path class="ytick ticks crisp" d="M79,0h-5" transform="translate(0,266.5)" style="stroke: rgb(68, 68, 68); stroke-opacity: 1; stroke-width: 1px;"/><path class="ytick ticks crisp" d="M79,0h-5" transform="translate(0,221.5)" style="stroke: rgb(68, 68, 68); stroke-opacity: 1; stroke-width: 1px;"/><path class="ytick ticks crisp" d="M79,0h-5" transform="translate(0,176.5)" style="stroke: rgb(68, 68, 68); stroke-opacity: 1; stroke-width: 1px;"/><path class="ytick ticks crisp" d="M79,0h-5" transform="translate(0,131.5)" style="stroke: rgb(68, 68, 68); stroke-opacity: 1; stroke-width: 1px;"/><g class="ytick"><text text-anchor="end" x="71.6" y="4.199999999999999" transform="translate(0,356.5)" style="font-family: 'Open Sans', verdana, arial, sans-serif; font-size: 12px; fill: rgb(68, 68, 68); fill-opacity: 1; white-space: pre; opacity: 1;">0</text></g><g class="ytick"><text text-anchor="end" x="71.6" y="4.199999999999999" style="font-family: 'Open Sans', verdana, arial, sans-serif; font-size: 12px; fill: rgb(68, 68, 68); fill-opacity: 1; white-space: pre; opacity: 1;" transform="translate(0,311.5)">5</text></g><g class="ytick"><text text-anchor="end" x="71.6" y="4.199999999999999" style="font-family: 'Open Sans', verdana, arial, sans-serif; font-size: 12px; fill: rgb(68, 68, 68); fill-opacity: 1; white-space: pre; opacity: 1;" transform="translate(0,266.5)">10</text></g><g class="ytick"><text text-anchor="end" x="71.6" y="4.199999999999999" style="font-family: 'Open Sans', verdana, arial, sans-serif; font-size: 12px; fill: rgb(68, 68, 68); fill-opacity: 1; white-space: pre; opacity: 1;" transform="translate(0,221.5)">15</text></g><g class="ytick"><text text-anchor="end" x="71.6" y="4.199999999999999" style="font-family: 'Open Sans', verdana, arial, sans-serif; font-size: 12px; fill: rgb(68, 68, 68); fill-opacity: 1; white-space: pre; opacity: 1;" transform="translate(0,176.5)">20</text></g><g class="ytick"><text text-anchor="end" x="71.6" y="4.199999999999999" style="font-family: 'Open Sans', verdana, arial, sans-serif; font-size: 12px; fill: rgb(68, 68, 68); fill-opacity: 1; white-space: pre; opacity: 1;" transform="translate(0,131.5)">25</text></g></g><g class="overaxes-above"/></g></g><g class="polarlayer"/><g class="smithlayer"/><g class="ternarylayer"/><g class="geolayer"/><g class="funnelarealayer"/><g class="pielayer"/><g class="iciclelayer"/><g class="treemaplayer"/><g class="sunburstlayer"/><g class="glimages"/><defs id="topdefs-698ca3"><g class="clips"/><clipPath id="legend698ca3"><rect width="137" height="67" x="0" y="0"/></clipPath></defs><g class="layer-above"><g class="imagelayer"/><g class="shapelayer"/></g><g class="infolayer"><g class="legend" pointer-events="all" transform="translate(551.24,100)"><rect class="bg" shape-rendering="crispEdges" style="stroke: rgb(68, 68, 68); stroke-opacity: 1; fill: rgb(255, 255, 255); fill-opacity: 1; stroke-width: 0px;" width="137" height="67" x="0" y="0"/><g class="scrollbox" transform="" clip-path="url(#legend698ca3)"><g class="groups"><g class="traces" transform="translate(0,14.5)" style="opacity: 1;"><text class="legendtext" text-anchor="start" x="40" y="4.680000000000001" style="font-family: 'Open Sans', verdana, arial, sans-serif; font-size: 12px; fill: rgb(68, 68, 68); fill-opacity: 1; white-space: pre;">Replay Ratio = 4</text><g class="layers" style="opacity: 1;"><g class="legendfill"/><g class="legendlines"><path class="js-line" d="M5,0h30" style="fill: none; stroke: rgb(156, 39, 176); stroke-opacity: 1; stroke-width: 2px;"/></g><g class="legendsymbols"><g class="legendpoints"/></g></g><rect class="legendtoggle" x="0" y="-9.5" width="131.6279296875" height="19" style="fill: rgb(0, 0, 0); fill-opacity: 0;"/></g><g class="traces" transform="translate(0,33.5)" style="opacity: 1;"><text class="legendtext" text-anchor="start" x="40" y="4.680000000000001" style="font-family: 'Open Sans', verdana, arial, sans-serif; font-size: 12px; fill: rgb(68, 68, 68); fill-opacity: 1; white-space: pre;">Replay Ratio = 2</text><g class="layers" style="opacity: 1;"><g class="legendfill"/><g class="legendlines"><path class="js-line" d="M5,0h30" style="fill: none; stroke: rgb(33, 150, 243); stroke-opacity: 1; stroke-width: 2px;"/></g><g class="legendsymbols"><g class="legendpoints"/></g></g><rect class="legendtoggle" x="0" y="-9.5" width="131.6279296875" height="19" style="fill: rgb(0, 0, 0); fill-opacity: 0;"/></g><g class="traces" transform="translate(0,52.5)" style="opacity: 1;"><text class="legendtext" text-anchor="start" x="40" y="4.680000000000001" style="font-family: 'Open Sans', verdana, arial, sans-serif; font-size: 12px; fill: rgb(68, 68, 68); fill-opacity: 1; white-space: pre;">Replay Ratio = 1</text><g class="layers" style="opacity: 1;"><g class="legendfill"/><g class="legendlines"><path class="js-line" d="M5,0h30" style="fill: none; stroke: rgb(0, 150, 136); stroke-opacity: 1; stroke-width: 2px;"/></g><g class="legendsymbols"><g class="legendpoints"/></g></g><rect class="legendtoggle" x="0" y="-9.5" width="131.6279296875" height="19" style="fill: rgb(0, 0, 0); fill-opacity: 0;"/></g></g></g><rect class="scrollbar" rx="20" ry="3" width="0" height="0" style="fill: rgb(128, 139, 164); fill-opacity: 1;" x="0" y="0"/></g><g class="g-gtitle"><text class="gtitle" x="350" y="50" text-anchor="middle" dy="0em" style="font-family: 'Open Sans', verdana, arial, sans-serif; font-size: 17px; fill: rgb(68, 68, 68); opacity: 1; font-weight: normal; white-space: pre;">DQN on Freeway-v4</text></g><g class="g-xtitle"><text class="xtitle" x="311" y="422" text-anchor="middle" style="font-family: 'Open Sans', verdana, arial, sans-serif; font-size: 14px; fill: rgb(68, 68, 68); opacity: 1; font-weight: normal; white-space: pre;">Episode Count</text></g><g class="g-ytitle"><text class="ytitle" transform="rotate(-90,42,235)" x="42" y="235" text-anchor="middle" style="font-family: 'Open Sans', verdana, arial, sans-serif; font-size: 14px; fill: rgb(68, 68, 68); opacity: 1; font-weight: normal; white-space: pre;">Episode Reward</text></g></g></svg>