<svg class="main-svg" xmlns="http://www.w3.org/2000/svg" xmlns:xlink="http://www.w3.org/1999/xlink" width="700" height="450" style="" viewBox="0 0 700 450"><rect x="0" y="0" width="700" height="450" style="fill: rgb(255, 255, 255); fill-opacity: 1;"/><defs id="defs-c8a843"><g class="clips"><clipPath id="clipc8a843xyplot" class="plotclip"><rect width="486" height="270"/></clipPath><clipPath class="axesclip" id="clipc8a843x"><rect x="80" y="0" width="486" height="450"/></clipPath><clipPath class="axesclip" id="clipc8a843y"><rect x="0" y="100" width="700" height="270"/></clipPath><clipPath class="axesclip" id="clipc8a843xy"><rect x="80" y="100" width="486" height="270"/></clipPath></g><g class="gradients"/><g class="patterns"/></defs><g class="bglayer"/><g class="layer-below"><g class="imagelayer"/><g class="shapelayer"/></g><g class="cartesianlayer"><g class="subplot xy"><g class="layer-subplot"><g class="shapelayer"/><g class="imagelayer"/></g><g class="minor-gridlayer"><g class="x"/><g class="y"/></g><g class="gridlayer"><g class="x"><path class="xgrid crisp" transform="translate(243.11,0)" d="M0,100v270" style="stroke: rgb(238, 238, 238); stroke-opacity: 1; stroke-width: 1px;"/><path class="xgrid crisp" transform="translate(409.55,0)" d="M0,100v270" style="stroke: rgb(238, 238, 238); stroke-opacity: 1; stroke-width: 1px;"/></g><g class="y"><path class="ygrid crisp" transform="translate(0,314.6)" d="M80,0h486" style="stroke: rgb(238, 238, 238); stroke-opacity: 1; stroke-width: 1px;"/><path class="ygrid crisp" transform="translate(0,272.71000000000004)" d="M80,0h486" style="stroke: rgb(238, 238, 238); stroke-opacity: 1; stroke-width: 1px;"/><path class="ygrid crisp" transform="translate(0,230.81)" d="M80,0h486" style="stroke: rgb(238, 238, 238); stroke-opacity: 1; stroke-width: 1px;"/><path class="ygrid crisp" transform="translate(0,188.91)" d="M80,0h486" style="stroke: rgb(238, 238, 238); stroke-opacity: 1; stroke-width: 1px;"/><path class="ygrid crisp" transform="translate(0,147.02)" d="M80,0h486" style="stroke: rgb(238, 238, 238); stroke-opacity: 1; stroke-width: 1px;"/><path class="ygrid crisp" transform="translate(0,105.12)" d="M80,0h486" style="stroke: rgb(238, 238, 238); stroke-opacity: 1; stroke-width: 1px;"/></g></g><g class="zerolinelayer"><path class="yzl zl crisp" transform="translate(0,356.5)" d="M80,0h486" style="stroke: rgb(68, 68, 68); stroke-opacity: 1; stroke-width: 1px;"/></g><path class="xlines-below"/><path class="ylines-below"/><g class="overlines-below"/><g class="xaxislayer-below"/><g class="yaxislayer-below"/><g class="overaxes-below"/><g class="plot" transform="translate(80,100)" clip-path="url(#clipc8a843xyplot)"><g class="scatterlayer mlayer"><g class="trace scatter traceaffaa5" style="stroke-miterlimit: 2; opacity: 1;"><g class="fills"/><g class="errorbars"/><g class="lines"><path class="js-line" d="M0,256.5L93.21,256.5L96.53,248.12L99.86,256.5L103.19,256.5L106.52,256.5L109.85,248.12L113.18,256.5L116.51,122.43L119.84,88.91L123.16,130.81L126.49,72.16L129.82,88.91L133.15,97.29L136.48,80.53L139.81,80.53L143.14,97.29L146.47,55.4L149.79,47.02L153.12,63.78L156.45,55.4L159.78,38.64L163.11,88.91L166.44,80.53L169.77,55.4L173.1,88.91L176.42,55.4L179.75,72.16L183.08,47.02L186.41,55.4L189.74,72.16L193.07,105.67L196.4,231.36L199.73,214.6L203.05,189.47L206.38,139.19L209.71,147.57L213.04,181.09L216.37,147.57L219.7,122.43L223.03,130.81L226.36,139.19L229.68,130.81L233.01,114.05L236.34,88.91L239.67,114.05L243,88.91L246.33,105.67L249.66,80.53L252.99,88.91L256.32,105.67L262.97,55.4L266.3,88.91L269.63,80.53L272.96,105.67L276.29,88.91L279.62,63.78L282.95,72.16L286.27,72.16L289.6,88.91L292.93,63.78L296.26,80.53L299.59,88.91L306.25,72.16L309.58,88.91L312.9,47.02L316.23,72.16L319.56,63.78L322.89,72.16L326.22,72.16L329.55,80.53L332.88,80.53L336.21,72.16L339.53,47.02L342.86,88.91L346.19,63.78L349.52,47.02L352.85,88.91L356.18,88.91L359.51,63.78L362.84,63.78L366.16,72.16L369.49,72.16L372.82,55.4L376.15,97.29L379.48,80.53L382.81,88.91L386.14,63.78L389.47,97.29L392.79,256.5L396.12,222.98L402.78,155.95L406.11,147.57L412.77,130.81L416.1,105.67L419.42,105.67L422.75,88.91L426.08,97.29L429.41,80.53L432.74,105.67L436.07,72.16L439.4,88.91L442.73,72.16L446.05,55.4L449.38,80.53L456.04,63.78L459.37,72.16L466.03,72.16L469.36,88.91L472.68,80.53L476.01,88.91L482.67,72.16L486,80.53" style="vector-effect: none; fill: none; stroke: rgb(156, 39, 176); stroke-opacity: 1; stroke-width: 2px; opacity: 1;"/></g><g class="points"/><g class="text"/></g><g class="trace scatter tracec95321" style="stroke-miterlimit: 2; opacity: 1;"><g class="fills"/><g class="errorbars"/><g class="lines"><path class="js-line" d="M0,256.5L79.89,256.5L83.22,239.74L86.55,189.47L89.88,222.98L93.21,239.74L96.53,222.98L99.86,155.95L103.19,155.95L106.52,130.81L109.85,114.05L113.18,72.16L116.51,97.29L119.84,105.67L123.16,72.16L126.49,63.78L129.82,72.16L133.15,63.78L136.48,72.16L139.81,72.16L143.14,97.29L146.47,72.16L149.79,80.53L153.12,97.29L156.45,88.91L159.78,72.16L163.11,88.91L166.44,72.16L169.77,80.53L173.1,97.29L176.42,72.16L179.75,72.16L183.08,114.05L186.41,72.16L189.74,80.53L193.07,105.67L196.4,72.16L199.73,97.29L203.05,72.16L206.38,72.16L209.71,55.4L213.04,47.02L216.37,55.4L219.7,88.91L223.03,88.91L226.36,55.4L229.68,63.78L233.01,63.78L236.34,80.53L239.67,88.91L243,80.53L246.33,55.4L249.66,63.78L252.99,30.26L256.32,97.29L266.3,47.02L269.63,80.53L272.96,63.78L276.29,72.16L279.62,80.53L282.95,63.78L286.27,72.16L289.6,72.16L292.93,97.29L296.26,80.53L299.59,80.53L302.92,72.16L306.25,55.4L309.58,72.16L312.9,97.29L316.23,55.4L319.56,80.53L322.89,55.4L326.22,80.53L329.55,80.53L332.88,88.91L336.21,55.4L342.86,88.91L346.19,55.4L349.52,13.5L352.85,38.64L356.18,97.29L359.51,72.16L362.84,63.78L366.16,88.91L369.49,72.16L372.82,97.29L379.48,80.53L382.81,55.4L386.14,97.29L389.47,80.53L399.45,80.53L402.78,97.29L406.11,88.91L409.44,105.67L412.77,63.78L416.1,72.16L419.42,88.91L422.75,72.16L426.08,72.16L429.41,88.91L432.74,72.16L436.07,80.53L439.4,80.53L442.73,105.67L446.05,72.16L449.38,72.16L452.71,80.53L456.04,55.4L459.37,88.91L462.7,80.53L466.03,63.78L469.36,63.78L472.68,47.02L476.01,72.16L479.34,80.53L482.67,105.67L486,80.53" style="vector-effect: none; fill: none; stroke: rgb(33, 150, 243); stroke-opacity: 1; stroke-width: 2px; opacity: 1;"/></g><g class="points"/><g class="text"/></g><g class="trace scatter trace258959" style="stroke-miterlimit: 2; opacity: 1;"><g class="fills"/><g class="errorbars"/><g class="lines"><path class="js-line" d="M0,256.5L46.6,256.5L49.93,248.12L56.59,248.12L59.92,256.5L63.25,239.74L66.58,248.12L73.23,231.36L76.56,256.5L79.89,231.36L83.22,222.98L86.55,231.36L89.88,248.12L93.21,248.12L96.53,256.5L99.86,248.12L103.19,231.36L106.52,248.12L109.85,248.12L119.84,248.12L123.16,239.74L126.49,248.12L129.82,248.12L133.15,222.98L136.48,256.5L139.81,256.5L143.14,248.12L149.79,248.12L153.12,256.5L156.45,256.5L159.78,248.12L169.77,248.12L173.1,256.5L176.42,248.12L179.75,248.12L183.08,248.12L186.41,239.74L189.74,231.36L193.07,256.5L196.4,248.12L199.73,248.12L203.05,231.36L206.38,248.12L213.04,248.12L216.37,256.5L219.7,256.5L223.03,248.12L226.36,256.5L229.68,256.5L233.01,239.74L236.34,248.12L239.67,248.12L243,256.5L272.96,256.5L276.29,248.12L279.62,256.5L282.95,256.5L389.47,256.5L392.79,248.12L396.12,256.5L399.45,256.5L409.44,256.5L412.77,248.12L416.1,256.5L419.42,248.12L422.75,256.5L426.08,256.5L462.7,256.5L466.03,248.12L469.36,248.12L472.68,256.5L476.01,256.5L479.34,248.12L482.67,256.5L486,256.5" style="vector-effect: none; fill: none; stroke: rgb(0, 150, 136); stroke-opacity: 1; stroke-width: 2px; opacity: 1;"/></g><g class="points"/><g class="text"/></g></g></g><g class="overplot"/><path class="xlines-above crisp" d="M79,370.5H566" style="fill: none; stroke-width: 1px; stroke: rgb(68, 68, 68); stroke-opacity: 1;"/><path class="ylines-above crisp" d="M79.5,100V370" style="fill: none; stroke-width: 1px; stroke: rgb(68, 68, 68); stroke-opacity: 1;"/><g class="overlines-above"/><g class="xaxislayer-above"><path class="xtick ticks crisp" d="M0,371v5" transform="translate(243.11,0)" style="stroke: rgb(68, 68, 68); stroke-opacity: 1; stroke-width: 1px;"/><path class="xtick ticks crisp" d="M0,371v5" transform="translate(409.55,0)" style="stroke: rgb(68, 68, 68); stroke-opacity: 1; stroke-width: 1px;"/><g class="xtick"><text text-anchor="middle" x="0" y="390.4" transform="translate(243.11,0)" style="font-family: 'Open Sans', verdana, arial, sans-serif; font-size: 12px; fill: rgb(68, 68, 68); fill-opacity: 1; white-space: pre; opacity: 1;">50</text></g><g class="xtick"><text text-anchor="middle" x="0" y="390.4" style="font-family: 'Open Sans', verdana, arial, sans-serif; font-size: 12px; fill: rgb(68, 68, 68); fill-opacity: 1; white-space: pre; opacity: 1;" transform="translate(409.55,0)">100</text></g></g><g class="yaxislayer-above"><path class="ytick ticks crisp" d="M79,0h-5" transform="translate(0,356.5)" style="stroke: rgb(68, 68, 68); stroke-opacity: 1; stroke-width: 1px;"/><path class="ytick ticks crisp" d="M79,0h-5" transform="translate(0,314.6)" style="stroke: rgb(68, 68, 68); stroke-opacity: 1; stroke-width: 1px;"/><path class="ytick ticks crisp" d="M79,0h-5" transform="translate(0,272.71000000000004)" style="stroke: rgb(68, 68, 68); stroke-opacity: 1; stroke-width: 1px;"/><path class="ytick ticks crisp" d="M79,0h-5" transform="translate(0,230.81)" style="stroke: rgb(68, 68, 68); stroke-opacity: 1; stroke-width: 1px;"/><path class="ytick ticks crisp" d="M79,0h-5" transform="translate(0,188.91)" style="stroke: rgb(68, 68, 68); stroke-opacity: 1; stroke-width: 1px;"/><path class="ytick ticks crisp" d="M79,0h-5" transform="translate(0,147.02)" style="stroke: rgb(68, 68, 68); stroke-opacity: 1; stroke-width: 1px;"/><path class="ytick ticks crisp" d="M79,0h-5" transform="translate(0,105.12)" style="stroke: rgb(68, 68, 68); stroke-opacity: 1; stroke-width: 1px;"/><g class="ytick"><text text-anchor="end" x="71.6" y="4.199999999999999" transform="translate(0,356.5)" style="font-family: 'Open Sans', verdana, arial, sans-serif; font-size: 12px; fill: rgb(68, 68, 68); fill-opacity: 1; white-space: pre; opacity: 1;">0</text></g><g class="ytick"><text text-anchor="end" x="71.6" y="4.199999999999999" style="font-family: 'Open Sans', verdana, arial, sans-serif; font-size: 12px; fill: rgb(68, 68, 68); fill-opacity: 1; white-space: pre; opacity: 1;" transform="translate(0,314.6)">5</text></g><g class="ytick"><text text-anchor="end" x="71.6" y="4.199999999999999" style="font-family: 'Open Sans', verdana, arial, sans-serif; font-size: 12px; fill: rgb(68, 68, 68); fill-opacity: 1; white-space: pre; opacity: 1;" transform="translate(0,272.71000000000004)">10</text></g><g class="ytick"><text text-anchor="end" x="71.6" y="4.199999999999999" style="font-family: 'Open Sans', verdana, arial, sans-serif; font-size: 12px; fill: rgb(68, 68, 68); fill-opacity: 1; white-space: pre; opacity: 1;" transform="translate(0,230.81)">15</text></g><g class="ytick"><text text-anchor="end" x="71.6" y="4.199999999999999" style="font-family: 'Open Sans', verdana, arial, sans-serif; font-size: 12px; fill: rgb(68, 68, 68); fill-opacity: 1; white-space: pre; opacity: 1;" transform="translate(0,188.91)">20</text></g><g class="ytick"><text text-anchor="end" x="71.6" y="4.199999999999999" style="font-family: 'Open Sans', verdana, arial, sans-serif; font-size: 12px; fill: rgb(68, 68, 68); fill-opacity: 1; white-space: pre; opacity: 1;" transform="translate(0,147.02)">25</text></g><g class="ytick"><text text-anchor="end" x="71.6" y="4.199999999999999" style="font-family: 'Open Sans', verdana, arial, sans-serif; font-size: 12px; fill: rgb(68, 68, 68); fill-opacity: 1; white-space: pre; opacity: 1;" transform="translate(0,105.12)">30</text></g></g><g class="overaxes-above"/></g></g><g class="polarlayer"/><g class="smithlayer"/><g class="ternarylayer"/><g class="geolayer"/><g class="funnelarealayer"/><g class="pielayer"/><g class="iciclelayer"/><g class="treemaplayer"/><g class="sunburstlayer"/><g class="glimages"/><defs id="topdefs-c8a843"><g class="clips"/><clipPath id="legendc8a843"><rect width="112" height="67" x="0" y="0"/></clipPath></defs><g class="layer-above"><g class="imagelayer"/><g class="shapelayer"/></g><g class="infolayer"><g class="legend" pointer-events="all" transform="translate(575.72,100)"><rect class="bg" shape-rendering="crispEdges" width="112" height="67" x="0" y="0" style="stroke: rgb(68, 68, 68); stroke-opacity: 1; fill: rgb(255, 255, 255); fill-opacity: 1; stroke-width: 0px;"/><g class="scrollbox" transform="" clip-path="url(#legendc8a843)"><g class="groups"><g class="traces" transform="translate(0,14.5)" style="opacity: 1;"><text class="legendtext" text-anchor="start" x="40" y="4.680000000000001" style="font-family: 'Open Sans', verdana, arial, sans-serif; font-size: 12px; fill: rgb(68, 68, 68); fill-opacity: 1; white-space: pre;">DQN+Reset</text><g class="layers" style="opacity: 1;"><g class="legendfill"/><g class="legendlines"><path class="js-line" d="M5,0h30" style="fill: none; stroke: rgb(156, 39, 176); stroke-opacity: 1; stroke-width: 2px;"/></g><g class="legendsymbols"><g class="legendpoints"/></g></g><rect class="legendtoggle" x="0" y="-9.5" width="106.8876953125" height="19" style="fill: rgb(0, 0, 0); fill-opacity: 0;"/></g><g class="traces" transform="translate(0,33.5)" style="opacity: 1;"><text class="legendtext" text-anchor="start" x="40" y="4.680000000000001" style="font-family: 'Open Sans', verdana, arial, sans-serif; font-size: 12px; fill: rgb(68, 68, 68); fill-opacity: 1; white-space: pre;">DQN</text><g class="layers" style="opacity: 1;"><g class="legendfill"/><g class="legendlines"><path class="js-line" d="M5,0h30" style="fill: none; stroke: rgb(33, 150, 243); stroke-opacity: 1; stroke-width: 2px;"/></g><g class="legendsymbols"><g class="legendpoints"/></g></g><rect class="legendtoggle" x="0" y="-9.5" width="106.8876953125" height="19" style="fill: rgb(0, 0, 0); fill-opacity: 0;"/></g><g class="traces" transform="translate(0,52.5)" style="opacity: 1;"><text class="legendtext" text-anchor="start" x="40" y="4.680000000000001" style="font-family: 'Open Sans', verdana, arial, sans-serif; font-size: 12px; fill: rgb(68, 68, 68); fill-opacity: 1; white-space: pre;">RDE</text><g class="layers" style="opacity: 1;"><g class="legendfill"/><g class="legendlines"><path class="js-line" d="M5,0h30" style="fill: none; stroke: rgb(0, 150, 136); stroke-opacity: 1; stroke-width: 2px;"/></g><g class="legendsymbols"><g class="legendpoints"/></g></g><rect class="legendtoggle" x="0" y="-9.5" width="106.8876953125" height="19" style="fill: rgb(0, 0, 0); fill-opacity: 0;"/></g></g></g><rect class="scrollbar" rx="20" ry="3" width="0" height="0" x="0" y="0" style="fill: rgb(128, 139, 164); fill-opacity: 1;"/></g><g class="g-gtitle"><text class="gtitle" x="350" y="50" text-anchor="middle" dy="0em" style="font-family: 'Open Sans', verdana, arial, sans-serif; font-size: 17px; fill: rgb(68, 68, 68); opacity: 1; font-weight: normal; white-space: pre;">Freeway-v4 for All Models (Replay Ratio = 4)</text></g><g class="g-xtitle"><text class="xtitle" x="323" y="422" text-anchor="middle" style="font-family: 'Open Sans', verdana, arial, sans-serif; font-size: 14px; fill: rgb(68, 68, 68); opacity: 1; font-weight: normal; white-space: pre;">Episode Count</text></g><g class="g-ytitle"><text class="ytitle" transform="rotate(-90,42,235)" x="42" y="235" text-anchor="middle" style="font-family: 'Open Sans', verdana, arial, sans-serif; font-size: 14px; fill: rgb(68, 68, 68); opacity: 1; font-weight: normal; white-space: pre;">Episode Reward</text></g></g></svg>