<svg class="main-svg" xmlns="http://www.w3.org/2000/svg" xmlns:xlink="http://www.w3.org/1999/xlink" width="700" height="450" style="" viewBox="0 0 700 450"><rect x="0" y="0" width="700" height="450" style="fill: rgb(255, 255, 255); fill-opacity: 1;"/><defs id="defs-79d60d"><g class="clips"><clipPath id="clip79d60dxyplot" class="plotclip"><rect width="486" height="270"/></clipPath><clipPath class="axesclip" id="clip79d60dx"><rect x="80" y="0" width="486" height="450"/></clipPath><clipPath class="axesclip" id="clip79d60dy"><rect x="0" y="100" width="700" height="270"/></clipPath><clipPath class="axesclip" id="clip79d60dxy"><rect x="80" y="100" width="486" height="270"/></clipPath></g><g class="gradients"/><g class="patterns"/></defs><g class="bglayer"/><g class="layer-below"><g class="imagelayer"/><g class="shapelayer"/></g><g class="cartesianlayer"><g class="subplot xy"><g class="layer-subplot"><g class="shapelayer"/><g class="imagelayer"/></g><g class="minor-gridlayer"><g class="x"/><g class="y"/></g><g class="gridlayer"><g class="x"><path class="xgrid crisp" transform="translate(243.11,0)" d="M0,100v270" style="stroke: rgb(238, 238, 238); stroke-opacity: 1; stroke-width: 1px;"/><path class="xgrid crisp" transform="translate(409.55,0)" d="M0,100v270" style="stroke: rgb(238, 238, 238); stroke-opacity: 1; stroke-width: 1px;"/></g><g class="y"><path class="ygrid crisp" transform="translate(0,311.5)" d="M80,0h486" style="stroke: rgb(238, 238, 238); stroke-opacity: 1; stroke-width: 1px;"/><path class="ygrid crisp" transform="translate(0,266.5)" d="M80,0h486" style="stroke: rgb(238, 238, 238); stroke-opacity: 1; stroke-width: 1px;"/><path class="ygrid crisp" transform="translate(0,221.5)" d="M80,0h486" style="stroke: rgb(238, 238, 238); stroke-opacity: 1; stroke-width: 1px;"/><path class="ygrid crisp" transform="translate(0,176.5)" d="M80,0h486" style="stroke: rgb(238, 238, 238); stroke-opacity: 1; stroke-width: 1px;"/><path class="ygrid crisp" transform="translate(0,131.5)" d="M80,0h486" style="stroke: rgb(238, 238, 238); stroke-opacity: 1; stroke-width: 1px;"/></g></g><g class="zerolinelayer"><path class="yzl zl crisp" transform="translate(0,356.5)" d="M80,0h486" style="stroke: rgb(68, 68, 68); stroke-opacity: 1; stroke-width: 1px;"/></g><path class="xlines-below"/><path class="ylines-below"/><g class="overlines-below"/><g class="xaxislayer-below"/><g class="yaxislayer-below"/><g class="overaxes-below"/><g class="plot" transform="translate(80,100)" clip-path="url(#clip79d60dxyplot)"><g class="scatterlayer mlayer"><g class="trace scatter trace0b228c" style="stroke-miterlimit: 2; opacity: 1;"><g class="fills"/><g class="errorbars"/><g class="lines"><path class="js-line" d="M0,256.5L63.25,256.5L66.58,247.5L69.9,238.5L73.23,220.5L76.56,256.5L79.89,247.5L83.22,247.5L86.55,220.5L89.88,166.5L93.21,175.5L96.53,202.5L99.86,211.5L103.19,238.5L106.52,211.5L113.18,211.5L116.51,193.5L119.84,157.5L123.16,157.5L126.49,121.5L129.82,202.5L133.15,139.5L136.48,148.5L139.81,139.5L143.14,121.5L149.79,139.5L153.12,76.5L156.45,103.5L159.78,58.5L163.11,112.5L166.44,103.5L169.77,103.5L173.1,49.5L176.42,58.5L179.75,85.5L183.08,76.5L186.41,85.5L189.74,76.5L193.07,112.5L196.4,247.5L199.73,202.5L203.05,175.5L206.38,157.5L209.71,166.5L213.04,148.5L216.37,148.5L219.7,139.5L223.03,121.5L226.36,157.5L229.68,112.5L233.01,139.5L236.34,94.5L239.67,148.5L243,112.5L246.33,94.5L249.66,130.5L252.99,130.5L256.32,139.5L259.64,85.5L262.97,103.5L266.3,76.5L269.63,94.5L272.96,94.5L276.29,94.5L279.62,76.5L282.95,49.5L286.27,67.5L289.6,85.5L292.93,85.5L296.26,85.5L299.59,103.5L306.25,85.5L309.58,58.5L312.9,103.5L316.23,94.5L319.56,58.5L322.89,67.5L329.55,85.5L332.88,85.5L336.21,94.5L339.53,67.5L342.86,76.5L346.19,76.5L349.52,76.5L352.85,85.5L356.18,94.5L359.51,67.5L362.84,58.5L366.16,76.5L369.49,85.5L372.82,85.5L376.15,40.5L379.48,85.5L382.81,58.5L386.14,67.5L389.47,121.5L392.79,256.5L402.78,256.5L406.11,202.5L409.44,220.5L412.77,175.5L416.1,202.5L419.42,139.5L422.75,130.5L426.08,148.5L429.41,94.5L432.74,121.5L436.07,85.5L439.4,121.5L442.73,103.5L446.05,94.5L449.38,94.5L452.71,85.5L456.04,76.5L459.37,85.5L462.7,85.5L466.03,76.5L469.36,112.5L472.68,103.5L476.01,67.5L479.34,94.5L482.67,112.5L486,112.5" style="vector-effect: none; fill: none; stroke: rgb(156, 39, 176); stroke-opacity: 1; stroke-width: 2px; opacity: 1;"/></g><g class="points"/><g class="text"/></g><g class="trace scatter trace8c5b9c" style="stroke-miterlimit: 2; opacity: 1;"><g class="fills"/><g class="errorbars"/><g class="lines"><path class="js-line" d="M0,256.5L66.58,256.5L69.9,247.5L73.23,184.5L76.56,220.5L79.89,157.5L83.22,175.5L86.55,211.5L89.88,184.5L93.21,202.5L96.53,175.5L99.86,220.5L103.19,166.5L106.52,184.5L109.85,121.5L113.18,121.5L116.51,130.5L119.84,85.5L123.16,130.5L126.49,58.5L129.82,76.5L133.15,121.5L136.48,67.5L139.81,112.5L143.14,139.5L146.47,76.5L149.79,76.5L153.12,85.5L156.45,31.5L159.78,76.5L163.11,85.5L166.44,85.5L169.77,58.5L173.1,85.5L176.42,76.5L179.75,85.5L183.08,103.5L186.41,40.5L189.74,58.5L193.07,76.5L196.4,49.5L199.73,76.5L203.05,49.5L206.38,58.5L209.71,40.5L213.04,58.5L216.37,67.5L219.7,67.5L223.03,40.5L226.36,67.5L229.68,49.5L233.01,94.5L236.34,76.5L239.67,76.5L243,94.5L246.33,67.5L249.66,49.5L252.99,40.5L256.32,58.5L259.64,76.5L262.97,76.5L266.3,58.5L269.63,67.5L272.96,58.5L276.29,67.5L279.62,67.5L282.95,49.5L286.27,58.5L289.6,76.5L302.92,40.5L306.25,85.5L309.58,76.5L312.9,76.5L316.23,94.5L319.56,31.5L322.89,94.5L326.22,85.5L329.55,67.5L332.88,76.5L336.21,76.5L339.53,31.5L342.86,76.5L346.19,22.5L349.52,76.5L352.85,76.5L356.18,40.5L359.51,85.5L366.16,31.5L369.49,58.5L372.82,58.5L376.15,67.5L379.48,85.5L382.81,49.5L386.14,31.5L389.47,85.5L392.79,67.5L396.12,58.5L399.45,76.5L402.78,76.5L406.11,85.5L409.44,76.5L412.77,31.5L416.1,94.5L419.42,58.5L422.75,76.5L426.08,67.5L429.41,40.5L432.74,67.5L436.07,49.5L439.4,76.5L442.73,85.5L446.05,58.5L449.38,49.5L452.71,13.5L456.04,67.5L459.37,49.5L462.7,76.5L466.03,94.5L469.36,58.5L472.68,67.5L476.01,67.5L482.67,49.5L486,85.5" style="vector-effect: none; fill: none; stroke: rgb(33, 150, 243); stroke-opacity: 1; stroke-width: 2px; opacity: 1;"/></g><g class="points"/><g class="text"/></g><g class="trace scatter traced58fdb" style="stroke-miterlimit: 2; opacity: 1;"><g class="fills"/><g class="errorbars"/><g class="lines"><path class="js-line" d="M0,256.5L46.6,256.5L49.93,247.5L56.59,247.5L59.92,256.5L63.25,238.5L66.58,247.5L73.23,229.5L76.56,256.5L79.89,229.5L83.22,220.5L86.55,229.5L89.88,247.5L93.21,247.5L96.53,256.5L99.86,247.5L103.19,229.5L106.52,247.5L109.85,247.5L119.84,247.5L123.16,238.5L126.49,247.5L129.82,247.5L133.15,220.5L136.48,256.5L139.81,256.5L143.14,247.5L149.79,247.5L153.12,256.5L156.45,256.5L159.78,247.5L169.77,247.5L173.1,256.5L176.42,247.5L179.75,247.5L183.08,247.5L186.41,238.5L189.74,229.5L193.07,256.5L196.4,247.5L199.73,247.5L203.05,229.5L206.38,247.5L213.04,247.5L216.37,256.5L219.7,256.5L223.03,247.5L226.36,256.5L229.68,256.5L233.01,238.5L236.34,247.5L239.67,247.5L243,256.5L272.96,256.5L276.29,247.5L279.62,256.5L282.95,256.5L389.47,256.5L392.79,247.5L396.12,256.5L399.45,256.5L409.44,256.5L412.77,247.5L416.1,256.5L419.42,247.5L422.75,256.5L426.08,256.5L462.7,256.5L466.03,247.5L469.36,247.5L472.68,256.5L476.01,256.5L479.34,247.5L482.67,256.5L486,256.5" style="vector-effect: none; fill: none; stroke: rgb(0, 150, 136); stroke-opacity: 1; stroke-width: 2px; opacity: 1;"/></g><g class="points"/><g class="text"/></g></g></g><g class="overplot"/><path class="xlines-above crisp" d="M79,370.5H566" style="fill: none; stroke-width: 1px; stroke: rgb(68, 68, 68); stroke-opacity: 1;"/><path class="ylines-above crisp" d="M79.5,100V370" style="fill: none; stroke-width: 1px; stroke: rgb(68, 68, 68); stroke-opacity: 1;"/><g class="overlines-above"/><g class="xaxislayer-above"><path class="xtick ticks crisp" d="M0,371v5" transform="translate(243.11,0)" style="stroke: rgb(68, 68, 68); stroke-opacity: 1; stroke-width: 1px;"/><path class="xtick ticks crisp" d="M0,371v5" transform="translate(409.55,0)" style="stroke: rgb(68, 68, 68); stroke-opacity: 1; stroke-width: 1px;"/><g class="xtick"><text text-anchor="middle" x="0" y="390.4" transform="translate(243.11,0)" style="font-family: 'Open Sans', verdana, arial, sans-serif; font-size: 12px; fill: rgb(68, 68, 68); fill-opacity: 1; white-space: pre; opacity: 1;">50</text></g><g class="xtick"><text text-anchor="middle" x="0" y="390.4" style="font-family: 'Open Sans', verdana, arial, sans-serif; font-size: 12px; fill: rgb(68, 68, 68); fill-opacity: 1; white-space: pre; opacity: 1;" transform="translate(409.55,0)">100</text></g></g><g class="yaxislayer-above"><path class="ytick ticks crisp" d="M79,0h-5" transform="translate(0,356.5)" style="stroke: rgb(68, 68, 68); stroke-opacity: 1; stroke-width: 1px;"/><path class="ytick ticks crisp" d="M79,0h-5" transform="translate(0,311.5)" style="stroke: rgb(68, 68, 68); stroke-opacity: 1; stroke-width: 1px;"/><path class="ytick ticks crisp" d="M79,0h-5" transform="translate(0,266.5)" style="stroke: rgb(68, 68, 68); stroke-opacity: 1; stroke-width: 1px;"/><path class="ytick ticks crisp" d="M79,0h-5" transform="translate(0,221.5)" style="stroke: rgb(68, 68, 68); stroke-opacity: 1; stroke-width: 1px;"/><path class="ytick ticks crisp" d="M79,0h-5" transform="translate(0,176.5)" style="stroke: rgb(68, 68, 68); stroke-opacity: 1; stroke-width: 1px;"/><path class="ytick ticks crisp" d="M79,0h-5" transform="translate(0,131.5)" style="stroke: rgb(68, 68, 68); stroke-opacity: 1; stroke-width: 1px;"/><g class="ytick"><text text-anchor="end" x="71.6" y="4.199999999999999" transform="translate(0,356.5)" style="font-family: 'Open Sans', verdana, arial, sans-serif; font-size: 12px; fill: rgb(68, 68, 68); fill-opacity: 1; white-space: pre; opacity: 1;">0</text></g><g class="ytick"><text text-anchor="end" x="71.6" y="4.199999999999999" style="font-family: 'Open Sans', verdana, arial, sans-serif; font-size: 12px; fill: rgb(68, 68, 68); fill-opacity: 1; white-space: pre; opacity: 1;" transform="translate(0,311.5)">5</text></g><g class="ytick"><text text-anchor="end" x="71.6" y="4.199999999999999" style="font-family: 'Open Sans', verdana, arial, sans-serif; font-size: 12px; fill: rgb(68, 68, 68); fill-opacity: 1; white-space: pre; opacity: 1;" transform="translate(0,266.5)">10</text></g><g class="ytick"><text text-anchor="end" x="71.6" y="4.199999999999999" style="font-family: 'Open Sans', verdana, arial, sans-serif; font-size: 12px; fill: rgb(68, 68, 68); fill-opacity: 1; white-space: pre; opacity: 1;" transform="translate(0,221.5)">15</text></g><g class="ytick"><text text-anchor="end" x="71.6" y="4.199999999999999" style="font-family: 'Open Sans', verdana, arial, sans-serif; font-size: 12px; fill: rgb(68, 68, 68); fill-opacity: 1; white-space: pre; opacity: 1;" transform="translate(0,176.5)">20</text></g><g class="ytick"><text text-anchor="end" x="71.6" y="4.199999999999999" style="font-family: 'Open Sans', verdana, arial, sans-serif; font-size: 12px; fill: rgb(68, 68, 68); fill-opacity: 1; white-space: pre; opacity: 1;" transform="translate(0,131.5)">25</text></g></g><g class="overaxes-above"/></g></g><g class="polarlayer"/><g class="smithlayer"/><g class="ternarylayer"/><g class="geolayer"/><g class="funnelarealayer"/><g class="pielayer"/><g class="iciclelayer"/><g class="treemaplayer"/><g class="sunburstlayer"/><g class="glimages"/><defs id="topdefs-79d60d"><g class="clips"/><clipPath id="legend79d60d"><rect width="112" height="67" x="0" y="0"/></clipPath></defs><g class="layer-above"><g class="imagelayer"/><g class="shapelayer"/></g><g class="infolayer"><g class="legend" pointer-events="all" transform="translate(575.72,100)"><rect class="bg" shape-rendering="crispEdges" style="stroke: rgb(68, 68, 68); stroke-opacity: 1; fill: rgb(255, 255, 255); fill-opacity: 1; stroke-width: 0px;" width="112" height="67" x="0" y="0"/><g class="scrollbox" transform="" clip-path="url(#legend79d60d)"><g class="groups"><g class="traces" transform="translate(0,14.5)" style="opacity: 1;"><text class="legendtext" text-anchor="start" x="40" y="4.680000000000001" style="font-family: 'Open Sans', verdana, arial, sans-serif; font-size: 12px; fill: rgb(68, 68, 68); fill-opacity: 1; white-space: pre;">DQN+Reset</text><g class="layers" style="opacity: 1;"><g class="legendfill"/><g class="legendlines"><path class="js-line" d="M5,0h30" style="fill: none; stroke: rgb(156, 39, 176); stroke-opacity: 1; stroke-width: 2px;"/></g><g class="legendsymbols"><g class="legendpoints"/></g></g><rect class="legendtoggle" x="0" y="-9.5" width="106.8876953125" height="19" style="fill: rgb(0, 0, 0); fill-opacity: 0;"/></g><g class="traces" transform="translate(0,33.5)" style="opacity: 1;"><text class="legendtext" text-anchor="start" x="40" y="4.680000000000001" style="font-family: 'Open Sans', verdana, arial, sans-serif; font-size: 12px; fill: rgb(68, 68, 68); fill-opacity: 1; white-space: pre;">DQN</text><g class="layers" style="opacity: 1;"><g class="legendfill"/><g class="legendlines"><path class="js-line" d="M5,0h30" style="fill: none; stroke: rgb(33, 150, 243); stroke-opacity: 1; stroke-width: 2px;"/></g><g class="legendsymbols"><g class="legendpoints"/></g></g><rect class="legendtoggle" x="0" y="-9.5" width="106.8876953125" height="19" style="fill: rgb(0, 0, 0); fill-opacity: 0;"/></g><g class="traces" transform="translate(0,52.5)" style="opacity: 1;"><text class="legendtext" text-anchor="start" x="40" y="4.680000000000001" style="font-family: 'Open Sans', verdana, arial, sans-serif; font-size: 12px; fill: rgb(68, 68, 68); fill-opacity: 1; white-space: pre;">RDE</text><g class="layers" style="opacity: 1;"><g class="legendfill"/><g class="legendlines"><path class="js-line" d="M5,0h30" style="fill: none; stroke: rgb(0, 150, 136); stroke-opacity: 1; stroke-width: 2px;"/></g><g class="legendsymbols"><g class="legendpoints"/></g></g><rect class="legendtoggle" x="0" y="-9.5" width="106.8876953125" height="19" style="fill: rgb(0, 0, 0); fill-opacity: 0;"/></g></g></g><rect class="scrollbar" rx="20" ry="3" width="0" height="0" style="fill: rgb(128, 139, 164); fill-opacity: 1;" x="0" y="0"/></g><g class="g-gtitle"><text class="gtitle" x="350" y="50" text-anchor="middle" dy="0em" style="font-family: 'Open Sans', verdana, arial, sans-serif; font-size: 17px; fill: rgb(68, 68, 68); opacity: 1; font-weight: normal; white-space: pre;">Freeway-v4 for All Models (Replay Ratio=2)</text></g><g class="g-xtitle"><text class="xtitle" x="323" y="422" text-anchor="middle" style="font-family: 'Open Sans', verdana, arial, sans-serif; font-size: 14px; fill: rgb(68, 68, 68); opacity: 1; font-weight: normal; white-space: pre;">Episode Count</text></g><g class="g-ytitle"><text class="ytitle" transform="rotate(-90,42,235)" x="42" y="235" text-anchor="middle" style="font-family: 'Open Sans', verdana, arial, sans-serif; font-size: 14px; fill: rgb(68, 68, 68); opacity: 1; font-weight: normal; white-space: pre;">Episode Reward</text></g></g></svg>