<svg class="main-svg" xmlns="http://www.w3.org/2000/svg" xmlns:xlink="http://www.w3.org/1999/xlink" width="700" height="450" style="" viewBox="0 0 700 450"><rect x="0" y="0" width="700" height="450" style="fill: rgb(255, 255, 255); fill-opacity: 1;"/><defs id="defs-896108"><g class="clips"><clipPath id="clip896108xyplot" class="plotclip"><rect width="465" height="270"/></clipPath><clipPath class="axesclip" id="clip896108x"><rect x="80" y="0" width="465" height="450"/></clipPath><clipPath class="axesclip" id="clip896108y"><rect x="0" y="100" width="700" height="270"/></clipPath><clipPath class="axesclip" id="clip896108xy"><rect x="80" y="100" width="465" height="270"/></clipPath></g><g class="gradients"/><g class="patterns"/></defs><g class="bglayer"/><g class="layer-below"><g class="imagelayer"/><g class="shapelayer"/></g><g class="cartesianlayer"><g class="subplot xy"><g class="layer-subplot"><g class="shapelayer"/><g class="imagelayer"/></g><g class="minor-gridlayer"><g class="x"/><g class="y"/></g><g class="gridlayer"><g class="x"><path class="xgrid crisp" transform="translate(236.06,0)" d="M0,100v270" style="stroke: rgb(238, 238, 238); stroke-opacity: 1; stroke-width: 1px;"/><path class="xgrid crisp" transform="translate(395.31,0)" d="M0,100v270" style="stroke: rgb(238, 238, 238); stroke-opacity: 1; stroke-width: 1px;"/></g><g class="y"><path class="ygrid crisp" transform="translate(0,309.77)" d="M80,0h465" style="stroke: rgb(238, 238, 238); stroke-opacity: 1; stroke-width: 1px;"/><path class="ygrid crisp" transform="translate(0,263.03999999999996)" d="M80,0h465" style="stroke: rgb(238, 238, 238); stroke-opacity: 1; stroke-width: 1px;"/><path class="ygrid crisp" transform="translate(0,216.31)" d="M80,0h465" style="stroke: rgb(238, 238, 238); stroke-opacity: 1; stroke-width: 1px;"/><path class="ygrid crisp" transform="translate(0,169.57999999999998)" d="M80,0h465" style="stroke: rgb(238, 238, 238); stroke-opacity: 1; stroke-width: 1px;"/><path class="ygrid crisp" transform="translate(0,122.85)" d="M80,0h465" style="stroke: rgb(238, 238, 238); stroke-opacity: 1; stroke-width: 1px;"/></g></g><g class="zerolinelayer"><path class="yzl zl crisp" transform="translate(0,356.5)" d="M80,0h465" style="stroke: rgb(68, 68, 68); stroke-opacity: 1; stroke-width: 1px;"/></g><path class="xlines-below"/><path class="ylines-below"/><g class="overlines-below"/><g class="xaxislayer-below"/><g class="yaxislayer-below"/><g class="overaxes-below"/><g class="plot" transform="translate(80,100)" clip-path="url(#clip896108xyplot)"><g class="scatterlayer mlayer"><g class="trace scatter trace6e3ce7" style="stroke-miterlimit: 2; opacity: 1;"><g class="fills"/><g class="errorbars"/><g class="lines"><path class="js-line" d="M0,256.5L60.51,256.5L63.7,237.81L66.88,200.42L70.07,181.73L73.25,172.38L76.44,144.35L82.81,88.27L85.99,135L89.18,153.69L92.36,116.31L95.55,125.65L98.73,97.62L101.92,116.31L105.1,97.62L108.29,116.31L111.47,125.65L114.66,153.69L117.84,144.35L121.03,172.38L124.21,125.65L127.4,125.65L130.58,106.96L136.95,106.96L140.14,116.31L146.51,116.31L149.69,125.65L152.88,144.35L156.06,135L159.25,125.65L162.43,135L165.62,125.65L168.8,144.35L171.99,153.69L175.17,144.35L178.36,135L181.54,106.96L184.73,163.04L187.91,125.65L191.1,135L194.28,125.65L197.47,125.65L200.65,191.08L203.84,116.31L207.02,144.35L210.21,116.31L213.39,106.96L216.58,144.35L219.76,153.69L222.95,163.04L226.13,163.04L229.32,144.35L232.5,106.96L235.68,172.38L238.87,163.04L242.05,144.35L245.24,135L248.42,153.69L251.61,135L254.79,200.42L257.98,172.38L261.16,153.69L264.35,153.69L267.53,125.65L270.72,135L273.9,125.65L277.09,172.38L280.27,125.65L283.46,163.04L286.64,144.35L289.83,144.35L293.01,125.65L296.2,135L302.57,172.38L305.75,163.04L308.94,125.65L312.12,172.38L315.31,200.42L318.49,153.69L321.68,153.69L324.86,144.35L328.05,181.73L331.23,172.38L334.42,181.73L337.6,153.69L340.79,125.65L343.97,191.08L347.16,144.35L350.34,153.69L353.53,144.35L356.71,172.38L359.9,153.69L363.08,144.35L366.27,172.38L369.45,163.04L372.64,144.35L375.82,135L379.01,209.77L382.19,135L385.38,181.73L388.56,200.42L391.75,181.73L394.93,172.38L398.12,172.38L401.3,163.04L404.49,181.73L407.67,163.04L410.86,172.38L414.04,191.08L417.23,172.38L420.41,181.73L423.6,153.69L426.78,200.42L429.97,200.42L433.15,209.77L436.34,228.46L439.52,209.77L442.71,209.77L445.89,228.46L449.08,219.12L452.26,237.81L455.45,191.08L458.63,237.81L461.82,256.5L465,247.15" style="vector-effect: none; fill: none; stroke: rgb(156, 39, 176); stroke-opacity: 1; stroke-width: 2px; opacity: 1;"/></g><g class="points"/><g class="text"/></g><g class="trace scatter trace8a75e6" style="stroke-miterlimit: 2; opacity: 1;"><g class="fills"/><g class="errorbars"/><g class="lines"><path class="js-line" d="M0,256.5L3.18,247.15L6.37,256.5L19.11,256.5L22.29,247.15L25.48,256.5L28.66,256.5L47.77,256.5L50.96,247.15L54.14,247.15L57.33,256.5L60.51,256.5L63.7,247.15L66.88,256.5L70.07,237.81L73.25,247.15L76.44,237.81L82.81,256.5L85.99,256.5L89.18,256.5L92.36,228.46L95.55,247.15L98.73,256.5L101.92,191.08L105.1,32.19L108.29,69.58L111.47,69.58L114.66,69.58L117.84,50.88L121.03,60.23L124.21,50.88L127.4,78.92L130.58,22.85L133.77,50.88L136.95,60.23L140.14,41.54L143.32,78.92L146.51,60.23L149.69,22.85L152.88,13.5L156.06,69.58L162.43,32.19L165.62,78.92L168.8,13.5L171.99,69.58L175.17,60.23L178.36,32.19L181.54,50.88L184.73,50.88L187.91,256.5L191.1,256.5L194.28,247.15L197.47,209.77L200.65,228.46L203.84,200.42L207.02,163.04L210.21,181.73L213.39,181.73L216.58,200.42L219.76,144.35L222.95,163.04L226.13,135L229.32,256.5L232.5,219.12L235.68,172.38L238.87,181.73L242.05,153.69L245.24,191.08L248.42,200.42L254.79,144.35L257.98,153.69L261.16,135L264.35,97.62L267.53,172.38L270.72,135L273.9,106.96L277.09,106.96L280.27,125.65L283.46,116.31L286.64,116.31L289.83,144.35L293.01,97.62L296.2,116.31L299.38,125.65L302.57,106.96L305.75,106.96L308.94,125.65L312.12,106.96L315.31,144.35L318.49,116.31L321.68,78.92L324.86,97.62L328.05,125.65L331.23,97.62L334.42,153.69L337.6,88.27L340.79,106.96L343.97,88.27L347.16,78.92L350.34,78.92L353.53,88.27L359.9,106.96L363.08,88.27L366.27,97.62L369.45,88.27L372.64,135L375.82,256.5L385.38,256.5L388.56,247.15L391.75,237.81L394.93,209.77L398.12,228.46L401.3,209.77L404.49,153.69L407.67,181.73L410.86,256.5L414.04,172.38L417.23,172.38L420.41,144.35L423.6,106.96L426.78,135L429.97,125.65L433.15,135L436.34,144.35L439.52,116.31L442.71,97.62L445.89,135L449.08,153.69L452.26,97.62L455.45,69.58L458.63,97.62L461.82,106.96L465,106.96" style="vector-effect: none; fill: none; stroke: rgb(33, 150, 243); stroke-opacity: 1; stroke-width: 2px; opacity: 1;"/></g><g class="points"/><g class="text"/></g><g class="trace scatter tracea112f5" style="stroke-miterlimit: 2; opacity: 1;"><g class="fills"/><g class="errorbars"/><g class="lines"><path class="js-line" d="M0,256.5L3.18,256.5L6.37,247.15L9.55,247.15L12.74,228.46L15.92,247.15L19.11,256.5L22.29,256.5L25.48,247.15L28.66,237.81L31.85,247.15L35.03,219.12L38.22,237.81L41.4,237.81L44.59,228.46L47.77,247.15L50.96,237.81L54.14,237.81L57.33,191.08L60.51,209.77L63.7,219.12L66.88,209.77L70.07,228.46L73.25,247.15L76.44,172.38L79.62,163.04L82.81,181.73L85.99,209.77L89.18,209.77L92.36,247.15L95.55,209.77L98.73,200.42L101.92,200.42L105.1,200.42L108.29,163.04L111.47,172.38L114.66,209.77L117.84,237.81L121.03,219.12L124.21,237.81L127.4,228.46L130.58,237.81L133.77,237.81L136.95,247.15L140.14,209.77L143.32,191.08L146.51,181.73L149.69,163.04L152.88,181.73L156.06,153.69L159.25,191.08L162.43,172.38L165.62,172.38L168.8,144.35L171.99,125.65L175.17,172.38L178.36,144.35L181.54,144.35L184.73,163.04L187.91,135L191.1,125.65L194.28,135L197.47,116.31L200.65,97.62L203.84,88.27L207.02,125.65L210.21,106.96L213.39,125.65L216.58,88.27L219.76,69.58L222.95,88.27L226.13,88.27L229.32,97.62L232.5,78.92L235.68,50.88L238.87,78.92L242.05,69.58L245.24,135L248.42,88.27L251.61,88.27L254.79,60.23L257.98,88.27L261.16,41.54L264.35,69.58L267.53,69.58L270.72,50.88L273.9,50.88L277.09,78.92L280.27,97.62L283.46,60.23L286.64,69.58L289.83,60.23L293.01,78.92L296.2,97.62L299.38,50.88L302.57,125.65L305.75,88.27L308.94,60.23L312.12,69.58L315.31,69.58L318.49,88.27L321.68,60.23L324.86,60.23L328.05,60.23L331.23,97.62L337.6,60.23L340.79,88.27L343.97,60.23L347.16,41.54L356.71,97.62L359.9,78.92L363.08,50.88L366.27,69.58L369.45,69.58L372.64,41.54L375.82,69.58L379.01,78.92L382.19,50.88L385.38,78.92L391.75,60.23L394.93,32.19L398.12,88.27L401.3,60.23L404.49,13.5L407.67,78.92L410.86,78.92L414.04,60.23L420.41,60.23L423.6,88.27L426.78,60.23L429.97,50.88L436.34,88.27L439.52,88.27L442.71,50.88L445.89,69.58L449.08,41.54L452.26,69.58L455.45,60.23L458.63,88.27L461.82,50.88L465,78.92" style="vector-effect: none; fill: none; stroke: rgb(0, 150, 136); stroke-opacity: 1; stroke-width: 2px; opacity: 1;"/></g><g class="points"/><g class="text"/></g></g></g><g class="overplot"/><path class="xlines-above crisp" d="M79,370.5H545" style="fill: none; stroke-width: 1px; stroke: rgb(68, 68, 68); stroke-opacity: 1;"/><path class="ylines-above crisp" d="M79.5,100V370" style="fill: none; stroke-width: 1px; stroke: rgb(68, 68, 68); stroke-opacity: 1;"/><g class="overlines-above"/><g class="xaxislayer-above"><path class="xtick ticks crisp" d="M0,371v5" transform="translate(236.06,0)" style="stroke: rgb(68, 68, 68); stroke-opacity: 1; stroke-width: 1px;"/><path class="xtick ticks crisp" d="M0,371v5" transform="translate(395.31,0)" style="stroke: rgb(68, 68, 68); stroke-opacity: 1; stroke-width: 1px;"/><g class="xtick"><text text-anchor="middle" x="0" y="390.4" transform="translate(236.06,0)" style="font-family: 'Open Sans', verdana, arial, sans-serif; font-size: 12px; fill: rgb(68, 68, 68); fill-opacity: 1; white-space: pre; opacity: 1;">50</text></g><g class="xtick"><text text-anchor="middle" x="0" y="390.4" style="font-family: 'Open Sans', verdana, arial, sans-serif; font-size: 12px; fill: rgb(68, 68, 68); fill-opacity: 1; white-space: pre; opacity: 1;" transform="translate(395.31,0)">100</text></g></g><g class="yaxislayer-above"><path class="ytick ticks crisp" d="M79,0h-5" transform="translate(0,356.5)" style="stroke: rgb(68, 68, 68); stroke-opacity: 1; stroke-width: 1px;"/><path class="ytick ticks crisp" d="M79,0h-5" transform="translate(0,309.77)" style="stroke: rgb(68, 68, 68); stroke-opacity: 1; stroke-width: 1px;"/><path class="ytick ticks crisp" d="M79,0h-5" transform="translate(0,263.03999999999996)" style="stroke: rgb(68, 68, 68); stroke-opacity: 1; stroke-width: 1px;"/><path class="ytick ticks crisp" d="M79,0h-5" transform="translate(0,216.31)" style="stroke: rgb(68, 68, 68); stroke-opacity: 1; stroke-width: 1px;"/><path class="ytick ticks crisp" d="M79,0h-5" transform="translate(0,169.57999999999998)" style="stroke: rgb(68, 68, 68); stroke-opacity: 1; stroke-width: 1px;"/><path class="ytick ticks crisp" d="M79,0h-5" transform="translate(0,122.85)" style="stroke: rgb(68, 68, 68); stroke-opacity: 1; stroke-width: 1px;"/><g class="ytick"><text text-anchor="end" x="71.6" y="4.199999999999999" transform="translate(0,356.5)" style="font-family: 'Open Sans', verdana, arial, sans-serif; font-size: 12px; fill: rgb(68, 68, 68); fill-opacity: 1; white-space: pre; opacity: 1;">0</text></g><g class="ytick"><text text-anchor="end" x="71.6" y="4.199999999999999" style="font-family: 'Open Sans', verdana, arial, sans-serif; font-size: 12px; fill: rgb(68, 68, 68); fill-opacity: 1; white-space: pre; opacity: 1;" transform="translate(0,309.77)">5</text></g><g class="ytick"><text text-anchor="end" x="71.6" y="4.199999999999999" style="font-family: 'Open Sans', verdana, arial, sans-serif; font-size: 12px; fill: rgb(68, 68, 68); fill-opacity: 1; white-space: pre; opacity: 1;" transform="translate(0,263.03999999999996)">10</text></g><g class="ytick"><text text-anchor="end" x="71.6" y="4.199999999999999" style="font-family: 'Open Sans', verdana, arial, sans-serif; font-size: 12px; fill: rgb(68, 68, 68); fill-opacity: 1; white-space: pre; opacity: 1;" transform="translate(0,216.31)">15</text></g><g class="ytick"><text text-anchor="end" x="71.6" y="4.199999999999999" style="font-family: 'Open Sans', verdana, arial, sans-serif; font-size: 12px; fill: rgb(68, 68, 68); fill-opacity: 1; white-space: pre; opacity: 1;" transform="translate(0,169.57999999999998)">20</text></g><g class="ytick"><text text-anchor="end" x="71.6" y="4.199999999999999" style="font-family: 'Open Sans', verdana, arial, sans-serif; font-size: 12px; fill: rgb(68, 68, 68); fill-opacity: 1; white-space: pre; opacity: 1;" transform="translate(0,122.85)">25</text></g></g><g class="overaxes-above"/></g></g><g class="polarlayer"/><g class="smithlayer"/><g class="ternarylayer"/><g class="geolayer"/><g class="funnelarealayer"/><g class="pielayer"/><g class="iciclelayer"/><g class="treemaplayer"/><g class="sunburstlayer"/><g class="glimages"/><defs id="topdefs-896108"><g class="clips"/><clipPath id="legend896108"><rect width="134" height="67" x="0" y="0"/></clipPath></defs><g class="layer-above"><g class="imagelayer"/><g class="shapelayer"/></g><g class="infolayer"><g class="legend" pointer-events="all" transform="translate(554.3,100)"><rect class="bg" shape-rendering="crispEdges" style="stroke: rgb(68, 68, 68); stroke-opacity: 1; fill: rgb(255, 255, 255); fill-opacity: 1; stroke-width: 0px;" width="134" height="67" x="0" y="0"/><g class="scrollbox" transform="" clip-path="url(#legend896108)"><g class="groups"><g class="traces" transform="translate(0,14.5)" style="opacity: 1;"><text class="legendtext" text-anchor="start" x="40" y="4.680000000000001" style="font-family: 'Open Sans', verdana, arial, sans-serif; font-size: 12px; fill: rgb(68, 68, 68); fill-opacity: 1; white-space: pre;">RDE</text><g class="layers" style="opacity: 1;"><g class="legendfill"/><g class="legendlines"><path class="js-line" d="M5,0h30" style="fill: none; stroke: rgb(156, 39, 176); stroke-opacity: 1; stroke-width: 2px;"/></g><g class="legendsymbols"><g class="legendpoints"/></g></g><rect class="legendtoggle" x="0" y="-9.5" width="128.638671875" height="19" style="fill: rgb(0, 0, 0); fill-opacity: 0;"/></g><g class="traces" transform="translate(0,33.5)" style="opacity: 1;"><text class="legendtext" text-anchor="start" x="40" y="4.680000000000001" style="font-family: 'Open Sans', verdana, arial, sans-serif; font-size: 12px; fill: rgb(68, 68, 68); fill-opacity: 1; white-space: pre;">DQN with Reset</text><g class="layers" style="opacity: 1;"><g class="legendfill"/><g class="legendlines"><path class="js-line" d="M5,0h30" style="fill: none; stroke: rgb(33, 150, 243); stroke-opacity: 1; stroke-width: 2px;"/></g><g class="legendsymbols"><g class="legendpoints"/></g></g><rect class="legendtoggle" x="0" y="-9.5" width="128.638671875" height="19" style="fill: rgb(0, 0, 0); fill-opacity: 0;"/></g><g class="traces" transform="translate(0,52.5)" style="opacity: 1;"><text class="legendtext" text-anchor="start" x="40" y="4.680000000000001" style="font-family: 'Open Sans', verdana, arial, sans-serif; font-size: 12px; fill: rgb(68, 68, 68); fill-opacity: 1; white-space: pre;">Vanilla DQN</text><g class="layers" style="opacity: 1;"><g class="legendfill"/><g class="legendlines"><path class="js-line" d="M5,0h30" style="fill: none; stroke: rgb(0, 150, 136); stroke-opacity: 1; stroke-width: 2px;"/></g><g class="legendsymbols"><g class="legendpoints"/></g></g><rect class="legendtoggle" x="0" y="-9.5" width="128.638671875" height="19" style="fill: rgb(0, 0, 0); fill-opacity: 0;"/></g></g></g><rect class="scrollbar" rx="20" ry="3" width="0" height="0" style="fill: rgb(128, 139, 164); fill-opacity: 1;" x="0" y="0"/></g><g class="g-gtitle"><text class="gtitle" x="350" y="50" text-anchor="middle" dy="0em" style="font-family: 'Open Sans', verdana, arial, sans-serif; font-size: 17px; fill: rgb(68, 68, 68); opacity: 1; font-weight: normal; white-space: pre;">Freeway-v4 for All Models (Replay Ratio = 1)</text></g><g class="g-xtitle"><text class="xtitle" x="312.5" y="422" text-anchor="middle" style="font-family: 'Open Sans', verdana, arial, sans-serif; font-size: 14px; fill: rgb(68, 68, 68); opacity: 1; font-weight: normal; white-space: pre;">Episode Count</text></g><g class="g-ytitle"><text class="ytitle" transform="rotate(-90,42,235)" x="42" y="235" text-anchor="middle" style="font-family: 'Open Sans', verdana, arial, sans-serif; font-size: 14px; fill: rgb(68, 68, 68); opacity: 1; font-weight: normal; white-space: pre;">Episode Reward</text></g></g></svg>