<svg class="main-svg" xmlns="http://www.w3.org/2000/svg" xmlns:xlink="http://www.w3.org/1999/xlink" width="700" height="450" style="" viewBox="0 0 700 450"><rect x="0" y="0" width="700" height="450" style="fill: rgb(255, 255, 255); fill-opacity: 1;"/><defs id="defs-b17efe"><g class="clips"><clipPath id="clipb17efexyplot" class="plotclip"><rect width="462" height="270"/></clipPath><clipPath class="axesclip" id="clipb17efex"><rect x="80" y="0" width="462" height="450"/></clipPath><clipPath class="axesclip" id="clipb17efey"><rect x="0" y="100" width="700" height="270"/></clipPath><clipPath class="axesclip" id="clipb17efexy"><rect x="80" y="100" width="462" height="270"/></clipPath></g><g class="gradients"/><g class="patterns"/></defs><g class="bglayer"/><g class="layer-below"><g class="imagelayer"/><g class="shapelayer"/></g><g class="cartesianlayer"><g class="subplot xy"><g class="layer-subplot"><g class="shapelayer"/><g class="imagelayer"/></g><g class="minor-gridlayer"><g class="x"/><g class="y"/></g><g class="gridlayer"><g class="x"><path class="xgrid crisp" transform="translate(235.05,0)" d="M0,100v270" style="stroke: rgb(238, 238, 238); stroke-opacity: 1; stroke-width: 1px;"/><path class="xgrid crisp" transform="translate(393.27,0)" d="M0,100v270" style="stroke: rgb(238, 238, 238); stroke-opacity: 1; stroke-width: 1px;"/></g><g class="y"><path class="ygrid crisp" transform="translate(0,309.77)" d="M80,0h462" style="stroke: rgb(238, 238, 238); stroke-opacity: 1; stroke-width: 1px;"/><path class="ygrid crisp" transform="translate(0,263.03999999999996)" d="M80,0h462" style="stroke: rgb(238, 238, 238); stroke-opacity: 1; stroke-width: 1px;"/><path class="ygrid crisp" transform="translate(0,216.31)" d="M80,0h462" style="stroke: rgb(238, 238, 238); stroke-opacity: 1; stroke-width: 1px;"/><path class="ygrid crisp" transform="translate(0,169.57999999999998)" d="M80,0h462" style="stroke: rgb(238, 238, 238); stroke-opacity: 1; stroke-width: 1px;"/><path class="ygrid crisp" transform="translate(0,122.85)" d="M80,0h462" style="stroke: rgb(238, 238, 238); stroke-opacity: 1; stroke-width: 1px;"/></g></g><g class="zerolinelayer"><path class="yzl zl crisp" transform="translate(0,356.5)" d="M80,0h462" style="stroke: rgb(68, 68, 68); stroke-opacity: 1; stroke-width: 1px;"/></g><path class="xlines-below"/><path class="ylines-below"/><g class="overlines-below"/><g class="xaxislayer-below"/><g class="yaxislayer-below"/><g class="overaxes-below"/><g class="plot" transform="translate(80,100)" clip-path="url(#clipb17efexyplot)"><g class="scatterlayer mlayer"><g class="trace scatter trace380f2a" style="stroke-miterlimit: 2; opacity: 1;"><g class="fills"/><g class="errorbars"/><g class="lines"><path class="js-line" d="M0,256.5L60.12,256.5L63.29,247.15L66.45,237.81L69.62,219.12L72.78,256.5L75.95,247.15L79.11,247.15L82.27,219.12L85.44,163.04L88.6,172.38L91.77,200.42L94.93,209.77L98.1,237.81L101.26,209.77L107.59,209.77L110.75,191.08L113.92,153.69L117.08,153.69L120.25,116.31L123.41,200.42L126.58,135L129.74,144.35L132.9,135L136.07,116.31L142.4,135L145.56,69.58L148.73,97.62L151.89,50.88L155.05,106.96L158.22,97.62L161.38,97.62L164.55,41.54L167.71,50.88L170.88,78.92L174.04,69.58L177.21,78.92L180.37,69.58L183.53,106.96L186.7,247.15L189.86,200.42L193.03,172.38L196.19,153.69L199.36,163.04L202.52,144.35L205.68,144.35L208.85,135L212.01,116.31L215.18,153.69L218.34,106.96L221.51,135L224.67,88.27L227.84,144.35L231,106.96L234.16,88.27L237.33,125.65L240.49,125.65L243.66,135L246.82,78.92L249.99,97.62L253.15,69.58L256.32,88.27L259.48,88.27L262.64,88.27L265.81,69.58L268.97,41.54L272.14,60.23L275.3,78.92L278.47,78.92L281.63,78.92L284.79,97.62L291.12,78.92L294.29,50.88L297.45,97.62L300.62,88.27L303.78,50.88L306.95,60.23L313.27,78.92L316.44,78.92L319.6,88.27L322.77,60.23L325.93,69.58L329.1,69.58L332.26,69.58L335.42,78.92L338.59,88.27L341.75,60.23L344.92,50.88L348.08,69.58L351.25,78.92L354.41,78.92L357.58,32.19L360.74,78.92L363.9,50.88L367.07,60.23L370.23,116.31L373.4,256.5L382.89,256.5L386.05,200.42L389.22,219.12L392.38,172.38L395.55,200.42L398.71,135L401.88,125.65L405.04,144.35L408.21,88.27L411.37,116.31L414.53,78.92L417.7,116.31L420.86,97.62L424.03,88.27L427.19,88.27L430.36,78.92L433.52,69.58L436.68,78.92L439.85,78.92L443.01,69.58L446.18,106.96L449.34,97.62L452.51,60.23L455.67,88.27L458.84,106.96L462,106.96" style="vector-effect: none; fill: none; stroke: rgb(156, 39, 176); stroke-opacity: 1; stroke-width: 2px; opacity: 1;"/></g><g class="points"/><g class="text"/></g><g class="trace scatter trace6cf436" style="stroke-miterlimit: 2; opacity: 1;"><g class="fills"/><g class="errorbars"/><g class="lines"><path class="js-line" d="M0,256.5L3.16,247.15L6.33,256.5L18.99,256.5L22.15,247.15L25.32,256.5L28.48,256.5L47.47,256.5L50.63,247.15L53.79,247.15L56.96,256.5L60.12,256.5L63.29,247.15L66.45,256.5L69.62,237.81L72.78,247.15L75.95,237.81L82.27,256.5L85.44,256.5L88.6,256.5L91.77,228.46L94.93,247.15L98.1,256.5L101.26,191.08L104.42,32.19L107.59,69.58L110.75,69.58L113.92,69.58L117.08,50.88L120.25,60.23L123.41,50.88L126.58,78.92L129.74,22.85L132.9,50.88L136.07,60.23L139.23,41.54L142.4,78.92L145.56,60.23L148.73,22.85L151.89,13.5L155.05,69.58L161.38,32.19L164.55,78.92L167.71,13.5L170.88,69.58L174.04,60.23L177.21,32.19L180.37,50.88L183.53,50.88L186.7,256.5L189.86,256.5L193.03,247.15L196.19,209.77L199.36,228.46L202.52,200.42L205.68,163.04L208.85,181.73L212.01,181.73L215.18,200.42L218.34,144.35L221.51,163.04L224.67,135L227.84,256.5L231,219.12L234.16,172.38L237.33,181.73L240.49,153.69L243.66,191.08L246.82,200.42L253.15,144.35L256.32,153.69L259.48,135L262.64,97.62L265.81,172.38L268.97,135L272.14,106.96L275.3,106.96L278.47,125.65L281.63,116.31L284.79,116.31L287.96,144.35L291.12,97.62L294.29,116.31L297.45,125.65L300.62,106.96L303.78,106.96L306.95,125.65L310.11,106.96L313.27,144.35L316.44,116.31L319.6,78.92L322.77,97.62L325.93,125.65L329.1,97.62L332.26,153.69L335.42,88.27L338.59,106.96L341.75,88.27L344.92,78.92L348.08,78.92L351.25,88.27L357.58,106.96L360.74,88.27L363.9,97.62L367.07,88.27L370.23,135L373.4,256.5L382.89,256.5L386.05,247.15L389.22,237.81L392.38,209.77L395.55,228.46L398.71,209.77L401.88,153.69L405.04,181.73L408.21,256.5L411.37,172.38L414.53,172.38L417.7,144.35L420.86,106.96L424.03,135L427.19,125.65L430.36,135L433.52,144.35L436.68,116.31L439.85,97.62L443.01,135L446.18,153.69L449.34,97.62L452.51,69.58L455.67,97.62L458.84,106.96L462,106.96" style="vector-effect: none; fill: none; stroke: rgb(33, 150, 243); stroke-opacity: 1; stroke-width: 2px; opacity: 1;"/></g><g class="points"/><g class="text"/></g><g class="trace scatter trace7e1596" style="stroke-miterlimit: 2; opacity: 1;"><g class="fills"/><g class="errorbars"/><g class="lines"><path class="js-line" d="M0,256.5L88.6,256.5L91.77,247.15L94.93,256.5L98.1,256.5L101.26,256.5L104.42,247.15L107.59,256.5L110.75,106.96L113.92,69.58L117.08,116.31L120.25,50.88L123.41,69.58L126.58,78.92L129.74,60.23L132.9,60.23L136.07,78.92L139.23,32.19L142.4,22.85L145.56,41.54L148.73,32.19L151.89,13.5L155.05,69.58L158.22,60.23L161.38,32.19L164.55,69.58L167.71,32.19L170.88,50.88L174.04,22.85L177.21,32.19L180.37,50.88L183.53,88.27L186.7,228.46L189.86,209.77L193.03,181.73L196.19,125.65L199.36,135L202.52,172.38L205.68,135L208.85,106.96L212.01,116.31L215.18,125.65L218.34,116.31L221.51,97.62L224.67,69.58L227.84,97.62L231,69.58L234.16,88.27L237.33,60.23L240.49,69.58L243.66,88.27L249.99,32.19L253.15,69.58L256.32,60.23L259.48,88.27L262.64,69.58L265.81,41.54L268.97,50.88L272.14,50.88L275.3,69.58L278.47,41.54L281.63,60.23L284.79,69.58L291.12,50.88L294.29,69.58L297.45,22.85L300.62,50.88L303.78,41.54L306.95,50.88L310.11,50.88L313.27,60.23L316.44,60.23L319.6,50.88L322.77,22.85L325.93,69.58L329.1,41.54L332.26,22.85L335.42,69.58L338.59,69.58L341.75,41.54L344.92,41.54L348.08,50.88L351.25,50.88L354.41,32.19L357.58,78.92L360.74,60.23L363.9,69.58L367.07,41.54L370.23,78.92L373.4,256.5L376.56,219.12L382.89,144.35L386.05,135L392.38,116.31L395.55,88.27L398.71,88.27L401.88,69.58L405.04,78.92L408.21,60.23L411.37,88.27L414.53,50.88L417.7,69.58L420.86,50.88L424.03,32.19L427.19,60.23L433.52,41.54L436.68,50.88L443.01,50.88L446.18,69.58L449.34,60.23L452.51,69.58L458.84,50.88L462,60.23" style="vector-effect: none; fill: none; stroke: rgb(0, 150, 136); stroke-opacity: 1; stroke-width: 2px; opacity: 1;"/></g><g class="points"/><g class="text"/></g></g></g><g class="overplot"/><path class="xlines-above crisp" d="M79,370.5H542" style="fill: none; stroke-width: 1px; stroke: rgb(68, 68, 68); stroke-opacity: 1;"/><path class="ylines-above crisp" d="M79.5,100V370" style="fill: none; stroke-width: 1px; stroke: rgb(68, 68, 68); stroke-opacity: 1;"/><g class="overlines-above"/><g class="xaxislayer-above"><path class="xtick ticks crisp" d="M0,371v5" transform="translate(235.05,0)" style="stroke: rgb(68, 68, 68); stroke-opacity: 1; stroke-width: 1px;"/><path class="xtick ticks crisp" d="M0,371v5" transform="translate(393.27,0)" style="stroke: rgb(68, 68, 68); stroke-opacity: 1; stroke-width: 1px;"/><g class="xtick"><text text-anchor="middle" x="0" y="390.4" transform="translate(235.05,0)" style="font-family: 'Open Sans', verdana, arial, sans-serif; font-size: 12px; fill: rgb(68, 68, 68); fill-opacity: 1; white-space: pre; opacity: 1;">50</text></g><g class="xtick"><text text-anchor="middle" x="0" y="390.4" style="font-family: 'Open Sans', verdana, arial, sans-serif; font-size: 12px; fill: rgb(68, 68, 68); fill-opacity: 1; white-space: pre; opacity: 1;" transform="translate(393.27,0)">100</text></g></g><g class="yaxislayer-above"><path class="ytick ticks crisp" d="M79,0h-5" transform="translate(0,356.5)" style="stroke: rgb(68, 68, 68); stroke-opacity: 1; stroke-width: 1px;"/><path class="ytick ticks crisp" d="M79,0h-5" transform="translate(0,309.77)" style="stroke: rgb(68, 68, 68); stroke-opacity: 1; stroke-width: 1px;"/><path class="ytick ticks crisp" d="M79,0h-5" transform="translate(0,263.03999999999996)" style="stroke: rgb(68, 68, 68); stroke-opacity: 1; stroke-width: 1px;"/><path class="ytick ticks crisp" d="M79,0h-5" transform="translate(0,216.31)" style="stroke: rgb(68, 68, 68); stroke-opacity: 1; stroke-width: 1px;"/><path class="ytick ticks crisp" d="M79,0h-5" transform="translate(0,169.57999999999998)" style="stroke: rgb(68, 68, 68); stroke-opacity: 1; stroke-width: 1px;"/><path class="ytick ticks crisp" d="M79,0h-5" transform="translate(0,122.85)" style="stroke: rgb(68, 68, 68); stroke-opacity: 1; stroke-width: 1px;"/><g class="ytick"><text text-anchor="end" x="71.6" y="4.199999999999999" transform="translate(0,356.5)" style="font-family: 'Open Sans', verdana, arial, sans-serif; font-size: 12px; fill: rgb(68, 68, 68); fill-opacity: 1; white-space: pre; opacity: 1;">0</text></g><g class="ytick"><text text-anchor="end" x="71.6" y="4.199999999999999" style="font-family: 'Open Sans', verdana, arial, sans-serif; font-size: 12px; fill: rgb(68, 68, 68); fill-opacity: 1; white-space: pre; opacity: 1;" transform="translate(0,309.77)">5</text></g><g class="ytick"><text text-anchor="end" x="71.6" y="4.199999999999999" style="font-family: 'Open Sans', verdana, arial, sans-serif; font-size: 12px; fill: rgb(68, 68, 68); fill-opacity: 1; white-space: pre; opacity: 1;" transform="translate(0,263.03999999999996)">10</text></g><g class="ytick"><text text-anchor="end" x="71.6" y="4.199999999999999" style="font-family: 'Open Sans', verdana, arial, sans-serif; font-size: 12px; fill: rgb(68, 68, 68); fill-opacity: 1; white-space: pre; opacity: 1;" transform="translate(0,216.31)">15</text></g><g class="ytick"><text text-anchor="end" x="71.6" y="4.199999999999999" style="font-family: 'Open Sans', verdana, arial, sans-serif; font-size: 12px; fill: rgb(68, 68, 68); fill-opacity: 1; white-space: pre; opacity: 1;" transform="translate(0,169.57999999999998)">20</text></g><g class="ytick"><text text-anchor="end" x="71.6" y="4.199999999999999" style="font-family: 'Open Sans', verdana, arial, sans-serif; font-size: 12px; fill: rgb(68, 68, 68); fill-opacity: 1; white-space: pre; opacity: 1;" transform="translate(0,122.85)">25</text></g></g><g class="overaxes-above"/></g></g><g class="polarlayer"/><g class="smithlayer"/><g class="ternarylayer"/><g class="geolayer"/><g class="funnelarealayer"/><g class="pielayer"/><g class="iciclelayer"/><g class="treemaplayer"/><g class="sunburstlayer"/><g class="glimages"/><defs id="topdefs-b17efe"><g class="clips"/><clipPath id="legendb17efe"><rect width="137" height="67" x="0" y="0"/></clipPath></defs><g class="layer-above"><g class="imagelayer"/><g class="shapelayer"/></g><g class="infolayer"><g class="legend" pointer-events="all" transform="translate(551.24,100)"><rect class="bg" shape-rendering="crispEdges" width="137" height="67" x="0" y="0" style="stroke: rgb(68, 68, 68); stroke-opacity: 1; fill: rgb(255, 255, 255); fill-opacity: 1; stroke-width: 0px;"/><g class="scrollbox" transform="" clip-path="url(#legendb17efe)"><g class="groups"><g class="traces" transform="translate(0,14.5)" style="opacity: 1;"><text class="legendtext" text-anchor="start" x="40" y="4.680000000000001" style="font-family: 'Open Sans', verdana, arial, sans-serif; font-size: 12px; fill: rgb(68, 68, 68); fill-opacity: 1; white-space: pre;">Replay Ratio = 2</text><g class="layers" style="opacity: 1;"><g class="legendfill"/><g class="legendlines"><path class="js-line" d="M5,0h30" style="fill: none; stroke: rgb(156, 39, 176); stroke-opacity: 1; stroke-width: 2px;"/></g><g class="legendsymbols"><g class="legendpoints"/></g></g><rect class="legendtoggle" x="0" y="-9.5" width="131.6279296875" height="19" style="fill: rgb(0, 0, 0); fill-opacity: 0;"/></g><g class="traces" transform="translate(0,33.5)" style="opacity: 1;"><text class="legendtext" text-anchor="start" x="40" y="4.680000000000001" style="font-family: 'Open Sans', verdana, arial, sans-serif; font-size: 12px; fill: rgb(68, 68, 68); fill-opacity: 1; white-space: pre;">Replay Ratio = 1</text><g class="layers" style="opacity: 1;"><g class="legendfill"/><g class="legendlines"><path class="js-line" d="M5,0h30" style="fill: none; stroke: rgb(33, 150, 243); stroke-opacity: 1; stroke-width: 2px;"/></g><g class="legendsymbols"><g class="legendpoints"/></g></g><rect class="legendtoggle" x="0" y="-9.5" width="131.6279296875" height="19" style="fill: rgb(0, 0, 0); fill-opacity: 0;"/></g><g class="traces" transform="translate(0,52.5)" style="opacity: 1;"><text class="legendtext" text-anchor="start" x="40" y="4.680000000000001" style="font-family: 'Open Sans', verdana, arial, sans-serif; font-size: 12px; fill: rgb(68, 68, 68); fill-opacity: 1; white-space: pre;">Replay Ratio = 4</text><g class="layers" style="opacity: 1;"><g class="legendfill"/><g class="legendlines"><path class="js-line" d="M5,0h30" style="fill: none; stroke: rgb(0, 150, 136); stroke-opacity: 1; stroke-width: 2px;"/></g><g class="legendsymbols"><g class="legendpoints"/></g></g><rect class="legendtoggle" x="0" y="-9.5" width="131.6279296875" height="19" style="fill: rgb(0, 0, 0); fill-opacity: 0;"/></g></g></g><rect class="scrollbar" rx="20" ry="3" width="0" height="0" x="0" y="0" style="fill: rgb(128, 139, 164); fill-opacity: 1;"/></g><g class="g-gtitle"><text class="gtitle" x="350" y="50" text-anchor="middle" dy="0em" style="font-family: 'Open Sans', verdana, arial, sans-serif; font-size: 17px; fill: rgb(68, 68, 68); opacity: 1; font-weight: normal; white-space: pre;">SR+DQN on Freeway-v4</text></g><g class="g-xtitle"><text class="xtitle" x="311" y="422" text-anchor="middle" style="font-family: 'Open Sans', verdana, arial, sans-serif; font-size: 14px; fill: rgb(68, 68, 68); opacity: 1; font-weight: normal; white-space: pre;">Episode Count</text></g><g class="g-ytitle"><text class="ytitle" transform="rotate(-90,42,235)" x="42" y="235" text-anchor="middle" style="font-family: 'Open Sans', verdana, arial, sans-serif; font-size: 14px; fill: rgb(68, 68, 68); opacity: 1; font-weight: normal; white-space: pre;">Episode Reward</text></g></g></svg>