<svg class="main-svg" xmlns="http://www.w3.org/2000/svg" xmlns:xlink="http://www.w3.org/1999/xlink" width="700" height="450" style="" viewBox="0 0 700 450"><rect x="0" y="0" width="700" height="450" style="fill: rgb(255, 255, 255); fill-opacity: 1;"/><defs id="defs-080432"><g class="clips"><clipPath id="clip080432xyplot" class="plotclip"><rect width="462" height="270"/></clipPath><clipPath class="axesclip" id="clip080432x"><rect x="80" y="0" width="462" height="450"/></clipPath><clipPath class="axesclip" id="clip080432y"><rect x="0" y="100" width="700" height="270"/></clipPath><clipPath class="axesclip" id="clip080432xy"><rect x="80" y="100" width="462" height="270"/></clipPath></g><g class="gradients"/><g class="patterns"/></defs><g class="bglayer"/><g class="layer-below"><g class="imagelayer"/><g class="shapelayer"/></g><g class="cartesianlayer"><g class="subplot xy"><g class="layer-subplot"><g class="shapelayer"/><g class="imagelayer"/></g><g class="minor-gridlayer"><g class="x"/><g class="y"/></g><g class="gridlayer"><g class="x"><path class="xgrid crisp" transform="translate(235.05,0)" d="M0,100v270" style="stroke: rgb(238, 238, 238); stroke-opacity: 1; stroke-width: 1px;"/><path class="xgrid crisp" transform="translate(393.27,0)" d="M0,100v270" style="stroke: rgb(238, 238, 238); stroke-opacity: 1; stroke-width: 1px;"/></g><g class="y"><path class="ygrid crisp" transform="translate(0,314.6)" d="M80,0h462" style="stroke: rgb(238, 238, 238); stroke-opacity: 1; stroke-width: 1px;"/><path class="ygrid crisp" transform="translate(0,272.71000000000004)" d="M80,0h462" style="stroke: rgb(238, 238, 238); stroke-opacity: 1; stroke-width: 1px;"/><path class="ygrid crisp" transform="translate(0,230.81)" d="M80,0h462" style="stroke: rgb(238, 238, 238); stroke-opacity: 1; stroke-width: 1px;"/><path class="ygrid crisp" transform="translate(0,188.91)" d="M80,0h462" style="stroke: rgb(238, 238, 238); stroke-opacity: 1; stroke-width: 1px;"/><path class="ygrid crisp" transform="translate(0,147.02)" d="M80,0h462" style="stroke: rgb(238, 238, 238); stroke-opacity: 1; stroke-width: 1px;"/><path class="ygrid crisp" transform="translate(0,105.12)" d="M80,0h462" style="stroke: rgb(238, 238, 238); stroke-opacity: 1; stroke-width: 1px;"/></g></g><g class="zerolinelayer"><path class="yzl zl crisp" transform="translate(0,356.5)" d="M80,0h462" style="stroke: rgb(68, 68, 68); stroke-opacity: 1; stroke-width: 1px;"/></g><path class="xlines-below"/><path class="ylines-below"/><g class="overlines-below"/><g class="xaxislayer-below"/><g class="yaxislayer-below"/><g class="overaxes-below"/><g class="plot" transform="translate(80,100)" clip-path="url(#clip080432xyplot)"><g class="scatterlayer mlayer"><g class="trace scatter trace8c735b" style="stroke-miterlimit: 2; opacity: 1;"><g class="fills"/><g class="errorbars"/><g class="lines"><path class="js-line" d="M0,256.5L63.29,256.5L66.45,248.12L69.62,189.47L72.78,222.98L75.95,164.33L79.11,181.09L82.27,214.6L85.44,189.47L88.6,206.22L91.77,181.09L94.93,222.98L98.1,172.71L101.26,189.47L104.42,130.81L107.59,130.81L110.75,139.19L113.92,97.29L117.08,139.19L120.25,72.16L123.41,88.91L126.58,130.81L129.74,80.53L132.9,122.43L136.07,147.57L139.23,88.91L142.4,88.91L145.56,97.29L148.73,47.02L151.89,88.91L155.05,97.29L158.22,97.29L161.38,72.16L164.55,97.29L167.71,88.91L170.88,97.29L174.04,114.05L177.21,55.4L180.37,72.16L183.53,88.91L186.7,63.78L189.86,88.91L193.03,63.78L196.19,72.16L199.36,55.4L202.52,72.16L205.68,80.53L208.85,80.53L212.01,55.4L215.18,80.53L218.34,63.78L221.51,105.67L224.67,88.91L227.84,88.91L231,105.67L234.16,80.53L237.33,63.78L240.49,55.4L243.66,72.16L246.82,88.91L249.99,88.91L253.15,72.16L256.32,80.53L259.48,72.16L262.64,80.53L265.81,80.53L268.97,63.78L272.14,72.16L275.3,88.91L287.96,55.4L291.12,97.29L294.29,88.91L297.45,88.91L300.62,105.67L303.78,47.02L306.95,105.67L310.11,97.29L313.27,80.53L316.44,88.91L319.6,88.91L322.77,47.02L325.93,88.91L329.1,38.64L332.26,88.91L335.42,88.91L338.59,55.4L341.75,97.29L348.08,47.02L351.25,72.16L354.41,72.16L357.58,80.53L360.74,97.29L363.9,63.78L367.07,47.02L370.23,97.29L373.4,80.53L376.56,72.16L379.73,88.91L382.89,88.91L386.05,97.29L389.22,88.91L392.38,47.02L395.55,105.67L398.71,72.16L401.88,88.91L405.04,80.53L408.21,55.4L411.37,80.53L414.53,63.78L417.7,88.91L420.86,97.29L424.03,72.16L427.19,63.78L430.36,30.26L433.52,80.53L436.68,63.78L439.85,88.91L443.01,105.67L446.18,72.16L449.34,80.53L452.51,80.53L458.84,63.78L462,97.29" style="vector-effect: none; fill: none; stroke: rgb(156, 39, 176); stroke-opacity: 1; stroke-width: 2px; opacity: 1;"/></g><g class="points"/><g class="text"/></g><g class="trace scatter tracee351ac" style="stroke-miterlimit: 2; opacity: 1;"><g class="fills"/><g class="errorbars"/><g class="lines"><path class="js-line" d="M0,256.5L3.16,256.5L6.33,248.12L9.49,248.12L12.66,231.36L15.82,248.12L18.99,256.5L22.15,256.5L25.32,248.12L28.48,239.74L31.64,248.12L34.81,222.98L37.97,239.74L41.14,239.74L44.3,231.36L47.47,248.12L50.63,239.74L53.79,239.74L56.96,197.84L60.12,214.6L63.29,222.98L66.45,214.6L69.62,231.36L72.78,248.12L75.95,181.09L79.11,172.71L82.27,189.47L85.44,214.6L88.6,214.6L91.77,248.12L94.93,214.6L98.1,206.22L101.26,206.22L104.42,206.22L107.59,172.71L110.75,181.09L113.92,214.6L117.08,239.74L120.25,222.98L123.41,239.74L126.58,231.36L129.74,239.74L132.9,239.74L136.07,248.12L139.23,214.6L142.4,197.84L145.56,189.47L148.73,172.71L151.89,189.47L155.05,164.33L158.22,197.84L161.38,181.09L164.55,181.09L167.71,155.95L170.88,139.19L174.04,181.09L177.21,155.95L180.37,155.95L183.53,172.71L186.7,147.57L189.86,139.19L193.03,147.57L196.19,130.81L199.36,114.05L202.52,105.67L205.68,139.19L208.85,122.43L212.01,139.19L215.18,105.67L218.34,88.91L221.51,105.67L224.67,105.67L227.84,114.05L231,97.29L234.16,72.16L237.33,97.29L240.49,88.91L243.66,147.57L246.82,105.67L249.99,105.67L253.15,80.53L256.32,105.67L259.48,63.78L262.64,88.91L265.81,88.91L268.97,72.16L272.14,72.16L275.3,97.29L278.47,114.05L281.63,80.53L284.79,88.91L287.96,80.53L291.12,97.29L294.29,114.05L297.45,72.16L300.62,139.19L303.78,105.67L306.95,80.53L310.11,88.91L313.27,88.91L316.44,105.67L319.6,80.53L322.77,80.53L325.93,80.53L329.1,114.05L335.42,80.53L338.59,105.67L341.75,80.53L344.92,63.78L354.41,114.05L357.58,97.29L360.74,72.16L363.9,88.91L367.07,88.91L370.23,63.78L373.4,88.91L376.56,97.29L379.73,72.16L382.89,97.29L389.22,80.53L392.38,55.4L395.55,105.67L398.71,80.53L401.88,38.64L405.04,97.29L408.21,97.29L411.37,80.53L417.7,80.53L420.86,105.67L424.03,80.53L427.19,72.16L433.52,105.67L436.68,105.67L439.85,72.16L443.01,88.91L446.18,63.78L449.34,88.91L452.51,80.53L455.67,105.67L458.84,72.16L462,97.29" style="vector-effect: none; fill: none; stroke: rgb(33, 150, 243); stroke-opacity: 1; stroke-width: 2px; opacity: 1;"/></g><g class="points"/><g class="text"/></g><g class="trace scatter tracedebbc5" style="stroke-miterlimit: 2; opacity: 1;"><g class="fills"/><g class="errorbars"/><g class="lines"><path class="js-line" d="M0,256.5L75.95,256.5L79.11,239.74L82.27,189.47L85.44,222.98L88.6,239.74L91.77,222.98L94.93,155.95L98.1,155.95L101.26,130.81L104.42,114.05L107.59,72.16L110.75,97.29L113.92,105.67L117.08,72.16L120.25,63.78L123.41,72.16L126.58,63.78L129.74,72.16L132.9,72.16L136.07,97.29L139.23,72.16L142.4,80.53L145.56,97.29L148.73,88.91L151.89,72.16L155.05,88.91L158.22,72.16L161.38,80.53L164.55,97.29L167.71,72.16L170.88,72.16L174.04,114.05L177.21,72.16L180.37,80.53L183.53,105.67L186.7,72.16L189.86,97.29L193.03,72.16L196.19,72.16L199.36,55.4L202.52,47.02L205.68,55.4L208.85,88.91L212.01,88.91L215.18,55.4L218.34,63.78L221.51,63.78L224.67,80.53L227.84,88.91L231,80.53L234.16,55.4L237.33,63.78L240.49,30.26L243.66,97.29L253.15,47.02L256.32,80.53L259.48,63.78L262.64,72.16L265.81,80.53L268.97,63.78L272.14,72.16L275.3,72.16L278.47,97.29L281.63,80.53L284.79,80.53L287.96,72.16L291.12,55.4L294.29,72.16L297.45,97.29L300.62,55.4L303.78,80.53L306.95,55.4L310.11,80.53L313.27,80.53L316.44,88.91L319.6,55.4L325.93,88.91L329.1,55.4L332.26,13.5L335.42,38.64L338.59,97.29L341.75,72.16L344.92,63.78L348.08,88.91L351.25,72.16L354.41,97.29L360.74,80.53L363.9,55.4L367.07,97.29L370.23,80.53L379.73,80.53L382.89,97.29L386.05,88.91L389.22,105.67L392.38,63.78L395.55,72.16L398.71,88.91L401.88,72.16L405.04,72.16L408.21,88.91L411.37,72.16L414.53,80.53L417.7,80.53L420.86,105.67L424.03,72.16L427.19,72.16L430.36,80.53L433.52,55.4L436.68,88.91L439.85,80.53L443.01,63.78L446.18,63.78L449.34,47.02L452.51,72.16L455.67,80.53L458.84,105.67L462,80.53" style="vector-effect: none; fill: none; stroke: rgb(0, 150, 136); stroke-opacity: 1; stroke-width: 2px; opacity: 1;"/></g><g class="points"/><g class="text"/></g></g></g><g class="overplot"/><path class="xlines-above crisp" d="M79,370.5H542" style="fill: none; stroke-width: 1px; stroke: rgb(68, 68, 68); stroke-opacity: 1;"/><path class="ylines-above crisp" d="M79.5,100V370" style="fill: none; stroke-width: 1px; stroke: rgb(68, 68, 68); stroke-opacity: 1;"/><g class="overlines-above"/><g class="xaxislayer-above"><path class="xtick ticks crisp" d="M0,371v5" transform="translate(235.05,0)" style="stroke: rgb(68, 68, 68); stroke-opacity: 1; stroke-width: 1px;"/><path class="xtick ticks crisp" d="M0,371v5" transform="translate(393.27,0)" style="stroke: rgb(68, 68, 68); stroke-opacity: 1; stroke-width: 1px;"/><g class="xtick"><text text-anchor="middle" x="0" y="390.4" transform="translate(235.05,0)" style="font-family: 'Open Sans', verdana, arial, sans-serif; font-size: 12px; fill: rgb(68, 68, 68); fill-opacity: 1; white-space: pre; opacity: 1;">50</text></g><g class="xtick"><text text-anchor="middle" x="0" y="390.4" style="font-family: 'Open Sans', verdana, arial, sans-serif; font-size: 12px; fill: rgb(68, 68, 68); fill-opacity: 1; white-space: pre; opacity: 1;" transform="translate(393.27,0)">100</text></g></g><g class="yaxislayer-above"><path class="ytick ticks crisp" d="M79,0h-5" transform="translate(0,356.5)" style="stroke: rgb(68, 68, 68); stroke-opacity: 1; stroke-width: 1px;"/><path class="ytick ticks crisp" d="M79,0h-5" transform="translate(0,314.6)" style="stroke: rgb(68, 68, 68); stroke-opacity: 1; stroke-width: 1px;"/><path class="ytick ticks crisp" d="M79,0h-5" transform="translate(0,272.71000000000004)" style="stroke: rgb(68, 68, 68); stroke-opacity: 1; stroke-width: 1px;"/><path class="ytick ticks crisp" d="M79,0h-5" transform="translate(0,230.81)" style="stroke: rgb(68, 68, 68); stroke-opacity: 1; stroke-width: 1px;"/><path class="ytick ticks crisp" d="M79,0h-5" transform="translate(0,188.91)" style="stroke: rgb(68, 68, 68); stroke-opacity: 1; stroke-width: 1px;"/><path class="ytick ticks crisp" d="M79,0h-5" transform="translate(0,147.02)" style="stroke: rgb(68, 68, 68); stroke-opacity: 1; stroke-width: 1px;"/><path class="ytick ticks crisp" d="M79,0h-5" transform="translate(0,105.12)" style="stroke: rgb(68, 68, 68); stroke-opacity: 1; stroke-width: 1px;"/><g class="ytick"><text text-anchor="end" x="71.6" y="4.199999999999999" transform="translate(0,356.5)" style="font-family: 'Open Sans', verdana, arial, sans-serif; font-size: 12px; fill: rgb(68, 68, 68); fill-opacity: 1; white-space: pre; opacity: 1;">0</text></g><g class="ytick"><text text-anchor="end" x="71.6" y="4.199999999999999" style="font-family: 'Open Sans', verdana, arial, sans-serif; font-size: 12px; fill: rgb(68, 68, 68); fill-opacity: 1; white-space: pre; opacity: 1;" transform="translate(0,314.6)">5</text></g><g class="ytick"><text text-anchor="end" x="71.6" y="4.199999999999999" style="font-family: 'Open Sans', verdana, arial, sans-serif; font-size: 12px; fill: rgb(68, 68, 68); fill-opacity: 1; white-space: pre; opacity: 1;" transform="translate(0,272.71000000000004)">10</text></g><g class="ytick"><text text-anchor="end" x="71.6" y="4.199999999999999" style="font-family: 'Open Sans', verdana, arial, sans-serif; font-size: 12px; fill: rgb(68, 68, 68); fill-opacity: 1; white-space: pre; opacity: 1;" transform="translate(0,230.81)">15</text></g><g class="ytick"><text text-anchor="end" x="71.6" y="4.199999999999999" style="font-family: 'Open Sans', verdana, arial, sans-serif; font-size: 12px; fill: rgb(68, 68, 68); fill-opacity: 1; white-space: pre; opacity: 1;" transform="translate(0,188.91)">20</text></g><g class="ytick"><text text-anchor="end" x="71.6" y="4.199999999999999" style="font-family: 'Open Sans', verdana, arial, sans-serif; font-size: 12px; fill: rgb(68, 68, 68); fill-opacity: 1; white-space: pre; opacity: 1;" transform="translate(0,147.02)">25</text></g><g class="ytick"><text text-anchor="end" x="71.6" y="4.199999999999999" style="font-family: 'Open Sans', verdana, arial, sans-serif; font-size: 12px; fill: rgb(68, 68, 68); fill-opacity: 1; white-space: pre; opacity: 1;" transform="translate(0,105.12)">30</text></g></g><g class="overaxes-above"/></g></g><g class="polarlayer"/><g class="smithlayer"/><g class="ternarylayer"/><g class="geolayer"/><g class="funnelarealayer"/><g class="pielayer"/><g class="iciclelayer"/><g class="treemaplayer"/><g class="sunburstlayer"/><g class="glimages"/><defs id="topdefs-080432"><g class="clips"/><clipPath id="legend080432"><rect width="137" height="67" x="0" y="0"/></clipPath></defs><g class="layer-above"><g class="imagelayer"/><g class="shapelayer"/></g><g class="infolayer"><g class="legend" pointer-events="all" transform="translate(551.24,100)"><rect class="bg" shape-rendering="crispEdges" style="stroke: rgb(68, 68, 68); stroke-opacity: 1; fill: rgb(255, 255, 255); fill-opacity: 1; stroke-width: 0px;" width="137" height="67" x="0" y="0"/><g class="scrollbox" transform="" clip-path="url(#legend080432)"><g class="groups"><g class="traces" transform="translate(0,14.5)" style="opacity: 1;"><text class="legendtext" text-anchor="start" x="40" y="4.680000000000001" style="font-family: 'Open Sans', verdana, arial, sans-serif; font-size: 12px; fill: rgb(68, 68, 68); fill-opacity: 1; white-space: pre;">Replay Ratio = 2</text><g class="layers" style="opacity: 1;"><g class="legendfill"/><g class="legendlines"><path class="js-line" d="M5,0h30" style="fill: none; stroke: rgb(156, 39, 176); stroke-opacity: 1; stroke-width: 2px;"/></g><g class="legendsymbols"><g class="legendpoints"/></g></g><rect class="legendtoggle" x="0" y="-9.5" width="131.6279296875" height="19" style="fill: rgb(0, 0, 0); fill-opacity: 0;"/></g><g class="traces" transform="translate(0,33.5)" style="opacity: 1;"><text class="legendtext" text-anchor="start" x="40" y="4.680000000000001" style="font-family: 'Open Sans', verdana, arial, sans-serif; font-size: 12px; fill: rgb(68, 68, 68); fill-opacity: 1; white-space: pre;">Replay Ratio = 1</text><g class="layers" style="opacity: 1;"><g class="legendfill"/><g class="legendlines"><path class="js-line" d="M5,0h30" style="fill: none; stroke: rgb(33, 150, 243); stroke-opacity: 1; stroke-width: 2px;"/></g><g class="legendsymbols"><g class="legendpoints"/></g></g><rect class="legendtoggle" x="0" y="-9.5" width="131.6279296875" height="19" style="fill: rgb(0, 0, 0); fill-opacity: 0;"/></g><g class="traces" transform="translate(0,52.5)" style="opacity: 1;"><text class="legendtext" text-anchor="start" x="40" y="4.680000000000001" style="font-family: 'Open Sans', verdana, arial, sans-serif; font-size: 12px; fill: rgb(68, 68, 68); fill-opacity: 1; white-space: pre;">Replay Ratio = 4</text><g class="layers" style="opacity: 1;"><g class="legendfill"/><g class="legendlines"><path class="js-line" d="M5,0h30" style="fill: none; stroke: rgb(0, 150, 136); stroke-opacity: 1; stroke-width: 2px;"/></g><g class="legendsymbols"><g class="legendpoints"/></g></g><rect class="legendtoggle" x="0" y="-9.5" width="131.6279296875" height="19" style="fill: rgb(0, 0, 0); fill-opacity: 0;"/></g></g></g><rect class="scrollbar" rx="20" ry="3" width="0" height="0" style="fill: rgb(128, 139, 164); fill-opacity: 1;" x="0" y="0"/></g><g class="g-gtitle"><text class="gtitle" x="350" y="50" text-anchor="middle" dy="0em" style="font-family: 'Open Sans', verdana, arial, sans-serif; font-size: 17px; fill: rgb(68, 68, 68); opacity: 1; font-weight: normal; white-space: pre;">DQN on Freeway-v4</text></g><g class="g-xtitle"><text class="xtitle" x="311" y="422" text-anchor="middle" style="font-family: 'Open Sans', verdana, arial, sans-serif; font-size: 14px; fill: rgb(68, 68, 68); opacity: 1; font-weight: normal; white-space: pre;">Episode Count</text></g><g class="g-ytitle"><text class="ytitle" transform="rotate(-90,42,235)" x="42" y="235" text-anchor="middle" style="font-family: 'Open Sans', verdana, arial, sans-serif; font-size: 14px; fill: rgb(68, 68, 68); opacity: 1; font-weight: normal; white-space: pre;">Episode Reward</text></g></g></svg>