<svg class="main-svg" xmlns="http://www.w3.org/2000/svg" xmlns:xlink="http://www.w3.org/1999/xlink" width="700" height="450" style="" viewBox="0 0 700 450"><rect x="0" y="0" width="700" height="450" style="fill: rgb(255, 255, 255); fill-opacity: 1;"/><defs id="defs-d7aa40"><g class="clips"><clipPath id="clipd7aa40xyplot" class="plotclip"><rect width="462" height="270"/></clipPath><clipPath class="axesclip" id="clipd7aa40x"><rect x="80" y="0" width="462" height="450"/></clipPath><clipPath class="axesclip" id="clipd7aa40y"><rect x="0" y="100" width="700" height="270"/></clipPath><clipPath class="axesclip" id="clipd7aa40xy"><rect x="80" y="100" width="462" height="270"/></clipPath></g><g class="gradients"/><g class="patterns"/></defs><g class="bglayer"/><g class="layer-below"><g class="imagelayer"/><g class="shapelayer"/></g><g class="cartesianlayer"><g class="subplot xy"><g class="layer-subplot"><g class="shapelayer"/><g class="imagelayer"/></g><g class="minor-gridlayer"><g class="x"/><g class="y"/></g><g class="gridlayer"><g class="x"><path class="xgrid crisp" transform="translate(160.1,0)" d="M0,100v270" style="stroke: rgb(238, 238, 238); stroke-opacity: 1; stroke-width: 1px;"/><path class="xgrid crisp" transform="translate(241.01,0)" d="M0,100v270" style="stroke: rgb(238, 238, 238); stroke-opacity: 1; stroke-width: 1px;"/><path class="xgrid crisp" transform="translate(321.91999999999996,0)" d="M0,100v270" style="stroke: rgb(238, 238, 238); stroke-opacity: 1; stroke-width: 1px;"/><path class="xgrid crisp" transform="translate(402.83,0)" d="M0,100v270" style="stroke: rgb(238, 238, 238); stroke-opacity: 1; stroke-width: 1px;"/><path class="xgrid crisp" transform="translate(483.74,0)" d="M0,100v270" style="stroke: rgb(238, 238, 238); stroke-opacity: 1; stroke-width: 1px;"/></g><g class="y"><path class="ygrid crisp" transform="translate(0,317.93)" d="M80,0h462" style="stroke: rgb(238, 238, 238); stroke-opacity: 1; stroke-width: 1px;"/><path class="ygrid crisp" transform="translate(0,279.36)" d="M80,0h462" style="stroke: rgb(238, 238, 238); stroke-opacity: 1; stroke-width: 1px;"/><path class="ygrid crisp" transform="translate(0,240.79)" d="M80,0h462" style="stroke: rgb(238, 238, 238); stroke-opacity: 1; stroke-width: 1px;"/><path class="ygrid crisp" transform="translate(0,202.20999999999998)" d="M80,0h462" style="stroke: rgb(238, 238, 238); stroke-opacity: 1; stroke-width: 1px;"/><path class="ygrid crisp" transform="translate(0,163.64)" d="M80,0h462" style="stroke: rgb(238, 238, 238); stroke-opacity: 1; stroke-width: 1px;"/><path class="ygrid crisp" transform="translate(0,125.07)" d="M80,0h462" style="stroke: rgb(238, 238, 238); stroke-opacity: 1; stroke-width: 1px;"/></g></g><g class="zerolinelayer"><path class="yzl zl crisp" transform="translate(0,356.5)" d="M80,0h462" style="stroke: rgb(68, 68, 68); stroke-opacity: 1; stroke-width: 1px;"/></g><path class="xlines-below"/><path class="ylines-below"/><g class="overlines-below"/><g class="xaxislayer-below"/><g class="yaxislayer-below"/><g class="overaxes-below"/><g class="plot" transform="translate(80,100)" clip-path="url(#clipd7aa40xyplot)"><g class="scatterlayer mlayer"><g class="trace scatter tracec45f91" style="stroke-miterlimit: 2; opacity: 1;"><g class="fills"/><g class="errorbars"/><g class="lines"><path class="js-line" d="M0,221.79L0.81,233.36L1.62,221.79L2.43,214.07L3.24,233.36L4.05,256.5L4.85,229.5L5.66,237.21L6.47,225.64L7.28,221.79L8.09,214.07L8.9,241.07L9.71,221.79L11.33,241.07L12.14,225.64L12.95,248.79L13.75,210.21L14.56,214.07L15.37,206.36L16.18,256.5L16.99,217.93L17.8,221.79L18.61,252.64L19.42,179.36L20.23,237.21L21.04,248.79L21.85,225.64L22.65,233.36L23.46,194.79L24.27,217.93L25.08,210.21L25.89,202.5L26.7,187.07L28.32,233.36L29.13,113.79L29.94,252.64L30.75,241.07L31.56,217.93L32.36,221.79L33.17,210.21L33.98,171.64L35.6,256.5L36.41,183.21L37.22,241.07L38.03,237.21L38.84,175.5L39.65,202.5L40.46,225.64L41.26,225.64L42.88,256.5L43.69,194.79L44.5,252.64L45.31,256.5L46.12,190.93L46.93,233.36L47.74,252.64L48.55,214.07L49.36,194.79L50.16,217.93L50.97,225.64L51.78,210.21L52.59,256.5L53.4,194.79L54.21,252.64L55.02,244.93L55.83,214.07L56.64,244.93L57.45,252.64L58.26,221.79L59.06,163.93L59.87,233.36L61.49,156.21L62.3,237.21L63.11,210.21L63.92,210.21L65.54,217.93L66.35,229.5L67.16,256.5L67.96,217.93L68.77,233.36L69.58,233.36L70.39,214.07L71.2,229.5L72.01,248.79L72.82,214.07L73.63,229.5L74.44,225.64L75.25,225.64L76.06,221.79L76.87,256.5L77.67,225.64L78.48,229.5L79.29,256.5L80.1,221.79L80.91,252.64L82.53,214.07L83.34,217.93L84.15,248.79L84.96,221.79L86.57,252.64L87.38,217.93L88.19,252.64L89,221.79L89.81,225.64L90.62,175.5L91.43,214.07L92.24,210.21L93.86,248.79L94.67,171.64L95.47,252.64L96.28,252.64L97.09,194.79L97.9,229.5L98.71,248.79L99.52,229.5L100.33,237.21L101.14,221.79L102.76,202.5L103.57,252.64L104.37,217.93L105.18,252.64L106.8,202.5L107.61,229.5L109.23,202.5L110.04,221.79L110.85,248.79L111.66,214.07L112.47,210.21L113.27,241.07L114.08,198.64L114.89,229.5L115.7,256.5L116.51,183.21L118.13,198.64L118.94,183.21L119.75,237.21L120.56,214.07L122.18,237.21L122.98,233.36L124.6,187.07L125.41,241.07L127.03,167.79L127.84,241.07L128.65,171.64L129.46,221.79L130.27,244.93L131.08,187.07L131.88,237.21L132.69,179.36L133.5,198.64L134.31,252.64L135.93,121.5L136.74,217.93L137.55,190.93L138.36,202.5L139.17,194.79L139.98,256.5L141.59,187.07L142.4,179.36L143.21,175.5L144.02,248.79L144.83,156.21L145.64,202.5L146.45,175.5L147.26,175.5L148.07,171.64L148.88,183.21L149.68,244.93L150.49,233.36L151.3,198.64L152.11,198.64L152.92,214.07L153.73,187.07L154.54,252.64L155.35,233.36L156.16,109.93L156.97,225.64L158.58,210.21L159.39,252.64L160.2,190.93L161.01,217.93L161.82,221.79L162.63,206.36L164.25,229.5L165.06,210.21L166.68,229.5L167.49,210.21L168.29,217.93L169.1,194.79L169.91,179.36L170.72,217.93L171.53,252.64L172.34,152.36L173.15,252.64L173.96,225.64L174.77,152.36L175.58,198.64L176.39,233.36L177.19,183.21L178,244.93L178.81,237.21L179.62,187.07L180.43,198.64L181.24,229.5L182.05,190.93L182.86,214.07L183.67,206.36L184.48,225.64L185.29,225.64L186.09,187.07L186.9,206.36L187.71,256.5L188.52,217.93L189.33,187.07L190.14,248.79L190.95,252.64L191.76,202.5L192.57,252.64L193.38,221.79L194.19,194.79L194.99,214.07L195.8,214.07L196.61,136.93L197.42,252.64L198.23,256.5L199.04,183.21L199.85,221.79L200.66,237.21L201.47,136.93L203.09,244.93L203.89,121.5L205.51,221.79L206.32,229.5L207.13,256.5L207.94,221.79L208.75,221.79L209.56,206.36L210.37,198.64L211.18,175.5L212.8,241.07L213.6,136.93L214.41,256.5L215.22,190.93L216.03,179.36L216.84,98.36L217.65,237.21L218.46,217.93L219.27,214.07L220.08,244.93L220.89,171.64L221.7,194.79L222.5,244.93L223.31,202.5L224.93,221.79L225.74,163.93L226.55,214.07L227.36,202.5L228.17,152.36L228.98,217.93L230.6,163.93L231.4,206.36L232.21,233.36L233.02,194.79L233.83,160.07L234.64,175.5L236.26,202.5L237.07,129.21L237.88,171.64L238.69,163.93L239.5,217.93L240.3,117.64L241.92,248.79L242.73,98.36L243.54,229.5L244.35,206.36L245.16,171.64L245.97,244.93L246.78,233.36L247.59,190.93L248.4,198.64L249.2,237.21L250.01,202.5L250.82,210.21L251.63,202.5L252.44,148.5L253.25,229.5L254.06,214.07L254.87,217.93L255.68,214.07L256.49,233.36L257.3,198.64L258.11,198.64L258.91,210.21L259.72,217.93L260.53,117.64L261.34,221.79L262.15,210.21L262.96,241.07L263.77,167.79L264.58,156.21L265.39,210.21L266.2,256.5L267.01,221.79L267.81,248.79L268.62,229.5L269.43,198.64L270.24,221.79L272.67,167.79L273.48,217.93L274.29,194.79L275.1,225.64L275.91,121.5L276.71,221.79L277.52,156.21L278.33,221.79L279.14,167.79L279.95,244.93L280.76,237.21L281.57,183.21L282.38,248.79L283.19,233.36L284.81,183.21L285.61,225.64L286.42,206.36L287.23,210.21L288.04,244.93L288.85,210.21L289.66,183.21L290.47,214.07L291.28,229.5L292.09,198.64L292.9,156.21L293.71,175.5L295.32,233.36L296.13,225.64L297.75,183.21L298.56,202.5L299.37,217.93L300.18,179.36L301.8,241.07L302.61,217.93L303.42,221.79L304.22,214.07L305.03,244.93L305.84,217.93L306.65,121.5L307.46,248.79L308.27,194.79L309.08,206.36L309.89,221.79L310.7,198.64L311.51,229.5L312.32,190.93L313.12,210.21L313.93,210.21L314.74,202.5L315.55,202.5L316.36,148.5L317.17,256.5L317.98,210.21L318.79,214.07L319.6,206.36L320.41,160.07L322.02,252.64L322.83,233.36L323.64,225.64L324.45,206.36L325.26,194.79L326.07,233.36L326.88,221.79L327.69,187.07L329.31,241.07L330.12,214.07L330.92,167.79L331.73,229.5L333.35,187.07L334.16,244.93L334.97,148.5L335.78,252.64L336.59,256.5L337.4,125.36L338.21,210.21L339.02,214.07L339.82,179.36L340.63,210.21L341.44,156.21L342.25,152.36L343.06,156.21L343.87,256.5L345.49,190.93L346.3,237.21L347.11,210.21L347.92,233.36L348.73,171.64L349.53,171.64L351.15,244.93L351.96,179.36L352.77,233.36L353.58,229.5L354.39,214.07L355.2,237.21L356.82,206.36L357.63,241.07L359.24,206.36L360.05,217.93L360.86,214.07L361.67,214.07L362.48,225.64L363.29,202.5L364.1,190.93L364.91,210.21L365.72,248.79L366.53,202.5L368.14,225.64L368.95,190.93L369.76,252.64L370.57,241.07L372.19,206.36L373,210.21L373.81,156.21L374.62,248.79L375.43,198.64L376.23,217.93L377.04,167.79L377.85,214.07L378.66,217.93L379.47,194.79L380.28,179.36L381.09,241.07L381.9,244.93L382.71,190.93L383.52,167.79L384.33,206.36L385.13,210.21L385.94,171.64L386.75,225.64L387.56,217.93L388.37,221.79L389.18,244.93L390.8,194.79L391.61,241.07L392.42,225.64L393.23,229.5L394.04,237.21L394.84,217.93L396.46,194.79L397.27,225.64L398.08,210.21L398.89,136.93L400.51,225.64L401.32,198.64L402.13,221.79L402.94,198.64L403.74,210.21L404.55,244.93L405.36,202.5L406.17,206.36L406.98,237.21L407.79,187.07L408.6,225.64L409.41,198.64L410.22,202.5L411.03,183.21L411.84,233.36L412.64,183.21L414.26,202.5L415.07,237.21L415.88,221.79L416.69,221.79L417.5,217.93L418.31,241.07L419.12,256.5L419.93,217.93L420.74,256.5L421.54,198.64L422.35,206.36L423.16,136.93L423.97,244.93L424.78,171.64L426.4,233.36L427.21,160.07L428.02,144.64L428.83,217.93L429.64,183.21L430.44,202.5L431.25,225.64L432.06,210.21L432.87,206.36L433.68,217.93L434.49,225.64L435.3,175.5L437.73,256.5L438.54,244.93L439.35,198.64L440.15,237.21L441.77,206.36L442.58,210.21L443.39,225.64L444.2,59.79L445.82,237.21L446.63,179.36L448.25,256.5L449.05,183.21L449.86,241.07L450.67,187.07L452.29,233.36L453.1,237.21L453.91,202.5L454.72,233.36L455.53,217.93L456.34,163.93L457.95,241.07L458.76,190.93L459.57,237.21L460.38,36.64L462,225.64" style="vector-effect: none; fill: none; stroke: rgb(156, 39, 176); stroke-opacity: 1; stroke-width: 2px; opacity: 1;"/></g><g class="points"/><g class="text"/></g><g class="trace scatter trace073ad1" style="stroke-miterlimit: 2; opacity: 1;"><g class="fills"/><g class="errorbars"/><g class="lines"><path class="js-line" d="M0,214.07L1.62,256.5L2.43,217.93L3.24,233.36L4.05,233.36L4.85,133.07L5.66,252.64L6.47,248.79L7.28,202.5L8.09,202.5L8.9,237.21L11.33,206.36L12.14,206.36L13.75,252.64L14.56,167.79L15.37,190.93L16.18,252.64L16.99,221.79L17.8,229.5L18.61,144.64L19.42,183.21L20.23,256.5L21.04,252.64L21.85,156.21L22.65,252.64L23.46,256.5L24.27,202.5L25.08,248.79L25.89,217.93L26.7,198.64L27.51,252.64L28.32,248.79L29.13,198.64L29.94,256.5L30.75,256.5L31.56,171.64L32.36,256.5L33.98,202.5L34.79,256.5L35.6,256.5L36.41,233.36L37.22,225.64L38.03,256.5L38.84,194.79L39.65,256.5L40.46,256.5L41.26,206.36L42.07,225.64L42.88,225.64L43.69,194.79L44.5,217.93L45.31,256.5L46.12,167.79L47.74,244.93L48.55,210.21L49.36,206.36L50.16,237.21L50.97,241.07L51.78,171.64L52.59,237.21L53.4,183.21L55.02,241.07L55.83,187.07L56.64,233.36L57.45,229.5L58.26,28.93L59.06,214.07L59.87,248.79L60.68,167.79L62.3,252.64L63.11,202.5L63.92,217.93L64.73,256.5L65.54,206.36L66.35,210.21L67.16,256.5L67.96,206.36L69.58,233.36L70.39,214.07L71.2,229.5L72.01,28.93L72.82,214.07L73.63,106.07L74.44,256.5L75.25,221.79L76.06,206.36L76.87,244.93L77.67,229.5L78.48,163.93L79.29,241.07L80.1,198.64L80.91,202.5L81.72,229.5L82.53,194.79L83.34,217.93L84.15,206.36L84.96,210.21L85.77,210.21L86.57,233.36L87.38,198.64L88.19,217.93L89,256.5L89.81,241.07L90.62,198.64L91.43,214.07L92.24,156.21L93.05,183.21L93.86,237.21L94.67,202.5L95.47,241.07L96.28,171.64L97.9,225.64L98.71,206.36L99.52,217.93L100.33,194.79L101.14,244.93L101.95,214.07L102.76,221.79L103.57,198.64L104.37,214.07L105.18,248.79L105.99,202.5L106.8,206.36L108.42,248.79L109.23,202.5L110.04,194.79L110.85,256.5L112.47,109.93L113.27,229.5L114.08,148.5L114.89,202.5L115.7,237.21L116.51,202.5L117.32,252.64L118.13,221.79L118.94,210.21L119.75,221.79L120.56,244.93L121.37,229.5L122.98,75.21L123.79,167.79L125.41,221.79L126.22,194.79L127.03,190.93L127.84,229.5L128.65,210.21L129.46,241.07L130.27,233.36L131.08,210.21L131.88,179.36L132.69,210.21L133.5,202.5L134.31,214.07L135.12,175.5L135.93,229.5L136.74,194.79L137.55,229.5L138.36,214.07L139.17,221.79L139.98,241.07L140.78,214.07L142.4,233.36L143.21,217.93L144.83,194.79L145.64,206.36L146.45,194.79L147.26,148.5L148.07,214.07L148.88,198.64L149.68,194.79L150.49,179.36L151.3,179.36L152.11,206.36L152.92,187.07L153.73,221.79L154.54,241.07L155.35,225.64L156.16,221.79L156.97,167.79L158.58,217.93L159.39,214.07L160.2,221.79L161.01,194.79L161.82,221.79L162.63,117.64L163.44,117.64L164.25,225.64L165.06,233.36L165.87,163.93L166.68,225.64L167.49,198.64L169.1,233.36L169.91,233.36L170.72,194.79L171.53,214.07L173.15,194.79L173.96,198.64L174.77,187.07L175.58,229.5L176.39,241.07L177.19,202.5L178.81,229.5L179.62,190.93L180.43,198.64L181.24,237.21L182.86,190.93L183.67,214.07L184.48,210.21L185.29,217.93L186.09,98.36L186.9,106.07L188.52,244.93L189.33,202.5L190.14,198.64L190.95,217.93L191.76,179.36L192.57,75.21L193.38,202.5L194.19,175.5L194.99,202.5L195.8,156.21L196.61,160.07L197.42,125.36L198.23,221.79L199.04,202.5L199.85,248.79L200.66,241.07L201.47,190.93L202.28,217.93L203.89,133.07L204.7,225.64L205.51,256.5L206.32,190.93L207.13,133.07L207.94,241.07L208.75,160.07L209.56,241.07L210.37,248.79L211.18,210.21L211.99,194.79L212.8,248.79L213.6,202.5L214.41,237.21L215.22,244.93L216.03,187.07L216.84,233.36L217.65,194.79L218.46,187.07L219.27,233.36L220.89,160.07L221.7,244.93L223.31,183.21L224.12,187.07L224.93,256.5L225.74,206.36L226.55,206.36L227.36,202.5L228.17,102.21L228.98,217.93L229.79,256.5L230.6,190.93L231.4,221.79L232.21,221.79L233.02,109.93L233.83,248.79L234.64,233.36L235.45,233.36L236.26,144.64L237.07,241.07L237.88,194.79L238.69,206.36L240.3,167.79L241.11,152.36L241.92,241.07L242.73,194.79L244.35,171.64L245.16,171.64L246.78,244.93L247.59,183.21L248.4,241.07L249.2,229.5L250.01,183.21L250.82,194.79L251.63,63.64L252.44,194.79L253.25,67.5L254.06,241.07L255.68,75.21L256.49,241.07L257.3,167.79L258.11,248.79L261.34,144.64L262.15,210.21L262.96,148.5L263.77,194.79L264.58,187.07L265.39,98.36L266.2,233.36L267.01,163.93L267.81,244.93L268.62,133.07L270.24,237.21L271.05,244.93L271.86,179.36L272.67,198.64L273.48,252.64L274.29,156.21L275.1,179.36L275.91,252.64L276.71,171.64L277.52,221.79L278.33,202.5L279.14,144.64L279.95,241.07L280.76,190.93L281.57,194.79L282.38,106.07L284,206.36L284.81,71.36L285.61,241.07L286.42,183.21L288.04,225.64L288.85,167.79L290.47,233.36L291.28,25.07L292.9,221.79L293.71,171.64L294.51,175.5L295.32,217.93L296.13,187.07L296.94,198.64L297.75,187.07L298.56,190.93L299.37,214.07L300.18,171.64L302.61,217.93L303.42,171.64L304.22,160.07L305.03,233.36L305.84,183.21L306.65,221.79L307.46,82.93L308.27,94.5L309.08,129.21L309.89,233.36L311.51,214.07L312.32,152.36L313.12,202.5L313.93,160.07L314.74,233.36L315.55,198.64L317.17,225.64L317.98,198.64L318.79,248.79L319.6,198.64L320.41,210.21L321.22,198.64L322.02,233.36L322.83,86.79L323.64,237.21L324.45,237.21L326.07,198.64L326.88,214.07L327.69,202.5L328.5,221.79L329.31,241.07L330.12,187.07L330.92,183.21L331.73,202.5L332.54,214.07L333.35,144.64L334.16,241.07L334.97,187.07L335.78,217.93L336.59,194.79L337.4,214.07L338.21,210.21L339.02,229.5L339.82,217.93L341.44,217.93L342.25,229.5L343.06,229.5L343.87,241.07L344.68,206.36L345.49,229.5L347.11,156.21L347.92,190.93L348.73,233.36L349.53,187.07L350.34,241.07L351.15,244.93L352.77,117.64L353.58,225.64L354.39,229.5L355.2,206.36L356.82,190.93L357.63,160.07L358.43,221.79L359.24,152.36L360.05,75.21L360.86,256.5L361.67,125.36L362.48,160.07L364.1,237.21L364.91,160.07L365.72,206.36L366.53,156.21L367.33,241.07L368.14,214.07L368.95,140.79L369.76,206.36L370.57,113.79L371.38,194.79L372.19,194.79L373,252.64L373.81,175.5L374.62,190.93L375.43,233.36L376.23,152.36L377.85,252.64L378.66,194.79L379.47,198.64L380.28,198.64L381.09,190.93L381.9,198.64L382.71,237.21L383.52,140.79L385.13,237.21L385.94,190.93L387.56,237.21L388.37,152.36L389.18,167.79L389.99,248.79L391.61,160.07L392.42,244.93L393.23,187.07L394.04,237.21L394.84,248.79L395.65,163.93L396.46,86.79L397.27,244.93L398.89,167.79L399.7,256.5L401.32,190.93L402.13,217.93L403.74,225.64L404.55,256.5L405.36,171.64L406.17,187.07L406.98,217.93L407.79,167.79L409.41,233.36L410.22,187.07L411.03,252.64L411.84,237.21L412.64,167.79L413.45,217.93L414.26,214.07L415.07,160.07L415.88,248.79L416.69,221.79L417.5,229.5L418.31,198.64L419.12,98.36L419.93,202.5L420.74,179.36L421.54,202.5L422.35,67.5L423.16,229.5L423.97,241.07L424.78,183.21L425.59,79.07L426.4,256.5L428.02,140.79L428.83,256.5L431.25,171.64L432.06,183.21L432.87,198.64L433.68,256.5L435.3,202.5L436.11,248.79L436.92,190.93L437.73,206.36" style="vector-effect: none; fill: none; stroke: rgb(33, 150, 243); stroke-opacity: 1; stroke-width: 2px; opacity: 1;"/></g><g class="points"/><g class="text"/></g><g class="trace scatter trace5762ef" style="stroke-miterlimit: 2; opacity: 1;"><g class="fills"/><g class="errorbars"/><g class="lines"><path class="js-line" d="M0,225.64L0.81,217.93L1.62,202.5L3.24,248.79L4.05,256.5L4.85,221.79L5.66,225.64L6.47,244.93L7.28,210.21L8.09,217.93L8.9,256.5L9.71,214.07L10.52,237.21L11.33,202.5L12.14,221.79L12.95,167.79L13.75,252.64L15.37,206.36L16.18,241.07L16.99,225.64L17.8,252.64L19.42,225.64L20.23,225.64L21.04,241.07L21.85,233.36L22.65,221.79L23.46,241.07L24.27,221.79L25.08,256.5L25.89,187.07L26.7,202.5L27.51,217.93L28.32,256.5L29.13,194.79L29.94,225.64L30.75,221.79L31.56,171.64L32.36,248.79L33.17,241.07L34.79,221.79L35.6,241.07L36.41,175.5L37.22,225.64L38.03,210.21L38.84,210.21L39.65,210.21L40.46,244.93L42.07,187.07L42.88,233.36L43.69,229.5L44.5,252.64L45.31,244.93L46.12,206.36L46.93,248.79L47.74,206.36L48.55,183.21L49.36,248.79L50.16,237.21L50.97,187.07L52.59,233.36L53.4,210.21L54.21,194.79L55.02,241.07L55.83,225.64L56.64,229.5L58.26,190.93L59.06,244.93L59.87,210.21L60.68,210.21L61.49,187.07L62.3,248.79L63.11,229.5L63.92,179.36L64.73,256.5L65.54,229.5L66.35,248.79L67.16,221.79L67.96,233.36L68.77,198.64L69.58,225.64L70.39,214.07L72.01,248.79L72.82,198.64L74.44,225.64L75.25,225.64L76.06,233.36L76.87,256.5L77.67,206.36L78.48,217.93L79.29,248.79L80.1,237.21L80.91,225.64L81.72,233.36L83.34,183.21L84.15,252.64L84.96,198.64L85.77,237.21L86.57,206.36L87.38,136.93L88.19,233.36L89,214.07L89.81,13.5L90.62,241.07L91.43,233.36L92.24,187.07L93.05,233.36L93.86,187.07L94.67,187.07L95.47,217.93L96.28,248.79L97.09,229.5L97.9,217.93L98.71,171.64L99.52,171.64L100.33,217.93L101.14,237.21L101.95,202.5L102.76,198.64L103.57,225.64L104.37,217.93L105.18,190.93L105.99,241.07L106.8,217.93L107.61,244.93L108.42,163.93L110.04,217.93L110.85,252.64L111.66,206.36L112.47,214.07L113.27,241.07L114.08,214.07L114.89,248.79L115.7,237.21L117.32,206.36L118.13,214.07L118.94,194.79L119.75,252.64L121.37,190.93L122.18,225.64L122.98,252.64L123.79,217.93L124.6,252.64L125.41,225.64L126.22,202.5L127.03,221.79L127.84,244.93L128.65,210.21L129.46,229.5L130.27,225.64L131.08,167.79L131.88,217.93L132.69,252.64L133.5,190.93L134.31,194.79L135.12,175.5L135.93,206.36L136.74,202.5L137.55,241.07L138.36,190.93L139.98,237.21L140.78,136.93L142.4,237.21L143.21,175.5L144.83,252.64L145.64,167.79L147.26,244.93L148.07,187.07L148.88,187.07L149.68,252.64L150.49,229.5L151.3,156.21L152.11,248.79L152.92,225.64L153.73,171.64L154.54,256.5L155.35,190.93L156.16,217.93L156.97,71.36L157.78,171.64L158.58,241.07L159.39,125.36L160.2,229.5L161.01,217.93L161.82,221.79L162.63,198.64L163.44,167.79L164.25,244.93L165.87,194.79L166.68,221.79L167.49,202.5L168.29,241.07L169.91,175.5L170.72,206.36L171.53,256.5L172.34,160.07L173.15,248.79L173.96,202.5L174.77,202.5L175.58,237.21L178,175.5L178.81,252.64L179.62,206.36L180.43,210.21L181.24,229.5L182.05,221.79L182.86,198.64L183.67,206.36L184.48,160.07L185.29,229.5L186.09,183.21L186.9,190.93L188.52,229.5L189.33,156.21L190.95,210.21L191.76,198.64L193.38,233.36L194.19,198.64L195.8,214.07L196.61,136.93L197.42,233.36L198.23,217.93L199.04,206.36L199.85,179.36L200.66,179.36L201.47,210.21L202.28,190.93L203.09,248.79L203.89,133.07L204.7,202.5L205.51,237.21L206.32,190.93L207.13,248.79L207.94,244.93L209.56,214.07L210.37,256.5L211.99,202.5L212.8,237.21L213.6,198.64L214.41,217.93L215.22,256.5L216.03,225.64L216.84,125.36L217.65,210.21L218.46,229.5L219.27,86.79L220.08,229.5L220.89,175.5L221.7,229.5L222.5,214.07L223.31,202.5L224.12,206.36L224.93,221.79L225.74,198.64L226.55,241.07L227.36,198.64L228.17,187.07L228.98,198.64L229.79,256.5L230.6,129.21L232.21,229.5L233.02,217.93L234.64,198.64L235.45,187.07L236.26,256.5L237.07,252.64L238.69,194.79L239.5,237.21L240.3,198.64L241.11,206.36L241.92,233.36L242.73,198.64L243.54,194.79L244.35,256.5L245.16,221.79L245.97,221.79L246.78,79.07L247.59,144.64L248.4,217.93L249.2,210.21L250.01,98.36L250.82,194.79L251.63,244.93L252.44,198.64L253.25,171.64L254.06,248.79L254.87,133.07L255.68,210.21L256.49,241.07L257.3,190.93L258.11,237.21L258.91,221.79L259.72,206.36L260.53,210.21L261.34,233.36L262.15,179.36L262.96,106.07L263.77,237.21L264.58,229.5L265.39,252.64L266.2,140.79L267.01,171.64L267.81,202.5L268.62,156.21L269.43,175.5L270.24,133.07L271.05,241.07L271.86,163.93L272.67,233.36L273.48,206.36L274.29,175.5L275.1,202.5L275.91,233.36L276.71,194.79L277.52,179.36L278.33,241.07L279.14,175.5L279.95,198.64L280.76,233.36L281.57,190.93L282.38,229.5L283.19,214.07L284,190.93L284.81,233.36L285.61,244.93L286.42,206.36L287.23,241.07L288.04,233.36L288.85,183.21L289.66,233.36L290.47,241.07L291.28,79.07L292.09,241.07L292.9,244.93L293.71,163.93L294.51,214.07L295.32,167.79L296.13,175.5L297.75,256.5L298.56,187.07L299.37,229.5L300.18,163.93L300.99,175.5L301.8,241.07L302.61,148.5L303.42,214.07L304.22,183.21L305.03,206.36L305.84,156.21L306.65,217.93L307.46,148.5L308.27,183.21L309.08,206.36L309.89,252.64L310.7,190.93L311.51,214.07L313.12,133.07L313.93,252.64L315.55,167.79L316.36,210.21L317.17,241.07L317.98,187.07L318.79,256.5L319.6,237.21L321.22,167.79L322.02,214.07L322.83,206.36L323.64,217.93L324.45,256.5L325.26,113.79L326.88,244.93L327.69,148.5L329.31,252.64L330.12,183.21L330.92,190.93L331.73,237.21L332.54,90.64L333.35,183.21L334.16,179.36L334.97,171.64L335.78,214.07L336.59,129.21L337.4,160.07L338.21,233.36L339.82,167.79L340.63,210.21L341.44,241.07L342.25,175.5L343.06,171.64L343.87,194.79L344.68,217.93L345.49,167.79L346.3,244.93L347.11,163.93L348.73,241.07L349.53,179.36L350.34,241.07L351.15,217.93L352.77,156.21L353.58,163.93L355.2,229.5L356.01,210.21L356.82,117.64L357.63,202.5L358.43,256.5L359.24,160.07L360.86,233.36L361.67,79.07L363.29,244.93L364.1,190.93L365.72,252.64L366.53,160.07L367.33,233.36L368.14,190.93L369.76,121.5L370.57,252.64L372.19,133.07L373,229.5L373.81,179.36L374.62,225.64L375.43,229.5L376.23,156.21L377.04,225.64L377.85,156.21L378.66,133.07L379.47,183.21L380.28,248.79L381.09,202.5L381.9,187.07L382.71,202.5L383.52,194.79L384.33,140.79L385.13,252.64L385.94,171.64L387.56,237.21L388.37,156.21L389.18,248.79L389.99,252.64L391.61,156.21L392.42,233.36L393.23,90.64L394.04,229.5L395.65,183.21L396.46,217.93L397.27,214.07L398.08,125.36L398.89,202.5L399.7,179.36L400.51,25.07L401.32,225.64L402.13,221.79L402.94,171.64L403.74,221.79L404.55,82.93L406.17,190.93L406.98,233.36L407.79,28.93L408.6,214.07L409.41,252.64L410.22,125.36L411.03,194.79L411.84,183.21L412.64,106.07L413.45,244.93L414.26,63.64L415.07,229.5L415.88,167.79L416.69,221.79L417.5,140.79L418.31,198.64L419.12,237.21L419.93,98.36L420.74,241.07L421.54,210.21L422.35,136.93L423.16,206.36L423.97,179.36L424.78,210.21L425.59,206.36L426.4,187.07L427.21,117.64L428.02,202.5L428.83,233.36L429.64,98.36L431.25,229.5" style="vector-effect: none; fill: none; stroke: rgb(0, 150, 136); stroke-opacity: 1; stroke-width: 2px; opacity: 1;"/></g><g class="points"/><g class="text"/></g></g></g><g class="overplot"/><path class="xlines-above crisp" d="M79,370.5H542" style="fill: none; stroke-width: 1px; stroke: rgb(68, 68, 68); stroke-opacity: 1;"/><path class="ylines-above crisp" d="M79.5,100V370" style="fill: none; stroke-width: 1px; stroke: rgb(68, 68, 68); stroke-opacity: 1;"/><g class="overlines-above"/><g class="xaxislayer-above"><path class="xtick ticks crisp" d="M0,371v5" transform="translate(160.1,0)" style="stroke: rgb(68, 68, 68); stroke-opacity: 1; stroke-width: 1px;"/><path class="xtick ticks crisp" d="M0,371v5" transform="translate(241.01,0)" style="stroke: rgb(68, 68, 68); stroke-opacity: 1; stroke-width: 1px;"/><path class="xtick ticks crisp" d="M0,371v5" transform="translate(321.91999999999996,0)" style="stroke: rgb(68, 68, 68); stroke-opacity: 1; stroke-width: 1px;"/><path class="xtick ticks crisp" d="M0,371v5" transform="translate(402.83,0)" style="stroke: rgb(68, 68, 68); stroke-opacity: 1; stroke-width: 1px;"/><path class="xtick ticks crisp" d="M0,371v5" transform="translate(483.74,0)" style="stroke: rgb(68, 68, 68); stroke-opacity: 1; stroke-width: 1px;"/><g class="xtick"><text text-anchor="middle" x="0" y="390.4" transform="translate(160.1,0)" style="font-family: 'Open Sans', verdana, arial, sans-serif; font-size: 12px; fill: rgb(68, 68, 68); fill-opacity: 1; white-space: pre; opacity: 1;">100</text></g><g class="xtick"><text text-anchor="middle" x="0" y="390.4" style="font-family: 'Open Sans', verdana, arial, sans-serif; font-size: 12px; fill: rgb(68, 68, 68); fill-opacity: 1; white-space: pre; opacity: 1;" transform="translate(241.01,0)">200</text></g><g class="xtick"><text text-anchor="middle" x="0" y="390.4" style="font-family: 'Open Sans', verdana, arial, sans-serif; font-size: 12px; fill: rgb(68, 68, 68); fill-opacity: 1; white-space: pre; opacity: 1;" transform="translate(321.91999999999996,0)">300</text></g><g class="xtick"><text text-anchor="middle" x="0" y="390.4" style="font-family: 'Open Sans', verdana, arial, sans-serif; font-size: 12px; fill: rgb(68, 68, 68); fill-opacity: 1; white-space: pre; opacity: 1;" transform="translate(402.83,0)">400</text></g><g class="xtick"><text text-anchor="middle" x="0" y="390.4" style="font-family: 'Open Sans', verdana, arial, sans-serif; font-size: 12px; fill: rgb(68, 68, 68); fill-opacity: 1; white-space: pre; opacity: 1;" transform="translate(483.74,0)">500</text></g></g><g class="yaxislayer-above"><path class="ytick ticks crisp" d="M79,0h-5" transform="translate(0,356.5)" style="stroke: rgb(68, 68, 68); stroke-opacity: 1; stroke-width: 1px;"/><path class="ytick ticks crisp" d="M79,0h-5" transform="translate(0,317.93)" style="stroke: rgb(68, 68, 68); stroke-opacity: 1; stroke-width: 1px;"/><path class="ytick ticks crisp" d="M79,0h-5" transform="translate(0,279.36)" style="stroke: rgb(68, 68, 68); stroke-opacity: 1; stroke-width: 1px;"/><path class="ytick ticks crisp" d="M79,0h-5" transform="translate(0,240.79)" style="stroke: rgb(68, 68, 68); stroke-opacity: 1; stroke-width: 1px;"/><path class="ytick ticks crisp" d="M79,0h-5" transform="translate(0,202.20999999999998)" style="stroke: rgb(68, 68, 68); stroke-opacity: 1; stroke-width: 1px;"/><path class="ytick ticks crisp" d="M79,0h-5" transform="translate(0,163.64)" style="stroke: rgb(68, 68, 68); stroke-opacity: 1; stroke-width: 1px;"/><path class="ytick ticks crisp" d="M79,0h-5" transform="translate(0,125.07)" style="stroke: rgb(68, 68, 68); stroke-opacity: 1; stroke-width: 1px;"/><g class="ytick"><text text-anchor="end" x="71.6" y="4.199999999999999" transform="translate(0,356.5)" style="font-family: 'Open Sans', verdana, arial, sans-serif; font-size: 12px; fill: rgb(68, 68, 68); fill-opacity: 1; white-space: pre; opacity: 1;">0</text></g><g class="ytick"><text text-anchor="end" x="71.6" y="4.199999999999999" style="font-family: 'Open Sans', verdana, arial, sans-serif; font-size: 12px; fill: rgb(68, 68, 68); fill-opacity: 1; white-space: pre; opacity: 1;" transform="translate(0,317.93)">10</text></g><g class="ytick"><text text-anchor="end" x="71.6" y="4.199999999999999" style="font-family: 'Open Sans', verdana, arial, sans-serif; font-size: 12px; fill: rgb(68, 68, 68); fill-opacity: 1; white-space: pre; opacity: 1;" transform="translate(0,279.36)">20</text></g><g class="ytick"><text text-anchor="end" x="71.6" y="4.199999999999999" style="font-family: 'Open Sans', verdana, arial, sans-serif; font-size: 12px; fill: rgb(68, 68, 68); fill-opacity: 1; white-space: pre; opacity: 1;" transform="translate(0,240.79)">30</text></g><g class="ytick"><text text-anchor="end" x="71.6" y="4.199999999999999" style="font-family: 'Open Sans', verdana, arial, sans-serif; font-size: 12px; fill: rgb(68, 68, 68); fill-opacity: 1; white-space: pre; opacity: 1;" transform="translate(0,202.20999999999998)">40</text></g><g class="ytick"><text text-anchor="end" x="71.6" y="4.199999999999999" style="font-family: 'Open Sans', verdana, arial, sans-serif; font-size: 12px; fill: rgb(68, 68, 68); fill-opacity: 1; white-space: pre; opacity: 1;" transform="translate(0,163.64)">50</text></g><g class="ytick"><text text-anchor="end" x="71.6" y="4.199999999999999" style="font-family: 'Open Sans', verdana, arial, sans-serif; font-size: 12px; fill: rgb(68, 68, 68); fill-opacity: 1; white-space: pre; opacity: 1;" transform="translate(0,125.07)">60</text></g></g><g class="overaxes-above"/></g></g><g class="polarlayer"/><g class="smithlayer"/><g class="ternarylayer"/><g class="geolayer"/><g class="funnelarealayer"/><g class="pielayer"/><g class="iciclelayer"/><g class="treemaplayer"/><g class="sunburstlayer"/><g class="glimages"/><defs id="topdefs-d7aa40"><g class="clips"/><clipPath id="legendd7aa40"><rect width="137" height="67" x="0" y="0"/></clipPath></defs><g class="layer-above"><g class="imagelayer"/><g class="shapelayer"/></g><g class="infolayer"><g class="legend" pointer-events="all" transform="translate(551.24,100)"><rect class="bg" shape-rendering="crispEdges" width="137" height="67" x="0" y="0" style="stroke: rgb(68, 68, 68); stroke-opacity: 1; fill: rgb(255, 255, 255); fill-opacity: 1; stroke-width: 0px;"/><g class="scrollbox" transform="" clip-path="url(#legendd7aa40)"><g class="groups"><g class="traces" transform="translate(0,14.5)" style="opacity: 1;"><text class="legendtext" text-anchor="start" x="40" y="4.680000000000001" style="font-family: 'Open Sans', verdana, arial, sans-serif; font-size: 12px; fill: rgb(68, 68, 68); fill-opacity: 1; white-space: pre;">Replay Ratio = 4</text><g class="layers" style="opacity: 1;"><g class="legendfill"/><g class="legendlines"><path class="js-line" d="M5,0h30" style="fill: none; stroke: rgb(156, 39, 176); stroke-opacity: 1; stroke-width: 2px;"/></g><g class="legendsymbols"><g class="legendpoints"/></g></g><rect class="legendtoggle" x="0" y="-9.5" width="131.6279296875" height="19" style="fill: rgb(0, 0, 0); fill-opacity: 0;"/></g><g class="traces" transform="translate(0,33.5)" style="opacity: 1;"><text class="legendtext" text-anchor="start" x="40" y="4.680000000000001" style="font-family: 'Open Sans', verdana, arial, sans-serif; font-size: 12px; fill: rgb(68, 68, 68); fill-opacity: 1; white-space: pre;">Replay Ratio = 1</text><g class="layers" style="opacity: 1;"><g class="legendfill"/><g class="legendlines"><path class="js-line" d="M5,0h30" style="fill: none; stroke: rgb(33, 150, 243); stroke-opacity: 1; stroke-width: 2px;"/></g><g class="legendsymbols"><g class="legendpoints"/></g></g><rect class="legendtoggle" x="0" y="-9.5" width="131.6279296875" height="19" style="fill: rgb(0, 0, 0); fill-opacity: 0;"/></g><g class="traces" transform="translate(0,52.5)" style="opacity: 1;"><text class="legendtext" text-anchor="start" x="40" y="4.680000000000001" style="font-family: 'Open Sans', verdana, arial, sans-serif; font-size: 12px; fill: rgb(68, 68, 68); fill-opacity: 1; white-space: pre;">Replay Ratio = 2</text><g class="layers" style="opacity: 1;"><g class="legendfill"/><g class="legendlines"><path class="js-line" d="M5,0h30" style="fill: none; stroke: rgb(0, 150, 136); stroke-opacity: 1; stroke-width: 2px;"/></g><g class="legendsymbols"><g class="legendpoints"/></g></g><rect class="legendtoggle" x="0" y="-9.5" width="131.6279296875" height="19" style="fill: rgb(0, 0, 0); fill-opacity: 0;"/></g></g></g><rect class="scrollbar" rx="20" ry="3" width="0" height="0" x="0" y="0" style="fill: rgb(128, 139, 164); fill-opacity: 1;"/></g><g class="g-gtitle"><text class="gtitle" x="350" y="50" text-anchor="middle" dy="0em" style="font-family: 'Open Sans', verdana, arial, sans-serif; font-size: 17px; fill: rgb(68, 68, 68); opacity: 1; font-weight: normal; white-space: pre;">DQN on MsPacmanNoFrameskip-v4</text></g><g class="g-xtitle"><text class="xtitle" x="311" y="422" text-anchor="middle" style="font-family: 'Open Sans', verdana, arial, sans-serif; font-size: 14px; fill: rgb(68, 68, 68); opacity: 1; font-weight: normal; white-space: pre;">Episode Count</text></g><g class="g-ytitle"><text class="ytitle" transform="rotate(-90,42,235)" x="42" y="235" text-anchor="middle" style="font-family: 'Open Sans', verdana, arial, sans-serif; font-size: 14px; fill: rgb(68, 68, 68); opacity: 1; font-weight: normal; white-space: pre;">Episode Reward</text></g></g></svg>