<svg class="main-svg" xmlns="http://www.w3.org/2000/svg" xmlns:xlink="http://www.w3.org/1999/xlink" width="700" height="450" style="" viewBox="0 0 700 450"><rect x="0" y="0" width="700" height="450" style="fill: rgb(255, 255, 255); fill-opacity: 1;"/><defs id="defs-bb20f8"><g class="clips"><clipPath id="clipbb20f8xyplot" class="plotclip"><rect width="462" height="270"/></clipPath><clipPath class="axesclip" id="clipbb20f8x"><rect x="80" y="0" width="462" height="450"/></clipPath><clipPath class="axesclip" id="clipbb20f8y"><rect x="0" y="100" width="700" height="270"/></clipPath><clipPath class="axesclip" id="clipbb20f8xy"><rect x="80" y="100" width="462" height="270"/></clipPath></g><g class="gradients"/><g class="patterns"/></defs><g class="bglayer"/><g class="layer-below"><g class="imagelayer"/><g class="shapelayer"/></g><g class="cartesianlayer"><g class="subplot xy"><g class="layer-subplot"><g class="shapelayer"/><g class="imagelayer"/></g><g class="minor-gridlayer"><g class="x"/><g class="y"/></g><g class="gridlayer"><g class="x"><path class="xgrid crisp" transform="translate(157.39,0)" d="M0,100v270" style="stroke: rgb(238, 238, 238); stroke-opacity: 1; stroke-width: 1px;"/><path class="xgrid crisp" transform="translate(235.56,0)" d="M0,100v270" style="stroke: rgb(238, 238, 238); stroke-opacity: 1; stroke-width: 1px;"/><path class="xgrid crisp" transform="translate(313.74,0)" d="M0,100v270" style="stroke: rgb(238, 238, 238); stroke-opacity: 1; stroke-width: 1px;"/><path class="xgrid crisp" transform="translate(391.91,0)" d="M0,100v270" style="stroke: rgb(238, 238, 238); stroke-opacity: 1; stroke-width: 1px;"/><path class="xgrid crisp" transform="translate(470.08,0)" d="M0,100v270" style="stroke: rgb(238, 238, 238); stroke-opacity: 1; stroke-width: 1px;"/></g><g class="y"><path class="ygrid crisp" transform="translate(0,319.68)" d="M80,0h462" style="stroke: rgb(238, 238, 238); stroke-opacity: 1; stroke-width: 1px;"/><path class="ygrid crisp" transform="translate(0,282.86)" d="M80,0h462" style="stroke: rgb(238, 238, 238); stroke-opacity: 1; stroke-width: 1px;"/><path class="ygrid crisp" transform="translate(0,246.05)" d="M80,0h462" style="stroke: rgb(238, 238, 238); stroke-opacity: 1; stroke-width: 1px;"/><path class="ygrid crisp" transform="translate(0,209.23000000000002)" d="M80,0h462" style="stroke: rgb(238, 238, 238); stroke-opacity: 1; stroke-width: 1px;"/><path class="ygrid crisp" transform="translate(0,172.41)" d="M80,0h462" style="stroke: rgb(238, 238, 238); stroke-opacity: 1; stroke-width: 1px;"/><path class="ygrid crisp" transform="translate(0,135.59)" d="M80,0h462" style="stroke: rgb(238, 238, 238); stroke-opacity: 1; stroke-width: 1px;"/></g></g><g class="zerolinelayer"><path class="yzl zl crisp" transform="translate(0,356.5)" d="M80,0h462" style="stroke: rgb(68, 68, 68); stroke-opacity: 1; stroke-width: 1px;"/></g><path class="xlines-below"/><path class="ylines-below"/><g class="overlines-below"/><g class="xaxislayer-below"/><g class="yaxislayer-below"/><g class="overaxes-below"/><g class="plot" transform="translate(80,100)" clip-path="url(#clipbb20f8xyplot)"><g class="scatterlayer mlayer"><g class="trace scatter traceddc406" style="stroke-miterlimit: 2; opacity: 1;"><g class="fills"/><g class="errorbars"/><g class="lines"><path class="js-line" d="M0,212.32L1.56,241.77L2.35,219.68L3.13,238.09L3.91,219.68L4.69,227.05L5.47,252.82L7.04,230.73L7.82,234.41L8.6,138.68L9.38,219.68L10.16,252.82L10.94,245.45L11.73,208.64L12.51,252.82L14.07,208.64L14.85,227.05L15.63,197.59L16.42,68.73L17.98,234.41L18.76,175.5L19.54,249.14L20.32,234.41L21.11,168.14L21.89,219.68L22.67,216L23.45,127.64L24.23,230.73L25.02,204.95L25.8,223.36L26.58,201.27L27.36,201.27L28.14,175.5L28.92,252.82L29.71,256.5L30.49,164.45L31.27,234.41L33.61,171.82L34.4,212.32L35.18,171.82L35.96,212.32L36.74,256.5L37.52,168.14L38.3,238.09L39.09,153.41L41.43,216L42.21,204.95L43.78,241.77L44.56,216L45.34,223.36L46.12,13.5L46.9,204.95L47.69,179.18L48.47,219.68L49.25,190.23L50.81,241.77L51.59,112.91L53.16,256.5L53.94,193.91L54.72,197.59L55.5,249.14L56.28,186.55L57.07,204.95L57.85,249.14L58.63,219.68L59.41,127.64L60.19,238.09L60.97,208.64L61.76,234.41L62.54,241.77L63.32,186.55L64.88,249.14L65.66,212.32L66.45,249.14L67.23,245.45L68.01,227.05L68.79,230.73L69.57,208.64L70.36,230.73L71.14,256.5L71.92,135L73.48,234.41L74.26,204.95L75.83,193.91L76.61,238.09L77.39,157.09L78.17,160.77L78.95,256.5L79.74,193.91L80.52,256.5L81.3,230.73L82.08,208.64L82.86,157.09L83.64,238.09L84.43,216L85.21,168.14L85.99,182.86L86.77,223.36L87.55,201.27L88.34,256.5L89.12,186.55L89.9,245.45L90.68,230.73L92.24,204.95L93.03,234.41L93.81,216L94.59,168.14L95.37,227.05L96.15,160.77L96.93,227.05L97.72,223.36L98.5,219.68L99.28,227.05L100.06,234.41L100.84,219.68L101.62,208.64L102.41,241.77L103.19,175.5L103.97,216L104.75,241.77L105.53,219.68L106.31,227.05L107.1,223.36L107.88,153.41L108.66,208.64L109.44,256.5L110.22,175.5L111.01,149.73L111.79,160.77L112.57,116.59L113.35,193.91L114.13,252.82L114.91,146.05L116.48,252.82L117.26,212.32L118.04,219.68L118.82,241.77L119.6,216L120.39,245.45L121.95,216L122.73,171.82L123.51,238.09L124.29,230.73L125.08,252.82L125.86,252.82L126.64,186.55L127.42,219.68L128.2,219.68L128.98,105.55L130.55,256.5L131.33,204.95L132.11,234.41L132.89,219.68L133.68,204.95L134.46,227.05L135.24,249.14L136.02,135L137.58,227.05L138.37,179.18L139.15,245.45L139.93,186.55L140.71,216L141.49,201.27L142.27,238.09L143.06,204.95L143.84,160.77L144.62,249.14L146.18,197.59L146.96,238.09L148.53,204.95L149.31,208.64L150.09,204.95L150.87,171.82L151.65,171.82L152.44,193.91L154,223.36L154.78,149.73L155.56,252.82L156.35,252.82L157.91,216L158.69,219.68L159.47,186.55L160.25,219.68L161.04,249.14L161.82,197.59L162.6,212.32L163.38,241.77L164.94,197.59L165.73,252.82L166.51,201.27L167.29,204.95L168.07,223.36L168.85,131.32L170.42,245.45L171.2,204.95L171.98,153.41L172.76,245.45L173.54,197.59L174.32,238.09L175.89,219.68L176.67,182.86L177.45,160.77L178.23,193.91L179.02,168.14L179.8,227.05L180.58,216L181.36,157.09L182.14,175.5L182.92,216L183.71,238.09L184.49,223.36L185.27,219.68L186.05,204.95L186.83,230.73L187.61,212.32L188.4,175.5L189.18,204.95L190.74,223.36L191.52,245.45L192.3,227.05L193.09,241.77L194.65,201.27L195.43,227.05L196.21,249.14L196.99,223.36L197.78,204.95L198.56,223.36L199.34,197.59L200.12,238.09L200.9,245.45L201.69,212.32L202.47,256.5L203.25,219.68L204.81,208.64L205.59,212.32L206.38,227.05L207.16,204.95L207.94,212.32L208.72,168.14L209.5,227.05L210.28,219.68L211.85,186.55L212.63,249.14L213.41,131.32L214.19,160.77L214.97,234.41L215.76,212.32L216.54,227.05L217.32,197.59L218.1,238.09L218.88,223.36L219.66,186.55L220.45,190.23L221.23,149.73L222.01,208.64L222.79,204.95L223.57,212.32L224.36,252.82L225.14,223.36L225.92,216L226.7,201.27L227.48,219.68L228.26,219.68L229.05,249.14L229.83,201.27L230.61,197.59L231.39,216L232.17,204.95L232.95,230.73L233.74,230.73L234.52,219.68L235.3,230.73L236.08,223.36L236.86,197.59L237.64,227.05L238.43,227.05L239.21,216L239.99,186.55L240.77,204.95L241.55,193.91L242.34,219.68L243.12,256.5L243.9,234.41L244.68,238.09L245.46,219.68L246.24,234.41L247.03,201.27L247.81,241.77L248.59,157.09L249.37,245.45L250.15,227.05L250.93,171.82L251.72,223.36L252.5,208.64L253.28,87.14L254.06,238.09L254.84,186.55L255.62,230.73L256.41,160.77L257.19,230.73L257.97,208.64L258.75,216L259.53,249.14L261.1,186.55L261.88,230.73L262.66,197.59L263.44,212.32L264.22,197.59L265.01,227.05L266.57,182.86L267.35,182.86L268.13,238.09L268.91,212.32L269.7,201.27L270.48,212.32L271.26,230.73L272.04,190.23L272.82,212.32L273.6,204.95L274.39,98.18L275.17,219.68L275.95,256.5L276.73,190.23L277.51,245.45L278.29,175.5L279.08,149.73L279.86,204.95L280.64,245.45L281.42,227.05L282.2,83.45L282.98,146.05L284.55,216L285.33,234.41L286.11,230.73L286.89,241.77L287.68,238.09L288.46,208.64L289.24,230.73L290.02,230.73L291.58,182.86L292.37,256.5L293.15,190.23L293.93,223.36L294.71,234.41L295.49,201.27L297.06,238.09L297.84,216L298.62,230.73L299.4,219.68L300.18,208.64L300.96,234.41L301.75,241.77L302.53,72.41L304.09,230.73L304.87,227.05L305.65,252.82L306.44,208.64L307.22,186.55L308,216L308.78,252.82L309.56,171.82L311.13,219.68L311.91,182.86L312.69,197.59L313.47,256.5L314.25,157.09L315.04,160.77L315.82,230.73L316.6,201.27L317.38,212.32L318.16,249.14L319.73,212.32L320.51,219.68L322.07,179.18L322.85,256.5L323.63,98.18L324.42,193.91L325.2,256.5L325.98,219.68L326.76,201.27L327.54,238.09L328.32,182.86L329.11,212.32L329.89,241.77L330.67,230.73L331.45,142.36L332.23,227.05L333.02,238.09L333.8,212.32L334.58,227.05L335.36,219.68L336.92,193.91L337.71,193.91L338.49,245.45L339.27,223.36L340.05,197.59L340.83,241.77L341.61,234.41L342.4,201.27L343.18,249.14L343.96,171.82L344.74,230.73L345.52,201.27L346.3,212.32L347.09,208.64L347.87,212.32L348.65,223.36L349.43,190.23L350.21,230.73L350.99,234.41L351.78,223.36L352.56,241.77L353.34,208.64L354.12,197.59L354.9,212.32L355.69,256.5L356.47,208.64L358.03,245.45L358.81,223.36L359.59,219.68L360.38,230.73L362.72,201.27L363.5,160.77L365.07,204.95L365.85,186.55L366.63,186.55L367.41,223.36L368.19,204.95L368.97,212.32L370.54,219.68L371.32,216L372.1,238.09L372.88,87.14L373.66,256.5L374.45,197.59L375.23,201.27L376.01,245.45L377.57,227.05L378.36,182.86L380.7,249.14L381.48,223.36L382.26,197.59L383.05,223.36L383.83,256.5L384.61,212.32L385.39,204.95L386.17,227.05L386.95,234.41L387.74,175.5L388.52,241.77L389.3,223.36L390.08,204.95L390.86,164.45L391.64,182.86L392.43,160.77L393.21,201.27L393.99,201.27L394.77,234.41L395.55,234.41L396.34,208.64L397.12,230.73L398.68,197.59L399.46,241.77L401.03,186.55L401.81,241.77L403.37,208.64L404.15,208.64L404.93,227.05L405.72,219.68L406.5,208.64L407.28,219.68L408.06,238.09L408.84,197.59L409.62,245.45L410.41,201.27L411.19,157.09L411.97,241.77L412.75,227.05L413.53,245.45L414.31,204.95L415.1,223.36L415.88,219.68L416.66,252.82L418.22,149.73L419.01,241.77L420.57,175.5L421.35,182.86L422.91,223.36L423.7,252.82L425.26,171.82L426.04,216" style="vector-effect: none; fill: none; stroke: rgb(156, 39, 176); stroke-opacity: 1; stroke-width: 2px; opacity: 1;"/></g><g class="points"/><g class="text"/></g><g class="trace scatter trace023386" style="stroke-miterlimit: 2; opacity: 1;"><g class="fills"/><g class="errorbars"/><g class="lines"><path class="js-line" d="M0,190.23L1.56,252.82L2.35,204.95L3.13,256.5L3.91,238.09L4.69,212.32L5.47,241.77L6.25,245.45L7.04,197.59L7.82,249.14L8.6,193.91L10.16,252.82L10.94,223.36L11.73,197.59L12.51,252.82L13.29,171.82L14.07,219.68L14.85,223.36L15.63,241.77L16.42,164.45L17.2,249.14L17.98,238.09L18.76,201.27L20.32,241.77L21.11,179.18L21.89,256.5L22.67,234.41L23.45,201.27L24.23,241.77L25.02,256.5L25.8,160.77L26.58,256.5L27.36,245.45L28.14,164.45L28.92,249.14L29.71,256.5L30.49,186.55L31.27,138.68L32.05,241.77L32.83,193.91L33.61,227.05L34.4,252.82L35.18,182.86L36.74,256.5L37.52,219.68L39.09,252.82L39.87,171.82L40.65,249.14L41.43,212.32L42.21,234.41L42.99,227.05L43.78,249.14L44.56,208.64L45.34,204.95L46.12,212.32L48.47,249.14L49.25,212.32L50.03,241.77L50.81,230.73L51.59,208.64L52.38,219.68L53.16,249.14L53.94,112.91L55.5,252.82L56.28,223.36L57.07,208.64L57.85,234.41L58.63,216L59.41,216L60.19,245.45L60.97,216L61.76,252.82L62.54,112.91L63.32,234.41L64.1,230.73L64.88,212.32L65.66,212.32L66.45,249.14L67.23,230.73L68.01,212.32L68.79,252.82L70.36,223.36L71.14,256.5L72.7,208.64L73.48,249.14L74.26,249.14L75.05,223.36L75.83,230.73L76.61,204.95L77.39,230.73L78.17,208.64L78.95,230.73L79.74,219.68L80.52,241.77L81.3,223.36L82.08,212.32L82.86,238.09L83.64,227.05L84.43,245.45L85.21,227.05L85.99,227.05L86.77,219.68L87.55,230.73L88.34,190.23L89.12,212.32L89.9,201.27L90.68,227.05L91.46,230.73L92.24,223.36L93.03,249.14L93.81,208.64L94.59,216L95.37,208.64L96.15,216L96.93,179.18L98.5,230.73L99.28,249.14L100.06,245.45L100.84,230.73L101.62,216L102.41,216L103.19,219.68L103.97,230.73L104.75,256.5L105.53,212.32L107.1,249.14L107.88,219.68L108.66,234.41L109.44,219.68L110.22,238.09L111.01,238.09L111.79,234.41L112.57,204.95L113.35,234.41L114.13,234.41L114.91,223.36L115.7,245.45L116.48,238.09L117.26,238.09L118.04,219.68L118.82,219.68L119.6,193.91L120.39,193.91L121.17,245.45L121.95,197.59L122.73,197.59L123.51,252.82L124.29,227.05L125.08,252.82L126.64,230.73L127.42,201.27L128.2,256.5L128.98,179.18L130.55,249.14L131.33,216L132.89,234.41L133.68,208.64L134.46,212.32L135.24,241.77L136.02,216L136.8,230.73L138.37,230.73L139.15,98.18L139.93,230.73L140.71,234.41L141.49,223.36L142.27,230.73L143.06,219.68L143.84,230.73L144.62,216L145.4,216L146.18,234.41L146.96,175.5L147.75,186.55L148.53,249.14L150.09,216L150.87,249.14L151.65,241.77L152.44,219.68L153.22,175.5L154,227.05L154.78,212.32L155.56,249.14L156.35,238.09L157.13,131.32L157.91,238.09L158.69,208.64L159.47,212.32L160.25,116.59L161.04,241.77L161.82,197.59L162.6,249.14L163.38,219.68L164.16,201.27L164.94,238.09L165.73,256.5L166.51,216L167.29,234.41L168.07,234.41L168.85,212.32L169.63,238.09L170.42,252.82L171.2,216L172.76,256.5L173.54,223.36L174.32,252.82L175.11,204.95L175.89,208.64L176.67,223.36L177.45,223.36L178.23,186.55L179.8,252.82L180.58,245.45L182.92,234.41L183.71,219.68L184.49,238.09L185.27,230.73L186.83,238.09L187.61,227.05L188.4,212.32L189.18,256.5L189.96,241.77L190.74,208.64L191.52,241.77L192.3,208.64L193.09,197.59L193.87,234.41L194.65,208.64L195.43,234.41L196.21,238.09L196.99,219.68L197.78,208.64L198.56,256.5L199.34,179.18L200.12,212.32L200.9,249.14L201.69,227.05L203.25,212.32L204.03,219.68L204.81,245.45L205.59,238.09L206.38,216L207.16,238.09L208.72,193.91L209.5,230.73L211.07,204.95L211.85,208.64L212.63,227.05L213.41,223.36L214.19,256.5L214.97,212.32L215.76,212.32L216.54,182.86L217.32,216L218.1,135L219.66,245.45L220.45,219.68L222.01,245.45L222.79,212.32L224.36,256.5L225.14,219.68L225.92,216L226.7,249.14L227.48,197.59L228.26,216L229.05,230.73L229.83,227.05L230.61,249.14L231.39,223.36L232.17,204.95L232.95,245.45L234.52,223.36L235.3,175.5L236.08,238.09L236.86,208.64L238.43,164.45L239.21,234.41L239.99,216L240.77,241.77L241.55,197.59L242.34,252.82L243.9,204.95L244.68,230.73L245.46,208.64L246.24,223.36L247.81,252.82L248.59,241.77L249.37,201.27L250.15,241.77L251.72,182.86L252.5,249.14L253.28,227.05L254.06,175.5L254.84,238.09L255.62,208.64L256.41,208.64L257.19,223.36L257.97,208.64L258.75,256.5L260.31,223.36L261.1,131.32L261.88,216L262.66,197.59L264.22,256.5L265.01,179.18L266.57,238.09L267.35,219.68L268.13,249.14L268.91,131.32L269.7,223.36L270.48,175.5L271.26,234.41L272.04,223.36L272.82,256.5L273.6,212.32L274.39,182.86L275.17,241.77L275.95,249.14L276.73,208.64L278.29,252.82L279.08,230.73L279.86,212.32L280.64,230.73L281.42,238.09L282.2,223.36L282.98,234.41L283.77,212.32L284.55,216L285.33,227.05L286.11,197.59L286.89,230.73L287.68,252.82L288.46,227.05L289.24,219.68L290.02,123.95L290.8,227.05L291.58,227.05L292.37,219.68L293.15,219.68L293.93,245.45L294.71,201.27L295.49,201.27L296.27,252.82L297.84,208.64L298.62,241.77L299.4,252.82L300.18,212.32L300.96,227.05L301.75,212.32L302.53,171.82L303.31,208.64L304.09,219.68L304.87,179.18L306.44,256.5L307.22,204.95L308,234.41L308.78,182.86L310.35,223.36L311.13,252.82L311.91,182.86L312.69,223.36L313.47,168.14L314.25,230.73L315.04,201.27L315.82,227.05L316.6,142.36L317.38,219.68L318.16,245.45L318.94,208.64L319.73,216L320.51,241.77L321.29,193.91L322.07,212.32L322.85,245.45L323.63,190.23L325.2,249.14L325.98,234.41L326.76,223.36L327.54,238.09L328.32,216L329.11,171.82L329.89,227.05L330.67,135L331.45,245.45L332.23,249.14L333.02,197.59L333.8,227.05L334.58,234.41L335.36,234.41L336.14,216L336.92,219.68L337.71,219.68L338.49,190.23L339.27,256.5L340.05,204.95L341.61,241.77L342.4,212.32L343.18,208.64L343.96,219.68L344.74,204.95L345.52,241.77L346.3,190.23L347.09,219.68L347.87,223.36L348.65,241.77L349.43,127.64L350.21,252.82L351.78,219.68L352.56,249.14L353.34,245.45L354.12,182.86L355.69,249.14L356.47,208.64L357.25,212.32L358.03,249.14L358.81,216L359.59,219.68L360.38,227.05L361.16,186.55L361.94,216L362.72,204.95L363.5,230.73L364.28,197.59L365.07,252.82L365.85,212.32L366.63,241.77L367.41,219.68L368.19,212.32L368.97,252.82L369.76,245.45L370.54,227.05L371.32,190.23L372.1,109.23L373.66,227.05L374.45,252.82L376.01,212.32L376.79,238.09L378.36,208.64L379.14,241.77L379.92,223.36L380.7,249.14L381.48,245.45L382.26,201.27L383.83,234.41L384.61,197.59L386.17,238.09L386.95,208.64L388.52,241.77L389.3,204.95L390.08,123.95L390.86,208.64L391.64,204.95L392.43,219.68L393.21,234.41L393.99,223.36L394.77,216L395.55,238.09L396.34,168.14L397.12,227.05L397.9,249.14L398.68,186.55L399.46,249.14L400.24,227.05L401.03,219.68L401.81,227.05L402.59,216L403.37,230.73L404.15,234.41L404.93,223.36L405.72,216L406.5,227.05L407.28,230.73L408.06,208.64L409.62,245.45L410.41,171.82L411.97,245.45L412.75,204.95L413.53,252.82L414.31,216L415.1,204.95L415.88,249.14L418.22,212.32L419.01,223.36L419.79,234.41L420.57,227.05L421.35,219.68L422.13,230.73L422.91,201.27L423.7,249.14L424.48,197.59L425.26,238.09L426.82,212.32L427.6,245.45L428.39,234.41L429.17,135L429.95,245.45L430.73,234.41L431.51,230.73L432.29,201.27L433.08,212.32L433.86,171.82L434.64,241.77L435.42,204.95L436.2,190.23L436.98,216L437.77,241.77L438.55,219.68L439.33,204.95L440.11,256.5L442.46,190.23L443.24,223.36L444.02,186.55L444.8,256.5L447.15,208.64L447.93,216L448.71,204.95L449.49,208.64L450.27,197.59L451.06,212.32L451.84,252.82L452.62,208.64L453.4,208.64L454.18,245.45" style="vector-effect: none; fill: none; stroke: rgb(33, 150, 243); stroke-opacity: 1; stroke-width: 2px; opacity: 1;"/></g><g class="points"/><g class="text"/></g><g class="trace scatter trace41001e" style="stroke-miterlimit: 2; opacity: 1;"><g class="fills"/><g class="errorbars"/><g class="lines"><path class="js-line" d="M0,219.68L0.78,223.36L1.56,256.5L2.35,212.32L3.13,245.45L3.91,238.09L4.69,223.36L5.47,252.82L6.25,223.36L7.82,245.45L8.6,182.86L9.38,193.91L10.16,241.77L10.94,245.45L11.73,219.68L12.51,245.45L13.29,241.77L14.07,223.36L14.85,249.14L15.63,249.14L16.42,227.05L17.2,241.77L17.98,238.09L18.76,230.73L19.54,249.14L20.32,252.82L21.11,208.64L21.89,245.45L22.67,241.77L24.23,219.68L25.02,256.5L25.8,201.27L26.58,256.5L27.36,245.45L28.14,219.68L28.92,216L29.71,256.5L30.49,230.73L31.27,230.73L32.83,179.18L33.61,256.5L35.18,204.95L35.96,190.23L36.74,256.5L37.52,182.86L38.3,245.45L39.09,212.32L39.87,234.41L40.65,204.95L41.43,256.5L42.21,179.18L43.78,256.5L44.56,182.86L45.34,245.45L46.12,245.45L46.9,179.18L47.69,245.45L48.47,256.5L49.25,175.5L50.03,245.45L50.81,238.09L51.59,186.55L52.38,249.14L53.16,252.82L53.94,219.68L54.72,238.09L55.5,234.41L57.07,216L57.85,241.77L58.63,190.23L59.41,249.14L60.19,252.82L60.97,227.05L61.76,164.45L62.54,182.86L64.88,245.45L65.66,153.41L66.45,245.45L67.23,230.73L68.01,204.95L68.79,223.36L69.57,230.73L70.36,204.95L71.14,256.5L71.92,245.45L72.7,230.73L73.48,249.14L75.05,216L75.83,245.45L76.61,241.77L77.39,197.59L78.95,256.5L79.74,204.95L81.3,241.77L82.08,204.95L82.86,241.77L83.64,204.95L85.21,186.55L85.99,190.23L86.77,219.68L87.55,208.64L88.34,227.05L89.12,201.27L89.9,234.41L90.68,230.73L92.24,212.32L93.03,249.14L93.81,238.09L94.59,216L95.37,230.73L96.15,149.73L97.72,234.41L98.5,219.68L99.28,216L100.06,252.82L101.62,190.23L102.41,256.5L103.19,219.68L103.97,227.05L104.75,256.5L105.53,197.59L106.31,238.09L107.1,212.32L107.88,204.95L108.66,219.68L109.44,238.09L110.22,208.64L111.01,208.64L111.79,204.95L113.35,227.05L114.13,201.27L114.91,212.32L115.7,256.5L116.48,245.45L117.26,212.32L118.04,238.09L118.82,227.05L119.6,190.23L120.39,197.59L121.17,238.09L121.95,219.68L122.73,238.09L123.51,230.73L124.29,201.27L125.08,234.41L125.86,256.5L126.64,190.23L128.2,238.09L128.98,216L129.77,238.09L130.55,227.05L131.33,182.86L132.11,249.14L132.89,249.14L133.68,208.64L134.46,230.73L135.24,201.27L136.8,252.82L137.58,219.68L138.37,238.09L139.15,234.41L139.93,87.14L140.71,182.86L142.27,252.82L143.06,208.64L144.62,241.77L145.4,212.32L146.18,212.32L146.96,216L147.75,201.27L148.53,204.95L149.31,249.14L150.09,193.91L150.87,230.73L151.65,223.36L152.44,204.95L153.22,234.41L154,219.68L154.78,227.05L155.56,245.45L156.35,216L157.13,241.77L157.91,219.68L158.69,216L159.47,223.36L160.25,219.68L161.04,223.36L161.82,216L162.6,216L163.38,252.82L164.16,216L164.94,238.09L165.73,234.41L166.51,227.05L167.29,227.05L168.07,234.41L168.85,204.95L171.2,238.09L171.98,230.73L172.76,245.45L173.54,212.32L174.32,223.36L175.11,212.32L176.67,204.95L177.45,249.14L179.02,204.95L179.8,234.41L181.36,193.91L182.14,201.27L182.92,212.32L183.71,204.95L184.49,197.59L185.27,201.27L186.83,241.77L187.61,238.09L188.4,216L189.18,234.41L189.96,219.68L190.74,241.77L192.3,201.27L193.09,208.64L193.87,252.82L194.65,219.68L195.43,249.14L196.21,190.23L196.99,201.27L197.78,245.45L198.56,208.64L199.34,212.32L200.12,245.45L200.9,230.73L201.69,241.77L202.47,216L203.25,252.82L204.03,212.32L204.81,234.41L205.59,201.27L206.38,201.27L207.16,249.14L207.94,234.41L208.72,131.32L209.5,101.86L210.28,256.5L211.07,201.27L211.85,216L212.63,252.82L213.41,223.36L214.19,249.14L214.97,241.77L215.76,212.32L216.54,219.68L218.1,182.86L218.88,245.45L219.66,230.73L220.45,112.91L221.23,238.09L222.01,182.86L222.79,171.82L223.57,227.05L224.36,238.09L225.14,234.41L225.92,238.09L226.7,219.68L227.48,149.73L228.26,249.14L229.83,197.59L230.61,241.77L232.17,208.64L232.95,142.36L233.74,234.41L234.52,234.41L235.3,212.32L236.08,219.68L236.86,212.32L237.64,245.45L238.43,212.32L239.21,234.41L239.99,168.14L240.77,249.14L242.34,201.27L243.12,256.5L243.9,223.36L244.68,238.09L246.24,212.32L247.03,245.45L247.81,245.45L248.59,212.32L249.37,193.91L250.15,245.45L250.93,223.36L251.72,234.41L252.5,241.77L253.28,223.36L254.84,216L255.62,238.09L256.41,201.27L257.19,245.45L257.97,168.14L258.75,223.36L259.53,238.09L260.31,223.36L261.88,249.14L262.66,201.27L263.44,234.41L264.22,234.41L265.01,227.05L265.79,234.41L267.35,219.68L268.13,234.41L268.91,223.36L269.7,227.05L270.48,208.64L271.26,230.73L272.82,208.64L273.6,238.09L274.39,230.73L275.17,204.95L275.95,190.23L276.73,216L277.51,193.91L278.29,249.14L279.08,201.27L279.86,234.41L280.64,212.32L281.42,216L282.2,238.09L282.98,212.32L283.77,212.32L284.55,241.77L285.33,249.14L286.11,230.73L286.89,186.55L287.68,249.14L288.46,204.95L289.24,234.41L290.02,223.36L290.8,197.59L292.37,256.5L293.15,230.73L293.93,245.45L294.71,208.64L295.49,223.36L296.27,127.64L297.06,223.36L297.84,223.36L298.62,227.05L299.4,212.32L300.96,234.41L301.75,204.95L302.53,223.36L303.31,223.36L304.09,227.05L304.87,212.32L305.65,234.41L306.44,201.27L307.22,201.27L308,230.73L309.56,204.95L310.35,234.41L311.91,219.68L312.69,241.77L313.47,227.05L314.25,241.77L315.04,238.09L315.82,256.5L317.38,204.95L318.16,216L318.94,208.64L319.73,238.09L320.51,234.41L321.29,212.32L322.07,212.32L322.85,256.5L323.63,241.77L324.42,190.23L325.98,230.73L326.76,197.59L327.54,227.05L328.32,204.95L329.89,256.5L330.67,219.68L331.45,252.82L332.23,230.73L333.8,201.27L334.58,241.77L335.36,208.64L336.14,245.45L337.71,164.45L338.49,190.23L339.27,223.36L340.05,223.36L340.83,245.45L341.61,234.41L342.4,208.64L343.18,238.09L343.96,212.32L344.74,230.73L345.52,249.14L346.3,230.73L347.87,182.86L348.65,252.82L349.43,219.68L350.21,249.14L351.78,216L352.56,216L353.34,234.41L354.12,212.32L355.69,238.09L356.47,216L357.25,208.64L358.03,241.77L358.81,204.95L359.59,204.95L360.38,216L361.16,197.59L361.94,182.86L362.72,234.41L363.5,204.95L364.28,245.45L365.07,101.86L365.85,223.36L366.63,182.86L367.41,256.5L368.19,212.32L368.97,241.77L369.76,256.5L370.54,208.64L371.32,193.91L372.1,256.5L373.66,208.64L374.45,234.41L376.01,197.59L376.79,256.5L377.57,212.32L378.36,238.09L379.14,223.36L379.92,223.36L380.7,219.68L381.48,245.45L382.26,219.68L383.05,249.14L385.39,208.64L386.17,256.5L386.95,190.23L387.74,227.05L389.3,208.64L390.08,216L390.86,227.05L391.64,193.91L392.43,227.05L393.21,204.95L395.55,223.36L396.34,216L397.12,204.95L397.9,212.32L398.68,193.91L399.46,208.64L400.24,252.82L401.03,186.55L402.59,212.32L403.37,175.5L404.15,238.09L404.93,208.64L405.72,201.27L406.5,256.5L408.06,208.64L408.84,230.73L409.62,208.64L410.41,212.32L411.19,204.95L411.97,252.82L412.75,212.32L413.53,227.05L414.31,227.05L415.1,179.18L415.88,249.14L416.66,234.41L417.44,216L418.22,219.68L419.01,245.45L419.79,216L420.57,252.82L421.35,230.73L422.13,223.36L422.91,227.05L423.7,245.45L424.48,208.64L425.26,256.5L426.04,252.82L426.82,193.91L427.6,241.77L428.39,135L429.17,216L429.95,230.73L430.73,230.73L431.51,204.95L432.29,223.36L433.08,230.73L433.86,204.95L434.64,256.5L435.42,219.68L436.2,208.64L436.98,249.14L437.77,241.77L438.55,241.77L439.33,223.36L440.11,249.14L440.89,208.64L441.68,216L442.46,252.82L443.24,219.68L444.02,249.14L444.8,164.45L445.58,219.68L446.37,219.68L447.15,230.73L447.93,216L448.71,197.59L449.49,249.14L451.06,230.73L451.84,234.41L452.62,204.95L453.4,245.45L454.96,227.05L455.75,212.32L456.53,252.82L457.31,223.36L458.09,234.41L458.87,190.23L460.44,249.14L461.22,193.91L462,72.41" style="vector-effect: none; fill: none; stroke: rgb(0, 150, 136); stroke-opacity: 1; stroke-width: 2px; opacity: 1;"/></g><g class="points"/><g class="text"/></g></g></g><g class="overplot"/><path class="xlines-above crisp" d="M79,370.5H542" style="fill: none; stroke-width: 1px; stroke: rgb(68, 68, 68); stroke-opacity: 1;"/><path class="ylines-above crisp" d="M79.5,100V370" style="fill: none; stroke-width: 1px; stroke: rgb(68, 68, 68); stroke-opacity: 1;"/><g class="overlines-above"/><g class="xaxislayer-above"><path class="xtick ticks crisp" d="M0,371v5" transform="translate(157.39,0)" style="stroke: rgb(68, 68, 68); stroke-opacity: 1; stroke-width: 1px;"/><path class="xtick ticks crisp" d="M0,371v5" transform="translate(235.56,0)" style="stroke: rgb(68, 68, 68); stroke-opacity: 1; stroke-width: 1px;"/><path class="xtick ticks crisp" d="M0,371v5" transform="translate(313.74,0)" style="stroke: rgb(68, 68, 68); stroke-opacity: 1; stroke-width: 1px;"/><path class="xtick ticks crisp" d="M0,371v5" transform="translate(391.91,0)" style="stroke: rgb(68, 68, 68); stroke-opacity: 1; stroke-width: 1px;"/><path class="xtick ticks crisp" d="M0,371v5" transform="translate(470.08,0)" style="stroke: rgb(68, 68, 68); stroke-opacity: 1; stroke-width: 1px;"/><g class="xtick"><text text-anchor="middle" x="0" y="390.4" transform="translate(157.39,0)" style="font-family: 'Open Sans', verdana, arial, sans-serif; font-size: 12px; fill: rgb(68, 68, 68); fill-opacity: 1; white-space: pre; opacity: 1;">100</text></g><g class="xtick"><text text-anchor="middle" x="0" y="390.4" style="font-family: 'Open Sans', verdana, arial, sans-serif; font-size: 12px; fill: rgb(68, 68, 68); fill-opacity: 1; white-space: pre; opacity: 1;" transform="translate(235.56,0)">200</text></g><g class="xtick"><text text-anchor="middle" x="0" y="390.4" style="font-family: 'Open Sans', verdana, arial, sans-serif; font-size: 12px; fill: rgb(68, 68, 68); fill-opacity: 1; white-space: pre; opacity: 1;" transform="translate(313.74,0)">300</text></g><g class="xtick"><text text-anchor="middle" x="0" y="390.4" style="font-family: 'Open Sans', verdana, arial, sans-serif; font-size: 12px; fill: rgb(68, 68, 68); fill-opacity: 1; white-space: pre; opacity: 1;" transform="translate(391.91,0)">400</text></g><g class="xtick"><text text-anchor="middle" x="0" y="390.4" style="font-family: 'Open Sans', verdana, arial, sans-serif; font-size: 12px; fill: rgb(68, 68, 68); fill-opacity: 1; white-space: pre; opacity: 1;" transform="translate(470.08,0)">500</text></g></g><g class="yaxislayer-above"><path class="ytick ticks crisp" d="M79,0h-5" transform="translate(0,356.5)" style="stroke: rgb(68, 68, 68); stroke-opacity: 1; stroke-width: 1px;"/><path class="ytick ticks crisp" d="M79,0h-5" transform="translate(0,319.68)" style="stroke: rgb(68, 68, 68); stroke-opacity: 1; stroke-width: 1px;"/><path class="ytick ticks crisp" d="M79,0h-5" transform="translate(0,282.86)" style="stroke: rgb(68, 68, 68); stroke-opacity: 1; stroke-width: 1px;"/><path class="ytick ticks crisp" d="M79,0h-5" transform="translate(0,246.05)" style="stroke: rgb(68, 68, 68); stroke-opacity: 1; stroke-width: 1px;"/><path class="ytick ticks crisp" d="M79,0h-5" transform="translate(0,209.23000000000002)" style="stroke: rgb(68, 68, 68); stroke-opacity: 1; stroke-width: 1px;"/><path class="ytick ticks crisp" d="M79,0h-5" transform="translate(0,172.41)" style="stroke: rgb(68, 68, 68); stroke-opacity: 1; stroke-width: 1px;"/><path class="ytick ticks crisp" d="M79,0h-5" transform="translate(0,135.59)" style="stroke: rgb(68, 68, 68); stroke-opacity: 1; stroke-width: 1px;"/><g class="ytick"><text text-anchor="end" x="71.6" y="4.199999999999999" transform="translate(0,356.5)" style="font-family: 'Open Sans', verdana, arial, sans-serif; font-size: 12px; fill: rgb(68, 68, 68); fill-opacity: 1; white-space: pre; opacity: 1;">0</text></g><g class="ytick"><text text-anchor="end" x="71.6" y="4.199999999999999" style="font-family: 'Open Sans', verdana, arial, sans-serif; font-size: 12px; fill: rgb(68, 68, 68); fill-opacity: 1; white-space: pre; opacity: 1;" transform="translate(0,319.68)">10</text></g><g class="ytick"><text text-anchor="end" x="71.6" y="4.199999999999999" style="font-family: 'Open Sans', verdana, arial, sans-serif; font-size: 12px; fill: rgb(68, 68, 68); fill-opacity: 1; white-space: pre; opacity: 1;" transform="translate(0,282.86)">20</text></g><g class="ytick"><text text-anchor="end" x="71.6" y="4.199999999999999" style="font-family: 'Open Sans', verdana, arial, sans-serif; font-size: 12px; fill: rgb(68, 68, 68); fill-opacity: 1; white-space: pre; opacity: 1;" transform="translate(0,246.05)">30</text></g><g class="ytick"><text text-anchor="end" x="71.6" y="4.199999999999999" style="font-family: 'Open Sans', verdana, arial, sans-serif; font-size: 12px; fill: rgb(68, 68, 68); fill-opacity: 1; white-space: pre; opacity: 1;" transform="translate(0,209.23000000000002)">40</text></g><g class="ytick"><text text-anchor="end" x="71.6" y="4.199999999999999" style="font-family: 'Open Sans', verdana, arial, sans-serif; font-size: 12px; fill: rgb(68, 68, 68); fill-opacity: 1; white-space: pre; opacity: 1;" transform="translate(0,172.41)">50</text></g><g class="ytick"><text text-anchor="end" x="71.6" y="4.199999999999999" style="font-family: 'Open Sans', verdana, arial, sans-serif; font-size: 12px; fill: rgb(68, 68, 68); fill-opacity: 1; white-space: pre; opacity: 1;" transform="translate(0,135.59)">60</text></g></g><g class="overaxes-above"/></g></g><g class="polarlayer"/><g class="smithlayer"/><g class="ternarylayer"/><g class="geolayer"/><g class="funnelarealayer"/><g class="pielayer"/><g class="iciclelayer"/><g class="treemaplayer"/><g class="sunburstlayer"/><g class="glimages"/><defs id="topdefs-bb20f8"><g class="clips"/><clipPath id="legendbb20f8"><rect width="137" height="67" x="0" y="0"/></clipPath></defs><g class="layer-above"><g class="imagelayer"/><g class="shapelayer"/></g><g class="infolayer"><g class="legend" pointer-events="all" transform="translate(551.24,100)"><rect class="bg" shape-rendering="crispEdges" width="137" height="67" x="0" y="0" style="stroke: rgb(68, 68, 68); stroke-opacity: 1; fill: rgb(255, 255, 255); fill-opacity: 1; stroke-width: 0px;"/><g class="scrollbox" transform="" clip-path="url(#legendbb20f8)"><g class="groups"><g class="traces" transform="translate(0,14.5)" style="opacity: 1;"><text class="legendtext" text-anchor="start" x="40" y="4.680000000000001" style="font-family: 'Open Sans', verdana, arial, sans-serif; font-size: 12px; fill: rgb(68, 68, 68); fill-opacity: 1; white-space: pre;">Replay Ratio = 1</text><g class="layers" style="opacity: 1;"><g class="legendfill"/><g class="legendlines"><path class="js-line" d="M5,0h30" style="fill: none; stroke: rgb(156, 39, 176); stroke-opacity: 1; stroke-width: 2px;"/></g><g class="legendsymbols"><g class="legendpoints"/></g></g><rect class="legendtoggle" x="0" y="-9.5" width="131.6279296875" height="19" style="fill: rgb(0, 0, 0); fill-opacity: 0;"/></g><g class="traces" transform="translate(0,33.5)" style="opacity: 1;"><text class="legendtext" text-anchor="start" x="40" y="4.680000000000001" style="font-family: 'Open Sans', verdana, arial, sans-serif; font-size: 12px; fill: rgb(68, 68, 68); fill-opacity: 1; white-space: pre;">Replay Ratio = 4</text><g class="layers" style="opacity: 1;"><g class="legendfill"/><g class="legendlines"><path class="js-line" d="M5,0h30" style="fill: none; stroke: rgb(33, 150, 243); stroke-opacity: 1; stroke-width: 2px;"/></g><g class="legendsymbols"><g class="legendpoints"/></g></g><rect class="legendtoggle" x="0" y="-9.5" width="131.6279296875" height="19" style="fill: rgb(0, 0, 0); fill-opacity: 0;"/></g><g class="traces" transform="translate(0,52.5)" style="opacity: 1;"><text class="legendtext" text-anchor="start" x="40" y="4.680000000000001" style="font-family: 'Open Sans', verdana, arial, sans-serif; font-size: 12px; fill: rgb(68, 68, 68); fill-opacity: 1; white-space: pre;">Replay Ratio = 2</text><g class="layers" style="opacity: 1;"><g class="legendfill"/><g class="legendlines"><path class="js-line" d="M5,0h30" style="fill: none; stroke: rgb(0, 150, 136); stroke-opacity: 1; stroke-width: 2px;"/></g><g class="legendsymbols"><g class="legendpoints"/></g></g><rect class="legendtoggle" x="0" y="-9.5" width="131.6279296875" height="19" style="fill: rgb(0, 0, 0); fill-opacity: 0;"/></g></g></g><rect class="scrollbar" rx="20" ry="3" width="0" height="0" x="0" y="0" style="fill: rgb(128, 139, 164); fill-opacity: 1;"/></g><g class="g-gtitle"><text class="gtitle" x="350" y="50" text-anchor="middle" dy="0em" style="font-family: 'Open Sans', verdana, arial, sans-serif; font-size: 17px; fill: rgb(68, 68, 68); opacity: 1; font-weight: normal; white-space: pre;">SR+DQN on MsPacmanNoFrameskip-v4</text></g><g class="g-xtitle"><text class="xtitle" x="311" y="422" text-anchor="middle" style="font-family: 'Open Sans', verdana, arial, sans-serif; font-size: 14px; fill: rgb(68, 68, 68); opacity: 1; font-weight: normal; white-space: pre;">Episode Count</text></g><g class="g-ytitle"><text class="ytitle" transform="rotate(-90,42,235)" x="42" y="235" text-anchor="middle" style="font-family: 'Open Sans', verdana, arial, sans-serif; font-size: 14px; fill: rgb(68, 68, 68); opacity: 1; font-weight: normal; white-space: pre;">Episode Reward</text></g></g></svg>