<svg class="main-svg" xmlns="http://www.w3.org/2000/svg" xmlns:xlink="http://www.w3.org/1999/xlink" width="700" height="450" style="" viewBox="0 0 700 450"><rect x="0" y="0" width="700" height="450" style="fill: rgb(255, 255, 255); fill-opacity: 1;"/><defs id="defs-33a348"><g class="clips"><clipPath id="clip33a348xyplot" class="plotclip"><rect width="501" height="270"/></clipPath><clipPath class="axesclip" id="clip33a348x"><rect x="80" y="0" width="501" height="450"/></clipPath><clipPath class="axesclip" id="clip33a348y"><rect x="0" y="100" width="700" height="270"/></clipPath><clipPath class="axesclip" id="clip33a348xy"><rect x="80" y="100" width="501" height="270"/></clipPath></g><g class="gradients"/><g class="patterns"/></defs><g class="bglayer"/><g class="layer-below"><g class="imagelayer"/><g class="shapelayer"/></g><g class="cartesianlayer"><g class="subplot xy"><g class="layer-subplot"><g class="shapelayer"/><g class="imagelayer"/></g><g class="minor-gridlayer"><g class="x"/><g class="y"/></g><g class="gridlayer"><g class="x"><path class="xgrid crisp" transform="translate(248.14,0)" d="M0,100v270" style="stroke: rgb(238, 238, 238); stroke-opacity: 1; stroke-width: 1px;"/><path class="xgrid crisp" transform="translate(419.72,0)" d="M0,100v270" style="stroke: rgb(238, 238, 238); stroke-opacity: 1; stroke-width: 1px;"/></g><g class="y"><path class="ygrid crisp" transform="translate(0,311.5)" d="M80,0h501" style="stroke: rgb(238, 238, 238); stroke-opacity: 1; stroke-width: 1px;"/><path class="ygrid crisp" transform="translate(0,266.5)" d="M80,0h501" style="stroke: rgb(238, 238, 238); stroke-opacity: 1; stroke-width: 1px;"/><path class="ygrid crisp" transform="translate(0,221.5)" d="M80,0h501" style="stroke: rgb(238, 238, 238); stroke-opacity: 1; stroke-width: 1px;"/><path class="ygrid crisp" transform="translate(0,176.5)" d="M80,0h501" style="stroke: rgb(238, 238, 238); stroke-opacity: 1; stroke-width: 1px;"/><path class="ygrid crisp" transform="translate(0,131.5)" d="M80,0h501" style="stroke: rgb(238, 238, 238); stroke-opacity: 1; stroke-width: 1px;"/></g></g><g class="zerolinelayer"><path class="yzl zl crisp" transform="translate(0,356.5)" d="M80,0h501" style="stroke: rgb(68, 68, 68); stroke-opacity: 1; stroke-width: 1px;"/></g><path class="xlines-below"/><path class="ylines-below"/><g class="overlines-below"/><g class="xaxislayer-below"/><g class="yaxislayer-below"/><g class="overaxes-below"/><g class="plot" transform="translate(80,100)" clip-path="url(#clip33a348xyplot)"><g class="scatterlayer mlayer"><g class="trace scatter trace48ab85" style="stroke-miterlimit: 2; opacity: 1;"><g class="fills"/><g class="errorbars"/><g class="lines"><path class="js-line" d="M0,256.5L65.2,256.5L68.63,247.5L72.06,238.5L75.49,220.5L78.92,256.5L82.36,247.5L85.79,247.5L89.22,220.5L92.65,166.5L96.08,175.5L99.51,202.5L102.95,211.5L106.38,238.5L109.81,211.5L116.67,211.5L120.1,193.5L123.53,157.5L126.97,157.5L130.4,121.5L133.83,202.5L137.26,139.5L140.69,148.5L144.12,139.5L147.55,121.5L154.42,139.5L157.85,76.5L161.28,103.5L164.71,58.5L168.14,112.5L171.58,103.5L175.01,103.5L178.44,49.5L181.87,58.5L185.3,85.5L188.73,76.5L192.16,85.5L195.6,76.5L199.03,112.5L202.46,247.5L205.89,202.5L209.32,175.5L212.75,157.5L216.18,166.5L219.62,148.5L223.05,148.5L226.48,139.5L229.91,121.5L233.34,157.5L236.77,112.5L240.21,139.5L243.64,94.5L247.07,148.5L250.5,112.5L253.93,94.5L257.36,130.5L260.79,130.5L264.23,139.5L267.66,85.5L271.09,103.5L274.52,76.5L277.95,94.5L281.38,94.5L284.82,94.5L288.25,76.5L291.68,49.5L295.11,67.5L298.54,85.5L301.97,85.5L305.4,85.5L308.84,103.5L315.7,85.5L319.13,58.5L322.56,103.5L325.99,94.5L329.42,58.5L332.86,67.5L339.72,85.5L343.15,85.5L346.58,94.5L350.01,67.5L353.45,76.5L356.88,76.5L360.31,76.5L363.74,85.5L367.17,94.5L370.6,67.5L374.03,58.5L377.47,76.5L380.9,85.5L384.33,85.5L387.76,40.5L391.19,85.5L394.62,58.5L398.05,67.5L401.49,121.5L404.92,256.5L415.21,256.5L418.64,202.5L422.08,220.5L425.51,175.5L428.94,202.5L432.37,139.5L435.8,130.5L439.23,148.5L442.66,94.5L446.1,121.5L449.53,85.5L452.96,121.5L456.39,103.5L459.82,94.5L463.25,94.5L466.68,85.5L470.12,76.5L473.55,85.5L476.98,85.5L480.41,76.5L483.84,112.5L487.27,103.5L490.71,67.5L494.14,94.5L497.57,112.5L501,112.5" style="vector-effect: none; fill: none; stroke: rgb(156, 39, 176); stroke-opacity: 1; stroke-width: 2px; opacity: 1;"/></g><g class="points"/><g class="text"/></g><g class="trace scatter trace704ea7" style="stroke-miterlimit: 2; opacity: 1;"><g class="fills"/><g class="errorbars"/><g class="lines"><path class="js-line" d="M0,256.5L68.63,256.5L72.06,247.5L75.49,184.5L78.92,220.5L82.36,157.5L85.79,175.5L89.22,211.5L92.65,184.5L96.08,202.5L99.51,175.5L102.95,220.5L106.38,166.5L109.81,184.5L113.24,121.5L116.67,121.5L120.1,130.5L123.53,85.5L126.97,130.5L130.4,58.5L133.83,76.5L137.26,121.5L140.69,67.5L144.12,112.5L147.55,139.5L150.99,76.5L154.42,76.5L157.85,85.5L161.28,31.5L164.71,76.5L168.14,85.5L171.58,85.5L175.01,58.5L178.44,85.5L181.87,76.5L185.3,85.5L188.73,103.5L192.16,40.5L195.6,58.5L199.03,76.5L202.46,49.5L205.89,76.5L209.32,49.5L212.75,58.5L216.18,40.5L219.62,58.5L223.05,67.5L226.48,67.5L229.91,40.5L233.34,67.5L236.77,49.5L240.21,94.5L243.64,76.5L247.07,76.5L250.5,94.5L253.93,67.5L257.36,49.5L260.79,40.5L264.23,58.5L267.66,76.5L271.09,76.5L274.52,58.5L277.95,67.5L281.38,58.5L284.82,67.5L288.25,67.5L291.68,49.5L295.11,58.5L298.54,76.5L312.27,40.5L315.7,85.5L319.13,76.5L322.56,76.5L325.99,94.5L329.42,31.5L332.86,94.5L336.29,85.5L339.72,67.5L343.15,76.5L346.58,76.5L350.01,31.5L353.45,76.5L356.88,22.5L360.31,76.5L363.74,76.5L367.17,40.5L370.6,85.5L377.47,31.5L380.9,58.5L384.33,58.5L387.76,67.5L391.19,85.5L394.62,49.5L398.05,31.5L401.49,85.5L404.92,67.5L408.35,58.5L411.78,76.5L415.21,76.5L418.64,85.5L422.08,76.5L425.51,31.5L428.94,94.5L432.37,58.5L435.8,76.5L439.23,67.5L442.66,40.5L446.1,67.5L449.53,49.5L452.96,76.5L456.39,85.5L459.82,58.5L463.25,49.5L466.68,13.5L470.12,67.5L473.55,49.5L476.98,76.5L480.41,94.5L483.84,58.5L487.27,67.5L490.71,67.5L497.57,49.5L501,85.5" style="vector-effect: none; fill: none; stroke: rgb(33, 150, 243); stroke-opacity: 1; stroke-width: 2px; opacity: 1;"/></g><g class="points"/><g class="text"/></g><g class="trace scatter tracec2c0b5" style="stroke-miterlimit: 2; opacity: 1;"><g class="fills"/><g class="errorbars"/><g class="lines"><path class="js-line" d="M0,256.5L48.04,256.5L51.47,247.5L58.34,247.5L61.77,256.5L65.2,238.5L68.63,247.5L75.49,229.5L78.92,256.5L82.36,229.5L85.79,220.5L89.22,229.5L92.65,247.5L96.08,247.5L99.51,256.5L102.95,247.5L106.38,229.5L109.81,247.5L113.24,247.5L123.53,247.5L126.97,238.5L130.4,247.5L133.83,247.5L137.26,220.5L140.69,256.5L144.12,256.5L147.55,247.5L154.42,247.5L157.85,256.5L161.28,256.5L164.71,247.5L175.01,247.5L178.44,256.5L181.87,247.5L185.3,247.5L188.73,247.5L192.16,238.5L195.6,229.5L199.03,256.5L202.46,247.5L205.89,247.5L209.32,229.5L212.75,247.5L219.62,247.5L223.05,256.5L226.48,256.5L229.91,247.5L233.34,256.5L236.77,256.5L240.21,238.5L243.64,247.5L247.07,247.5L250.5,256.5L281.38,256.5L284.82,247.5L288.25,256.5L291.68,256.5L401.49,256.5L404.92,247.5L408.35,256.5L411.78,256.5L422.08,256.5L425.51,247.5L428.94,256.5L432.37,247.5L435.8,256.5L439.23,256.5L476.98,256.5L480.41,247.5L483.84,247.5L487.27,256.5L490.71,256.5L494.14,247.5L497.57,256.5L501,256.5" style="vector-effect: none; fill: none; stroke: rgb(0, 150, 136); stroke-opacity: 1; stroke-width: 2px; opacity: 1;"/></g><g class="points"/><g class="text"/></g></g></g><g class="overplot"/><path class="xlines-above crisp" d="M79,370.5H581" style="fill: none; stroke-width: 1px; stroke: rgb(68, 68, 68); stroke-opacity: 1;"/><path class="ylines-above crisp" d="M79.5,100V370" style="fill: none; stroke-width: 1px; stroke: rgb(68, 68, 68); stroke-opacity: 1;"/><g class="overlines-above"/><g class="xaxislayer-above"><path class="xtick ticks crisp" d="M0,371v5" transform="translate(248.14,0)" style="stroke: rgb(68, 68, 68); stroke-opacity: 1; stroke-width: 1px;"/><path class="xtick ticks crisp" d="M0,371v5" transform="translate(419.72,0)" style="stroke: rgb(68, 68, 68); stroke-opacity: 1; stroke-width: 1px;"/><g class="xtick"><text text-anchor="middle" x="0" y="390.4" transform="translate(248.14,0)" style="font-family: 'Open Sans', verdana, arial, sans-serif; font-size: 12px; fill: rgb(68, 68, 68); fill-opacity: 1; white-space: pre; opacity: 1;">50</text></g><g class="xtick"><text text-anchor="middle" x="0" y="390.4" style="font-family: 'Open Sans', verdana, arial, sans-serif; font-size: 12px; fill: rgb(68, 68, 68); fill-opacity: 1; white-space: pre; opacity: 1;" transform="translate(419.72,0)">100</text></g></g><g class="yaxislayer-above"><path class="ytick ticks crisp" d="M79,0h-5" transform="translate(0,356.5)" style="stroke: rgb(68, 68, 68); stroke-opacity: 1; stroke-width: 1px;"/><path class="ytick ticks crisp" d="M79,0h-5" transform="translate(0,311.5)" style="stroke: rgb(68, 68, 68); stroke-opacity: 1; stroke-width: 1px;"/><path class="ytick ticks crisp" d="M79,0h-5" transform="translate(0,266.5)" style="stroke: rgb(68, 68, 68); stroke-opacity: 1; stroke-width: 1px;"/><path class="ytick ticks crisp" d="M79,0h-5" transform="translate(0,221.5)" style="stroke: rgb(68, 68, 68); stroke-opacity: 1; stroke-width: 1px;"/><path class="ytick ticks crisp" d="M79,0h-5" transform="translate(0,176.5)" style="stroke: rgb(68, 68, 68); stroke-opacity: 1; stroke-width: 1px;"/><path class="ytick ticks crisp" d="M79,0h-5" transform="translate(0,131.5)" style="stroke: rgb(68, 68, 68); stroke-opacity: 1; stroke-width: 1px;"/><g class="ytick"><text text-anchor="end" x="71.6" y="4.199999999999999" transform="translate(0,356.5)" style="font-family: 'Open Sans', verdana, arial, sans-serif; font-size: 12px; fill: rgb(68, 68, 68); fill-opacity: 1; white-space: pre; opacity: 1;">0</text></g><g class="ytick"><text text-anchor="end" x="71.6" y="4.199999999999999" style="font-family: 'Open Sans', verdana, arial, sans-serif; font-size: 12px; fill: rgb(68, 68, 68); fill-opacity: 1; white-space: pre; opacity: 1;" transform="translate(0,311.5)">5</text></g><g class="ytick"><text text-anchor="end" x="71.6" y="4.199999999999999" style="font-family: 'Open Sans', verdana, arial, sans-serif; font-size: 12px; fill: rgb(68, 68, 68); fill-opacity: 1; white-space: pre; opacity: 1;" transform="translate(0,266.5)">10</text></g><g class="ytick"><text text-anchor="end" x="71.6" y="4.199999999999999" style="font-family: 'Open Sans', verdana, arial, sans-serif; font-size: 12px; fill: rgb(68, 68, 68); fill-opacity: 1; white-space: pre; opacity: 1;" transform="translate(0,221.5)">15</text></g><g class="ytick"><text text-anchor="end" x="71.6" y="4.199999999999999" style="font-family: 'Open Sans', verdana, arial, sans-serif; font-size: 12px; fill: rgb(68, 68, 68); fill-opacity: 1; white-space: pre; opacity: 1;" transform="translate(0,176.5)">20</text></g><g class="ytick"><text text-anchor="end" x="71.6" y="4.199999999999999" style="font-family: 'Open Sans', verdana, arial, sans-serif; font-size: 12px; fill: rgb(68, 68, 68); fill-opacity: 1; white-space: pre; opacity: 1;" transform="translate(0,131.5)">25</text></g></g><g class="overaxes-above"/></g></g><g class="polarlayer"/><g class="smithlayer"/><g class="ternarylayer"/><g class="geolayer"/><g class="funnelarealayer"/><g class="pielayer"/><g class="iciclelayer"/><g class="treemaplayer"/><g class="sunburstlayer"/><g class="glimages"/><defs id="topdefs-33a348"><g class="clips"/><clipPath id="legend33a348"><rect width="97" height="67" x="0" y="0"/></clipPath></defs><g class="layer-above"><g class="imagelayer"/><g class="shapelayer"/></g><g class="infolayer"><g class="legend" pointer-events="all" transform="translate(591.02,100)"><rect class="bg" shape-rendering="crispEdges" width="97" height="67" x="0" y="0" style="stroke: rgb(68, 68, 68); stroke-opacity: 1; fill: rgb(255, 255, 255); fill-opacity: 1; stroke-width: 0px;"/><g class="scrollbox" transform="" clip-path="url(#legend33a348)"><g class="groups"><g class="traces" transform="translate(0,14.5)" style="opacity: 1;"><text class="legendtext" text-anchor="start" x="40" y="4.680000000000001" style="font-family: 'Open Sans', verdana, arial, sans-serif; font-size: 12px; fill: rgb(68, 68, 68); fill-opacity: 1; white-space: pre;">SR+DQN</text><g class="layers" style="opacity: 1;"><g class="legendfill"/><g class="legendlines"><path class="js-line" d="M5,0h30" style="fill: none; stroke: rgb(156, 39, 176); stroke-opacity: 1; stroke-width: 2px;"/></g><g class="legendsymbols"><g class="legendpoints"/></g></g><rect class="legendtoggle" x="0" y="-9.5" width="91.25" height="19" style="fill: rgb(0, 0, 0); fill-opacity: 0;"/></g><g class="traces" transform="translate(0,33.5)" style="opacity: 1;"><text class="legendtext" text-anchor="start" x="40" y="4.680000000000001" style="font-family: 'Open Sans', verdana, arial, sans-serif; font-size: 12px; fill: rgb(68, 68, 68); fill-opacity: 1; white-space: pre;">DQN</text><g class="layers" style="opacity: 1;"><g class="legendfill"/><g class="legendlines"><path class="js-line" d="M5,0h30" style="fill: none; stroke: rgb(33, 150, 243); stroke-opacity: 1; stroke-width: 2px;"/></g><g class="legendsymbols"><g class="legendpoints"/></g></g><rect class="legendtoggle" x="0" y="-9.5" width="91.25" height="19" style="fill: rgb(0, 0, 0); fill-opacity: 0;"/></g><g class="traces" transform="translate(0,52.5)" style="opacity: 1;"><text class="legendtext" text-anchor="start" x="40" y="4.680000000000001" style="font-family: 'Open Sans', verdana, arial, sans-serif; font-size: 12px; fill: rgb(68, 68, 68); fill-opacity: 1; white-space: pre;">RDE</text><g class="layers" style="opacity: 1;"><g class="legendfill"/><g class="legendlines"><path class="js-line" d="M5,0h30" style="fill: none; stroke: rgb(0, 150, 136); stroke-opacity: 1; stroke-width: 2px;"/></g><g class="legendsymbols"><g class="legendpoints"/></g></g><rect class="legendtoggle" x="0" y="-9.5" width="91.25" height="19" style="fill: rgb(0, 0, 0); fill-opacity: 0;"/></g></g></g><rect class="scrollbar" rx="20" ry="3" width="0" height="0" x="0" y="0" style="fill: rgb(128, 139, 164); fill-opacity: 1;"/></g><g class="g-gtitle"><text class="gtitle" x="350" y="50" text-anchor="middle" dy="0em" style="font-family: 'Open Sans', verdana, arial, sans-serif; font-size: 17px; fill: rgb(68, 68, 68); opacity: 1; font-weight: normal; white-space: pre;">Freeway-v4 on All Models (Replay Ratio = 2)</text></g><g class="g-xtitle"><text class="xtitle" x="330.5" y="422" text-anchor="middle" style="font-family: 'Open Sans', verdana, arial, sans-serif; font-size: 14px; fill: rgb(68, 68, 68); opacity: 1; font-weight: normal; white-space: pre;">Episode Count</text></g><g class="g-ytitle"><text class="ytitle" transform="rotate(-90,42,235)" x="42" y="235" text-anchor="middle" style="font-family: 'Open Sans', verdana, arial, sans-serif; font-size: 14px; fill: rgb(68, 68, 68); opacity: 1; font-weight: normal; white-space: pre;">Episode Reward</text></g></g></svg>