<svg class="main-svg" xmlns="http://www.w3.org/2000/svg" xmlns:xlink="http://www.w3.org/1999/xlink" width="700" height="450" style="" viewBox="0 0 700 450"><rect x="0" y="0" width="700" height="450" style="fill: rgb(255, 255, 255); fill-opacity: 1;"/><defs id="defs-351353"><g class="clips"><clipPath id="clip351353xyplot" class="plotclip"><rect width="501" height="270"/></clipPath><clipPath class="axesclip" id="clip351353x"><rect x="80" y="0" width="501" height="450"/></clipPath><clipPath class="axesclip" id="clip351353y"><rect x="0" y="100" width="700" height="270"/></clipPath><clipPath class="axesclip" id="clip351353xy"><rect x="80" y="100" width="501" height="270"/></clipPath></g><g class="gradients"/><g class="patterns"/></defs><g class="bglayer"/><g class="layer-below"><g class="imagelayer"/><g class="shapelayer"/></g><g class="cartesianlayer"><g class="subplot xy"><g class="layer-subplot"><g class="shapelayer"/><g class="imagelayer"/></g><g class="minor-gridlayer"><g class="x"/><g class="y"/></g><g class="gridlayer"><g class="x"><path class="xgrid crisp" transform="translate(248.14,0)" d="M0,100v270" style="stroke: rgb(238, 238, 238); stroke-opacity: 1; stroke-width: 1px;"/><path class="xgrid crisp" transform="translate(419.72,0)" d="M0,100v270" style="stroke: rgb(238, 238, 238); stroke-opacity: 1; stroke-width: 1px;"/></g><g class="y"><path class="ygrid crisp" transform="translate(0,309.77)" d="M80,0h501" style="stroke: rgb(238, 238, 238); stroke-opacity: 1; stroke-width: 1px;"/><path class="ygrid crisp" transform="translate(0,263.03999999999996)" d="M80,0h501" style="stroke: rgb(238, 238, 238); stroke-opacity: 1; stroke-width: 1px;"/><path class="ygrid crisp" transform="translate(0,216.31)" d="M80,0h501" style="stroke: rgb(238, 238, 238); stroke-opacity: 1; stroke-width: 1px;"/><path class="ygrid crisp" transform="translate(0,169.57999999999998)" d="M80,0h501" style="stroke: rgb(238, 238, 238); stroke-opacity: 1; stroke-width: 1px;"/><path class="ygrid crisp" transform="translate(0,122.85)" d="M80,0h501" style="stroke: rgb(238, 238, 238); stroke-opacity: 1; stroke-width: 1px;"/></g></g><g class="zerolinelayer"><path class="yzl zl crisp" transform="translate(0,356.5)" d="M80,0h501" style="stroke: rgb(68, 68, 68); stroke-opacity: 1; stroke-width: 1px;"/></g><path class="xlines-below"/><path class="ylines-below"/><g class="overlines-below"/><g class="xaxislayer-below"/><g class="yaxislayer-below"/><g class="overaxes-below"/><g class="plot" transform="translate(80,100)" clip-path="url(#clip351353xyplot)"><g class="scatterlayer mlayer"><g class="trace scatter trace98e6b6" style="stroke-miterlimit: 2; opacity: 1;"><g class="fills"/><g class="errorbars"/><g class="lines"><path class="js-line" d="M0,256.5L3.43,247.15L6.86,256.5L20.59,256.5L24.02,247.15L27.45,256.5L30.88,256.5L51.47,256.5L54.9,247.15L58.34,247.15L61.77,256.5L65.2,256.5L68.63,247.15L72.06,256.5L75.49,237.81L78.92,247.15L82.36,237.81L89.22,256.5L92.65,256.5L96.08,256.5L99.51,228.46L102.95,247.15L106.38,256.5L109.81,191.08L113.24,32.19L116.67,69.58L120.1,69.58L123.53,69.58L126.97,50.88L130.4,60.23L133.83,50.88L137.26,78.92L140.69,22.85L144.12,50.88L147.55,60.23L150.99,41.54L154.42,78.92L157.85,60.23L161.28,22.85L164.71,13.5L168.14,69.58L175.01,32.19L178.44,78.92L181.87,13.5L185.3,69.58L188.73,60.23L192.16,32.19L195.6,50.88L199.03,50.88L202.46,256.5L205.89,256.5L209.32,247.15L212.75,209.77L216.18,228.46L219.62,200.42L223.05,163.04L226.48,181.73L229.91,181.73L233.34,200.42L236.77,144.35L240.21,163.04L243.64,135L247.07,256.5L250.5,219.12L253.93,172.38L257.36,181.73L260.79,153.69L264.23,191.08L267.66,200.42L274.52,144.35L277.95,153.69L281.38,135L284.82,97.62L288.25,172.38L291.68,135L295.11,106.96L298.54,106.96L301.97,125.65L305.4,116.31L308.84,116.31L312.27,144.35L315.7,97.62L319.13,116.31L322.56,125.65L325.99,106.96L329.42,106.96L332.86,125.65L336.29,106.96L339.72,144.35L343.15,116.31L346.58,78.92L350.01,97.62L353.45,125.65L356.88,97.62L360.31,153.69L363.74,88.27L367.17,106.96L370.6,88.27L374.03,78.92L377.47,78.92L380.9,88.27L387.76,106.96L391.19,88.27L394.62,97.62L398.05,88.27L401.49,135L404.92,256.5L415.21,256.5L418.64,247.15L422.08,237.81L425.51,209.77L428.94,228.46L432.37,209.77L435.8,153.69L439.23,181.73L442.66,256.5L446.1,172.38L449.53,172.38L452.96,144.35L456.39,106.96L459.82,135L463.25,125.65L466.68,135L470.12,144.35L473.55,116.31L476.98,97.62L480.41,135L483.84,153.69L487.27,97.62L490.71,69.58L494.14,97.62L497.57,106.96L501,106.96" style="vector-effect: none; fill: none; stroke: rgb(156, 39, 176); stroke-opacity: 1; stroke-width: 2px; opacity: 1;"/></g><g class="points"/><g class="text"/></g><g class="trace scatter trace1e052b" style="stroke-miterlimit: 2; opacity: 1;"><g class="fills"/><g class="errorbars"/><g class="lines"><path class="js-line" d="M0,256.5L65.2,256.5L68.63,237.81L72.06,200.42L75.49,181.73L78.92,172.38L82.36,144.35L89.22,88.27L92.65,135L96.08,153.69L99.51,116.31L102.95,125.65L106.38,97.62L109.81,116.31L113.24,97.62L116.67,116.31L120.1,125.65L123.53,153.69L126.97,144.35L130.4,172.38L133.83,125.65L137.26,125.65L140.69,106.96L147.55,106.96L150.99,116.31L157.85,116.31L161.28,125.65L164.71,144.35L168.14,135L171.58,125.65L175.01,135L178.44,125.65L181.87,144.35L185.3,153.69L188.73,144.35L192.16,135L195.6,106.96L199.03,163.04L202.46,125.65L205.89,135L209.32,125.65L212.75,125.65L216.18,191.08L219.62,116.31L223.05,144.35L226.48,116.31L229.91,106.96L233.34,144.35L236.77,153.69L240.21,163.04L243.64,163.04L247.07,144.35L250.5,106.96L253.93,172.38L257.36,163.04L260.79,144.35L264.23,135L267.66,153.69L271.09,135L274.52,200.42L277.95,172.38L281.38,153.69L284.82,153.69L288.25,125.65L291.68,135L295.11,125.65L298.54,172.38L301.97,125.65L305.4,163.04L308.84,144.35L312.27,144.35L315.7,125.65L319.13,135L325.99,172.38L329.42,163.04L332.86,125.65L336.29,172.38L339.72,200.42L343.15,153.69L346.58,153.69L350.01,144.35L353.45,181.73L356.88,172.38L360.31,181.73L363.74,153.69L367.17,125.65L370.6,191.08L374.03,144.35L377.47,153.69L380.9,144.35L384.33,172.38L387.76,153.69L391.19,144.35L394.62,172.38L398.05,163.04L401.49,144.35L404.92,135L408.35,209.77L411.78,135L415.21,181.73L418.64,200.42L422.08,181.73L425.51,172.38L428.94,172.38L432.37,163.04L435.8,181.73L439.23,163.04L442.66,172.38L446.1,191.08L449.53,172.38L452.96,181.73L456.39,153.69L459.82,200.42L463.25,200.42L466.68,209.77L470.12,228.46L473.55,209.77L476.98,209.77L480.41,228.46L483.84,219.12L487.27,237.81L490.71,191.08L494.14,237.81L497.57,256.5L501,247.15" style="vector-effect: none; fill: none; stroke: rgb(33, 150, 243); stroke-opacity: 1; stroke-width: 2px; opacity: 1;"/></g><g class="points"/><g class="text"/></g><g class="trace scatter trace727f3b" style="stroke-miterlimit: 2; opacity: 1;"><g class="fills"/><g class="errorbars"/><g class="lines"><path class="js-line" d="M0,256.5L3.43,256.5L6.86,247.15L10.29,247.15L13.73,228.46L17.16,247.15L20.59,256.5L24.02,256.5L27.45,247.15L30.88,237.81L34.32,247.15L37.75,219.12L41.18,237.81L44.61,237.81L48.04,228.46L51.47,247.15L54.9,237.81L58.34,237.81L61.77,191.08L65.2,209.77L68.63,219.12L72.06,209.77L75.49,228.46L78.92,247.15L82.36,172.38L85.79,163.04L89.22,181.73L92.65,209.77L96.08,209.77L99.51,247.15L102.95,209.77L106.38,200.42L109.81,200.42L113.24,200.42L116.67,163.04L120.1,172.38L123.53,209.77L126.97,237.81L130.4,219.12L133.83,237.81L137.26,228.46L140.69,237.81L144.12,237.81L147.55,247.15L150.99,209.77L154.42,191.08L157.85,181.73L161.28,163.04L164.71,181.73L168.14,153.69L171.58,191.08L175.01,172.38L178.44,172.38L181.87,144.35L185.3,125.65L188.73,172.38L192.16,144.35L195.6,144.35L199.03,163.04L202.46,135L205.89,125.65L209.32,135L212.75,116.31L216.18,97.62L219.62,88.27L223.05,125.65L226.48,106.96L229.91,125.65L233.34,88.27L236.77,69.58L240.21,88.27L243.64,88.27L247.07,97.62L250.5,78.92L253.93,50.88L257.36,78.92L260.79,69.58L264.23,135L267.66,88.27L271.09,88.27L274.52,60.23L277.95,88.27L281.38,41.54L284.82,69.58L288.25,69.58L291.68,50.88L295.11,50.88L298.54,78.92L301.97,97.62L305.4,60.23L308.84,69.58L312.27,60.23L315.7,78.92L319.13,97.62L322.56,50.88L325.99,125.65L329.42,88.27L332.86,60.23L336.29,69.58L339.72,69.58L343.15,88.27L346.58,60.23L350.01,60.23L353.45,60.23L356.88,97.62L363.74,60.23L367.17,88.27L370.6,60.23L374.03,41.54L384.33,97.62L387.76,78.92L391.19,50.88L394.62,69.58L398.05,69.58L401.49,41.54L404.92,69.58L408.35,78.92L411.78,50.88L415.21,78.92L422.08,60.23L425.51,32.19L428.94,88.27L432.37,60.23L435.8,13.5L439.23,78.92L442.66,78.92L446.1,60.23L452.96,60.23L456.39,88.27L459.82,60.23L463.25,50.88L470.12,88.27L473.55,88.27L476.98,50.88L480.41,69.58L483.84,41.54L487.27,69.58L490.71,60.23L494.14,88.27L497.57,50.88L501,78.92" style="vector-effect: none; fill: none; stroke: rgb(0, 150, 136); stroke-opacity: 1; stroke-width: 2px; opacity: 1;"/></g><g class="points"/><g class="text"/></g></g></g><g class="overplot"/><path class="xlines-above crisp" d="M79,370.5H581" style="fill: none; stroke-width: 1px; stroke: rgb(68, 68, 68); stroke-opacity: 1;"/><path class="ylines-above crisp" d="M79.5,100V370" style="fill: none; stroke-width: 1px; stroke: rgb(68, 68, 68); stroke-opacity: 1;"/><g class="overlines-above"/><g class="xaxislayer-above"><path class="xtick ticks crisp" d="M0,371v5" transform="translate(248.14,0)" style="stroke: rgb(68, 68, 68); stroke-opacity: 1; stroke-width: 1px;"/><path class="xtick ticks crisp" d="M0,371v5" transform="translate(419.72,0)" style="stroke: rgb(68, 68, 68); stroke-opacity: 1; stroke-width: 1px;"/><g class="xtick"><text text-anchor="middle" x="0" y="390.4" transform="translate(248.14,0)" style="font-family: 'Open Sans', verdana, arial, sans-serif; font-size: 12px; fill: rgb(68, 68, 68); fill-opacity: 1; white-space: pre; opacity: 1;">50</text></g><g class="xtick"><text text-anchor="middle" x="0" y="390.4" style="font-family: 'Open Sans', verdana, arial, sans-serif; font-size: 12px; fill: rgb(68, 68, 68); fill-opacity: 1; white-space: pre; opacity: 1;" transform="translate(419.72,0)">100</text></g></g><g class="yaxislayer-above"><path class="ytick ticks crisp" d="M79,0h-5" transform="translate(0,356.5)" style="stroke: rgb(68, 68, 68); stroke-opacity: 1; stroke-width: 1px;"/><path class="ytick ticks crisp" d="M79,0h-5" transform="translate(0,309.77)" style="stroke: rgb(68, 68, 68); stroke-opacity: 1; stroke-width: 1px;"/><path class="ytick ticks crisp" d="M79,0h-5" transform="translate(0,263.03999999999996)" style="stroke: rgb(68, 68, 68); stroke-opacity: 1; stroke-width: 1px;"/><path class="ytick ticks crisp" d="M79,0h-5" transform="translate(0,216.31)" style="stroke: rgb(68, 68, 68); stroke-opacity: 1; stroke-width: 1px;"/><path class="ytick ticks crisp" d="M79,0h-5" transform="translate(0,169.57999999999998)" style="stroke: rgb(68, 68, 68); stroke-opacity: 1; stroke-width: 1px;"/><path class="ytick ticks crisp" d="M79,0h-5" transform="translate(0,122.85)" style="stroke: rgb(68, 68, 68); stroke-opacity: 1; stroke-width: 1px;"/><g class="ytick"><text text-anchor="end" x="71.6" y="4.199999999999999" transform="translate(0,356.5)" style="font-family: 'Open Sans', verdana, arial, sans-serif; font-size: 12px; fill: rgb(68, 68, 68); fill-opacity: 1; white-space: pre; opacity: 1;">0</text></g><g class="ytick"><text text-anchor="end" x="71.6" y="4.199999999999999" style="font-family: 'Open Sans', verdana, arial, sans-serif; font-size: 12px; fill: rgb(68, 68, 68); fill-opacity: 1; white-space: pre; opacity: 1;" transform="translate(0,309.77)">5</text></g><g class="ytick"><text text-anchor="end" x="71.6" y="4.199999999999999" style="font-family: 'Open Sans', verdana, arial, sans-serif; font-size: 12px; fill: rgb(68, 68, 68); fill-opacity: 1; white-space: pre; opacity: 1;" transform="translate(0,263.03999999999996)">10</text></g><g class="ytick"><text text-anchor="end" x="71.6" y="4.199999999999999" style="font-family: 'Open Sans', verdana, arial, sans-serif; font-size: 12px; fill: rgb(68, 68, 68); fill-opacity: 1; white-space: pre; opacity: 1;" transform="translate(0,216.31)">15</text></g><g class="ytick"><text text-anchor="end" x="71.6" y="4.199999999999999" style="font-family: 'Open Sans', verdana, arial, sans-serif; font-size: 12px; fill: rgb(68, 68, 68); fill-opacity: 1; white-space: pre; opacity: 1;" transform="translate(0,169.57999999999998)">20</text></g><g class="ytick"><text text-anchor="end" x="71.6" y="4.199999999999999" style="font-family: 'Open Sans', verdana, arial, sans-serif; font-size: 12px; fill: rgb(68, 68, 68); fill-opacity: 1; white-space: pre; opacity: 1;" transform="translate(0,122.85)">25</text></g></g><g class="overaxes-above"/></g></g><g class="polarlayer"/><g class="smithlayer"/><g class="ternarylayer"/><g class="geolayer"/><g class="funnelarealayer"/><g class="pielayer"/><g class="iciclelayer"/><g class="treemaplayer"/><g class="sunburstlayer"/><g class="glimages"/><defs id="topdefs-351353"><g class="clips"/><clipPath id="legend351353"><rect width="97" height="67" x="0" y="0"/></clipPath></defs><g class="layer-above"><g class="imagelayer"/><g class="shapelayer"/></g><g class="infolayer"><g class="legend" pointer-events="all" transform="translate(591.02,100)"><rect class="bg" shape-rendering="crispEdges" width="97" height="67" x="0" y="0" style="stroke: rgb(68, 68, 68); stroke-opacity: 1; fill: rgb(255, 255, 255); fill-opacity: 1; stroke-width: 0px;"/><g class="scrollbox" transform="" clip-path="url(#legend351353)"><g class="groups"><g class="traces" transform="translate(0,14.5)" style="opacity: 1;"><text class="legendtext" text-anchor="start" x="40" y="4.680000000000001" style="font-family: 'Open Sans', verdana, arial, sans-serif; font-size: 12px; fill: rgb(68, 68, 68); fill-opacity: 1; white-space: pre;">SR+DQN</text><g class="layers" style="opacity: 1;"><g class="legendfill"/><g class="legendlines"><path class="js-line" d="M5,0h30" style="fill: none; stroke: rgb(156, 39, 176); stroke-opacity: 1; stroke-width: 2px;"/></g><g class="legendsymbols"><g class="legendpoints"/></g></g><rect class="legendtoggle" x="0" y="-9.5" width="91.25" height="19" style="fill: rgb(0, 0, 0); fill-opacity: 0;"/></g><g class="traces" transform="translate(0,33.5)" style="opacity: 1;"><text class="legendtext" text-anchor="start" x="40" y="4.680000000000001" style="font-family: 'Open Sans', verdana, arial, sans-serif; font-size: 12px; fill: rgb(68, 68, 68); fill-opacity: 1; white-space: pre;">RDE</text><g class="layers" style="opacity: 1;"><g class="legendfill"/><g class="legendlines"><path class="js-line" d="M5,0h30" style="fill: none; stroke: rgb(33, 150, 243); stroke-opacity: 1; stroke-width: 2px;"/></g><g class="legendsymbols"><g class="legendpoints"/></g></g><rect class="legendtoggle" x="0" y="-9.5" width="91.25" height="19" style="fill: rgb(0, 0, 0); fill-opacity: 0;"/></g><g class="traces" transform="translate(0,52.5)" style="opacity: 1;"><text class="legendtext" text-anchor="start" x="40" y="4.680000000000001" style="font-family: 'Open Sans', verdana, arial, sans-serif; font-size: 12px; fill: rgb(68, 68, 68); fill-opacity: 1; white-space: pre;">DQN</text><g class="layers" style="opacity: 1;"><g class="legendfill"/><g class="legendlines"><path class="js-line" d="M5,0h30" style="fill: none; stroke: rgb(0, 150, 136); stroke-opacity: 1; stroke-width: 2px;"/></g><g class="legendsymbols"><g class="legendpoints"/></g></g><rect class="legendtoggle" x="0" y="-9.5" width="91.25" height="19" style="fill: rgb(0, 0, 0); fill-opacity: 0;"/></g></g></g><rect class="scrollbar" rx="20" ry="3" width="0" height="0" x="0" y="0" style="fill: rgb(128, 139, 164); fill-opacity: 1;"/></g><g class="g-gtitle"><text class="gtitle" x="350" y="50" text-anchor="middle" dy="0em" style="font-family: 'Open Sans', verdana, arial, sans-serif; font-size: 17px; fill: rgb(68, 68, 68); opacity: 1; font-weight: normal; white-space: pre;">Freeway-v4 on All Models (Replay Ratio = 1)</text></g><g class="g-xtitle"><text class="xtitle" x="330.5" y="422" text-anchor="middle" style="font-family: 'Open Sans', verdana, arial, sans-serif; font-size: 14px; fill: rgb(68, 68, 68); opacity: 1; font-weight: normal; white-space: pre;">Episode Count</text></g><g class="g-ytitle"><text class="ytitle" transform="rotate(-90,42,235)" x="42" y="235" text-anchor="middle" style="font-family: 'Open Sans', verdana, arial, sans-serif; font-size: 14px; fill: rgb(68, 68, 68); opacity: 1; font-weight: normal; white-space: pre;">Episode Reward</text></g></g></svg>