<svg class="main-svg" xmlns="http://www.w3.org/2000/svg" xmlns:xlink="http://www.w3.org/1999/xlink" width="700" height="450" style="" viewBox="0 0 700 450"><rect x="0" y="0" width="700" height="450" style="fill: rgb(255, 255, 255); fill-opacity: 1;"/><defs id="defs-287e71"><g class="clips"><clipPath id="clip287e71xyplot" class="plotclip"><rect width="501" height="270"/></clipPath><clipPath class="axesclip" id="clip287e71x"><rect x="80" y="0" width="501" height="450"/></clipPath><clipPath class="axesclip" id="clip287e71y"><rect x="0" y="100" width="700" height="270"/></clipPath><clipPath class="axesclip" id="clip287e71xy"><rect x="80" y="100" width="501" height="270"/></clipPath></g><g class="gradients"/><g class="patterns"/></defs><g class="bglayer"/><g class="layer-below"><g class="imagelayer"/><g class="shapelayer"/></g><g class="cartesianlayer"><g class="subplot xy"><g class="layer-subplot"><g class="shapelayer"/><g class="imagelayer"/></g><g class="minor-gridlayer"><g class="x"/><g class="y"/></g><g class="gridlayer"><g class="x"><path class="xgrid crisp" transform="translate(248.14,0)" d="M0,100v270" style="stroke: rgb(238, 238, 238); stroke-opacity: 1; stroke-width: 1px;"/><path class="xgrid crisp" transform="translate(419.72,0)" d="M0,100v270" style="stroke: rgb(238, 238, 238); stroke-opacity: 1; stroke-width: 1px;"/></g><g class="y"><path class="ygrid crisp" transform="translate(0,314.6)" d="M80,0h501" style="stroke: rgb(238, 238, 238); stroke-opacity: 1; stroke-width: 1px;"/><path class="ygrid crisp" transform="translate(0,272.71000000000004)" d="M80,0h501" style="stroke: rgb(238, 238, 238); stroke-opacity: 1; stroke-width: 1px;"/><path class="ygrid crisp" transform="translate(0,230.81)" d="M80,0h501" style="stroke: rgb(238, 238, 238); stroke-opacity: 1; stroke-width: 1px;"/><path class="ygrid crisp" transform="translate(0,188.91)" d="M80,0h501" style="stroke: rgb(238, 238, 238); stroke-opacity: 1; stroke-width: 1px;"/><path class="ygrid crisp" transform="translate(0,147.02)" d="M80,0h501" style="stroke: rgb(238, 238, 238); stroke-opacity: 1; stroke-width: 1px;"/><path class="ygrid crisp" transform="translate(0,105.12)" d="M80,0h501" style="stroke: rgb(238, 238, 238); stroke-opacity: 1; stroke-width: 1px;"/></g></g><g class="zerolinelayer"><path class="yzl zl crisp" transform="translate(0,356.5)" d="M80,0h501" style="stroke: rgb(68, 68, 68); stroke-opacity: 1; stroke-width: 1px;"/></g><path class="xlines-below"/><path class="ylines-below"/><g class="overlines-below"/><g class="xaxislayer-below"/><g class="yaxislayer-below"/><g class="overaxes-below"/><g class="plot" transform="translate(80,100)" clip-path="url(#clip287e71xyplot)"><g class="scatterlayer mlayer"><g class="trace scatter tracebcd9ce" style="stroke-miterlimit: 2; opacity: 1;"><g class="fills"/><g class="errorbars"/><g class="lines"><path class="js-line" d="M0,256.5L96.08,256.5L99.51,248.12L102.95,256.5L106.38,256.5L109.81,256.5L113.24,248.12L116.67,256.5L120.1,122.43L123.53,88.91L126.97,130.81L130.4,72.16L133.83,88.91L137.26,97.29L140.69,80.53L144.12,80.53L147.55,97.29L150.99,55.4L154.42,47.02L157.85,63.78L161.28,55.4L164.71,38.64L168.14,88.91L171.58,80.53L175.01,55.4L178.44,88.91L181.87,55.4L185.3,72.16L188.73,47.02L192.16,55.4L195.6,72.16L199.03,105.67L202.46,231.36L205.89,214.6L209.32,189.47L212.75,139.19L216.18,147.57L219.62,181.09L223.05,147.57L226.48,122.43L229.91,130.81L233.34,139.19L236.77,130.81L240.21,114.05L243.64,88.91L247.07,114.05L250.5,88.91L253.93,105.67L257.36,80.53L260.79,88.91L264.23,105.67L271.09,55.4L274.52,88.91L277.95,80.53L281.38,105.67L284.82,88.91L288.25,63.78L291.68,72.16L295.11,72.16L298.54,88.91L301.97,63.78L305.4,80.53L308.84,88.91L315.7,72.16L319.13,88.91L322.56,47.02L325.99,72.16L329.42,63.78L332.86,72.16L336.29,72.16L339.72,80.53L343.15,80.53L346.58,72.16L350.01,47.02L353.45,88.91L356.88,63.78L360.31,47.02L363.74,88.91L367.17,88.91L370.6,63.78L374.03,63.78L377.47,72.16L380.9,72.16L384.33,55.4L387.76,97.29L391.19,80.53L394.62,88.91L398.05,63.78L401.49,97.29L404.92,256.5L408.35,222.98L415.21,155.95L418.64,147.57L425.51,130.81L428.94,105.67L432.37,105.67L435.8,88.91L439.23,97.29L442.66,80.53L446.1,105.67L449.53,72.16L452.96,88.91L456.39,72.16L459.82,55.4L463.25,80.53L470.12,63.78L473.55,72.16L480.41,72.16L483.84,88.91L487.27,80.53L490.71,88.91L497.57,72.16L501,80.53" style="vector-effect: none; fill: none; stroke: rgb(156, 39, 176); stroke-opacity: 1; stroke-width: 2px; opacity: 1;"/></g><g class="points"/><g class="text"/></g><g class="trace scatter trace355668" style="stroke-miterlimit: 2; opacity: 1;"><g class="fills"/><g class="errorbars"/><g class="lines"><path class="js-line" d="M0,256.5L3.43,256.5L6.86,248.12L10.29,214.6L13.73,214.6L17.16,189.47L20.59,181.09L24.02,256.5L27.45,256.5L30.88,122.43L34.32,122.43L37.75,88.91L41.18,97.29L44.61,80.53L48.04,72.16L54.9,256.5L58.34,256.5L65.2,256.5L68.63,248.12L72.06,256.5L75.49,239.74L78.92,248.12L82.36,248.12L85.79,256.5L89.22,256.5L92.65,256.5L96.08,248.12L99.51,239.74L102.95,248.12L109.81,231.36L113.24,239.74L116.67,239.74L120.1,231.36L123.53,248.12L126.97,248.12L133.83,231.36L137.26,248.12L140.69,248.12L144.12,214.6L147.55,239.74L150.99,248.12L154.42,231.36L157.85,231.36L161.28,256.5L164.71,222.98L168.14,248.12L171.58,214.6L175.01,231.36L178.44,256.5L181.87,231.36L185.3,256.5L188.73,248.12L192.16,214.6L195.6,248.12L199.03,248.12L202.46,256.5L205.89,248.12L212.75,248.12L216.18,231.36L219.62,164.33L223.05,130.81L226.48,155.95L229.91,155.95L233.34,155.95L236.77,130.81L240.21,164.33L243.64,164.33L247.07,155.95L250.5,139.19L257.36,139.19L260.79,147.57L264.23,130.81L267.66,122.43L271.09,139.19L274.52,147.57L277.95,122.43L281.38,139.19L284.82,139.19L288.25,147.57L291.68,139.19L295.11,147.57L298.54,155.95L301.97,147.57L305.4,139.19L308.84,181.09L312.27,139.19L315.7,155.95L319.13,155.95L322.56,172.71L325.99,130.81L329.42,155.95L332.86,130.81L336.29,172.71L339.72,139.19L343.15,155.95L346.58,155.95L350.01,130.81L353.45,139.19L356.88,139.19L360.31,155.95L363.74,130.81L367.17,139.19L370.6,181.09L377.47,164.33L380.9,164.33L384.33,155.95L387.76,172.71L391.19,139.19L394.62,164.33L398.05,164.33L401.49,155.95L404.92,88.91L408.35,147.57L411.78,114.05L415.21,130.81L418.64,139.19L422.08,122.43L428.94,122.43L432.37,114.05L435.8,139.19L439.23,114.05L442.66,105.67L446.1,130.81L449.53,139.19L452.96,105.67L456.39,114.05L459.82,164.33L463.25,139.19L466.68,139.19L470.12,130.81L473.55,130.81L476.98,130.81L480.41,155.95L483.84,122.43L487.27,139.19L490.71,130.81L494.14,139.19L497.57,105.67L501,122.43" style="vector-effect: none; fill: none; stroke: rgb(33, 150, 243); stroke-opacity: 1; stroke-width: 2px; opacity: 1;"/></g><g class="points"/><g class="text"/></g><g class="trace scatter trace01b3e8" style="stroke-miterlimit: 2; opacity: 1;"><g class="fills"/><g class="errorbars"/><g class="lines"><path class="js-line" d="M0,256.5L82.36,256.5L85.79,239.74L89.22,189.47L92.65,222.98L96.08,239.74L99.51,222.98L102.95,155.95L106.38,155.95L109.81,130.81L113.24,114.05L116.67,72.16L120.1,97.29L123.53,105.67L126.97,72.16L130.4,63.78L133.83,72.16L137.26,63.78L140.69,72.16L144.12,72.16L147.55,97.29L150.99,72.16L154.42,80.53L157.85,97.29L161.28,88.91L164.71,72.16L168.14,88.91L171.58,72.16L175.01,80.53L178.44,97.29L181.87,72.16L185.3,72.16L188.73,114.05L192.16,72.16L195.6,80.53L199.03,105.67L202.46,72.16L205.89,97.29L209.32,72.16L212.75,72.16L216.18,55.4L219.62,47.02L223.05,55.4L226.48,88.91L229.91,88.91L233.34,55.4L236.77,63.78L240.21,63.78L243.64,80.53L247.07,88.91L250.5,80.53L253.93,55.4L257.36,63.78L260.79,30.26L264.23,97.29L274.52,47.02L277.95,80.53L281.38,63.78L284.82,72.16L288.25,80.53L291.68,63.78L295.11,72.16L298.54,72.16L301.97,97.29L305.4,80.53L308.84,80.53L312.27,72.16L315.7,55.4L319.13,72.16L322.56,97.29L325.99,55.4L329.42,80.53L332.86,55.4L336.29,80.53L339.72,80.53L343.15,88.91L346.58,55.4L353.45,88.91L356.88,55.4L360.31,13.5L363.74,38.64L367.17,97.29L370.6,72.16L374.03,63.78L377.47,88.91L380.9,72.16L384.33,97.29L391.19,80.53L394.62,55.4L398.05,97.29L401.49,80.53L411.78,80.53L415.21,97.29L418.64,88.91L422.08,105.67L425.51,63.78L428.94,72.16L432.37,88.91L435.8,72.16L439.23,72.16L442.66,88.91L446.1,72.16L449.53,80.53L452.96,80.53L456.39,105.67L459.82,72.16L463.25,72.16L466.68,80.53L470.12,55.4L473.55,88.91L476.98,80.53L480.41,63.78L483.84,63.78L487.27,47.02L490.71,72.16L494.14,80.53L497.57,105.67L501,80.53" style="vector-effect: none; fill: none; stroke: rgb(0, 150, 136); stroke-opacity: 1; stroke-width: 2px; opacity: 1;"/></g><g class="points"/><g class="text"/></g></g></g><g class="overplot"/><path class="xlines-above crisp" d="M79,370.5H581" style="fill: none; stroke-width: 1px; stroke: rgb(68, 68, 68); stroke-opacity: 1;"/><path class="ylines-above crisp" d="M79.5,100V370" style="fill: none; stroke-width: 1px; stroke: rgb(68, 68, 68); stroke-opacity: 1;"/><g class="overlines-above"/><g class="xaxislayer-above"><path class="xtick ticks crisp" d="M0,371v5" transform="translate(248.14,0)" style="stroke: rgb(68, 68, 68); stroke-opacity: 1; stroke-width: 1px;"/><path class="xtick ticks crisp" d="M0,371v5" transform="translate(419.72,0)" style="stroke: rgb(68, 68, 68); stroke-opacity: 1; stroke-width: 1px;"/><g class="xtick"><text text-anchor="middle" x="0" y="390.4" transform="translate(248.14,0)" style="font-family: 'Open Sans', verdana, arial, sans-serif; font-size: 12px; fill: rgb(68, 68, 68); fill-opacity: 1; white-space: pre; opacity: 1;">50</text></g><g class="xtick"><text text-anchor="middle" x="0" y="390.4" style="font-family: 'Open Sans', verdana, arial, sans-serif; font-size: 12px; fill: rgb(68, 68, 68); fill-opacity: 1; white-space: pre; opacity: 1;" transform="translate(419.72,0)">100</text></g></g><g class="yaxislayer-above"><path class="ytick ticks crisp" d="M79,0h-5" transform="translate(0,356.5)" style="stroke: rgb(68, 68, 68); stroke-opacity: 1; stroke-width: 1px;"/><path class="ytick ticks crisp" d="M79,0h-5" transform="translate(0,314.6)" style="stroke: rgb(68, 68, 68); stroke-opacity: 1; stroke-width: 1px;"/><path class="ytick ticks crisp" d="M79,0h-5" transform="translate(0,272.71000000000004)" style="stroke: rgb(68, 68, 68); stroke-opacity: 1; stroke-width: 1px;"/><path class="ytick ticks crisp" d="M79,0h-5" transform="translate(0,230.81)" style="stroke: rgb(68, 68, 68); stroke-opacity: 1; stroke-width: 1px;"/><path class="ytick ticks crisp" d="M79,0h-5" transform="translate(0,188.91)" style="stroke: rgb(68, 68, 68); stroke-opacity: 1; stroke-width: 1px;"/><path class="ytick ticks crisp" d="M79,0h-5" transform="translate(0,147.02)" style="stroke: rgb(68, 68, 68); stroke-opacity: 1; stroke-width: 1px;"/><path class="ytick ticks crisp" d="M79,0h-5" transform="translate(0,105.12)" style="stroke: rgb(68, 68, 68); stroke-opacity: 1; stroke-width: 1px;"/><g class="ytick"><text text-anchor="end" x="71.6" y="4.199999999999999" transform="translate(0,356.5)" style="font-family: 'Open Sans', verdana, arial, sans-serif; font-size: 12px; fill: rgb(68, 68, 68); fill-opacity: 1; white-space: pre; opacity: 1;">0</text></g><g class="ytick"><text text-anchor="end" x="71.6" y="4.199999999999999" style="font-family: 'Open Sans', verdana, arial, sans-serif; font-size: 12px; fill: rgb(68, 68, 68); fill-opacity: 1; white-space: pre; opacity: 1;" transform="translate(0,314.6)">5</text></g><g class="ytick"><text text-anchor="end" x="71.6" y="4.199999999999999" style="font-family: 'Open Sans', verdana, arial, sans-serif; font-size: 12px; fill: rgb(68, 68, 68); fill-opacity: 1; white-space: pre; opacity: 1;" transform="translate(0,272.71000000000004)">10</text></g><g class="ytick"><text text-anchor="end" x="71.6" y="4.199999999999999" style="font-family: 'Open Sans', verdana, arial, sans-serif; font-size: 12px; fill: rgb(68, 68, 68); fill-opacity: 1; white-space: pre; opacity: 1;" transform="translate(0,230.81)">15</text></g><g class="ytick"><text text-anchor="end" x="71.6" y="4.199999999999999" style="font-family: 'Open Sans', verdana, arial, sans-serif; font-size: 12px; fill: rgb(68, 68, 68); fill-opacity: 1; white-space: pre; opacity: 1;" transform="translate(0,188.91)">20</text></g><g class="ytick"><text text-anchor="end" x="71.6" y="4.199999999999999" style="font-family: 'Open Sans', verdana, arial, sans-serif; font-size: 12px; fill: rgb(68, 68, 68); fill-opacity: 1; white-space: pre; opacity: 1;" transform="translate(0,147.02)">25</text></g><g class="ytick"><text text-anchor="end" x="71.6" y="4.199999999999999" style="font-family: 'Open Sans', verdana, arial, sans-serif; font-size: 12px; fill: rgb(68, 68, 68); fill-opacity: 1; white-space: pre; opacity: 1;" transform="translate(0,105.12)">30</text></g></g><g class="overaxes-above"/></g></g><g class="polarlayer"/><g class="smithlayer"/><g class="ternarylayer"/><g class="geolayer"/><g class="funnelarealayer"/><g class="pielayer"/><g class="iciclelayer"/><g class="treemaplayer"/><g class="sunburstlayer"/><g class="glimages"/><defs id="topdefs-287e71"><g class="clips"/><clipPath id="legend287e71"><rect width="97" height="67" x="0" y="0"/></clipPath></defs><g class="layer-above"><g class="imagelayer"/><g class="shapelayer"/></g><g class="infolayer"><g class="legend" pointer-events="all" transform="translate(591.02,100)"><rect class="bg" shape-rendering="crispEdges" width="97" height="67" x="0" y="0" style="stroke: rgb(68, 68, 68); stroke-opacity: 1; fill: rgb(255, 255, 255); fill-opacity: 1; stroke-width: 0px;"/><g class="scrollbox" transform="" clip-path="url(#legend287e71)"><g class="groups"><g class="traces" transform="translate(0,14.5)" style="opacity: 1;"><text class="legendtext" text-anchor="start" x="40" y="4.680000000000001" style="font-family: 'Open Sans', verdana, arial, sans-serif; font-size: 12px; fill: rgb(68, 68, 68); fill-opacity: 1; white-space: pre;">SR+DQN</text><g class="layers" style="opacity: 1;"><g class="legendfill"/><g class="legendlines"><path class="js-line" d="M5,0h30" style="fill: none; stroke: rgb(156, 39, 176); stroke-opacity: 1; stroke-width: 2px;"/></g><g class="legendsymbols"><g class="legendpoints"/></g></g><rect class="legendtoggle" x="0" y="-9.5" width="91.25" height="19" style="fill: rgb(0, 0, 0); fill-opacity: 0;"/></g><g class="traces" transform="translate(0,33.5)" style="opacity: 1;"><text class="legendtext" text-anchor="start" x="40" y="4.680000000000001" style="font-family: 'Open Sans', verdana, arial, sans-serif; font-size: 12px; fill: rgb(68, 68, 68); fill-opacity: 1; white-space: pre;">RDE</text><g class="layers" style="opacity: 1;"><g class="legendfill"/><g class="legendlines"><path class="js-line" d="M5,0h30" style="fill: none; stroke: rgb(33, 150, 243); stroke-opacity: 1; stroke-width: 2px;"/></g><g class="legendsymbols"><g class="legendpoints"/></g></g><rect class="legendtoggle" x="0" y="-9.5" width="91.25" height="19" style="fill: rgb(0, 0, 0); fill-opacity: 0;"/></g><g class="traces" transform="translate(0,52.5)" style="opacity: 1;"><text class="legendtext" text-anchor="start" x="40" y="4.680000000000001" style="font-family: 'Open Sans', verdana, arial, sans-serif; font-size: 12px; fill: rgb(68, 68, 68); fill-opacity: 1; white-space: pre;">DQN</text><g class="layers" style="opacity: 1;"><g class="legendfill"/><g class="legendlines"><path class="js-line" d="M5,0h30" style="fill: none; stroke: rgb(0, 150, 136); stroke-opacity: 1; stroke-width: 2px;"/></g><g class="legendsymbols"><g class="legendpoints"/></g></g><rect class="legendtoggle" x="0" y="-9.5" width="91.25" height="19" style="fill: rgb(0, 0, 0); fill-opacity: 0;"/></g></g></g><rect class="scrollbar" rx="20" ry="3" width="0" height="0" x="0" y="0" style="fill: rgb(128, 139, 164); fill-opacity: 1;"/></g><g class="g-gtitle"><text class="gtitle" x="350" y="50" text-anchor="middle" dy="0em" style="font-family: 'Open Sans', verdana, arial, sans-serif; font-size: 17px; fill: rgb(68, 68, 68); opacity: 1; font-weight: normal; white-space: pre;">Freeway-v4 on All Models (Replay Ratio = 4)</text></g><g class="g-xtitle"><text class="xtitle" x="330.5" y="422" text-anchor="middle" style="font-family: 'Open Sans', verdana, arial, sans-serif; font-size: 14px; fill: rgb(68, 68, 68); opacity: 1; font-weight: normal; white-space: pre;">Episode Count</text></g><g class="g-ytitle"><text class="ytitle" transform="rotate(-90,42,235)" x="42" y="235" text-anchor="middle" style="font-family: 'Open Sans', verdana, arial, sans-serif; font-size: 14px; fill: rgb(68, 68, 68); opacity: 1; font-weight: normal; white-space: pre;">Episode Reward</text></g></g></svg>