<svg class="main-svg" xmlns="http://www.w3.org/2000/svg" xmlns:xlink="http://www.w3.org/1999/xlink" width="700" height="450" style="" viewBox="0 0 700 450"><rect x="0" y="0" width="700" height="450" style="fill: rgb(255, 255, 255); fill-opacity: 1;"/><defs id="defs-a35e4d"><g class="clips"><clipPath id="clipa35e4dxyplot" class="plotclip"><rect width="501" height="270"/></clipPath><clipPath class="axesclip" id="clipa35e4dx"><rect x="80" y="0" width="501" height="450"/></clipPath><clipPath class="axesclip" id="clipa35e4dy"><rect x="0" y="100" width="700" height="270"/></clipPath><clipPath class="axesclip" id="clipa35e4dxy"><rect x="80" y="100" width="501" height="270"/></clipPath></g><g class="gradients"/><g class="patterns"/></defs><g class="bglayer"/><g class="layer-below"><g class="imagelayer"/><g class="shapelayer"/></g><g class="cartesianlayer"><g class="subplot xy"><g class="layer-subplot"><g class="shapelayer"/><g class="imagelayer"/></g><g class="minor-gridlayer"><g class="x"/><g class="y"/></g><g class="gridlayer"><g class="x"><path class="xgrid crisp" transform="translate(163.5,0)" d="M0,100v270" style="stroke: rgb(238, 238, 238); stroke-opacity: 1; stroke-width: 1px;"/><path class="xgrid crisp" transform="translate(247.84,0)" d="M0,100v270" style="stroke: rgb(238, 238, 238); stroke-opacity: 1; stroke-width: 1px;"/><path class="xgrid crisp" transform="translate(332.19,0)" d="M0,100v270" style="stroke: rgb(238, 238, 238); stroke-opacity: 1; stroke-width: 1px;"/><path class="xgrid crisp" transform="translate(416.53,0)" d="M0,100v270" style="stroke: rgb(238, 238, 238); stroke-opacity: 1; stroke-width: 1px;"/><path class="xgrid crisp" transform="translate(500.87,0)" d="M0,100v270" style="stroke: rgb(238, 238, 238); stroke-opacity: 1; stroke-width: 1px;"/></g><g class="y"><path class="ygrid crisp" transform="translate(0,317.93)" d="M80,0h501" style="stroke: rgb(238, 238, 238); stroke-opacity: 1; stroke-width: 1px;"/><path class="ygrid crisp" transform="translate(0,279.36)" d="M80,0h501" style="stroke: rgb(238, 238, 238); stroke-opacity: 1; stroke-width: 1px;"/><path class="ygrid crisp" transform="translate(0,240.79)" d="M80,0h501" style="stroke: rgb(238, 238, 238); stroke-opacity: 1; stroke-width: 1px;"/><path class="ygrid crisp" transform="translate(0,202.20999999999998)" d="M80,0h501" style="stroke: rgb(238, 238, 238); stroke-opacity: 1; stroke-width: 1px;"/><path class="ygrid crisp" transform="translate(0,163.64)" d="M80,0h501" style="stroke: rgb(238, 238, 238); stroke-opacity: 1; stroke-width: 1px;"/><path class="ygrid crisp" transform="translate(0,125.07)" d="M80,0h501" style="stroke: rgb(238, 238, 238); stroke-opacity: 1; stroke-width: 1px;"/></g></g><g class="zerolinelayer"><path class="yzl zl crisp" transform="translate(0,356.5)" d="M80,0h501" style="stroke: rgb(68, 68, 68); stroke-opacity: 1; stroke-width: 1px;"/></g><path class="xlines-below"/><path class="ylines-below"/><g class="overlines-below"/><g class="xaxislayer-below"/><g class="yaxislayer-below"/><g class="overaxes-below"/><g class="plot" transform="translate(80,100)" clip-path="url(#clipa35e4dxyplot)"><g class="scatterlayer mlayer"><g class="trace scatter trace62dba3" style="stroke-miterlimit: 2; opacity: 1;"><g class="fills"/><g class="errorbars"/><g class="lines"><path class="js-line" d="M0,217.93L0.84,221.79L1.69,256.5L2.53,210.21L3.37,244.93L4.22,237.21L5.06,221.79L5.9,252.64L6.75,221.79L8.43,244.93L9.28,179.36L10.12,190.93L10.96,241.07L11.81,244.93L12.65,217.93L13.49,244.93L14.34,241.07L15.18,221.79L16.03,248.79L16.87,248.79L17.71,225.64L18.56,241.07L19.4,237.21L20.24,229.5L21.09,248.79L21.93,252.64L22.77,206.36L23.62,244.93L24.46,241.07L26.15,217.93L26.99,256.5L27.83,198.64L28.68,256.5L29.52,244.93L30.36,217.93L31.21,214.07L32.05,256.5L32.89,229.5L33.74,229.5L35.42,175.5L36.27,256.5L37.95,202.5L38.8,187.07L39.64,256.5L40.48,179.36L41.33,244.93L42.17,210.21L43.02,233.36L43.86,202.5L44.7,256.5L45.55,175.5L47.23,256.5L48.08,179.36L48.92,244.93L49.76,244.93L50.61,175.5L51.45,244.93L52.29,256.5L53.14,171.64L53.98,244.93L54.82,237.21L55.67,183.21L56.51,248.79L57.35,252.64L58.2,217.93L59.04,237.21L59.88,233.36L61.57,214.07L62.41,241.07L63.26,187.07L64.1,248.79L64.94,252.64L65.79,225.64L66.63,160.07L67.47,179.36L70.01,244.93L70.85,148.5L71.69,244.93L72.54,229.5L73.38,202.5L74.22,221.79L75.07,229.5L75.91,202.5L76.75,256.5L77.6,244.93L78.44,229.5L79.28,248.79L80.97,214.07L81.81,244.93L82.66,241.07L83.5,194.79L85.19,256.5L86.03,202.5L87.72,241.07L88.56,202.5L89.4,241.07L90.25,202.5L91.93,183.21L92.78,187.07L93.62,217.93L94.46,206.36L95.31,225.64L96.15,198.64L96.99,233.36L97.84,229.5L99.53,210.21L100.37,248.79L101.21,237.21L102.06,214.07L102.9,229.5L103.74,144.64L105.43,233.36L106.27,217.93L107.12,214.07L107.96,252.64L109.65,187.07L110.49,256.5L111.33,217.93L112.18,225.64L113.02,256.5L113.86,194.79L114.71,237.21L115.55,210.21L116.39,202.5L117.24,217.93L118.08,237.21L118.92,206.36L119.77,206.36L120.61,202.5L122.3,225.64L123.14,198.64L123.98,210.21L124.83,256.5L125.67,244.93L126.52,210.21L127.36,237.21L128.2,225.64L129.05,187.07L129.89,194.79L130.73,237.21L131.58,217.93L132.42,237.21L133.26,229.5L134.11,198.64L134.95,233.36L135.79,256.5L136.64,187.07L138.32,237.21L139.17,214.07L140.01,237.21L140.85,225.64L141.7,179.36L142.54,248.79L143.38,248.79L144.23,206.36L145.07,229.5L145.91,198.64L147.6,252.64L148.44,217.93L149.29,237.21L150.13,233.36L150.97,79.07L151.82,179.36L153.51,252.64L154.35,206.36L156.04,241.07L156.88,210.21L157.72,210.21L158.57,214.07L159.41,198.64L160.25,202.5L161.1,248.79L161.94,190.93L162.78,229.5L163.63,221.79L164.47,202.5L165.31,233.36L166.16,217.93L167,225.64L167.84,244.93L168.69,214.07L169.53,241.07L170.37,217.93L171.22,214.07L172.06,221.79L172.9,217.93L173.75,221.79L174.59,214.07L175.43,214.07L176.28,252.64L177.12,214.07L177.96,237.21L178.81,233.36L179.65,225.64L180.49,225.64L181.34,233.36L182.18,202.5L184.71,237.21L185.56,229.5L186.4,244.93L187.24,210.21L188.09,221.79L188.93,210.21L190.62,202.5L191.46,248.79L193.15,202.5L193.99,233.36L194.83,194.79L195.68,190.93L197.36,210.21L198.21,202.5L199.05,194.79L199.89,198.64L201.58,241.07L202.42,237.21L203.27,214.07L204.11,233.36L204.95,217.93L205.8,241.07L207.48,198.64L208.33,206.36L209.17,252.64L210.02,217.93L210.86,248.79L211.7,187.07L212.55,198.64L213.39,244.93L214.23,206.36L215.08,210.21L215.92,244.93L216.76,229.5L217.61,241.07L218.45,214.07L219.29,252.64L220.14,210.21L220.98,233.36L221.82,198.64L222.67,198.64L223.51,248.79L224.35,233.36L225.2,125.36L226.04,94.5L226.88,256.5L227.73,198.64L228.57,214.07L229.41,252.64L230.26,221.79L231.1,248.79L231.94,241.07L232.79,210.21L233.63,217.93L235.32,179.36L236.16,244.93L237.01,229.5L237.85,106.07L238.69,237.21L239.54,179.36L240.38,167.79L241.22,225.64L242.07,237.21L242.91,233.36L243.75,237.21L244.6,217.93L245.44,144.64L246.28,248.79L247.97,194.79L248.81,241.07L250.5,206.36L251.34,136.93L252.19,233.36L253.03,233.36L253.87,210.21L254.72,217.93L255.56,210.21L256.4,244.93L257.25,210.21L258.09,233.36L258.93,163.93L259.78,248.79L261.46,198.64L262.31,256.5L263.15,221.79L263.99,237.21L265.68,210.21L266.53,244.93L267.37,244.93L268.21,210.21L269.06,190.93L269.9,244.93L270.74,221.79L271.59,233.36L272.43,241.07L273.27,221.79L274.96,214.07L275.8,237.21L276.65,198.64L277.49,244.93L278.33,163.93L279.18,221.79L280.02,237.21L280.86,221.79L282.55,248.79L283.39,198.64L284.24,233.36L285.08,233.36L285.92,225.64L286.77,233.36L288.45,217.93L289.3,233.36L290.14,221.79L290.98,225.64L291.83,206.36L292.67,229.5L294.36,206.36L295.2,237.21L296.05,229.5L296.89,202.5L297.73,187.07L298.58,214.07L299.42,190.93L300.26,248.79L301.11,198.64L301.95,233.36L302.79,210.21L303.64,214.07L304.48,237.21L305.32,210.21L306.17,210.21L307.01,241.07L307.85,248.79L308.7,229.5L309.54,183.21L310.38,248.79L311.23,202.5L312.07,233.36L312.91,221.79L313.76,194.79L315.44,256.5L316.29,229.5L317.13,244.93L317.97,206.36L318.82,221.79L319.66,121.5L320.51,221.79L321.35,221.79L322.19,225.64L323.04,210.21L324.72,233.36L325.57,202.5L326.41,221.79L327.25,221.79L328.1,225.64L328.94,210.21L329.78,233.36L330.63,198.64L331.47,198.64L332.31,229.5L334,202.5L334.84,233.36L336.53,217.93L337.37,241.07L338.22,225.64L339.06,241.07L339.9,237.21L340.75,256.5L342.43,202.5L343.28,214.07L344.12,206.36L344.96,237.21L345.81,233.36L346.65,210.21L347.49,210.21L348.34,256.5L349.18,241.07L350.03,187.07L351.71,229.5L352.56,194.79L353.4,225.64L354.24,202.5L355.93,256.5L356.77,217.93L357.62,252.64L358.46,229.5L360.15,198.64L360.99,241.07L361.83,206.36L362.68,244.93L364.36,160.07L365.21,187.07L366.05,221.79L366.89,221.79L367.74,244.93L368.58,233.36L369.42,206.36L370.27,237.21L371.11,210.21L371.95,229.5L372.8,248.79L373.64,229.5L375.33,179.36L376.17,252.64L377.02,217.93L377.86,248.79L379.55,214.07L380.39,214.07L381.23,233.36L382.08,210.21L383.76,237.21L384.61,214.07L385.45,206.36L386.29,241.07L387.14,202.5L387.98,202.5L388.82,214.07L389.67,194.79L390.51,179.36L391.35,233.36L392.2,202.5L393.04,244.93L393.88,94.5L394.73,221.79L395.57,179.36L396.41,256.5L397.26,210.21L398.1,241.07L398.94,256.5L399.79,206.36L400.63,190.93L401.47,256.5L403.16,206.36L404.01,233.36L405.69,194.79L406.54,256.5L407.38,210.21L408.22,237.21L409.07,221.79L409.91,221.79L410.75,217.93L411.6,244.93L412.44,217.93L413.28,248.79L415.81,206.36L416.66,256.5L417.5,187.07L418.34,225.64L420.03,206.36L420.87,214.07L421.72,225.64L422.56,190.93L423.4,225.64L424.25,202.5L426.78,221.79L427.62,214.07L428.46,202.5L429.31,210.21L430.15,190.93L430.99,206.36L431.84,252.64L432.68,183.21L434.37,210.21L435.21,171.64L436.06,237.21L436.9,206.36L437.74,198.64L438.59,256.5L440.27,206.36L441.12,229.5L441.96,206.36L442.8,210.21L443.65,202.5L444.49,252.64L445.33,210.21L446.18,225.64L447.02,225.64L447.86,175.5L448.71,248.79L449.55,233.36L450.39,214.07L451.24,217.93L452.08,244.93L452.92,214.07L453.77,252.64L454.61,229.5L455.45,221.79L456.3,225.64L457.14,244.93L457.98,206.36L458.83,256.5L459.67,252.64L460.52,190.93L461.36,241.07L462.2,129.21L463.05,214.07L463.89,229.5L464.73,229.5L465.58,202.5L466.42,221.79L467.26,229.5L468.11,202.5L468.95,256.5L469.79,217.93L470.64,206.36L471.48,248.79L472.32,241.07L473.17,241.07L474.01,221.79L474.85,248.79L475.7,206.36L476.54,214.07L477.38,252.64L478.23,217.93L479.07,248.79L479.91,160.07L480.76,217.93L481.6,217.93L482.44,229.5L483.29,214.07L484.13,194.79L484.97,248.79L486.66,229.5L487.51,233.36L488.35,202.5L489.19,244.93L490.88,225.64L491.72,210.21L492.57,252.64L493.41,221.79L494.25,233.36L495.1,187.07L496.78,248.79L497.63,190.93L498.47,63.64" style="vector-effect: none; fill: none; stroke: rgb(156, 39, 176); stroke-opacity: 1; stroke-width: 2px; opacity: 1;"/></g><g class="points"/><g class="text"/></g><g class="trace scatter trace55095b" style="stroke-miterlimit: 2; opacity: 1;"><g class="fills"/><g class="errorbars"/><g class="lines"><path class="js-line" d="M0,202.5L1.69,256.5L2.53,225.64L3.37,221.79L4.22,241.07L5.06,225.64L5.9,225.64L6.75,256.5L7.59,229.5L9.28,214.07L10.12,194.79L11.81,252.64L12.65,163.93L14.34,237.21L15.18,202.5L16.03,202.5L16.87,179.36L17.71,175.5L18.56,237.21L19.4,198.64L20.24,214.07L21.09,248.79L21.93,190.93L23.62,229.5L24.46,187.07L25.3,217.93L26.15,217.93L26.99,256.5L27.83,136.93L28.68,241.07L29.52,187.07L30.36,233.36L31.21,187.07L32.05,217.93L32.89,187.07L33.74,210.21L34.58,256.5L35.42,187.07L36.27,198.64L37.11,256.5L37.95,214.07L39.64,237.21L40.48,198.64L42.17,241.07L43.02,221.79L43.86,256.5L44.7,244.93L46.39,217.93L47.23,248.79L48.92,194.79L49.76,233.36L50.61,194.79L51.45,233.36L52.29,233.36L53.14,202.5L53.98,217.93L54.82,252.64L56.51,194.79L57.35,206.36L59.04,241.07L59.88,229.5L60.73,190.93L61.57,248.79L62.41,198.64L63.26,194.79L64.1,198.64L64.94,217.93L65.79,190.93L66.63,210.21L67.47,210.21L68.32,198.64L69.16,202.5L70.01,248.79L71.69,214.07L72.54,221.79L73.38,225.64L74.22,225.64L75.07,233.36L75.91,171.64L77.6,252.64L78.44,202.5L79.28,217.93L80.13,214.07L80.97,202.5L81.81,233.36L82.66,140.79L83.5,214.07L84.34,183.21L85.19,237.21L86.03,217.93L86.87,229.5L87.72,237.21L88.56,198.64L90.25,225.64L91.09,198.64L91.93,241.07L92.78,237.21L93.62,190.93L94.46,206.36L95.31,221.79L96.15,194.79L97.84,244.93L98.68,179.36L99.53,225.64L100.37,133.07L102.06,214.07L102.9,202.5L104.59,233.36L105.43,221.79L106.27,229.5L107.12,248.79L107.96,136.93L108.8,194.79L109.65,206.36L110.49,244.93L111.33,217.93L112.18,144.64L113.02,252.64L113.86,217.93L114.71,256.5L115.55,217.93L116.39,210.21L117.24,256.5L118.08,252.64L118.92,217.93L120.61,244.93L121.45,194.79L122.3,198.64L123.14,252.64L123.98,221.79L124.83,221.79L125.67,40.5L126.52,217.93L127.36,210.21L128.2,190.93L129.89,237.21L130.73,210.21L131.58,217.93L132.42,248.79L133.26,133.07L134.11,198.64L134.95,244.93L135.79,233.36L136.64,229.5L137.48,198.64L138.32,244.93L139.17,206.36L140.01,183.21L140.85,256.5L142.54,179.36L143.38,233.36L144.23,229.5L145.07,233.36L145.91,241.07L146.76,194.79L147.6,217.93L148.44,202.5L150.13,175.5L150.97,237.21L151.82,210.21L152.66,244.93L153.51,190.93L154.35,225.64L155.19,233.36L156.04,171.64L158.57,252.64L159.41,198.64L160.25,210.21L161.1,233.36L162.78,202.5L163.63,214.07L164.47,202.5L165.31,206.36L166.16,248.79L167,225.64L167.84,217.93L168.69,221.79L169.53,171.64L170.37,179.36L172.9,244.93L173.75,241.07L174.59,198.64L175.43,244.93L177.12,221.79L177.96,233.36L178.81,233.36L179.65,221.79L180.49,140.79L181.34,179.36L183.03,217.93L183.87,225.64L184.71,194.79L185.56,221.79L186.4,221.79L187.24,194.79L188.09,152.36L188.93,187.07L189.77,183.21L190.62,229.5L191.46,233.36L192.3,206.36L193.15,214.07L193.99,237.21L194.83,163.93L195.68,229.5L196.52,237.21L197.36,198.64L199.05,256.5L199.89,225.64L200.74,229.5L201.58,248.79L202.42,214.07L203.27,210.21L204.11,244.93L204.95,198.64L205.8,256.5L206.64,256.5L208.33,190.93L209.17,233.36L210.02,233.36L210.86,225.64L211.7,256.5L212.55,190.93L214.23,225.64L215.08,206.36L215.92,206.36L216.76,210.21L217.61,198.64L218.45,217.93L219.29,229.5L220.14,225.64L220.98,79.07L221.82,241.07L222.67,194.79L223.51,217.93L224.35,206.36L225.2,206.36L226.04,217.93L226.88,241.07L227.73,121.5L228.57,183.21L229.41,241.07L230.26,194.79L231.1,241.07L231.94,221.79L232.79,233.36L233.63,183.21L236.16,229.5L237.01,210.21L237.85,190.93L238.69,241.07L239.54,244.93L240.38,190.93L241.22,183.21L242.07,256.5L242.91,198.64L243.75,241.07L244.6,217.93L245.44,225.64L246.28,244.93L247.13,229.5L248.81,198.64L249.66,233.36L250.5,183.21L251.34,233.36L253.03,198.64L253.87,233.36L254.72,202.5L255.56,202.5L257.25,244.93L258.09,214.07L258.93,206.36L259.78,256.5L260.62,194.79L261.46,229.5L262.31,237.21L263.15,202.5L263.99,198.64L264.84,256.5L266.53,183.21L267.37,256.5L269.06,214.07L269.9,233.36L270.74,225.64L271.59,237.21L273.27,194.79L274.12,229.5L274.96,233.36L275.8,217.93L276.65,144.64L277.49,217.93L278.33,225.64L279.18,241.07L280.02,241.07L280.86,210.21L281.71,241.07L282.55,233.36L283.39,194.79L284.24,206.36L285.08,256.5L285.92,198.64L287.61,206.36L288.45,190.93L290.14,237.21L290.98,233.36L291.83,206.36L292.67,237.21L294.36,179.36L295.2,244.93L296.89,179.36L297.73,179.36L298.58,233.36L299.42,210.21L300.26,256.5L301.11,198.64L302.79,244.93L303.64,214.07L304.48,187.07L305.32,241.07L306.17,171.64L307.01,190.93L307.85,175.5L308.7,206.36L309.54,225.64L310.38,148.5L311.23,225.64L312.07,221.79L312.91,190.93L313.76,210.21L314.6,221.79L315.44,244.93L316.29,190.93L317.13,202.5L317.97,256.5L318.82,206.36L320.51,217.93L321.35,202.5L323.04,252.64L323.88,179.36L324.72,252.64L325.57,225.64L327.25,194.79L328.1,214.07L328.94,198.64L329.78,233.36L330.63,217.93L331.47,179.36L332.31,248.79L333.16,229.5L334,206.36L334.84,217.93L335.69,248.79L336.53,229.5L337.37,140.79L338.22,210.21L339.06,190.93L339.9,233.36L340.75,217.93L341.59,233.36L342.43,214.07L343.28,252.64L344.12,198.64L344.96,237.21L345.81,241.07L346.65,210.21L347.49,190.93L348.34,198.64L349.18,198.64L350.03,241.07L350.87,244.93L351.71,217.93L352.56,214.07L353.4,229.5L354.24,217.93L355.09,244.93L355.93,244.93L356.77,210.21L357.62,221.79L358.46,248.79L360.15,198.64L360.99,202.5L361.83,206.36L362.68,233.36L363.52,256.5L364.36,225.64L365.21,229.5L366.05,248.79L366.89,214.07L367.74,229.5L368.58,244.93L369.42,206.36L371.11,248.79L371.95,206.36L372.8,214.07L373.64,237.21L374.48,198.64L375.33,244.93L376.17,206.36L377.02,229.5L377.86,214.07L378.7,229.5L380.39,217.93L381.23,248.79L383.76,190.93L384.61,183.21L385.45,225.64L386.29,214.07L387.14,187.07L387.98,214.07L388.82,256.5L389.67,225.64L390.51,241.07L391.35,202.5L393.04,252.64L393.88,233.36L394.73,206.36L395.57,217.93L396.41,237.21L397.26,210.21L398.1,206.36L398.94,217.93L399.79,206.36L400.63,248.79L402.32,225.64L403.16,244.93L404.01,237.21L404.85,198.64L405.69,241.07L406.54,233.36L407.38,210.21L408.22,225.64L409.07,248.79L409.91,221.79L410.75,202.5L411.6,233.36L412.44,229.5L413.28,256.5L414.97,210.21L415.81,256.5L416.66,241.07L417.5,202.5L418.34,129.21L419.19,202.5L420.03,229.5L420.87,214.07L421.72,252.64L422.56,214.07L423.4,214.07L424.25,252.64L425.09,210.21L425.93,244.93L427.62,187.07L428.46,225.64L429.31,237.21L430.15,194.79L430.99,252.64L431.84,171.64L432.68,210.21L433.53,210.21L434.37,194.79L435.21,225.64L436.06,248.79L436.9,229.5L437.74,214.07L438.59,244.93L439.43,248.79L440.27,233.36L441.12,225.64L441.96,198.64L442.8,198.64L443.65,241.07L444.49,237.21L445.33,221.79L446.18,233.36L447.02,221.79L447.86,202.5L448.71,252.64L451.24,194.79L452.08,248.79L453.77,117.64L454.61,233.36L455.45,221.79L456.3,225.64L457.14,233.36L457.98,221.79L458.83,221.79L459.67,229.5L460.52,221.79L461.36,237.21L462.2,233.36L463.05,206.36L463.89,225.64L464.73,214.07L465.58,214.07L466.42,237.21L467.26,237.21L468.11,187.07L468.95,214.07L469.79,121.5L471.48,217.93L472.32,248.79L473.17,206.36L474.01,221.79L474.85,244.93L475.7,210.21L476.54,241.07L477.38,241.07L478.23,167.79L479.07,229.5L480.76,198.64L481.6,229.5L482.44,221.79L483.29,225.64L484.13,194.79L484.97,233.36L485.82,129.21L486.66,210.21L487.51,244.93L488.35,202.5L489.19,194.79L490.04,241.07L490.88,217.93L491.72,225.64L492.57,252.64L493.41,187.07L494.25,198.64L495.1,248.79L495.94,202.5L496.78,256.5L497.63,252.64L498.47,221.79L499.31,233.36L500.16,229.5L501,206.36" style="vector-effect: none; fill: none; stroke: rgb(33, 150, 243); stroke-opacity: 1; stroke-width: 2px; opacity: 1;"/></g><g class="points"/><g class="text"/></g><g class="trace scatter trace8b7ab3" style="stroke-miterlimit: 2; opacity: 1;"><g class="fills"/><g class="errorbars"/><g class="lines"><path class="js-line" d="M0,225.64L0.84,217.93L1.69,202.5L3.37,248.79L4.22,256.5L5.06,221.79L5.9,225.64L6.75,244.93L7.59,210.21L8.43,217.93L9.28,256.5L10.12,214.07L10.96,237.21L11.81,202.5L12.65,221.79L13.49,167.79L14.34,252.64L15.18,210.21L16.03,206.36L16.87,241.07L17.71,225.64L18.56,252.64L19.4,237.21L20.24,225.64L21.09,225.64L21.93,241.07L22.77,233.36L23.62,221.79L24.46,241.07L25.3,221.79L26.15,256.5L26.99,187.07L27.83,202.5L28.68,217.93L29.52,256.5L30.36,194.79L31.21,225.64L32.05,221.79L32.89,171.64L33.74,248.79L34.58,241.07L36.27,221.79L37.11,241.07L37.95,175.5L38.8,225.64L39.64,210.21L40.48,210.21L41.33,210.21L42.17,244.93L43.86,187.07L44.7,233.36L45.55,229.5L46.39,252.64L47.23,244.93L48.08,206.36L48.92,248.79L49.76,206.36L50.61,183.21L51.45,248.79L52.29,237.21L53.14,187.07L54.82,233.36L55.67,210.21L56.51,194.79L57.35,241.07L58.2,225.64L59.04,229.5L60.73,190.93L61.57,244.93L62.41,210.21L63.26,210.21L64.1,187.07L64.94,248.79L65.79,229.5L66.63,179.36L67.47,256.5L68.32,229.5L69.16,248.79L70.01,221.79L70.85,233.36L71.69,198.64L72.54,225.64L73.38,214.07L75.07,248.79L75.91,198.64L77.6,225.64L78.44,225.64L79.28,233.36L80.13,256.5L80.97,206.36L81.81,217.93L82.66,248.79L83.5,237.21L84.34,225.64L85.19,233.36L86.87,183.21L87.72,252.64L88.56,198.64L89.4,237.21L90.25,206.36L91.09,136.93L91.93,233.36L92.78,214.07L93.62,13.5L94.46,241.07L95.31,233.36L96.15,187.07L96.99,233.36L97.84,187.07L98.68,187.07L99.53,217.93L100.37,248.79L101.21,229.5L102.06,217.93L102.9,171.64L103.74,171.64L104.59,217.93L105.43,237.21L106.27,202.5L107.12,198.64L107.96,225.64L108.8,217.93L109.65,190.93L110.49,241.07L111.33,217.93L112.18,244.93L113.02,163.93L114.71,217.93L115.55,252.64L116.39,206.36L117.24,214.07L118.08,241.07L118.92,214.07L119.77,248.79L120.61,237.21L122.3,206.36L123.14,214.07L123.98,194.79L124.83,252.64L126.52,190.93L127.36,225.64L128.2,252.64L129.05,217.93L129.89,252.64L130.73,225.64L131.58,202.5L132.42,221.79L133.26,244.93L134.11,210.21L134.95,229.5L135.79,225.64L136.64,167.79L137.48,217.93L138.32,252.64L139.17,190.93L140.01,194.79L140.85,175.5L141.7,206.36L142.54,202.5L143.38,241.07L144.23,190.93L145.91,237.21L146.76,136.93L148.44,237.21L149.29,175.5L150.97,252.64L151.82,167.79L153.51,244.93L154.35,187.07L155.19,187.07L156.04,252.64L156.88,229.5L157.72,156.21L158.57,248.79L159.41,225.64L160.25,171.64L161.1,256.5L161.94,190.93L162.78,217.93L163.63,71.36L164.47,171.64L165.31,241.07L166.16,125.36L167,229.5L167.84,217.93L168.69,221.79L169.53,198.64L170.37,167.79L171.22,244.93L172.9,194.79L173.75,221.79L174.59,202.5L175.43,241.07L177.12,175.5L177.96,206.36L178.81,256.5L179.65,160.07L180.49,248.79L181.34,202.5L182.18,202.5L183.03,237.21L185.56,175.5L186.4,252.64L187.24,206.36L188.09,210.21L188.93,229.5L189.77,221.79L190.62,198.64L191.46,206.36L192.3,160.07L193.15,229.5L193.99,183.21L194.83,190.93L196.52,229.5L197.36,156.21L199.05,210.21L199.89,198.64L201.58,233.36L202.42,198.64L204.11,214.07L204.95,136.93L205.8,233.36L206.64,217.93L207.48,206.36L208.33,179.36L209.17,179.36L210.02,210.21L210.86,190.93L211.7,248.79L212.55,133.07L213.39,202.5L214.23,237.21L215.08,190.93L215.92,248.79L216.76,244.93L218.45,214.07L219.29,256.5L220.14,206.36L220.98,202.5L221.82,237.21L222.67,198.64L223.51,217.93L224.35,256.5L225.2,225.64L226.04,125.36L227.73,229.5L228.57,86.79L229.41,229.5L230.26,175.5L231.1,229.5L231.94,214.07L232.79,202.5L233.63,206.36L234.47,221.79L235.32,198.64L236.16,241.07L237.01,198.64L237.85,187.07L238.69,198.64L239.54,256.5L240.38,129.21L241.22,221.79L242.07,229.5L245.44,187.07L246.28,256.5L247.13,252.64L247.97,202.5L248.81,194.79L249.66,237.21L250.5,198.64L251.34,206.36L252.19,233.36L253.03,198.64L253.87,194.79L254.72,256.5L255.56,221.79L256.4,221.79L257.25,79.07L258.09,144.64L258.93,217.93L259.78,210.21L260.62,98.36L261.46,194.79L262.31,244.93L263.15,198.64L263.99,171.64L264.84,248.79L265.68,133.07L266.53,210.21L267.37,241.07L268.21,190.93L269.06,237.21L269.9,221.79L270.74,206.36L271.59,210.21L272.43,233.36L273.27,179.36L274.12,106.07L274.96,237.21L275.8,229.5L276.65,252.64L277.49,140.79L278.33,171.64L279.18,202.5L280.02,156.21L280.86,175.5L281.71,133.07L282.55,241.07L283.39,163.93L284.24,233.36L285.08,206.36L285.92,175.5L286.77,202.5L287.61,233.36L288.45,194.79L289.3,179.36L290.14,241.07L290.98,175.5L291.83,198.64L292.67,233.36L293.52,190.93L294.36,229.5L295.2,214.07L296.05,190.93L296.89,233.36L297.73,244.93L298.58,206.36L299.42,241.07L300.26,233.36L301.11,183.21L301.95,233.36L302.79,241.07L303.64,79.07L304.48,241.07L305.32,244.93L306.17,163.93L307.01,214.07L307.85,167.79L308.7,175.5L310.38,256.5L311.23,187.07L312.07,229.5L312.91,163.93L313.76,175.5L314.6,241.07L315.44,148.5L316.29,214.07L317.13,183.21L317.97,206.36L318.82,156.21L319.66,217.93L320.51,148.5L321.35,183.21L322.19,206.36L323.04,252.64L323.88,190.93L324.72,214.07L326.41,133.07L327.25,252.64L328.94,167.79L329.78,210.21L330.63,241.07L331.47,187.07L332.31,256.5L333.16,237.21L334.84,167.79L335.69,214.07L336.53,206.36L337.37,217.93L338.22,256.5L339.06,113.79L340.75,244.93L341.59,148.5L343.28,252.64L344.12,183.21L344.96,190.93L345.81,237.21L346.65,90.64L347.49,183.21L348.34,179.36L349.18,171.64L350.03,214.07L350.87,129.21L351.71,160.07L352.56,233.36L354.24,167.79L355.09,210.21L355.93,241.07L356.77,175.5L357.62,171.64L358.46,194.79L359.3,217.93L360.15,167.79L360.99,244.93L361.83,163.93L363.52,241.07L364.36,179.36L365.21,241.07L366.05,217.93L367.74,156.21L368.58,163.93L370.27,229.5L371.11,210.21L371.95,117.64L372.8,202.5L373.64,256.5L374.48,160.07L376.17,233.36L377.02,79.07L377.86,229.5L378.7,244.93L379.55,190.93L380.39,241.07L381.23,252.64L382.08,160.07L382.92,233.36L383.76,190.93L385.45,121.5L386.29,252.64L387.98,133.07L388.82,229.5L389.67,179.36L390.51,225.64L391.35,229.5L392.2,156.21L393.04,225.64L393.88,156.21L394.73,133.07L395.57,183.21L396.41,248.79L397.26,202.5L398.1,187.07L398.94,202.5L399.79,194.79L400.63,140.79L401.47,252.64L402.32,171.64L404.01,237.21L404.85,156.21L405.69,248.79L406.54,252.64L408.22,156.21L409.07,233.36L409.91,90.64L410.75,229.5L412.44,183.21L413.28,217.93L414.13,214.07L414.97,125.36L415.81,202.5L416.66,179.36L417.5,25.07L418.34,225.64L419.19,221.79L420.03,171.64L420.87,221.79L421.72,82.93L423.4,190.93L424.25,233.36L425.09,28.93L425.93,214.07L426.78,252.64L427.62,125.36L428.46,194.79L429.31,183.21L430.15,106.07L430.99,244.93L431.84,63.64L432.68,229.5L433.53,167.79L434.37,221.79L435.21,140.79L436.06,198.64L436.9,237.21L437.74,98.36L438.59,241.07L439.43,210.21L440.27,136.93L441.12,206.36L441.96,179.36L442.8,210.21L443.65,206.36L444.49,187.07L445.33,117.64L446.18,202.5L447.02,233.36L447.86,98.36L449.55,229.5" style="vector-effect: none; fill: none; stroke: rgb(0, 150, 136); stroke-opacity: 1; stroke-width: 2px; opacity: 1;"/></g><g class="points"/><g class="text"/></g></g></g><g class="overplot"/><path class="xlines-above crisp" d="M79,370.5H581" style="fill: none; stroke-width: 1px; stroke: rgb(68, 68, 68); stroke-opacity: 1;"/><path class="ylines-above crisp" d="M79.5,100V370" style="fill: none; stroke-width: 1px; stroke: rgb(68, 68, 68); stroke-opacity: 1;"/><g class="overlines-above"/><g class="xaxislayer-above"><path class="xtick ticks crisp" d="M0,371v5" transform="translate(163.5,0)" style="stroke: rgb(68, 68, 68); stroke-opacity: 1; stroke-width: 1px;"/><path class="xtick ticks crisp" d="M0,371v5" transform="translate(247.84,0)" style="stroke: rgb(68, 68, 68); stroke-opacity: 1; stroke-width: 1px;"/><path class="xtick ticks crisp" d="M0,371v5" transform="translate(332.19,0)" style="stroke: rgb(68, 68, 68); stroke-opacity: 1; stroke-width: 1px;"/><path class="xtick ticks crisp" d="M0,371v5" transform="translate(416.53,0)" style="stroke: rgb(68, 68, 68); stroke-opacity: 1; stroke-width: 1px;"/><path class="xtick ticks crisp" d="M0,371v5" transform="translate(500.87,0)" style="stroke: rgb(68, 68, 68); stroke-opacity: 1; stroke-width: 1px;"/><g class="xtick"><text text-anchor="middle" x="0" y="390.4" transform="translate(163.5,0)" style="font-family: 'Open Sans', verdana, arial, sans-serif; font-size: 12px; fill: rgb(68, 68, 68); fill-opacity: 1; white-space: pre; opacity: 1;">100</text></g><g class="xtick"><text text-anchor="middle" x="0" y="390.4" style="font-family: 'Open Sans', verdana, arial, sans-serif; font-size: 12px; fill: rgb(68, 68, 68); fill-opacity: 1; white-space: pre; opacity: 1;" transform="translate(247.84,0)">200</text></g><g class="xtick"><text text-anchor="middle" x="0" y="390.4" style="font-family: 'Open Sans', verdana, arial, sans-serif; font-size: 12px; fill: rgb(68, 68, 68); fill-opacity: 1; white-space: pre; opacity: 1;" transform="translate(332.19,0)">300</text></g><g class="xtick"><text text-anchor="middle" x="0" y="390.4" style="font-family: 'Open Sans', verdana, arial, sans-serif; font-size: 12px; fill: rgb(68, 68, 68); fill-opacity: 1; white-space: pre; opacity: 1;" transform="translate(416.53,0)">400</text></g><g class="xtick"><text text-anchor="middle" x="0" y="390.4" style="font-family: 'Open Sans', verdana, arial, sans-serif; font-size: 12px; fill: rgb(68, 68, 68); fill-opacity: 1; white-space: pre; opacity: 1;" transform="translate(500.87,0)">500</text></g></g><g class="yaxislayer-above"><path class="ytick ticks crisp" d="M79,0h-5" transform="translate(0,356.5)" style="stroke: rgb(68, 68, 68); stroke-opacity: 1; stroke-width: 1px;"/><path class="ytick ticks crisp" d="M79,0h-5" transform="translate(0,317.93)" style="stroke: rgb(68, 68, 68); stroke-opacity: 1; stroke-width: 1px;"/><path class="ytick ticks crisp" d="M79,0h-5" transform="translate(0,279.36)" style="stroke: rgb(68, 68, 68); stroke-opacity: 1; stroke-width: 1px;"/><path class="ytick ticks crisp" d="M79,0h-5" transform="translate(0,240.79)" style="stroke: rgb(68, 68, 68); stroke-opacity: 1; stroke-width: 1px;"/><path class="ytick ticks crisp" d="M79,0h-5" transform="translate(0,202.20999999999998)" style="stroke: rgb(68, 68, 68); stroke-opacity: 1; stroke-width: 1px;"/><path class="ytick ticks crisp" d="M79,0h-5" transform="translate(0,163.64)" style="stroke: rgb(68, 68, 68); stroke-opacity: 1; stroke-width: 1px;"/><path class="ytick ticks crisp" d="M79,0h-5" transform="translate(0,125.07)" style="stroke: rgb(68, 68, 68); stroke-opacity: 1; stroke-width: 1px;"/><g class="ytick"><text text-anchor="end" x="71.6" y="4.199999999999999" transform="translate(0,356.5)" style="font-family: 'Open Sans', verdana, arial, sans-serif; font-size: 12px; fill: rgb(68, 68, 68); fill-opacity: 1; white-space: pre; opacity: 1;">0</text></g><g class="ytick"><text text-anchor="end" x="71.6" y="4.199999999999999" style="font-family: 'Open Sans', verdana, arial, sans-serif; font-size: 12px; fill: rgb(68, 68, 68); fill-opacity: 1; white-space: pre; opacity: 1;" transform="translate(0,317.93)">10</text></g><g class="ytick"><text text-anchor="end" x="71.6" y="4.199999999999999" style="font-family: 'Open Sans', verdana, arial, sans-serif; font-size: 12px; fill: rgb(68, 68, 68); fill-opacity: 1; white-space: pre; opacity: 1;" transform="translate(0,279.36)">20</text></g><g class="ytick"><text text-anchor="end" x="71.6" y="4.199999999999999" style="font-family: 'Open Sans', verdana, arial, sans-serif; font-size: 12px; fill: rgb(68, 68, 68); fill-opacity: 1; white-space: pre; opacity: 1;" transform="translate(0,240.79)">30</text></g><g class="ytick"><text text-anchor="end" x="71.6" y="4.199999999999999" style="font-family: 'Open Sans', verdana, arial, sans-serif; font-size: 12px; fill: rgb(68, 68, 68); fill-opacity: 1; white-space: pre; opacity: 1;" transform="translate(0,202.20999999999998)">40</text></g><g class="ytick"><text text-anchor="end" x="71.6" y="4.199999999999999" style="font-family: 'Open Sans', verdana, arial, sans-serif; font-size: 12px; fill: rgb(68, 68, 68); fill-opacity: 1; white-space: pre; opacity: 1;" transform="translate(0,163.64)">50</text></g><g class="ytick"><text text-anchor="end" x="71.6" y="4.199999999999999" style="font-family: 'Open Sans', verdana, arial, sans-serif; font-size: 12px; fill: rgb(68, 68, 68); fill-opacity: 1; white-space: pre; opacity: 1;" transform="translate(0,125.07)">60</text></g></g><g class="overaxes-above"/></g></g><g class="polarlayer"/><g class="smithlayer"/><g class="ternarylayer"/><g class="geolayer"/><g class="funnelarealayer"/><g class="pielayer"/><g class="iciclelayer"/><g class="treemaplayer"/><g class="sunburstlayer"/><g class="glimages"/><defs id="topdefs-a35e4d"><g class="clips"/><clipPath id="legenda35e4d"><rect width="97" height="67" x="0" y="0"/></clipPath></defs><g class="layer-above"><g class="imagelayer"/><g class="shapelayer"/></g><g class="infolayer"><g class="legend" pointer-events="all" transform="translate(591.02,100)"><rect class="bg" shape-rendering="crispEdges" style="stroke: rgb(68, 68, 68); stroke-opacity: 1; fill: rgb(255, 255, 255); fill-opacity: 1; stroke-width: 0px;" width="97" height="67" x="0" y="0"/><g class="scrollbox" transform="" clip-path="url(#legenda35e4d)"><g class="groups"><g class="traces" transform="translate(0,14.5)" style="opacity: 1;"><text class="legendtext" text-anchor="start" x="40" y="4.680000000000001" style="font-family: 'Open Sans', verdana, arial, sans-serif; font-size: 12px; fill: rgb(68, 68, 68); fill-opacity: 1; white-space: pre;">SR+DQN</text><g class="layers" style="opacity: 1;"><g class="legendfill"/><g class="legendlines"><path class="js-line" d="M5,0h30" style="fill: none; stroke: rgb(156, 39, 176); stroke-opacity: 1; stroke-width: 2px;"/></g><g class="legendsymbols"><g class="legendpoints"/></g></g><rect class="legendtoggle" x="0" y="-9.5" width="91.25" height="19" style="fill: rgb(0, 0, 0); fill-opacity: 0;"/></g><g class="traces" transform="translate(0,33.5)" style="opacity: 1;"><text class="legendtext" text-anchor="start" x="40" y="4.680000000000001" style="font-family: 'Open Sans', verdana, arial, sans-serif; font-size: 12px; fill: rgb(68, 68, 68); fill-opacity: 1; white-space: pre;">RDE</text><g class="layers" style="opacity: 1;"><g class="legendfill"/><g class="legendlines"><path class="js-line" d="M5,0h30" style="fill: none; stroke: rgb(33, 150, 243); stroke-opacity: 1; stroke-width: 2px;"/></g><g class="legendsymbols"><g class="legendpoints"/></g></g><rect class="legendtoggle" x="0" y="-9.5" width="91.25" height="19" style="fill: rgb(0, 0, 0); fill-opacity: 0;"/></g><g class="traces" transform="translate(0,52.5)" style="opacity: 1;"><text class="legendtext" text-anchor="start" x="40" y="4.680000000000001" style="font-family: 'Open Sans', verdana, arial, sans-serif; font-size: 12px; fill: rgb(68, 68, 68); fill-opacity: 1; white-space: pre;">DQN</text><g class="layers" style="opacity: 1;"><g class="legendfill"/><g class="legendlines"><path class="js-line" d="M5,0h30" style="fill: none; stroke: rgb(0, 150, 136); stroke-opacity: 1; stroke-width: 2px;"/></g><g class="legendsymbols"><g class="legendpoints"/></g></g><rect class="legendtoggle" x="0" y="-9.5" width="91.25" height="19" style="fill: rgb(0, 0, 0); fill-opacity: 0;"/></g></g></g><rect class="scrollbar" rx="20" ry="3" width="0" height="0" style="fill: rgb(128, 139, 164); fill-opacity: 1;" x="0" y="0"/></g><g class="g-gtitle"><text class="gtitle" x="350" y="50" text-anchor="middle" dy="0em" style="font-family: 'Open Sans', verdana, arial, sans-serif; font-size: 17px; fill: rgb(68, 68, 68); opacity: 1; font-weight: normal; white-space: pre;">MsPacmanNoFrameskip-v4 on All Models (Replay Ratio = 2)</text></g><g class="g-xtitle"><text class="xtitle" x="330.5" y="422" text-anchor="middle" style="font-family: 'Open Sans', verdana, arial, sans-serif; font-size: 14px; fill: rgb(68, 68, 68); opacity: 1; font-weight: normal; white-space: pre;">Episode Count</text></g><g class="g-ytitle"><text class="ytitle" transform="rotate(-90,42,235)" x="42" y="235" text-anchor="middle" style="font-family: 'Open Sans', verdana, arial, sans-serif; font-size: 14px; fill: rgb(68, 68, 68); opacity: 1; font-weight: normal; white-space: pre;">Episode Reward</text></g></g></svg>