<svg class="main-svg" xmlns="http://www.w3.org/2000/svg" xmlns:xlink="http://www.w3.org/1999/xlink" width="700" height="450" style="" viewBox="0 0 700 450"><rect x="0" y="0" width="700" height="450" style="fill: rgb(255, 255, 255); fill-opacity: 1;"/><defs id="defs-1f8b5b"><g class="clips"><clipPath id="clip1f8b5bxyplot" class="plotclip"><rect width="501" height="270"/></clipPath><clipPath class="axesclip" id="clip1f8b5bx"><rect x="80" y="0" width="501" height="450"/></clipPath><clipPath class="axesclip" id="clip1f8b5by"><rect x="0" y="100" width="700" height="270"/></clipPath><clipPath class="axesclip" id="clip1f8b5bxy"><rect x="80" y="100" width="501" height="270"/></clipPath></g><g class="gradients"/><g class="patterns"/></defs><g class="bglayer"/><g class="layer-below"><g class="imagelayer"/><g class="shapelayer"/></g><g class="cartesianlayer"><g class="subplot xy"><g class="layer-subplot"><g class="shapelayer"/><g class="imagelayer"/></g><g class="minor-gridlayer"><g class="x"/><g class="y"/></g><g class="gridlayer"><g class="x"><path class="xgrid crisp" transform="translate(165.66,0)" d="M0,100v270" style="stroke: rgb(238, 238, 238); stroke-opacity: 1; stroke-width: 1px;"/><path class="xgrid crisp" transform="translate(252.19,0)" d="M0,100v270" style="stroke: rgb(238, 238, 238); stroke-opacity: 1; stroke-width: 1px;"/><path class="xgrid crisp" transform="translate(338.72,0)" d="M0,100v270" style="stroke: rgb(238, 238, 238); stroke-opacity: 1; stroke-width: 1px;"/><path class="xgrid crisp" transform="translate(425.25,0)" d="M0,100v270" style="stroke: rgb(238, 238, 238); stroke-opacity: 1; stroke-width: 1px;"/><path class="xgrid crisp" transform="translate(511.78,0)" d="M0,100v270" style="stroke: rgb(238, 238, 238); stroke-opacity: 1; stroke-width: 1px;"/></g><g class="y"><path class="ygrid crisp" transform="translate(0,319.68)" d="M80,0h501" style="stroke: rgb(238, 238, 238); stroke-opacity: 1; stroke-width: 1px;"/><path class="ygrid crisp" transform="translate(0,282.86)" d="M80,0h501" style="stroke: rgb(238, 238, 238); stroke-opacity: 1; stroke-width: 1px;"/><path class="ygrid crisp" transform="translate(0,246.05)" d="M80,0h501" style="stroke: rgb(238, 238, 238); stroke-opacity: 1; stroke-width: 1px;"/><path class="ygrid crisp" transform="translate(0,209.23000000000002)" d="M80,0h501" style="stroke: rgb(238, 238, 238); stroke-opacity: 1; stroke-width: 1px;"/><path class="ygrid crisp" transform="translate(0,172.41)" d="M80,0h501" style="stroke: rgb(238, 238, 238); stroke-opacity: 1; stroke-width: 1px;"/><path class="ygrid crisp" transform="translate(0,135.59)" d="M80,0h501" style="stroke: rgb(238, 238, 238); stroke-opacity: 1; stroke-width: 1px;"/></g></g><g class="zerolinelayer"><path class="yzl zl crisp" transform="translate(0,356.5)" d="M80,0h501" style="stroke: rgb(68, 68, 68); stroke-opacity: 1; stroke-width: 1px;"/></g><path class="xlines-below"/><path class="ylines-below"/><g class="overlines-below"/><g class="xaxislayer-below"/><g class="yaxislayer-below"/><g class="overaxes-below"/><g class="plot" transform="translate(80,100)" clip-path="url(#clip1f8b5bxyplot)"><g class="scatterlayer mlayer"><g class="trace scatter trace75c006" style="stroke-miterlimit: 2; opacity: 1;"><g class="fills"/><g class="errorbars"/><g class="lines"><path class="js-line" d="M0,241.77L0.87,201.27L1.73,223.36L2.6,238.09L3.46,212.32L4.33,241.77L5.19,216L6.06,193.91L6.92,241.77L8.65,186.55L9.52,252.82L11.25,230.73L12.11,238.09L12.98,227.05L13.84,256.5L14.71,252.82L15.58,212.32L16.44,252.82L17.31,249.14L19.04,219.68L19.9,171.82L20.77,223.36L21.63,197.59L22.5,238.09L23.36,219.68L24.23,238.09L25.09,175.5L25.96,230.73L26.82,216L28.55,223.36L29.42,230.73L31.15,193.91L32.02,249.14L32.88,230.73L33.75,168.14L34.61,249.14L35.48,241.77L36.34,216L37.21,234.41L38.07,179.18L38.94,234.41L39.8,123.95L40.67,256.5L41.53,216L42.4,216L43.26,256.5L44.13,201.27L44.99,256.5L45.86,238.09L46.73,175.5L47.59,245.45L49.32,216L50.19,256.5L51.05,256.5L51.92,179.18L53.65,223.36L54.51,116.59L56.24,223.36L57.11,190.23L57.97,249.14L58.84,234.41L60.57,212.32L61.44,216L62.3,201.27L63.17,227.05L64.03,234.41L64.9,227.05L65.76,197.59L66.63,208.64L67.49,193.91L68.36,238.09L69.22,252.82L70.09,131.32L70.95,241.77L71.82,204.95L72.68,171.82L73.55,245.45L75.28,193.91L76.15,190.23L77.88,216L78.74,208.64L79.61,249.14L80.47,201.27L81.34,219.68L82.2,219.68L83.93,190.23L84.8,256.5L85.66,197.59L86.53,249.14L87.39,238.09L88.26,204.95L89.12,201.27L89.99,219.68L90.85,179.18L91.72,212.32L92.59,197.59L93.45,227.05L94.32,212.32L95.18,223.36L96.05,201.27L96.91,227.05L97.78,227.05L98.64,182.86L99.51,245.45L100.37,219.68L101.24,112.91L102.1,241.77L102.97,238.09L103.83,190.23L104.7,245.45L105.56,234.41L106.43,197.59L107.3,256.5L109.03,230.73L109.89,227.05L110.76,160.77L111.62,212.32L113.35,182.86L114.22,186.55L115.95,249.14L116.81,219.68L117.68,171.82L118.54,208.64L119.41,175.5L120.27,223.36L121.14,193.91L122.01,193.91L122.87,256.5L123.74,238.09L124.6,219.68L125.47,245.45L126.33,201.27L127.2,230.73L128.06,219.68L128.93,230.73L129.79,160.77L130.66,230.73L131.52,241.77L132.39,230.73L133.25,238.09L134.12,230.73L134.98,230.73L135.85,197.59L136.72,135L137.58,190.23L138.45,238.09L139.31,238.09L140.18,101.86L141.04,234.41L141.91,256.5L142.77,197.59L143.64,249.14L144.5,241.77L145.37,227.05L146.23,245.45L147.96,201.27L148.83,238.09L149.69,24.55L150.56,193.91L151.42,245.45L152.29,241.77L153.16,190.23L154.02,223.36L155.75,186.55L156.62,256.5L158.35,186.55L159.21,212.32L160.08,227.05L160.94,219.68L161.81,223.36L162.67,249.14L163.54,131.32L164.4,212.32L165.27,241.77L166.13,238.09L167,223.36L167.87,256.5L169.6,142.36L170.46,216L172.19,157.09L173.06,252.82L173.92,216L174.79,219.68L175.65,245.45L176.52,201.27L177.38,227.05L178.25,190.23L179.11,216L179.98,182.86L180.84,230.73L181.71,179.18L183.44,230.73L184.31,116.59L185.17,230.73L186.04,219.68L187.77,201.27L188.63,249.14L189.5,193.91L190.36,252.82L191.23,219.68L192.09,219.68L192.96,197.59L193.82,252.82L194.69,204.95L195.55,249.14L197.28,223.36L198.15,182.86L199.02,216L199.88,201.27L200.75,76.09L201.61,212.32L202.48,149.73L203.34,219.68L204.21,256.5L205.07,219.68L205.94,227.05L206.8,208.64L207.67,153.41L208.53,241.77L209.4,223.36L210.26,238.09L211.13,186.55L211.99,249.14L212.86,238.09L213.73,179.18L214.59,241.77L215.46,179.18L216.32,149.73L217.19,216L218.05,197.59L218.92,245.45L219.78,230.73L220.65,186.55L221.51,223.36L222.38,197.59L224.11,219.68L224.97,245.45L225.84,204.95L226.7,241.77L227.57,234.41L228.44,127.64L229.3,252.82L230.17,219.68L231.03,216L231.9,201.27L232.76,252.82L233.63,212.32L235.36,131.32L236.22,201.27L237.09,204.95L237.95,216L238.82,208.64L239.68,245.45L240.55,241.77L241.41,234.41L242.28,227.05L243.15,234.41L244.01,153.41L244.88,245.45L245.74,256.5L246.61,216L247.47,249.14L248.34,204.95L250.07,234.41L250.93,168.14L251.8,234.41L252.66,227.05L254.39,190.23L255.26,219.68L256.12,227.05L256.99,182.86L258.72,238.09L259.59,193.91L260.45,208.64L261.32,241.77L262.18,153.41L263.05,212.32L263.91,193.91L264.78,212.32L265.64,252.82L266.51,204.95L267.37,238.09L268.24,193.91L269.1,238.09L269.97,182.86L270.83,146.05L271.7,252.82L273.43,219.68L274.3,256.5L275.16,223.36L276.03,223.36L276.89,241.77L277.76,219.68L278.62,245.45L279.49,197.59L280.35,171.82L281.22,223.36L282.08,164.45L282.95,201.27L283.81,241.77L284.68,230.73L285.54,223.36L286.41,186.55L287.27,256.5L288.14,223.36L289.01,245.45L289.87,179.18L290.74,219.68L291.6,190.23L292.47,216L293.33,208.64L294.2,234.41L295.06,227.05L296.79,186.55L297.66,135L299.39,241.77L300.25,204.95L301.12,135L301.98,256.5L303.72,175.5L304.58,219.68L305.45,223.36L306.31,208.64L307.18,252.82L308.04,227.05L308.91,193.91L309.77,212.32L310.64,234.41L311.5,201.27L313.23,238.09L314.1,182.86L314.96,241.77L315.83,227.05L316.69,197.59L317.56,230.73L318.42,238.09L319.29,230.73L320.16,171.82L321.02,230.73L321.89,216L322.75,219.68L323.62,245.45L324.48,61.36L325.35,223.36L326.21,227.05L327.08,201.27L327.94,212.32L328.81,249.14L329.67,164.45L330.54,256.5L331.4,234.41L332.27,201.27L333.13,227.05L334,227.05L334.87,201.27L335.73,204.95L336.6,219.68L337.46,208.64L338.33,234.41L339.19,193.91L340.06,201.27L340.92,219.68L341.79,212.32L343.52,138.68L344.38,241.77L345.25,216L346.11,216L346.98,223.36L347.84,175.5L349.58,252.82L350.44,238.09L351.31,230.73L352.17,256.5L353.9,190.23L354.77,249.14L355.63,186.55L356.5,204.95L357.36,219.68L358.23,171.82L359.96,230.73L360.82,204.95L361.69,131.32L362.55,245.45L363.42,171.82L364.28,193.91L365.15,153.41L366.02,197.59L366.88,201.27L367.75,216L368.61,208.64L369.48,219.68L370.34,223.36L371.21,186.55L372.94,241.77L373.8,201.27L374.67,212.32L375.53,241.77L376.4,146.05L377.26,230.73L378.13,223.36L378.99,201.27L379.86,234.41L380.73,238.09L381.59,193.91L382.46,238.09L383.32,157.09L384.19,208.64L385.05,120.27L385.92,249.14L386.78,201.27L387.65,219.68L388.51,234.41L389.38,208.64L390.24,201.27L391.11,212.32L391.97,219.68L392.84,245.45L394.57,149.73L395.44,227.05L397.17,201.27L398.03,227.05L398.9,256.5L399.76,219.68L400.63,256.5L401.49,175.5L402.36,208.64L403.22,204.95L404.09,216L404.95,190.23L405.82,234.41L406.68,182.86L408.41,223.36L409.28,212.32L410.15,164.45L411.01,208.64L411.88,219.68L412.74,204.95L414.47,245.45L415.34,204.95L416.2,223.36L417.07,208.64L417.93,219.68L418.8,179.18L420.53,227.05L421.39,208.64L422.26,256.5L423.12,212.32L423.99,223.36L424.85,223.36L425.72,138.68L426.59,223.36L427.45,223.36L428.32,182.86L429.18,149.73L430.05,241.77L430.91,219.68L431.78,223.36L432.64,252.82L433.51,204.95L434.37,201.27L435.24,252.82L436.1,208.64L436.97,245.45L437.83,204.95L438.7,216L439.56,216L440.43,204.95L441.3,208.64L442.16,249.14L443.89,175.5L444.76,249.14L448.22,179.18L449.08,182.86L450.81,234.41L451.68,201.27L452.54,212.32L453.41,256.5L454.27,182.86L455.14,234.41L456.01,212.32L456.87,216L457.74,193.91L458.6,238.09L459.47,216L460.33,120.27L461.2,252.82L462.06,197.59L462.93,186.55L463.79,208.64L464.66,193.91L465.52,142.36L468.98,249.14L469.85,182.86L470.72,241.77L471.58,249.14L472.45,190.23L473.31,201.27L474.18,256.5L475.04,234.41L475.91,193.91L476.77,234.41L477.64,193.91L478.5,223.36L479.37,208.64L480.23,175.5L481.1,241.77L481.96,227.05L482.83,193.91L483.69,241.77L484.56,171.82L485.42,201.27L486.29,241.77L487.16,175.5L488.02,212.32L488.89,208.64L489.75,245.45L490.62,208.64L491.48,83.45L492.35,241.77L493.21,186.55L494.08,249.14L494.94,234.41L495.81,197.59L496.67,146.05L497.54,204.95L498.4,190.23L499.27,208.64L500.13,238.09L501,208.64" style="vector-effect: none; fill: none; stroke: rgb(156, 39, 176); stroke-opacity: 1; stroke-width: 2px; opacity: 1;"/></g><g class="points"/><g class="text"/></g><g class="trace scatter traceae7d8c" style="stroke-miterlimit: 2; opacity: 1;"><g class="fills"/><g class="errorbars"/><g class="lines"><path class="js-line" d="M0,212.32L1.73,241.77L2.6,219.68L3.46,238.09L4.33,219.68L5.19,227.05L6.06,252.82L7.79,230.73L8.65,234.41L9.52,138.68L10.38,219.68L11.25,252.82L12.11,245.45L12.98,208.64L13.84,252.82L15.58,208.64L16.44,227.05L17.31,197.59L18.17,68.73L19.9,234.41L20.77,175.5L21.63,249.14L22.5,234.41L23.36,168.14L24.23,219.68L25.09,216L25.96,127.64L26.82,230.73L27.69,204.95L28.55,223.36L29.42,201.27L30.28,201.27L31.15,175.5L32.02,252.82L32.88,256.5L33.75,164.45L34.61,234.41L37.21,171.82L38.07,212.32L38.94,171.82L39.8,212.32L40.67,256.5L41.53,168.14L42.4,238.09L43.26,153.41L45.86,216L46.73,204.95L48.46,241.77L49.32,216L50.19,223.36L51.05,13.5L51.92,204.95L52.78,179.18L53.65,219.68L54.51,190.23L55.38,238.09L56.24,241.77L57.11,112.91L57.97,234.41L58.84,256.5L59.7,193.91L60.57,197.59L61.44,249.14L62.3,186.55L63.17,204.95L64.03,249.14L64.9,219.68L65.76,127.64L66.63,238.09L67.49,208.64L68.36,234.41L69.22,241.77L70.09,186.55L71.82,249.14L72.68,212.32L73.55,249.14L74.41,245.45L75.28,227.05L76.15,230.73L77.01,208.64L77.88,230.73L78.74,256.5L79.61,135L81.34,234.41L82.2,204.95L83.93,193.91L84.8,238.09L85.66,157.09L86.53,160.77L87.39,256.5L88.26,193.91L89.12,256.5L89.99,230.73L90.85,208.64L91.72,157.09L92.59,238.09L93.45,216L94.32,168.14L95.18,182.86L96.05,223.36L96.91,201.27L97.78,256.5L98.64,186.55L99.51,245.45L100.37,230.73L102.1,204.95L102.97,234.41L103.83,216L104.7,168.14L105.56,227.05L106.43,160.77L107.3,227.05L108.16,223.36L109.03,219.68L109.89,227.05L110.76,234.41L111.62,219.68L112.49,208.64L113.35,241.77L114.22,175.5L115.08,216L115.95,241.77L116.81,219.68L117.68,227.05L118.54,223.36L119.41,153.41L120.27,208.64L121.14,256.5L122.01,175.5L122.87,149.73L123.74,160.77L124.6,116.59L125.47,193.91L126.33,252.82L127.2,146.05L128.93,252.82L129.79,212.32L130.66,219.68L131.52,241.77L132.39,216L133.25,245.45L134.98,216L135.85,171.82L136.72,238.09L137.58,230.73L138.45,252.82L139.31,252.82L140.18,186.55L141.04,219.68L141.91,219.68L142.77,105.55L143.64,249.14L144.5,256.5L145.37,204.95L146.23,234.41L147.96,204.95L148.83,227.05L149.69,249.14L150.56,135L151.42,219.68L152.29,227.05L153.16,179.18L154.02,245.45L154.89,186.55L155.75,216L156.62,201.27L157.48,238.09L159.21,160.77L160.08,249.14L161.81,197.59L162.67,238.09L164.4,204.95L165.27,208.64L166.13,204.95L167,171.82L167.87,171.82L168.73,193.91L170.46,223.36L171.33,149.73L172.19,252.82L173.06,252.82L174.79,216L175.65,219.68L176.52,186.55L177.38,219.68L178.25,249.14L179.11,197.59L179.98,212.32L180.84,241.77L182.58,197.59L183.44,252.82L184.31,201.27L185.17,204.95L186.04,223.36L186.9,131.32L188.63,245.45L189.5,204.95L190.36,153.41L191.23,245.45L192.09,197.59L192.96,238.09L194.69,219.68L195.55,182.86L196.42,160.77L197.28,193.91L198.15,168.14L199.02,227.05L199.88,216L200.75,157.09L201.61,175.5L202.48,216L203.34,238.09L204.21,223.36L205.07,219.68L205.94,204.95L206.8,230.73L207.67,212.32L208.53,175.5L209.4,204.95L211.13,223.36L211.99,245.45L212.86,227.05L213.73,241.77L215.46,201.27L216.32,227.05L217.19,249.14L218.05,223.36L218.92,204.95L219.78,223.36L220.65,197.59L221.51,238.09L222.38,245.45L223.24,212.32L224.11,256.5L224.97,219.68L226.7,208.64L227.57,212.32L228.44,227.05L229.3,204.95L230.17,212.32L231.03,168.14L231.9,227.05L232.76,219.68L234.49,186.55L235.36,249.14L236.22,131.32L237.09,160.77L237.95,234.41L238.82,212.32L239.68,227.05L240.55,197.59L241.41,238.09L242.28,223.36L243.15,186.55L244.01,190.23L244.88,149.73L245.74,208.64L246.61,204.95L247.47,212.32L248.34,252.82L249.2,223.36L250.07,216L250.93,201.27L251.8,219.68L252.66,219.68L253.53,249.14L254.39,201.27L255.26,197.59L256.12,216L256.99,204.95L257.85,230.73L258.72,230.73L259.59,219.68L260.45,230.73L261.32,223.36L262.18,197.59L263.05,227.05L263.91,227.05L264.78,216L265.64,186.55L266.51,204.95L267.37,193.91L268.24,219.68L269.1,256.5L269.97,234.41L270.83,238.09L271.7,219.68L272.56,234.41L273.43,201.27L274.3,241.77L275.16,157.09L276.03,245.45L276.89,227.05L277.76,171.82L278.62,223.36L279.49,208.64L280.35,87.14L281.22,238.09L282.08,186.55L282.95,230.73L283.81,160.77L284.68,230.73L285.54,208.64L286.41,216L287.27,249.14L289.01,186.55L289.87,230.73L290.74,197.59L291.6,212.32L292.47,197.59L293.33,227.05L295.06,182.86L295.93,182.86L296.79,238.09L297.66,212.32L298.52,201.27L299.39,212.32L300.25,230.73L301.12,190.23L301.98,212.32L302.85,204.95L303.72,98.18L304.58,219.68L305.45,256.5L306.31,190.23L307.18,245.45L308.04,175.5L308.91,149.73L309.77,204.95L310.64,245.45L311.5,227.05L312.37,83.45L313.23,146.05L314.96,216L315.83,234.41L316.69,230.73L317.56,241.77L318.42,238.09L319.29,208.64L320.16,230.73L321.02,230.73L322.75,182.86L323.62,256.5L324.48,190.23L325.35,223.36L326.21,234.41L327.08,201.27L327.94,234.41L328.81,238.09L329.67,216L330.54,230.73L332.27,208.64L333.13,234.41L334,241.77L334.87,72.41L336.6,230.73L337.46,227.05L338.33,252.82L339.19,208.64L340.06,186.55L340.92,216L341.79,252.82L342.65,171.82L344.38,219.68L345.25,182.86L346.11,197.59L346.98,256.5L347.84,157.09L348.71,160.77L349.58,230.73L350.44,201.27L351.31,212.32L352.17,249.14L353.9,212.32L354.77,219.68L355.63,182.86L356.5,179.18L357.36,256.5L358.23,98.18L359.96,256.5L360.82,219.68L361.69,201.27L362.55,238.09L363.42,182.86L364.28,212.32L365.15,241.77L366.02,230.73L366.88,142.36L367.75,227.05L368.61,238.09L369.48,212.32L370.34,227.05L371.21,219.68L372.94,193.91L373.8,193.91L374.67,245.45L375.53,223.36L376.4,197.59L377.26,241.77L378.13,234.41L378.99,201.27L379.86,249.14L380.73,171.82L381.59,230.73L382.46,201.27L383.32,212.32L384.19,208.64L385.05,212.32L385.92,223.36L386.78,190.23L387.65,230.73L388.51,234.41L389.38,223.36L390.24,241.77L391.11,208.64L391.97,197.59L392.84,212.32L393.7,256.5L394.57,208.64L395.44,241.77L396.3,245.45L398.03,219.68L398.9,230.73L401.49,201.27L402.36,160.77L404.09,204.95L404.95,186.55L405.82,186.55L406.68,223.36L407.55,204.95L408.41,212.32L410.15,219.68L411.01,216L411.88,238.09L412.74,87.14L413.61,256.5L414.47,197.59L415.34,201.27L416.2,245.45L417.93,227.05L418.8,182.86L421.39,249.14L422.26,223.36L423.12,197.59L423.99,223.36L424.85,256.5L425.72,212.32L426.59,204.95L427.45,227.05L428.32,234.41L429.18,175.5L430.05,241.77L430.91,223.36L431.78,204.95L432.64,164.45L433.51,182.86L434.37,160.77L435.24,201.27L436.1,201.27L436.97,234.41L437.83,234.41L438.7,208.64L439.56,230.73L440.43,201.27L441.3,197.59L442.16,241.77L443.03,219.68L443.89,186.55L444.76,241.77L446.49,208.64L447.35,208.64L448.22,227.05L449.08,219.68L449.95,208.64L450.81,219.68L451.68,238.09L452.54,197.59L453.41,245.45L454.27,201.27L455.14,157.09L456.01,241.77L456.87,227.05L457.74,245.45L458.6,204.95L459.47,223.36L460.33,219.68L461.2,252.82L462.93,149.73L463.79,241.77L465.52,175.5L466.39,182.86L467.25,219.68L468.12,223.36L468.98,252.82L469.85,197.59L470.72,171.82L471.58,216" style="vector-effect: none; fill: none; stroke: rgb(33, 150, 243); stroke-opacity: 1; stroke-width: 2px; opacity: 1;"/></g><g class="points"/><g class="text"/></g><g class="trace scatter trace97db5f" style="stroke-miterlimit: 2; opacity: 1;"><g class="fills"/><g class="errorbars"/><g class="lines"><path class="js-line" d="M0,216L1.73,256.5L2.6,219.68L3.46,234.41L4.33,234.41L5.19,138.68L6.06,252.82L6.92,249.14L7.79,204.95L8.65,204.95L9.52,238.09L12.11,208.64L12.98,208.64L14.71,252.82L15.58,171.82L16.44,193.91L17.31,252.82L18.17,223.36L19.04,230.73L19.9,149.73L20.77,186.55L21.63,256.5L22.5,252.82L23.36,160.77L24.23,252.82L25.09,256.5L25.96,204.95L26.82,249.14L27.69,219.68L28.55,201.27L29.42,252.82L30.28,249.14L31.15,201.27L32.02,256.5L32.88,256.5L33.75,175.5L34.61,256.5L36.34,204.95L37.21,256.5L38.07,256.5L38.94,234.41L39.8,227.05L40.67,256.5L41.53,197.59L42.4,256.5L43.26,256.5L44.13,208.64L44.99,227.05L45.86,227.05L46.73,197.59L47.59,219.68L48.46,256.5L49.32,171.82L51.05,245.45L51.92,212.32L52.78,208.64L53.65,238.09L54.51,241.77L55.38,175.5L56.24,238.09L57.11,186.55L58.84,241.77L59.7,190.23L60.57,234.41L61.44,230.73L62.3,39.27L63.17,216L64.03,249.14L64.9,171.82L66.63,252.82L67.49,204.95L68.36,219.68L69.22,256.5L70.09,208.64L70.95,212.32L71.82,256.5L72.68,208.64L74.41,234.41L75.28,216L76.15,230.73L77.01,39.27L77.88,216L78.74,112.91L79.61,256.5L80.47,223.36L81.34,208.64L82.2,245.45L83.07,230.73L83.93,168.14L84.8,241.77L85.66,201.27L86.53,204.95L87.39,230.73L88.26,197.59L89.12,219.68L89.99,208.64L90.85,212.32L91.72,212.32L92.59,234.41L93.45,201.27L94.32,219.68L95.18,256.5L96.05,241.77L96.91,201.27L97.78,216L98.64,160.77L99.51,186.55L100.37,238.09L101.24,204.95L102.1,241.77L102.97,175.5L104.7,227.05L105.56,208.64L106.43,219.68L107.3,197.59L108.16,245.45L109.03,216L109.89,223.36L110.76,201.27L111.62,216L112.49,249.14L113.35,204.95L114.22,208.64L115.95,249.14L116.81,204.95L117.68,197.59L118.54,256.5L120.27,116.59L121.14,230.73L122.01,153.41L122.87,204.95L123.74,238.09L124.6,204.95L125.47,252.82L126.33,223.36L127.2,212.32L128.06,223.36L128.93,245.45L129.79,230.73L131.52,83.45L132.39,171.82L134.12,223.36L134.98,197.59L135.85,193.91L136.72,230.73L137.58,212.32L138.45,241.77L139.31,234.41L140.18,212.32L141.04,182.86L141.91,212.32L142.77,204.95L143.64,216L144.5,179.18L145.37,230.73L146.23,197.59L147.1,230.73L147.96,216L148.83,223.36L149.69,241.77L150.56,216L152.29,234.41L153.16,219.68L154.89,197.59L155.75,208.64L156.62,197.59L157.48,153.41L158.35,216L159.21,201.27L160.08,197.59L160.94,182.86L161.81,182.86L162.67,208.64L163.54,190.23L164.4,223.36L165.27,241.77L166.13,227.05L167,223.36L167.87,171.82L169.6,219.68L170.46,216L171.33,223.36L172.19,197.59L173.06,223.36L173.92,123.95L174.79,123.95L175.65,227.05L176.52,234.41L177.38,168.14L178.25,227.05L179.11,201.27L179.98,230.73L180.84,234.41L181.71,234.41L182.58,197.59L183.44,216L184.31,204.95L185.17,197.59L186.04,201.27L186.9,190.23L187.77,230.73L188.63,241.77L189.5,204.95L191.23,230.73L192.09,193.91L192.96,201.27L193.82,238.09L195.55,193.91L196.42,216L197.28,212.32L198.15,219.68L199.02,105.55L199.88,112.91L201.61,245.45L202.48,204.95L203.34,201.27L204.21,219.68L205.07,182.86L205.94,83.45L206.8,204.95L207.67,179.18L208.53,204.95L209.4,160.77L210.26,164.45L211.13,131.32L211.99,223.36L212.86,204.95L213.73,249.14L214.59,241.77L215.46,193.91L216.32,219.68L218.05,138.68L218.92,227.05L219.78,256.5L220.65,193.91L221.51,138.68L222.38,241.77L223.24,164.45L224.11,241.77L224.97,249.14L225.84,212.32L226.7,197.59L227.57,249.14L228.44,204.95L229.3,238.09L230.17,245.45L231.03,190.23L231.9,234.41L232.76,197.59L233.63,190.23L234.49,234.41L236.22,164.45L237.09,245.45L238.82,186.55L239.68,190.23L240.55,256.5L241.41,208.64L242.28,208.64L243.15,204.95L244.01,109.23L244.88,219.68L245.74,256.5L246.61,193.91L247.47,223.36L248.34,223.36L249.2,116.59L250.07,249.14L250.93,234.41L251.8,234.41L252.66,149.73L253.53,241.77L254.39,197.59L255.26,208.64L256.99,171.82L257.85,157.09L258.72,241.77L259.59,197.59L261.32,175.5L262.18,175.5L263.91,245.45L264.78,186.55L265.64,241.77L266.51,230.73L267.37,186.55L268.24,197.59L269.1,72.41L269.97,197.59L270.83,76.09L271.7,241.77L273.43,83.45L274.3,241.77L275.16,171.82L276.03,249.14L277.76,197.59L278.62,186.55L279.49,149.73L280.35,212.32L281.22,153.41L282.08,197.59L282.95,190.23L283.81,105.55L284.68,234.41L285.54,168.14L286.41,245.45L287.27,138.68L289.01,238.09L289.87,245.45L290.74,182.86L291.6,201.27L292.47,252.82L293.33,160.77L294.2,182.86L295.06,252.82L295.93,175.5L296.79,223.36L297.66,204.95L298.52,149.73L299.39,241.77L300.25,193.91L301.12,197.59L301.98,112.91L303.72,208.64L304.58,79.77L305.45,241.77L306.31,186.55L308.04,227.05L308.91,171.82L310.64,234.41L311.5,35.59L312.37,204.95L313.23,223.36L314.1,175.5L314.96,179.18L315.83,219.68L316.69,190.23L317.56,201.27L318.42,190.23L319.29,193.91L320.16,216L321.02,175.5L321.89,190.23L323.62,219.68L324.48,175.5L325.35,164.45L326.21,234.41L327.08,186.55L327.94,223.36L328.81,90.82L329.67,101.86L330.54,135L331.4,234.41L333.13,216L334,157.09L334.87,204.95L335.73,164.45L336.6,234.41L337.46,201.27L339.19,227.05L340.06,201.27L340.92,249.14L341.79,201.27L342.65,212.32L343.52,201.27L344.38,234.41L345.25,94.5L346.11,238.09L346.98,238.09L347.84,204.95L348.71,201.27L349.58,216L350.44,204.95L352.17,241.77L353.04,190.23L353.9,186.55L354.77,204.95L355.63,216L356.5,149.73L357.36,241.77L358.23,190.23L359.09,219.68L359.96,197.59L360.82,216L361.69,212.32L362.55,230.73L363.42,219.68L365.15,219.68L366.02,230.73L366.88,230.73L367.75,241.77L368.61,208.64L369.48,230.73L371.21,160.77L372.07,193.91L372.94,234.41L373.8,190.23L374.67,241.77L375.53,245.45L377.26,123.95L378.13,227.05L378.99,230.73L379.86,208.64L381.59,193.91L382.46,164.45L383.32,223.36L384.19,157.09L385.05,83.45L385.92,256.5L386.78,131.32L387.65,164.45L389.38,238.09L390.24,164.45L391.11,208.64L391.97,160.77L392.84,241.77L393.7,216L394.57,146.05L395.44,208.64L396.3,120.27L397.17,197.59L398.03,197.59L398.9,252.82L399.76,179.18L400.63,193.91L401.49,234.41L402.36,157.09L404.09,252.82L404.95,197.59L405.82,201.27L406.68,201.27L407.55,193.91L408.41,201.27L409.28,238.09L410.15,146.05L411.88,238.09L412.74,193.91L414.47,238.09L415.34,157.09L416.2,171.82L417.07,249.14L418.8,164.45L419.66,245.45L420.53,190.23L421.39,238.09L422.26,249.14L423.12,168.14L423.99,94.5L424.85,245.45L426.59,171.82L427.45,256.5L429.18,193.91L430.05,219.68L431.78,227.05L432.64,256.5L433.51,175.5L434.37,190.23L435.24,219.68L436.1,171.82L437.83,234.41L438.7,190.23L439.56,252.82L440.43,238.09L441.3,171.82L442.16,219.68L443.03,216L443.89,164.45L444.76,249.14L445.62,223.36L446.49,230.73L447.35,201.27L448.22,105.55L449.08,204.95L449.95,182.86L450.81,204.95L451.68,76.09L452.54,230.73L453.41,241.77L454.27,186.55L455.14,87.14L456.01,256.5L457.74,146.05L458.6,256.5L461.2,175.5L462.06,186.55L462.93,201.27L463.79,256.5L465.52,204.95L466.39,249.14L467.25,193.91L468.12,208.64" style="vector-effect: none; fill: none; stroke: rgb(0, 150, 136); stroke-opacity: 1; stroke-width: 2px; opacity: 1;"/></g><g class="points"/><g class="text"/></g></g></g><g class="overplot"/><path class="xlines-above crisp" d="M79,370.5H581" style="fill: none; stroke-width: 1px; stroke: rgb(68, 68, 68); stroke-opacity: 1;"/><path class="ylines-above crisp" d="M79.5,100V370" style="fill: none; stroke-width: 1px; stroke: rgb(68, 68, 68); stroke-opacity: 1;"/><g class="overlines-above"/><g class="xaxislayer-above"><path class="xtick ticks crisp" d="M0,371v5" transform="translate(165.66,0)" style="stroke: rgb(68, 68, 68); stroke-opacity: 1; stroke-width: 1px;"/><path class="xtick ticks crisp" d="M0,371v5" transform="translate(252.19,0)" style="stroke: rgb(68, 68, 68); stroke-opacity: 1; stroke-width: 1px;"/><path class="xtick ticks crisp" d="M0,371v5" transform="translate(338.72,0)" style="stroke: rgb(68, 68, 68); stroke-opacity: 1; stroke-width: 1px;"/><path class="xtick ticks crisp" d="M0,371v5" transform="translate(425.25,0)" style="stroke: rgb(68, 68, 68); stroke-opacity: 1; stroke-width: 1px;"/><path class="xtick ticks crisp" d="M0,371v5" transform="translate(511.78,0)" style="stroke: rgb(68, 68, 68); stroke-opacity: 1; stroke-width: 1px;"/><g class="xtick"><text text-anchor="middle" x="0" y="390.4" transform="translate(165.66,0)" style="font-family: 'Open Sans', verdana, arial, sans-serif; font-size: 12px; fill: rgb(68, 68, 68); fill-opacity: 1; white-space: pre; opacity: 1;">100</text></g><g class="xtick"><text text-anchor="middle" x="0" y="390.4" style="font-family: 'Open Sans', verdana, arial, sans-serif; font-size: 12px; fill: rgb(68, 68, 68); fill-opacity: 1; white-space: pre; opacity: 1;" transform="translate(252.19,0)">200</text></g><g class="xtick"><text text-anchor="middle" x="0" y="390.4" style="font-family: 'Open Sans', verdana, arial, sans-serif; font-size: 12px; fill: rgb(68, 68, 68); fill-opacity: 1; white-space: pre; opacity: 1;" transform="translate(338.72,0)">300</text></g><g class="xtick"><text text-anchor="middle" x="0" y="390.4" style="font-family: 'Open Sans', verdana, arial, sans-serif; font-size: 12px; fill: rgb(68, 68, 68); fill-opacity: 1; white-space: pre; opacity: 1;" transform="translate(425.25,0)">400</text></g><g class="xtick"><text text-anchor="middle" x="0" y="390.4" style="font-family: 'Open Sans', verdana, arial, sans-serif; font-size: 12px; fill: rgb(68, 68, 68); fill-opacity: 1; white-space: pre; opacity: 1;" transform="translate(511.78,0)">500</text></g></g><g class="yaxislayer-above"><path class="ytick ticks crisp" d="M79,0h-5" transform="translate(0,356.5)" style="stroke: rgb(68, 68, 68); stroke-opacity: 1; stroke-width: 1px;"/><path class="ytick ticks crisp" d="M79,0h-5" transform="translate(0,319.68)" style="stroke: rgb(68, 68, 68); stroke-opacity: 1; stroke-width: 1px;"/><path class="ytick ticks crisp" d="M79,0h-5" transform="translate(0,282.86)" style="stroke: rgb(68, 68, 68); stroke-opacity: 1; stroke-width: 1px;"/><path class="ytick ticks crisp" d="M79,0h-5" transform="translate(0,246.05)" style="stroke: rgb(68, 68, 68); stroke-opacity: 1; stroke-width: 1px;"/><path class="ytick ticks crisp" d="M79,0h-5" transform="translate(0,209.23000000000002)" style="stroke: rgb(68, 68, 68); stroke-opacity: 1; stroke-width: 1px;"/><path class="ytick ticks crisp" d="M79,0h-5" transform="translate(0,172.41)" style="stroke: rgb(68, 68, 68); stroke-opacity: 1; stroke-width: 1px;"/><path class="ytick ticks crisp" d="M79,0h-5" transform="translate(0,135.59)" style="stroke: rgb(68, 68, 68); stroke-opacity: 1; stroke-width: 1px;"/><g class="ytick"><text text-anchor="end" x="71.6" y="4.199999999999999" transform="translate(0,356.5)" style="font-family: 'Open Sans', verdana, arial, sans-serif; font-size: 12px; fill: rgb(68, 68, 68); fill-opacity: 1; white-space: pre; opacity: 1;">0</text></g><g class="ytick"><text text-anchor="end" x="71.6" y="4.199999999999999" style="font-family: 'Open Sans', verdana, arial, sans-serif; font-size: 12px; fill: rgb(68, 68, 68); fill-opacity: 1; white-space: pre; opacity: 1;" transform="translate(0,319.68)">10</text></g><g class="ytick"><text text-anchor="end" x="71.6" y="4.199999999999999" style="font-family: 'Open Sans', verdana, arial, sans-serif; font-size: 12px; fill: rgb(68, 68, 68); fill-opacity: 1; white-space: pre; opacity: 1;" transform="translate(0,282.86)">20</text></g><g class="ytick"><text text-anchor="end" x="71.6" y="4.199999999999999" style="font-family: 'Open Sans', verdana, arial, sans-serif; font-size: 12px; fill: rgb(68, 68, 68); fill-opacity: 1; white-space: pre; opacity: 1;" transform="translate(0,246.05)">30</text></g><g class="ytick"><text text-anchor="end" x="71.6" y="4.199999999999999" style="font-family: 'Open Sans', verdana, arial, sans-serif; font-size: 12px; fill: rgb(68, 68, 68); fill-opacity: 1; white-space: pre; opacity: 1;" transform="translate(0,209.23000000000002)">40</text></g><g class="ytick"><text text-anchor="end" x="71.6" y="4.199999999999999" style="font-family: 'Open Sans', verdana, arial, sans-serif; font-size: 12px; fill: rgb(68, 68, 68); fill-opacity: 1; white-space: pre; opacity: 1;" transform="translate(0,172.41)">50</text></g><g class="ytick"><text text-anchor="end" x="71.6" y="4.199999999999999" style="font-family: 'Open Sans', verdana, arial, sans-serif; font-size: 12px; fill: rgb(68, 68, 68); fill-opacity: 1; white-space: pre; opacity: 1;" transform="translate(0,135.59)">60</text></g></g><g class="overaxes-above"/></g></g><g class="polarlayer"/><g class="smithlayer"/><g class="ternarylayer"/><g class="geolayer"/><g class="funnelarealayer"/><g class="pielayer"/><g class="iciclelayer"/><g class="treemaplayer"/><g class="sunburstlayer"/><g class="glimages"/><defs id="topdefs-1f8b5b"><g class="clips"/><clipPath id="legend1f8b5b"><rect width="97" height="67" x="0" y="0"/></clipPath></defs><g class="layer-above"><g class="imagelayer"/><g class="shapelayer"/></g><g class="infolayer"><g class="legend" pointer-events="all" transform="translate(591.02,100)"><rect class="bg" shape-rendering="crispEdges" width="97" height="67" x="0" y="0" style="stroke: rgb(68, 68, 68); stroke-opacity: 1; fill: rgb(255, 255, 255); fill-opacity: 1; stroke-width: 0px;"/><g class="scrollbox" transform="" clip-path="url(#legend1f8b5b)"><g class="groups"><g class="traces" transform="translate(0,14.5)" style="opacity: 1;"><text class="legendtext" text-anchor="start" x="40" y="4.680000000000001" style="font-family: 'Open Sans', verdana, arial, sans-serif; font-size: 12px; fill: rgb(68, 68, 68); fill-opacity: 1; white-space: pre;">RDE</text><g class="layers" style="opacity: 1;"><g class="legendfill"/><g class="legendlines"><path class="js-line" d="M5,0h30" style="fill: none; stroke: rgb(156, 39, 176); stroke-opacity: 1; stroke-width: 2px;"/></g><g class="legendsymbols"><g class="legendpoints"/></g></g><rect class="legendtoggle" x="0" y="-9.5" width="91.25" height="19" style="fill: rgb(0, 0, 0); fill-opacity: 0;"/></g><g class="traces" transform="translate(0,33.5)" style="opacity: 1;"><text class="legendtext" text-anchor="start" x="40" y="4.680000000000001" style="font-family: 'Open Sans', verdana, arial, sans-serif; font-size: 12px; fill: rgb(68, 68, 68); fill-opacity: 1; white-space: pre;">SR+DQN</text><g class="layers" style="opacity: 1;"><g class="legendfill"/><g class="legendlines"><path class="js-line" d="M5,0h30" style="fill: none; stroke: rgb(33, 150, 243); stroke-opacity: 1; stroke-width: 2px;"/></g><g class="legendsymbols"><g class="legendpoints"/></g></g><rect class="legendtoggle" x="0" y="-9.5" width="91.25" height="19" style="fill: rgb(0, 0, 0); fill-opacity: 0;"/></g><g class="traces" transform="translate(0,52.5)" style="opacity: 1;"><text class="legendtext" text-anchor="start" x="40" y="4.680000000000001" style="font-family: 'Open Sans', verdana, arial, sans-serif; font-size: 12px; fill: rgb(68, 68, 68); fill-opacity: 1; white-space: pre;">DQN</text><g class="layers" style="opacity: 1;"><g class="legendfill"/><g class="legendlines"><path class="js-line" d="M5,0h30" style="fill: none; stroke: rgb(0, 150, 136); stroke-opacity: 1; stroke-width: 2px;"/></g><g class="legendsymbols"><g class="legendpoints"/></g></g><rect class="legendtoggle" x="0" y="-9.5" width="91.25" height="19" style="fill: rgb(0, 0, 0); fill-opacity: 0;"/></g></g></g><rect class="scrollbar" rx="20" ry="3" width="0" height="0" x="0" y="0" style="fill: rgb(128, 139, 164); fill-opacity: 1;"/></g><g class="g-gtitle"><text class="gtitle" x="350" y="50" text-anchor="middle" dy="0em" style="font-family: 'Open Sans', verdana, arial, sans-serif; font-size: 17px; fill: rgb(68, 68, 68); opacity: 1; font-weight: normal; white-space: pre;">MsPacmanNoFrameskip-v4 on All Models (Replay Ratio = 1)</text></g><g class="g-xtitle"><text class="xtitle" x="330.5" y="422" text-anchor="middle" style="font-family: 'Open Sans', verdana, arial, sans-serif; font-size: 14px; fill: rgb(68, 68, 68); opacity: 1; font-weight: normal; white-space: pre;">Episode Count</text></g><g class="g-ytitle"><text class="ytitle" transform="rotate(-90,42,235)" x="42" y="235" text-anchor="middle" style="font-family: 'Open Sans', verdana, arial, sans-serif; font-size: 14px; fill: rgb(68, 68, 68); opacity: 1; font-weight: normal; white-space: pre;">Episode Reward</text></g></g></svg>