<svg class="main-svg" xmlns="http://www.w3.org/2000/svg" xmlns:xlink="http://www.w3.org/1999/xlink" width="700" height="450" style="" viewBox="0 0 700 450"><rect x="0" y="0" width="700" height="450" style="fill: rgb(255, 255, 255); fill-opacity: 1;"/><defs id="defs-a5eb81"><g class="clips"><clipPath id="clipa5eb81xyplot" class="plotclip"><rect width="501" height="270"/></clipPath><clipPath class="axesclip" id="clipa5eb81x"><rect x="80" y="0" width="501" height="450"/></clipPath><clipPath class="axesclip" id="clipa5eb81y"><rect x="0" y="100" width="700" height="270"/></clipPath><clipPath class="axesclip" id="clipa5eb81xy"><rect x="80" y="100" width="501" height="270"/></clipPath></g><g class="gradients"/><g class="patterns"/></defs><g class="bglayer"/><g class="layer-below"><g class="imagelayer"/><g class="shapelayer"/></g><g class="cartesianlayer"><g class="subplot xy"><g class="layer-subplot"><g class="shapelayer"/><g class="imagelayer"/></g><g class="minor-gridlayer"><g class="x"/><g class="y"/></g><g class="gridlayer"><g class="x"><path class="xgrid crisp" transform="translate(159.49,0)" d="M0,100v270" style="stroke: rgb(238, 238, 238); stroke-opacity: 1; stroke-width: 1px;"/><path class="xgrid crisp" transform="translate(239.77,0)" d="M0,100v270" style="stroke: rgb(238, 238, 238); stroke-opacity: 1; stroke-width: 1px;"/><path class="xgrid crisp" transform="translate(320.06,0)" d="M0,100v270" style="stroke: rgb(238, 238, 238); stroke-opacity: 1; stroke-width: 1px;"/><path class="xgrid crisp" transform="translate(400.35,0)" d="M0,100v270" style="stroke: rgb(238, 238, 238); stroke-opacity: 1; stroke-width: 1px;"/><path class="xgrid crisp" transform="translate(480.64,0)" d="M0,100v270" style="stroke: rgb(238, 238, 238); stroke-opacity: 1; stroke-width: 1px;"/><path class="xgrid crisp" transform="translate(560.9300000000001,0)" d="M0,100v270" style="stroke: rgb(238, 238, 238); stroke-opacity: 1; stroke-width: 1px;"/></g><g class="y"><path class="ygrid crisp" transform="translate(0,313.87)" d="M80,0h501" style="stroke: rgb(238, 238, 238); stroke-opacity: 1; stroke-width: 1px;"/><path class="ygrid crisp" transform="translate(0,271.24)" d="M80,0h501" style="stroke: rgb(238, 238, 238); stroke-opacity: 1; stroke-width: 1px;"/><path class="ygrid crisp" transform="translate(0,228.61)" d="M80,0h501" style="stroke: rgb(238, 238, 238); stroke-opacity: 1; stroke-width: 1px;"/><path class="ygrid crisp" transform="translate(0,185.97)" d="M80,0h501" style="stroke: rgb(238, 238, 238); stroke-opacity: 1; stroke-width: 1px;"/><path class="ygrid crisp" transform="translate(0,143.34)" d="M80,0h501" style="stroke: rgb(238, 238, 238); stroke-opacity: 1; stroke-width: 1px;"/></g></g><g class="zerolinelayer"><path class="yzl zl crisp" transform="translate(0,356.5)" d="M80,0h501" style="stroke: rgb(68, 68, 68); stroke-opacity: 1; stroke-width: 1px;"/></g><path class="xlines-below"/><path class="ylines-below"/><g class="overlines-below"/><g class="xaxislayer-below"/><g class="yaxislayer-below"/><g class="overaxes-below"/><g class="plot" transform="translate(80,100)" clip-path="url(#clipa5eb81xyplot)"><g class="scatterlayer mlayer"><g class="trace scatter trace8aabd6" style="stroke-miterlimit: 2; opacity: 1;"><g class="fills"/><g class="errorbars"/><g class="lines"><path class="js-line" d="M0,218.13L0.8,230.92L1.61,218.13L2.41,209.61L3.21,230.92L4.01,256.5L4.82,226.66L5.62,235.18L6.42,222.39L7.23,218.13L8.03,209.61L8.83,239.45L9.63,218.13L11.24,239.45L12.04,222.39L12.85,247.97L13.65,205.34L14.45,209.61L15.25,201.08L16.06,256.5L16.86,213.87L17.66,218.13L18.47,252.24L19.27,171.24L20.07,235.18L20.88,247.97L21.68,222.39L22.48,230.92L23.28,188.29L24.09,213.87L24.89,205.34L25.69,196.82L26.5,179.76L28.1,230.92L28.9,98.76L29.71,252.24L30.51,239.45L31.31,213.87L32.12,218.13L32.92,205.34L33.72,162.71L35.33,256.5L36.13,175.5L36.93,239.45L37.74,235.18L38.54,166.97L39.34,196.82L40.14,222.39L40.95,222.39L42.55,256.5L43.36,188.29L44.96,256.5L45.76,184.03L47.37,252.24L48.17,209.61L48.98,188.29L49.78,213.87L50.58,222.39L51.38,205.34L52.19,256.5L52.99,188.29L53.79,252.24L54.6,243.71L55.4,209.61L56.2,243.71L57,252.24L57.81,218.13L58.61,154.18L59.41,230.92L61.02,145.66L61.82,235.18L62.63,205.34L63.43,205.34L65.03,213.87L65.84,226.66L66.64,256.5L67.44,213.87L68.25,230.92L69.05,230.92L69.85,209.61L70.65,226.66L71.46,247.97L72.26,209.61L73.06,226.66L73.87,222.39L74.67,222.39L75.47,218.13L76.27,256.5L77.08,222.39L77.88,226.66L78.68,256.5L79.49,218.13L80.29,252.24L81.89,209.61L82.7,213.87L83.5,247.97L84.3,218.13L85.91,252.24L86.71,213.87L87.51,252.24L88.32,218.13L89.12,222.39L89.92,166.97L90.73,209.61L91.53,205.34L93.13,247.97L93.94,162.71L94.74,252.24L95.54,252.24L96.35,188.29L97.15,226.66L97.95,247.97L98.75,226.66L99.56,235.18L100.36,218.13L101.97,196.82L102.77,252.24L103.57,213.87L104.38,252.24L105.98,196.82L106.78,226.66L108.39,196.82L109.19,218.13L110,247.97L110.8,209.61L111.6,205.34L112.4,239.45L113.21,192.55L114.01,226.66L114.81,256.5L115.62,175.5L117.22,192.55L118.02,175.5L118.83,235.18L119.63,209.61L121.24,235.18L122.04,230.92L123.64,179.76L124.45,239.45L126.05,158.45L126.86,239.45L127.66,162.71L128.46,218.13L129.26,243.71L130.07,179.76L130.87,235.18L131.67,171.24L132.48,192.55L133.28,252.24L134.88,107.29L135.69,213.87L136.49,184.03L137.29,196.82L138.1,188.29L138.9,256.5L140.5,179.76L141.31,171.24L142.11,166.97L142.91,247.97L143.72,145.66L144.52,196.82L145.32,166.97L146.13,166.97L146.93,162.71L147.73,175.5L148.53,243.71L149.34,230.92L150.14,192.55L150.94,192.55L151.75,209.61L152.55,179.76L153.35,252.24L154.15,230.92L154.96,94.5L155.76,222.39L157.37,205.34L158.17,252.24L158.97,184.03L159.77,213.87L160.58,218.13L161.38,201.08L162.99,226.66L163.79,205.34L165.39,226.66L166.2,205.34L167,213.87L167.8,188.29L168.61,171.24L169.41,213.87L170.21,252.24L171.01,141.39L171.82,252.24L172.62,222.39L173.42,141.39L174.23,192.55L175.03,230.92L175.83,175.5L176.63,243.71L177.44,235.18L178.24,179.76L179.04,192.55L179.85,226.66L180.65,184.03L181.45,209.61L182.25,201.08L183.06,222.39L183.86,222.39L184.66,179.76L185.47,201.08L186.27,256.5L187.07,213.87L187.88,179.76L188.68,247.97L189.48,252.24L190.28,196.82L191.09,252.24L191.89,218.13L192.69,188.29L193.5,209.61L194.3,209.61L195.1,124.34L195.9,252.24L196.71,256.5L197.51,175.5L198.31,218.13L199.12,235.18L199.92,124.34L201.52,243.71L202.33,107.29L203.93,218.13L204.74,226.66L205.54,256.5L206.34,218.13L207.14,218.13L207.95,201.08L208.75,192.55L209.55,166.97L211.16,239.45L211.96,124.34L212.76,256.5L213.57,184.03L214.37,171.24L215.17,81.71L215.98,235.18L216.78,213.87L217.58,209.61L218.38,243.71L219.19,162.71L219.99,188.29L220.79,243.71L221.6,196.82L223.2,218.13L224,154.18L224.81,209.61L225.61,196.82L226.41,141.39L227.22,213.87L228.82,154.18L229.63,201.08L230.43,230.92L231.23,188.29L232.03,149.92L232.84,166.97L234.44,196.82L235.25,115.82L236.05,162.71L236.85,154.18L237.65,213.87L238.46,103.03L240.06,247.97L240.87,81.71L241.67,226.66L242.47,201.08L243.27,162.71L244.08,243.71L244.88,230.92L245.68,184.03L246.49,192.55L247.29,235.18L248.09,196.82L248.89,205.34L249.7,196.82L250.5,137.13L251.3,226.66L252.11,209.61L252.91,213.87L253.71,209.61L254.51,230.92L255.32,192.55L256.12,192.55L256.92,205.34L257.73,213.87L258.53,103.03L259.33,218.13L260.13,205.34L260.94,239.45L261.74,158.45L262.54,145.66L263.35,205.34L264.15,256.5L264.95,218.13L265.75,247.97L266.56,226.66L267.36,192.55L268.16,218.13L270.57,158.45L271.38,213.87L272.18,188.29L272.98,222.39L273.78,107.29L274.59,218.13L275.39,145.66L276.19,218.13L277,158.45L277.8,243.71L278.6,235.18L279.4,175.5L280.21,247.97L281.01,230.92L282.62,175.5L283.42,222.39L284.22,201.08L285.02,205.34L285.83,243.71L286.63,205.34L287.43,175.5L288.24,209.61L289.04,226.66L289.84,192.55L290.64,145.66L291.45,166.97L293.05,230.92L293.86,222.39L295.46,175.5L296.26,196.82L297.07,213.87L297.87,171.24L299.48,239.45L300.28,213.87L301.08,218.13L301.88,209.61L302.69,243.71L303.49,213.87L304.29,107.29L305.1,247.97L305.9,188.29L306.7,201.08L307.5,218.13L308.31,192.55L309.11,226.66L309.91,184.03L310.72,205.34L311.52,205.34L312.32,196.82L313.13,196.82L313.93,137.13L314.73,256.5L315.53,205.34L316.34,209.61L317.14,201.08L317.94,149.92L319.55,252.24L320.35,230.92L321.15,222.39L321.96,201.08L322.76,188.29L323.56,230.92L324.37,218.13L325.17,179.76L326.77,239.45L327.58,209.61L328.38,158.45L329.18,226.66L330.79,179.76L331.59,243.71L332.39,137.13L333.2,252.24L334,256.5L334.8,111.55L335.61,205.34L336.41,209.61L337.21,171.24L338.01,205.34L339.62,141.39L340.42,145.66L341.23,256.5L342.03,192.55L342.83,184.03L343.63,235.18L344.44,205.34L345.24,230.92L346.04,162.71L346.85,162.71L348.45,243.71L349.25,171.24L350.06,230.92L350.86,226.66L351.66,209.61L352.47,235.18L354.07,201.08L354.88,239.45L356.48,201.08L357.28,213.87L358.09,209.61L358.89,209.61L359.69,222.39L360.5,196.82L361.3,184.03L362.1,205.34L362.9,247.97L363.71,196.82L365.31,222.39L366.12,184.03L366.92,252.24L367.72,239.45L369.33,201.08L370.13,205.34L370.93,145.66L371.74,247.97L372.54,192.55L373.34,213.87L374.14,158.45L374.95,209.61L375.75,213.87L376.55,188.29L377.36,171.24L378.16,239.45L378.96,243.71L379.76,184.03L380.57,158.45L381.37,201.08L382.17,205.34L382.98,162.71L383.78,222.39L384.58,213.87L385.38,218.13L386.19,243.71L387.79,188.29L388.6,239.45L389.4,222.39L390.2,226.66L391,235.18L391.81,213.87L393.41,188.29L394.22,222.39L395.02,205.34L395.82,124.34L397.43,222.39L398.23,192.55L399.03,218.13L399.84,192.55L400.64,205.34L401.44,243.71L402.25,196.82L403.05,201.08L403.85,235.18L404.65,179.76L405.46,222.39L406.26,192.55L407.06,196.82L407.87,175.5L408.67,230.92L409.47,175.5L411.08,196.82L411.88,235.18L412.68,218.13L413.49,218.13L414.29,213.87L415.09,239.45L415.89,256.5L416.7,213.87L417.5,256.5L418.3,192.55L419.11,201.08L419.91,124.34L420.71,243.71L421.51,162.71L423.12,230.92L423.92,149.92L424.73,132.87L425.53,213.87L426.33,175.5L427.13,196.82L427.94,222.39L428.74,205.34L429.54,201.08L430.35,213.87L431.15,222.39L431.95,166.97L434.36,256.5L435.16,243.71L435.97,192.55L436.77,235.18L438.38,201.08L439.18,205.34L439.98,222.39L440.78,39.08L442.39,235.18L443.19,171.24L444.8,256.5L445.6,175.5L446.4,239.45L447.21,179.76L448.81,230.92L449.62,235.18L450.42,196.82L451.22,230.92L452.02,213.87L452.83,154.18L454.43,239.45L455.24,184.03L456.04,235.18L456.84,13.5L458.45,222.39" style="vector-effect: none; fill: none; stroke: rgb(156, 39, 176); stroke-opacity: 1; stroke-width: 2px; opacity: 1;"/></g><g class="points"/><g class="text"/></g><g class="trace scatter trace574a13" style="stroke-miterlimit: 2; opacity: 1;"><g class="fills"/><g class="errorbars"/><g class="lines"><path class="js-line" d="M0,179.76L1.61,252.24L2.41,196.82L3.21,256.5L4.01,235.18L4.82,205.34L5.62,239.45L6.42,243.71L7.23,188.29L8.03,247.97L8.83,184.03L10.44,252.24L11.24,218.13L12.04,188.29L12.85,252.24L13.65,158.45L14.45,213.87L15.25,218.13L16.06,239.45L16.86,149.92L17.66,247.97L18.47,235.18L19.27,192.55L20.88,239.45L21.68,166.97L22.48,256.5L23.28,230.92L24.09,192.55L24.89,239.45L25.69,256.5L26.5,145.66L27.3,256.5L28.1,243.71L28.9,149.92L29.71,247.97L30.51,256.5L31.31,175.5L32.12,120.08L32.92,239.45L33.72,184.03L34.52,222.39L35.33,252.24L36.13,171.24L37.74,256.5L38.54,213.87L40.14,252.24L40.95,158.45L41.75,247.97L42.55,205.34L43.36,230.92L44.16,222.39L44.96,247.97L45.76,201.08L46.57,196.82L47.37,205.34L49.78,247.97L50.58,205.34L51.38,239.45L52.19,226.66L52.99,201.08L53.79,213.87L54.6,247.97L55.4,90.24L57,252.24L57.81,218.13L58.61,201.08L59.41,230.92L60.22,209.61L61.02,209.61L61.82,243.71L62.63,209.61L63.43,252.24L64.23,90.24L65.03,230.92L65.84,226.66L66.64,205.34L67.44,205.34L68.25,247.97L69.05,226.66L69.85,205.34L70.65,252.24L72.26,218.13L73.06,256.5L74.67,201.08L75.47,247.97L76.27,247.97L77.08,218.13L77.88,226.66L78.68,196.82L79.49,226.66L80.29,201.08L81.09,226.66L81.89,213.87L82.7,239.45L83.5,218.13L84.3,205.34L85.11,235.18L85.91,222.39L86.71,243.71L87.51,222.39L88.32,222.39L89.12,213.87L89.92,226.66L90.73,179.76L91.53,205.34L92.33,192.55L93.13,222.39L93.94,226.66L94.74,218.13L95.54,247.97L96.35,201.08L97.15,209.61L97.95,201.08L98.75,209.61L99.56,166.97L101.16,226.66L101.97,247.97L102.77,243.71L103.57,226.66L104.38,209.61L105.18,209.61L105.98,213.87L106.78,226.66L107.59,256.5L108.39,205.34L110,247.97L110.8,213.87L111.6,230.92L112.4,213.87L113.21,235.18L114.01,235.18L114.81,230.92L115.62,196.82L116.42,230.92L117.22,230.92L118.02,218.13L118.83,243.71L119.63,235.18L120.43,235.18L121.24,213.87L122.04,213.87L122.84,184.03L123.64,184.03L124.45,243.71L125.25,188.29L126.05,188.29L126.86,252.24L127.66,222.39L128.46,252.24L130.07,226.66L130.87,192.55L131.67,256.5L132.48,166.97L134.08,247.97L134.88,209.61L136.49,230.92L137.29,201.08L138.1,205.34L138.9,239.45L139.7,209.61L140.5,226.66L142.11,226.66L142.91,73.18L143.72,226.66L144.52,230.92L145.32,218.13L146.13,226.66L146.93,213.87L147.73,226.66L148.53,209.61L149.34,209.61L150.14,230.92L150.94,162.71L151.75,175.5L152.55,247.97L154.15,209.61L154.96,247.97L155.76,239.45L156.56,213.87L157.37,162.71L158.17,222.39L158.97,205.34L159.77,247.97L160.58,235.18L161.38,111.55L162.18,235.18L162.99,201.08L163.79,205.34L164.59,94.5L165.39,239.45L166.2,188.29L167,247.97L167.8,213.87L168.61,192.55L169.41,235.18L170.21,256.5L171.01,209.61L171.82,230.92L172.62,230.92L173.42,205.34L174.23,235.18L175.03,252.24L175.83,209.61L177.44,256.5L178.24,218.13L179.04,252.24L179.85,196.82L180.65,201.08L181.45,218.13L182.25,218.13L183.06,175.5L184.66,252.24L185.47,243.71L187.88,230.92L188.68,213.87L189.48,235.18L190.28,226.66L191.89,235.18L192.69,222.39L193.5,205.34L194.3,256.5L195.1,239.45L195.9,201.08L196.71,239.45L197.51,201.08L198.31,188.29L199.12,230.92L199.92,201.08L200.72,230.92L201.52,235.18L202.33,213.87L203.13,201.08L203.93,256.5L204.74,166.97L205.54,205.34L206.34,247.97L207.14,222.39L208.75,205.34L209.55,213.87L210.36,243.71L211.16,235.18L211.96,209.61L212.76,235.18L214.37,184.03L215.17,226.66L216.78,196.82L217.58,201.08L218.38,222.39L219.19,218.13L219.99,256.5L220.79,205.34L221.6,205.34L222.4,171.24L223.2,209.61L224,115.82L225.61,243.71L226.41,213.87L228.02,243.71L228.82,205.34L230.43,256.5L231.23,213.87L232.03,209.61L232.84,247.97L233.64,188.29L234.44,209.61L235.25,226.66L236.05,222.39L236.85,247.97L237.65,218.13L238.46,196.82L239.26,243.71L240.87,218.13L241.67,162.71L242.47,235.18L243.27,201.08L244.88,149.92L245.68,230.92L246.49,209.61L247.29,239.45L248.09,188.29L248.89,252.24L250.5,196.82L251.3,226.66L252.11,201.08L252.91,218.13L254.51,252.24L255.32,239.45L256.12,192.55L256.92,239.45L258.53,171.24L259.33,247.97L260.13,222.39L260.94,162.71L261.74,235.18L262.54,201.08L263.35,201.08L264.15,218.13L264.95,201.08L265.75,256.5L267.36,218.13L268.16,111.55L268.97,209.61L269.77,188.29L271.38,256.5L272.18,166.97L273.78,235.18L274.59,213.87L275.39,247.97L276.19,111.55L277,218.13L277.8,162.71L278.6,230.92L279.4,218.13L280.21,256.5L281.01,205.34L281.81,171.24L282.62,239.45L283.42,247.97L284.22,201.08L285.83,252.24L286.63,226.66L287.43,205.34L288.24,226.66L289.04,235.18L289.84,218.13L290.64,230.92L291.45,205.34L292.25,209.61L293.05,222.39L293.86,188.29L294.66,226.66L295.46,252.24L296.26,222.39L297.07,213.87L297.87,103.03L298.67,222.39L299.48,222.39L300.28,213.87L301.08,213.87L301.88,243.71L302.69,192.55L303.49,192.55L304.29,252.24L305.9,201.08L306.7,239.45L307.5,252.24L308.31,205.34L309.11,222.39L309.91,205.34L310.72,158.45L311.52,201.08L312.32,213.87L313.13,166.97L314.73,256.5L315.53,196.82L316.34,230.92L317.14,171.24L318.75,218.13L319.55,252.24L320.35,171.24L321.15,218.13L321.96,154.18L322.76,226.66L323.56,192.55L324.37,222.39L325.17,124.34L325.97,213.87L326.77,243.71L327.58,201.08L328.38,209.61L329.18,239.45L329.99,184.03L330.79,205.34L331.59,243.71L332.39,179.76L334,247.97L334.8,230.92L335.61,218.13L336.41,235.18L337.21,209.61L338.01,158.45L338.82,222.39L339.62,115.82L340.42,243.71L341.23,247.97L342.03,188.29L342.83,222.39L343.63,230.92L344.44,230.92L345.24,209.61L346.04,213.87L346.85,213.87L347.65,179.76L348.45,256.5L349.25,196.82L350.86,239.45L351.66,205.34L352.47,201.08L353.27,213.87L354.07,196.82L354.88,239.45L355.68,179.76L356.48,213.87L357.28,218.13L358.09,239.45L358.89,107.29L359.69,252.24L361.3,213.87L362.1,247.97L362.9,243.71L363.71,171.24L364.51,243.71L365.31,247.97L366.12,201.08L366.92,205.34L367.72,247.97L368.52,209.61L369.33,213.87L370.13,222.39L370.93,175.5L371.74,209.61L372.54,196.82L373.34,226.66L374.14,188.29L374.95,252.24L375.75,205.34L376.55,239.45L378.16,205.34L378.96,252.24L379.76,243.71L380.57,222.39L381.37,179.76L382.17,85.97L383.78,222.39L384.58,252.24L386.19,205.34L386.99,235.18L388.6,201.08L389.4,239.45L390.2,218.13L391,247.97L391.81,243.71L392.61,192.55L394.22,230.92L395.02,188.29L396.63,235.18L397.43,201.08L399.03,239.45L399.84,196.82L400.64,103.03L401.44,201.08L402.25,196.82L403.05,213.87L403.85,230.92L404.65,218.13L405.46,209.61L406.26,235.18L407.06,154.18L407.87,222.39L408.67,247.97L409.47,175.5L410.27,247.97L411.08,222.39L411.88,213.87L412.68,222.39L413.49,209.61L414.29,226.66L415.09,230.92L415.89,218.13L416.7,209.61L417.5,222.39L418.3,226.66L419.11,201.08L420.71,243.71L421.51,158.45L423.12,243.71L423.92,196.82L424.73,252.24L425.53,209.61L426.33,196.82L427.13,247.97L429.54,205.34L430.35,218.13L431.15,230.92L431.95,222.39L432.75,213.87L433.56,226.66L434.36,192.55L435.16,247.97L435.97,188.29L436.77,235.18L438.38,205.34L439.18,243.71L439.98,230.92L440.78,115.82L441.59,243.71L442.39,230.92L443.19,226.66L444,192.55L444.8,205.34L445.6,158.45L446.4,239.45L447.21,196.82L448.01,179.76L448.81,209.61L449.62,239.45L450.42,213.87L451.22,196.82L452.02,256.5L454.43,179.76L455.24,218.13L456.04,175.5L456.84,256.5L459.25,201.08L460.05,209.61L460.86,196.82L461.66,201.08L462.46,188.29L463.26,205.34L464.07,252.24L464.87,201.08L465.67,201.08L466.48,243.71" style="vector-effect: none; fill: none; stroke: rgb(33, 150, 243); stroke-opacity: 1; stroke-width: 2px; opacity: 1;"/></g><g class="points"/><g class="text"/></g><g class="trace scatter trace1f4a84" style="stroke-miterlimit: 2; opacity: 1;"><g class="fills"/><g class="errorbars"/><g class="lines"><path class="js-line" d="M0,128.61L1.61,243.71L2.41,226.66L3.21,230.92L4.01,184.03L5.62,218.13L6.42,239.45L7.23,192.55L8.03,256.5L9.63,201.08L10.44,226.66L11.24,239.45L12.04,205.34L12.85,213.87L13.65,252.24L14.45,184.03L15.25,218.13L16.06,230.92L16.86,192.55L17.66,218.13L18.47,218.13L19.27,188.29L20.07,247.97L20.88,230.92L21.68,184.03L22.48,192.55L23.28,226.66L24.09,205.34L24.89,226.66L26.5,196.82L27.3,252.24L28.9,158.45L29.71,256.5L30.51,256.5L31.31,188.29L32.92,226.66L33.72,184.03L35.33,256.5L36.13,188.29L37.74,230.92L38.54,196.82L40.14,256.5L40.95,239.45L41.75,201.08L42.55,226.66L43.36,230.92L44.16,247.97L45.76,226.66L46.57,218.13L47.37,256.5L48.17,192.55L48.98,235.18L49.78,218.13L50.58,243.71L51.38,209.61L52.19,239.45L52.99,226.66L53.79,218.13L54.6,218.13L55.4,239.45L56.2,230.92L57,226.66L57.81,218.13L58.61,256.5L59.41,213.87L60.22,192.55L61.02,201.08L61.82,247.97L62.63,222.39L63.43,218.13L64.23,209.61L65.03,209.61L65.84,247.97L66.64,243.71L67.44,230.92L68.25,252.24L69.05,239.45L69.85,213.87L70.65,256.5L71.46,158.45L72.26,218.13L73.06,252.24L73.87,213.87L74.67,209.61L75.47,239.45L76.27,243.71L77.08,230.92L77.88,243.71L78.68,205.34L79.49,226.66L80.29,192.55L81.09,256.5L81.89,222.39L82.7,239.45L83.5,222.39L84.3,230.92L85.11,175.5L85.91,247.97L86.71,230.92L87.51,252.24L88.32,230.92L89.12,213.87L89.92,247.97L90.73,124.34L91.53,218.13L93.13,239.45L93.94,201.08L94.74,158.45L95.54,252.24L96.35,175.5L97.15,230.92L97.95,218.13L98.75,222.39L99.56,230.92L100.36,256.5L101.16,222.39L101.97,230.92L102.77,230.92L103.57,235.18L104.38,230.92L105.18,239.45L105.98,201.08L106.78,222.39L107.59,239.45L108.39,213.87L109.19,213.87L110,218.13L110.8,218.13L111.6,192.55L112.4,154.18L113.21,205.34L114.01,171.24L114.81,256.5L115.62,213.87L116.42,213.87L117.22,256.5L118.02,218.13L119.63,247.97L120.43,235.18L121.24,230.92L122.04,235.18L122.84,226.66L123.64,247.97L124.45,235.18L125.25,209.61L126.05,201.08L126.86,239.45L127.66,196.82L128.46,205.34L129.26,239.45L130.07,230.92L130.87,218.13L131.67,192.55L132.48,235.18L133.28,175.5L134.88,235.18L135.69,188.29L136.49,252.24L137.29,218.13L138.1,239.45L138.9,230.92L140.5,209.61L141.31,247.97L142.11,218.13L142.91,239.45L143.72,192.55L144.52,209.61L145.32,226.66L146.13,196.82L146.93,209.61L147.73,247.97L149.34,201.08L150.14,252.24L151.75,192.55L152.55,226.66L153.35,247.97L154.15,205.34L154.96,162.71L155.76,243.71L158.17,209.61L158.97,171.24L159.77,243.71L160.58,239.45L161.38,239.45L162.18,213.87L162.99,230.92L163.79,192.55L164.59,247.97L165.39,230.92L166.2,230.92L167,256.5L168.61,209.61L169.41,243.71L170.21,239.45L171.01,201.08L171.82,213.87L172.62,247.97L174.23,226.66L175.03,235.18L175.83,205.34L176.63,226.66L177.44,256.5L178.24,213.87L179.04,218.13L179.85,213.87L180.65,205.34L181.45,230.92L182.25,235.18L183.06,201.08L183.86,247.97L184.66,213.87L186.27,230.92L187.07,201.08L187.88,162.71L188.68,188.29L189.48,252.24L190.28,222.39L191.89,235.18L192.69,226.66L193.5,247.97L194.3,222.39L195.1,235.18L195.9,226.66L196.71,171.24L197.51,209.61L198.31,175.5L199.12,239.45L200.72,226.66L201.52,243.71L203.13,192.55L203.93,205.34L204.74,201.08L205.54,209.61L206.34,256.5L207.14,222.39L207.95,239.45L208.75,218.13L210.36,230.92L211.16,226.66L211.96,205.34L212.76,226.66L213.57,235.18L214.37,184.03L215.98,252.24L216.78,201.08L217.58,201.08L218.38,205.34L219.19,222.39L219.99,201.08L220.79,252.24L221.6,230.92L222.4,256.5L223.2,243.71L224.81,188.29L225.61,243.71L226.41,196.82L227.22,226.66L228.02,235.18L228.82,188.29L230.43,256.5L231.23,218.13L232.84,239.45L233.64,218.13L234.44,239.45L235.25,230.92L236.05,209.61L236.85,247.97L238.46,213.87L239.26,230.92L240.06,218.13L240.87,175.5L242.47,247.97L243.27,230.92L244.08,230.92L244.88,252.24L245.68,205.34L246.49,252.24L247.29,226.66L248.09,230.92L248.89,171.24L249.7,239.45L250.5,239.45L251.3,226.66L252.11,243.71L252.91,209.61L254.51,243.71L255.32,230.92L256.12,230.92L256.92,209.61L258.53,239.45L259.33,226.66L260.94,213.87L261.74,218.13L262.54,222.39L263.35,239.45L264.95,209.61L265.75,226.66L266.56,209.61L267.36,162.71L268.16,213.87L268.97,192.55L270.57,213.87L271.38,252.24L272.18,218.13L272.98,256.5L273.78,209.61L274.59,218.13L275.39,256.5L276.19,226.66L277,235.18L277.8,226.66L278.6,184.03L279.4,218.13L280.21,205.34L281.01,256.5L282.62,184.03L283.42,226.66L284.22,230.92L285.02,243.71L285.83,192.55L286.63,205.34L288.24,256.5L289.04,205.34L289.84,256.5L290.64,239.45L291.45,218.13L292.25,222.39L293.05,252.24L293.86,222.39L294.66,230.92L295.46,196.82L296.26,222.39L297.07,213.87L297.87,222.39L298.67,213.87L299.48,239.45L300.28,192.55L301.88,235.18L302.69,230.92L303.49,209.61L304.29,218.13L305.9,201.08L306.7,201.08L307.5,247.97L308.31,209.61L309.11,192.55L309.91,256.5L310.72,218.13L311.52,218.13L313.13,239.45L313.93,222.39L314.73,205.34L315.53,222.39L316.34,175.5L317.14,256.5L318.75,175.5L319.55,222.39L320.35,230.92L321.15,218.13L321.96,235.18L322.76,201.08L323.56,239.45L324.37,235.18L325.17,222.39L325.97,235.18L327.58,201.08L328.38,243.71L329.99,188.29L330.79,222.39L331.59,247.97L332.39,213.87L333.2,243.71L334,213.87L335.61,226.66L336.41,218.13L337.21,205.34L338.01,218.13L338.82,247.97L339.62,188.29L340.42,252.24L341.23,247.97L342.83,188.29L343.63,256.5L344.44,192.55L345.24,252.24L346.04,209.61L346.85,213.87L347.65,175.5L348.45,192.55L349.25,209.61L350.06,243.71L350.86,243.71L351.66,218.13L352.47,239.45L353.27,230.92L354.07,205.34L354.88,205.34L355.68,209.61L356.48,239.45L357.28,235.18L358.09,243.71L359.69,188.29L360.5,235.18L361.3,196.82L362.1,226.66L362.9,235.18L363.71,235.18L364.51,205.34L365.31,235.18L366.12,209.61L366.92,218.13L368.52,209.61L369.33,256.5L370.13,209.61L370.93,209.61L371.74,235.18L372.54,192.55L373.34,226.66L374.14,179.76L377.36,226.66L378.16,218.13L379.76,239.45L380.57,213.87L381.37,235.18L382.17,226.66L382.98,209.61L383.78,239.45L384.58,256.5L385.38,235.18L386.19,243.71L386.99,209.61L387.79,196.82L388.6,235.18L389.4,252.24L390.2,226.66L391,179.76L391.81,218.13L392.61,209.61L393.41,218.13L394.22,213.87L395.02,230.92L395.82,196.82L396.63,205.34L397.43,218.13L398.23,213.87L399.03,158.45L399.84,205.34L400.64,239.45L401.44,239.45L402.25,226.66L403.05,239.45L403.85,247.97L404.65,226.66L405.46,252.24L406.26,243.71L407.06,235.18L407.87,243.71L408.67,196.82L409.47,239.45L411.08,213.87L411.88,230.92L412.68,213.87L413.49,243.71L414.29,205.34L415.09,226.66L415.89,230.92L416.7,209.61L417.5,201.08L418.3,218.13L419.11,218.13L419.91,226.66L420.71,218.13L421.51,222.39L422.32,222.39L423.12,239.45L423.92,235.18L424.73,252.24L425.53,243.71L426.33,222.39L427.13,213.87L427.94,235.18L428.74,222.39L429.54,243.71L430.35,196.82L431.15,222.39L431.95,256.5L432.75,201.08L433.56,226.66L434.36,192.55L435.16,252.24L435.97,239.45L436.77,188.29L437.57,243.71L438.38,222.39L439.18,252.24L439.98,209.61L440.78,209.61L441.59,188.29L442.39,256.5L443.19,205.34L444,247.97L444.8,256.5L445.6,201.08L446.4,239.45L447.21,213.87L448.01,196.82L448.81,256.5L449.62,184.03L450.42,213.87L451.22,196.82L452.02,256.5L453.63,213.87L454.43,230.92L455.24,218.13L456.04,256.5L458.45,226.66L459.25,218.13L460.05,209.61L460.86,239.45L461.66,239.45L462.46,222.39L463.26,247.97L464.07,235.18L464.87,213.87L465.67,222.39L466.48,205.34L467.28,209.61L468.08,235.18L468.88,230.92L469.69,209.61L470.49,243.71L471.29,205.34L472.1,243.71L472.9,226.66L473.7,247.97L474.5,201.08L475.31,230.92L476.91,222.39L477.72,201.08L478.52,235.18L479.32,209.61L480.13,205.34L480.93,230.92L482.53,222.39L483.34,213.87L484.14,213.87L484.94,230.92L485.75,226.66L486.55,235.18L487.35,218.13L488.15,239.45L488.96,226.66L489.76,192.55L490.56,222.39L491.37,209.61L492.17,196.82L492.97,230.92L493.77,235.18L494.58,243.71L495.38,230.92L496.18,230.92L496.99,222.39L497.79,230.92L498.59,218.13L499.39,247.97L500.2,235.18L501,141.39" style="vector-effect: none; fill: none; stroke: rgb(0, 150, 136); stroke-opacity: 1; stroke-width: 2px; opacity: 1;"/></g><g class="points"/><g class="text"/></g></g></g><g class="overplot"/><path class="xlines-above crisp" d="M79,370.5H581" style="fill: none; stroke-width: 1px; stroke: rgb(68, 68, 68); stroke-opacity: 1;"/><path class="ylines-above crisp" d="M79.5,100V370" style="fill: none; stroke-width: 1px; stroke: rgb(68, 68, 68); stroke-opacity: 1;"/><g class="overlines-above"/><g class="xaxislayer-above"><path class="xtick ticks crisp" d="M0,371v5" transform="translate(159.49,0)" style="stroke: rgb(68, 68, 68); stroke-opacity: 1; stroke-width: 1px;"/><path class="xtick ticks crisp" d="M0,371v5" transform="translate(239.77,0)" style="stroke: rgb(68, 68, 68); stroke-opacity: 1; stroke-width: 1px;"/><path class="xtick ticks crisp" d="M0,371v5" transform="translate(320.06,0)" style="stroke: rgb(68, 68, 68); stroke-opacity: 1; stroke-width: 1px;"/><path class="xtick ticks crisp" d="M0,371v5" transform="translate(400.35,0)" style="stroke: rgb(68, 68, 68); stroke-opacity: 1; stroke-width: 1px;"/><path class="xtick ticks crisp" d="M0,371v5" transform="translate(480.64,0)" style="stroke: rgb(68, 68, 68); stroke-opacity: 1; stroke-width: 1px;"/><path class="xtick ticks crisp" d="M0,371v5" transform="translate(560.9300000000001,0)" style="stroke: rgb(68, 68, 68); stroke-opacity: 1; stroke-width: 1px;"/><g class="xtick"><text text-anchor="middle" x="0" y="390.4" transform="translate(159.49,0)" style="font-family: 'Open Sans', verdana, arial, sans-serif; font-size: 12px; fill: rgb(68, 68, 68); fill-opacity: 1; white-space: pre; opacity: 1;">100</text></g><g class="xtick"><text text-anchor="middle" x="0" y="390.4" style="font-family: 'Open Sans', verdana, arial, sans-serif; font-size: 12px; fill: rgb(68, 68, 68); fill-opacity: 1; white-space: pre; opacity: 1;" transform="translate(239.77,0)">200</text></g><g class="xtick"><text text-anchor="middle" x="0" y="390.4" style="font-family: 'Open Sans', verdana, arial, sans-serif; font-size: 12px; fill: rgb(68, 68, 68); fill-opacity: 1; white-space: pre; opacity: 1;" transform="translate(320.06,0)">300</text></g><g class="xtick"><text text-anchor="middle" x="0" y="390.4" style="font-family: 'Open Sans', verdana, arial, sans-serif; font-size: 12px; fill: rgb(68, 68, 68); fill-opacity: 1; white-space: pre; opacity: 1;" transform="translate(400.35,0)">400</text></g><g class="xtick"><text text-anchor="middle" x="0" y="390.4" style="font-family: 'Open Sans', verdana, arial, sans-serif; font-size: 12px; fill: rgb(68, 68, 68); fill-opacity: 1; white-space: pre; opacity: 1;" transform="translate(480.64,0)">500</text></g><g class="xtick"><text text-anchor="middle" x="0" y="390.4" style="font-family: 'Open Sans', verdana, arial, sans-serif; font-size: 12px; fill: rgb(68, 68, 68); fill-opacity: 1; white-space: pre; opacity: 1;" transform="translate(560.9300000000001,0)">600</text></g></g><g class="yaxislayer-above"><path class="ytick ticks crisp" d="M79,0h-5" transform="translate(0,356.5)" style="stroke: rgb(68, 68, 68); stroke-opacity: 1; stroke-width: 1px;"/><path class="ytick ticks crisp" d="M79,0h-5" transform="translate(0,313.87)" style="stroke: rgb(68, 68, 68); stroke-opacity: 1; stroke-width: 1px;"/><path class="ytick ticks crisp" d="M79,0h-5" transform="translate(0,271.24)" style="stroke: rgb(68, 68, 68); stroke-opacity: 1; stroke-width: 1px;"/><path class="ytick ticks crisp" d="M79,0h-5" transform="translate(0,228.61)" style="stroke: rgb(68, 68, 68); stroke-opacity: 1; stroke-width: 1px;"/><path class="ytick ticks crisp" d="M79,0h-5" transform="translate(0,185.97)" style="stroke: rgb(68, 68, 68); stroke-opacity: 1; stroke-width: 1px;"/><path class="ytick ticks crisp" d="M79,0h-5" transform="translate(0,143.34)" style="stroke: rgb(68, 68, 68); stroke-opacity: 1; stroke-width: 1px;"/><path class="ytick ticks crisp" d="M79,0h-5" transform="translate(0,100.71)" style="stroke: rgb(68, 68, 68); stroke-opacity: 1; stroke-width: 1px;"/><g class="ytick"><text text-anchor="end" x="71.6" y="4.199999999999999" transform="translate(0,356.5)" style="font-family: 'Open Sans', verdana, arial, sans-serif; font-size: 12px; fill: rgb(68, 68, 68); fill-opacity: 1; white-space: pre; opacity: 1;">0</text></g><g class="ytick"><text text-anchor="end" x="71.6" y="4.199999999999999" style="font-family: 'Open Sans', verdana, arial, sans-serif; font-size: 12px; fill: rgb(68, 68, 68); fill-opacity: 1; white-space: pre; opacity: 1;" transform="translate(0,313.87)">10</text></g><g class="ytick"><text text-anchor="end" x="71.6" y="4.199999999999999" style="font-family: 'Open Sans', verdana, arial, sans-serif; font-size: 12px; fill: rgb(68, 68, 68); fill-opacity: 1; white-space: pre; opacity: 1;" transform="translate(0,271.24)">20</text></g><g class="ytick"><text text-anchor="end" x="71.6" y="4.199999999999999" style="font-family: 'Open Sans', verdana, arial, sans-serif; font-size: 12px; fill: rgb(68, 68, 68); fill-opacity: 1; white-space: pre; opacity: 1;" transform="translate(0,228.61)">30</text></g><g class="ytick"><text text-anchor="end" x="71.6" y="4.199999999999999" style="font-family: 'Open Sans', verdana, arial, sans-serif; font-size: 12px; fill: rgb(68, 68, 68); fill-opacity: 1; white-space: pre; opacity: 1;" transform="translate(0,185.97)">40</text></g><g class="ytick"><text text-anchor="end" x="71.6" y="4.199999999999999" style="font-family: 'Open Sans', verdana, arial, sans-serif; font-size: 12px; fill: rgb(68, 68, 68); fill-opacity: 1; white-space: pre; opacity: 1;" transform="translate(0,143.34)">50</text></g><g class="ytick"><text text-anchor="end" x="71.6" y="4.199999999999999" style="font-family: 'Open Sans', verdana, arial, sans-serif; font-size: 12px; fill: rgb(68, 68, 68); fill-opacity: 1; white-space: pre; opacity: 1;" transform="translate(0,100.71)">60</text></g></g><g class="overaxes-above"/></g></g><g class="polarlayer"/><g class="smithlayer"/><g class="ternarylayer"/><g class="geolayer"/><g class="funnelarealayer"/><g class="pielayer"/><g class="iciclelayer"/><g class="treemaplayer"/><g class="sunburstlayer"/><g class="glimages"/><defs id="topdefs-a5eb81"><g class="clips"/><clipPath id="legenda5eb81"><rect width="97" height="67" x="0" y="0"/></clipPath></defs><g class="layer-above"><g class="imagelayer"/><g class="shapelayer"/></g><g class="infolayer"><g class="legend" pointer-events="all" transform="translate(591.02,100)"><rect class="bg" shape-rendering="crispEdges" width="97" height="67" x="0" y="0" style="stroke: rgb(68, 68, 68); stroke-opacity: 1; fill: rgb(255, 255, 255); fill-opacity: 1; stroke-width: 0px;"/><g class="scrollbox" transform="" clip-path="url(#legenda5eb81)"><g class="groups"><g class="traces" transform="translate(0,14.5)" style="opacity: 1;"><text class="legendtext" text-anchor="start" x="40" y="4.680000000000001" style="font-family: 'Open Sans', verdana, arial, sans-serif; font-size: 12px; fill: rgb(68, 68, 68); fill-opacity: 1; white-space: pre;">DQN</text><g class="layers" style="opacity: 1;"><g class="legendfill"/><g class="legendlines"><path class="js-line" d="M5,0h30" style="fill: none; stroke: rgb(156, 39, 176); stroke-opacity: 1; stroke-width: 2px;"/></g><g class="legendsymbols"><g class="legendpoints"/></g></g><rect class="legendtoggle" x="0" y="-9.5" width="91.25" height="19" style="fill: rgb(0, 0, 0); fill-opacity: 0;"/></g><g class="traces" transform="translate(0,33.5)" style="opacity: 1;"><text class="legendtext" text-anchor="start" x="40" y="4.680000000000001" style="font-family: 'Open Sans', verdana, arial, sans-serif; font-size: 12px; fill: rgb(68, 68, 68); fill-opacity: 1; white-space: pre;">SR+DQN</text><g class="layers" style="opacity: 1;"><g class="legendfill"/><g class="legendlines"><path class="js-line" d="M5,0h30" style="fill: none; stroke: rgb(33, 150, 243); stroke-opacity: 1; stroke-width: 2px;"/></g><g class="legendsymbols"><g class="legendpoints"/></g></g><rect class="legendtoggle" x="0" y="-9.5" width="91.25" height="19" style="fill: rgb(0, 0, 0); fill-opacity: 0;"/></g><g class="traces" transform="translate(0,52.5)" style="opacity: 1;"><text class="legendtext" text-anchor="start" x="40" y="4.680000000000001" style="font-family: 'Open Sans', verdana, arial, sans-serif; font-size: 12px; fill: rgb(68, 68, 68); fill-opacity: 1; white-space: pre;">RDE</text><g class="layers" style="opacity: 1;"><g class="legendfill"/><g class="legendlines"><path class="js-line" d="M5,0h30" style="fill: none; stroke: rgb(0, 150, 136); stroke-opacity: 1; stroke-width: 2px;"/></g><g class="legendsymbols"><g class="legendpoints"/></g></g><rect class="legendtoggle" x="0" y="-9.5" width="91.25" height="19" style="fill: rgb(0, 0, 0); fill-opacity: 0;"/></g></g></g><rect class="scrollbar" rx="20" ry="3" width="0" height="0" x="0" y="0" style="fill: rgb(128, 139, 164); fill-opacity: 1;"/></g><g class="g-gtitle"><text class="gtitle" x="350" y="50" text-anchor="middle" dy="0em" style="font-family: 'Open Sans', verdana, arial, sans-serif; font-size: 17px; fill: rgb(68, 68, 68); opacity: 1; font-weight: normal; white-space: pre;">MsPacmanNoFrameskip-v4 on All Models (Replay Ratio = 4)</text></g><g class="g-xtitle"><text class="xtitle" x="330.5" y="422" text-anchor="middle" style="font-family: 'Open Sans', verdana, arial, sans-serif; font-size: 14px; fill: rgb(68, 68, 68); opacity: 1; font-weight: normal; white-space: pre;">Episode Count</text></g><g class="g-ytitle"><text class="ytitle" transform="rotate(-90,42,235)" x="42" y="235" text-anchor="middle" style="font-family: 'Open Sans', verdana, arial, sans-serif; font-size: 14px; fill: rgb(68, 68, 68); opacity: 1; font-weight: normal; white-space: pre;">Episode Reward</text></g></g></svg>