<svg class="main-svg" xmlns="http://www.w3.org/2000/svg" xmlns:xlink="http://www.w3.org/1999/xlink" width="700" height="450" style="" viewBox="0 0 700 450"><rect x="0" y="0" width="700" height="450" style="fill: rgb(255, 255, 255); fill-opacity: 1;"/><defs id="defs-8b5f32"><g class="clips"><clipPath id="clip8b5f32xyplot" class="plotclip"><rect width="462" height="270"/></clipPath><clipPath class="axesclip" id="clip8b5f32x"><rect x="80" y="0" width="462" height="450"/></clipPath><clipPath class="axesclip" id="clip8b5f32y"><rect x="0" y="100" width="700" height="270"/></clipPath><clipPath class="axesclip" id="clip8b5f32xy"><rect x="80" y="100" width="462" height="270"/></clipPath></g><g class="gradients"/><g class="patterns"/></defs><g class="bglayer"/><g class="layer-below"><g class="imagelayer"/><g class="shapelayer"/></g><g class="cartesianlayer"><g class="subplot xy"><g class="layer-subplot"><g class="shapelayer"/><g class="imagelayer"/></g><g class="minor-gridlayer"><g class="x"/><g class="y"/></g><g class="gridlayer"><g class="x"><path class="xgrid crisp" transform="translate(157,0)" d="M0,100v270" style="stroke: rgb(238, 238, 238); stroke-opacity: 1; stroke-width: 1px;"/><path class="xgrid crisp" transform="translate(234.78,0)" d="M0,100v270" style="stroke: rgb(238, 238, 238); stroke-opacity: 1; stroke-width: 1px;"/><path class="xgrid crisp" transform="translate(312.56,0)" d="M0,100v270" style="stroke: rgb(238, 238, 238); stroke-opacity: 1; stroke-width: 1px;"/><path class="xgrid crisp" transform="translate(390.33,0)" d="M0,100v270" style="stroke: rgb(238, 238, 238); stroke-opacity: 1; stroke-width: 1px;"/><path class="xgrid crisp" transform="translate(468.11,0)" d="M0,100v270" style="stroke: rgb(238, 238, 238); stroke-opacity: 1; stroke-width: 1px;"/></g><g class="y"><path class="ygrid crisp" transform="translate(0,317.93)" d="M80,0h462" style="stroke: rgb(238, 238, 238); stroke-opacity: 1; stroke-width: 1px;"/><path class="ygrid crisp" transform="translate(0,279.36)" d="M80,0h462" style="stroke: rgb(238, 238, 238); stroke-opacity: 1; stroke-width: 1px;"/><path class="ygrid crisp" transform="translate(0,240.79)" d="M80,0h462" style="stroke: rgb(238, 238, 238); stroke-opacity: 1; stroke-width: 1px;"/><path class="ygrid crisp" transform="translate(0,202.20999999999998)" d="M80,0h462" style="stroke: rgb(238, 238, 238); stroke-opacity: 1; stroke-width: 1px;"/><path class="ygrid crisp" transform="translate(0,163.64)" d="M80,0h462" style="stroke: rgb(238, 238, 238); stroke-opacity: 1; stroke-width: 1px;"/><path class="ygrid crisp" transform="translate(0,125.07)" d="M80,0h462" style="stroke: rgb(238, 238, 238); stroke-opacity: 1; stroke-width: 1px;"/></g></g><g class="zerolinelayer"><path class="yzl zl crisp" transform="translate(0,356.5)" d="M80,0h462" style="stroke: rgb(68, 68, 68); stroke-opacity: 1; stroke-width: 1px;"/></g><path class="xlines-below"/><path class="ylines-below"/><g class="overlines-below"/><g class="xaxislayer-below"/><g class="yaxislayer-below"/><g class="overaxes-below"/><g class="plot" transform="translate(80,100)" clip-path="url(#clip8b5f32xyplot)"><g class="scatterlayer mlayer"><g class="trace scatter traceb2e7a2" style="stroke-miterlimit: 2; opacity: 1;"><g class="fills"/><g class="errorbars"/><g class="lines"><path class="js-line" d="M0,241.07L0.78,198.64L1.56,221.79L2.33,237.21L3.11,210.21L3.89,241.07L4.67,214.07L5.44,190.93L6.22,241.07L7.78,183.21L8.56,252.64L10.11,229.5L10.89,237.21L11.67,225.64L12.44,256.5L13.22,252.64L14,210.21L14.78,252.64L15.56,248.79L17.11,217.93L17.89,167.79L18.67,221.79L19.44,194.79L20.22,237.21L21,217.93L21.78,237.21L22.56,171.64L23.33,229.5L24.11,214.07L25.67,221.79L26.44,229.5L28,190.93L28.78,248.79L29.56,229.5L30.33,163.93L31.11,248.79L31.89,241.07L32.67,214.07L33.44,233.36L34.22,175.5L35,233.36L35.78,117.64L36.56,256.5L37.33,214.07L38.11,214.07L38.89,256.5L39.67,198.64L40.44,256.5L41.22,237.21L42,171.64L42.78,244.93L44.33,214.07L45.11,256.5L45.89,256.5L46.67,175.5L48.22,221.79L49,109.93L50.56,221.79L51.33,187.07L52.11,248.79L52.89,233.36L54.44,210.21L55.22,214.07L56,198.64L56.78,225.64L57.56,233.36L58.33,225.64L59.11,194.79L59.89,206.36L60.67,190.93L61.44,237.21L62.22,252.64L63,125.36L63.78,241.07L64.56,202.5L65.33,167.79L66.11,244.93L68.44,187.07L69.22,198.64L70,214.07L70.78,206.36L71.56,248.79L72.33,198.64L73.11,217.93L73.89,217.93L75.44,187.07L76.22,256.5L77,194.79L77.78,248.79L78.56,237.21L79.33,202.5L80.11,198.64L80.89,217.93L81.67,175.5L82.44,210.21L83.22,194.79L84,225.64L84.78,210.21L85.56,221.79L86.33,198.64L87.11,225.64L87.89,225.64L88.67,179.36L89.44,244.93L90.22,217.93L91,106.07L91.78,241.07L92.56,237.21L93.33,187.07L94.11,244.93L94.89,233.36L95.67,194.79L96.44,256.5L98,229.5L98.78,225.64L99.56,156.21L100.33,210.21L101.89,179.36L102.67,183.21L104.22,248.79L105,217.93L105.78,167.79L106.56,206.36L107.33,171.64L108.11,221.79L108.89,190.93L109.67,190.93L110.44,256.5L111.22,237.21L112,217.93L112.78,244.93L113.56,198.64L114.33,229.5L115.11,217.93L115.89,229.5L116.67,156.21L117.44,229.5L118.22,241.07L119,229.5L119.78,237.21L120.56,229.5L121.33,229.5L122.11,194.79L122.89,129.21L123.67,187.07L124.44,237.21L125.22,237.21L126,94.5L126.78,233.36L127.56,256.5L128.33,194.79L129.11,248.79L129.89,241.07L130.67,225.64L131.44,244.93L133,198.64L133.78,237.21L134.56,13.5L135.33,190.93L136.11,244.93L136.89,241.07L137.67,187.07L138.44,221.79L140,183.21L140.78,256.5L142.33,183.21L143.11,210.21L143.89,225.64L144.67,217.93L145.44,221.79L146.22,248.79L147,125.36L147.78,210.21L148.56,241.07L149.33,237.21L150.11,221.79L150.89,256.5L152.44,136.93L153.22,214.07L154.78,152.36L155.56,252.64L156.33,214.07L157.11,217.93L157.89,244.93L158.67,198.64L159.44,225.64L160.22,187.07L161,214.07L161.78,179.36L162.56,229.5L163.33,175.5L164.89,229.5L165.67,109.93L166.44,229.5L167.22,217.93L168.78,198.64L169.56,248.79L170.33,190.93L171.11,252.64L171.89,217.93L172.67,217.93L173.44,194.79L174.22,252.64L175,202.5L175.78,248.79L177.33,221.79L178.11,179.36L178.89,214.07L179.67,198.64L180.44,67.5L181.22,210.21L182,144.64L182.78,217.93L183.56,256.5L184.33,217.93L185.11,225.64L185.89,206.36L186.67,148.5L187.44,241.07L188.22,221.79L189,237.21L189.78,183.21L190.56,248.79L191.33,237.21L192.11,175.5L192.89,241.07L193.67,175.5L194.44,144.64L195.22,214.07L196,194.79L196.78,244.93L197.56,229.5L198.33,183.21L199.11,221.79L199.89,194.79L201.44,217.93L202.22,244.93L203,202.5L203.78,241.07L204.56,233.36L205.33,121.5L206.11,252.64L206.89,217.93L207.67,214.07L208.44,198.64L209.22,252.64L210,210.21L211.56,125.36L212.33,198.64L213.11,202.5L213.89,214.07L214.67,206.36L215.44,244.93L216.22,241.07L217,233.36L217.78,225.64L218.56,233.36L219.33,148.5L220.11,244.93L220.89,256.5L221.67,214.07L222.44,248.79L223.22,202.5L224.78,233.36L225.56,163.93L226.33,233.36L227.11,225.64L228.67,187.07L229.44,217.93L230.22,225.64L231,179.36L232.56,237.21L233.33,190.93L234.11,206.36L234.89,241.07L235.67,148.5L236.44,210.21L237.22,190.93L238,210.21L238.78,252.64L239.56,202.5L240.33,237.21L241.11,190.93L241.89,237.21L242.67,179.36L243.44,140.79L244.22,252.64L245.78,217.93L246.56,256.5L247.33,221.79L248.11,221.79L248.89,241.07L249.67,217.93L250.44,244.93L251.22,194.79L252,167.79L252.78,221.79L253.56,160.07L254.33,198.64L255.11,241.07L255.89,229.5L256.67,221.79L257.44,183.21L258.22,256.5L259,221.79L259.78,244.93L260.56,175.5L261.33,217.93L262.11,187.07L262.89,214.07L263.67,206.36L264.44,233.36L265.22,225.64L266.78,183.21L267.56,129.21L269.11,241.07L269.89,202.5L270.67,129.21L271.44,256.5L273,171.64L273.78,217.93L274.56,221.79L275.33,206.36L276.11,252.64L276.89,225.64L277.67,190.93L278.44,210.21L279.22,233.36L280,198.64L281.56,237.21L282.33,179.36L283.11,241.07L283.89,225.64L284.67,194.79L285.44,229.5L286.22,237.21L287,229.5L287.78,167.79L288.56,229.5L289.33,214.07L290.11,217.93L290.89,244.93L291.67,52.07L292.44,221.79L293.22,225.64L294,198.64L294.78,210.21L295.56,248.79L296.33,160.07L297.11,256.5L297.89,233.36L298.67,198.64L299.44,225.64L300.22,225.64L301,198.64L301.78,202.5L302.56,217.93L303.33,206.36L304.11,233.36L304.89,190.93L305.67,198.64L306.44,217.93L307.22,210.21L308.78,133.07L309.56,241.07L310.33,214.07L311.11,214.07L311.89,221.79L312.67,171.64L314.22,252.64L315,237.21L315.78,229.5L316.56,256.5L318.11,187.07L318.89,248.79L319.67,183.21L320.44,202.5L321.22,217.93L322,167.79L323.56,229.5L324.33,202.5L325.11,125.36L325.89,244.93L326.67,167.79L327.44,190.93L328.22,148.5L329,194.79L329.78,198.64L330.56,214.07L331.33,206.36L332.11,217.93L332.89,221.79L333.67,183.21L335.22,241.07L336,198.64L336.78,210.21L337.56,241.07L338.33,140.79L339.11,229.5L339.89,221.79L340.67,198.64L342.22,237.21L343,190.93L343.78,237.21L344.56,152.36L345.33,206.36L346.11,113.79L346.89,248.79L347.67,198.64L349.22,233.36L350,206.36L350.78,198.64L351.56,210.21L352.33,217.93L353.11,244.93L354.67,144.64L355.44,225.64L357,198.64L357.78,225.64L358.56,256.5L359.33,217.93L360.11,256.5L360.89,171.64L361.67,206.36L362.44,202.5L363.22,214.07L364,187.07L364.78,233.36L365.56,179.36L367.11,221.79L367.89,210.21L368.67,160.07L369.44,206.36L370.22,217.93L371,202.5L372.56,244.93L373.33,202.5L374.11,221.79L374.89,206.36L375.67,217.93L376.44,175.5L378,225.64L378.78,206.36L379.56,256.5L380.33,210.21L381.11,221.79L381.89,221.79L382.67,133.07L383.44,221.79L384.22,221.79L385,179.36L385.78,144.64L386.56,241.07L387.33,217.93L388.11,221.79L388.89,252.64L389.67,202.5L390.44,198.64L391.22,252.64L392,206.36L392.78,244.93L393.56,202.5L394.33,214.07L395.11,214.07L395.89,202.5L396.67,206.36L397.44,248.79L399,171.64L399.78,248.79L402.89,175.5L403.67,179.36L405.22,233.36L406,198.64L406.78,210.21L407.56,256.5L408.33,179.36L409.11,233.36L409.89,210.21L410.67,214.07L411.44,190.93L412.22,237.21L413,214.07L413.78,113.79L414.56,252.64L415.33,194.79L416.11,183.21L416.89,206.36L417.67,190.93L418.44,136.93L421.56,248.79L422.33,179.36L423.89,248.79L424.67,187.07L425.44,198.64L426.22,256.5L427.78,190.93L428.56,233.36L429.33,190.93L430.11,221.79L430.89,206.36L431.67,171.64L432.44,241.07L433.22,225.64L434,190.93L434.78,241.07L435.56,167.79L436.33,198.64L437.11,241.07L437.89,171.64L438.67,210.21L439.44,206.36L440.22,244.93L441,206.36L441.78,75.21L442.56,241.07L443.33,183.21L444.11,248.79L444.89,233.36L445.67,194.79L446.44,140.79L447.22,202.5L448,187.07L448.78,206.36L449.56,237.21L450.33,206.36" style="vector-effect: none; fill: none; stroke: rgb(156, 39, 176); stroke-opacity: 1; stroke-width: 2px; opacity: 1;"/></g><g class="points"/><g class="text"/></g><g class="trace scatter tracea1309c" style="stroke-miterlimit: 2; opacity: 1;"><g class="fills"/><g class="errorbars"/><g class="lines"><path class="js-line" d="M0,214.07L0.78,248.79L1.56,214.07L2.33,202.5L3.11,233.36L3.89,241.07L4.67,210.21L6.22,256.5L7,187.07L8.56,237.21L9.33,160.07L10.11,233.36L10.89,175.5L11.67,217.93L12.44,136.93L13.22,233.36L14,140.79L15.56,237.21L16.33,206.36L17.11,190.93L17.89,198.64L18.67,194.79L19.44,194.79L20.22,233.36L21,187.07L22.56,241.07L23.33,229.5L24.11,221.79L24.89,229.5L25.67,198.64L26.44,256.5L27.22,256.5L28,179.36L29.56,241.07L30.33,202.5L31.11,233.36L31.89,190.93L34.22,256.5L35,214.07L35.78,256.5L36.56,233.36L37.33,144.64L38.11,198.64L38.89,233.36L39.67,198.64L40.44,160.07L41.22,202.5L42,190.93L42.78,252.64L43.56,241.07L44.33,217.93L45.11,206.36L45.89,241.07L47.44,190.93L48.22,214.07L49,214.07L49.78,190.93L50.56,98.36L51.33,194.79L52.11,156.21L52.89,194.79L53.67,179.36L54.44,237.21L55.22,248.79L56,210.21L56.78,214.07L57.56,229.5L58.33,194.79L59.11,256.5L60.67,183.21L61.44,202.5L62.22,248.79L63,98.36L64.56,237.21L65.33,202.5L66.11,241.07L66.89,233.36L67.67,198.64L68.44,233.36L69.22,210.21L70,229.5L71.56,217.93L72.33,183.21L73.11,125.36L73.89,233.36L74.67,225.64L75.44,198.64L76.22,244.93L77,217.93L78.56,244.93L79.33,214.07L80.11,206.36L80.89,217.93L81.67,217.93L82.44,202.5L83.22,248.79L84,190.93L85.56,244.93L86.33,194.79L87.11,233.36L87.89,214.07L88.67,194.79L89.44,252.64L90.22,229.5L91,183.21L92.56,252.64L93.33,194.79L94.11,252.64L94.89,233.36L95.67,133.07L96.44,244.93L97.22,248.79L98,202.5L98.78,183.21L99.56,217.93L100.33,198.64L101.11,217.93L101.89,210.21L102.67,233.36L103.44,117.64L104.22,233.36L105.78,214.07L106.56,225.64L107.33,194.79L108.11,210.21L108.89,229.5L109.67,221.79L110.44,202.5L111.22,225.64L112.78,198.64L113.56,217.93L114.33,202.5L115.11,229.5L115.89,210.21L116.67,210.21L118.22,248.79L119,225.64L119.78,198.64L120.56,214.07L122.11,233.36L122.89,217.93L124.44,210.21L125.22,202.5L126,190.93L126.78,198.64L127.56,244.93L128.33,198.64L129.11,241.07L129.89,187.07L130.67,202.5L131.44,244.93L132.22,252.64L133,229.5L133.78,225.64L134.56,229.5L135.33,214.07L136.11,237.21L137.67,194.79L138.44,190.93L139.22,233.36L140,190.93L140.78,252.64L141.56,233.36L143.11,221.79L143.89,237.21L144.67,206.36L145.44,214.07L146.22,233.36L147,206.36L147.78,82.93L148.56,171.64L150.89,225.64L151.67,214.07L152.44,210.21L153.22,248.79L154,183.21L154.78,225.64L155.56,167.79L156.33,225.64L157.11,206.36L157.89,252.64L159.44,210.21L160.22,225.64L161.78,202.5L162.56,221.79L163.33,206.36L164.11,171.64L164.89,217.93L165.67,190.93L167.22,248.79L168,202.5L169.56,244.93L170.33,198.64L171.89,241.07L172.67,229.5L173.44,248.79L174.22,241.07L175,237.21L175.78,217.93L176.56,229.5L177.33,214.07L178.11,217.93L178.89,252.64L180.44,171.64L181.22,252.64L182,163.93L182.78,214.07L183.56,225.64L184.33,214.07L185.89,244.93L186.67,198.64L188.22,248.79L189,202.5L190.56,229.5L191.33,190.93" style="vector-effect: none; fill: none; stroke: rgb(33, 150, 243); stroke-opacity: 1; stroke-width: 2px; opacity: 1;"/></g><g class="points"/><g class="text"/></g><g class="trace scatter traceb36473" style="stroke-miterlimit: 2; opacity: 1;"><g class="fills"/><g class="errorbars"/><g class="lines"><path class="js-line" d="M0,202.5L1.56,256.5L2.33,225.64L3.11,221.79L3.89,241.07L4.67,225.64L5.44,225.64L6.22,256.5L7,229.5L8.56,214.07L9.33,194.79L10.89,252.64L11.67,163.93L13.22,237.21L14,202.5L14.78,202.5L15.56,179.36L16.33,175.5L17.11,237.21L17.89,198.64L18.67,214.07L19.44,248.79L20.22,190.93L21.78,229.5L22.56,187.07L23.33,217.93L24.11,217.93L24.89,256.5L25.67,136.93L26.44,241.07L27.22,187.07L28,233.36L28.78,187.07L29.56,217.93L30.33,187.07L31.11,210.21L31.89,256.5L32.67,187.07L33.44,198.64L34.22,256.5L35,214.07L36.56,237.21L37.33,198.64L38.89,241.07L39.67,221.79L40.44,256.5L41.22,244.93L42.78,217.93L43.56,248.79L45.11,194.79L45.89,233.36L46.67,194.79L47.44,233.36L48.22,233.36L49,202.5L49.78,217.93L50.56,252.64L52.11,194.79L52.89,206.36L54.44,241.07L55.22,229.5L56,190.93L56.78,248.79L58.33,194.79L59.11,198.64L59.89,217.93L60.67,190.93L61.44,210.21L62.22,210.21L63,198.64L63.78,202.5L64.56,248.79L65.33,233.36L66.11,214.07L66.89,221.79L67.67,225.64L68.44,225.64L69.22,233.36L70,171.64L71.56,252.64L72.33,202.5L73.11,217.93L73.89,214.07L74.67,202.5L75.44,233.36L76.22,140.79L77,214.07L77.78,183.21L78.56,237.21L79.33,217.93L80.11,229.5L80.89,237.21L81.67,198.64L83.22,225.64L84,198.64L84.78,241.07L85.56,237.21L86.33,190.93L87.11,206.36L87.89,221.79L88.67,194.79L90.22,244.93L91,179.36L91.78,225.64L92.56,133.07L94.11,214.07L94.89,202.5L96.44,233.36L97.22,221.79L98,229.5L98.78,248.79L99.56,136.93L100.33,194.79L101.11,206.36L101.89,244.93L102.67,217.93L103.44,144.64L104.22,252.64L105,217.93L105.78,256.5L106.56,217.93L107.33,210.21L108.11,256.5L108.89,252.64L109.67,217.93L111.22,244.93L112,194.79L112.78,198.64L113.56,252.64L114.33,221.79L115.11,221.79L115.89,40.5L116.67,217.93L117.44,210.21L118.22,190.93L119.78,237.21L120.56,210.21L121.33,217.93L122.11,248.79L122.89,133.07L123.67,198.64L124.44,244.93L125.22,233.36L126,229.5L126.78,198.64L127.56,244.93L128.33,206.36L129.11,183.21L129.89,256.5L131.44,179.36L132.22,233.36L133,229.5L133.78,233.36L134.56,241.07L135.33,194.79L136.11,217.93L136.89,202.5L138.44,175.5L139.22,237.21L140,210.21L140.78,244.93L141.56,190.93L142.33,225.64L143.11,233.36L143.89,171.64L146.22,252.64L147,198.64L147.78,210.21L148.56,233.36L150.11,202.5L150.89,214.07L151.67,202.5L152.44,206.36L153.22,248.79L154,225.64L154.78,217.93L155.56,221.79L156.33,171.64L157.11,179.36L159.44,244.93L160.22,241.07L161,198.64L161.78,244.93L163.33,221.79L164.11,233.36L164.89,233.36L165.67,221.79L166.44,140.79L167.22,179.36L168.78,217.93L169.56,225.64L170.33,194.79L171.11,221.79L171.89,221.79L172.67,194.79L173.44,152.36L174.22,187.07L175,183.21L175.78,229.5L176.56,233.36L177.33,206.36L178.11,214.07L178.89,237.21L179.67,163.93L180.44,229.5L181.22,237.21L182,198.64L183.56,256.5L184.33,225.64L185.11,229.5L185.89,248.79L187.44,210.21L188.22,244.93L189,198.64L189.78,256.5L190.56,256.5L191.33,221.79L192.11,190.93L192.89,233.36L193.67,233.36L194.44,225.64L195.22,256.5L196,190.93L197.56,225.64L198.33,206.36L199.11,206.36L199.89,210.21L200.67,198.64L201.44,217.93L202.22,229.5L203,225.64L203.78,79.07L204.56,241.07L205.33,194.79L206.11,217.93L206.89,206.36L207.67,206.36L208.44,217.93L209.22,241.07L210,121.5L210.78,183.21L211.56,241.07L212.33,194.79L213.11,241.07L213.89,221.79L214.67,233.36L215.44,183.21L217.78,229.5L218.56,210.21L219.33,190.93L220.11,241.07L220.89,244.93L221.67,190.93L222.44,183.21L223.22,256.5L224,198.64L224.78,241.07L225.56,217.93L226.33,225.64L227.11,244.93L227.89,229.5L229.44,198.64L230.22,233.36L231,183.21L231.78,233.36L233.33,198.64L234.11,233.36L234.89,202.5L235.67,202.5L237.22,244.93L238,214.07L238.78,206.36L239.56,256.5L240.33,194.79L241.11,229.5L241.89,237.21L242.67,202.5L243.44,198.64L244.22,256.5L245.78,183.21L246.56,256.5L248.11,214.07L248.89,233.36L249.67,225.64L250.44,237.21L252,194.79L252.78,229.5L253.56,233.36L254.33,217.93L255.11,144.64L255.89,217.93L256.67,225.64L257.44,241.07L258.22,241.07L259,210.21L259.78,241.07L260.56,233.36L261.33,194.79L262.11,206.36L262.89,256.5L263.67,198.64L265.22,206.36L266,190.93L267.56,237.21L268.33,233.36L269.11,206.36L269.89,237.21L271.44,179.36L272.22,244.93L273.78,179.36L274.56,179.36L275.33,233.36L276.11,210.21L276.89,256.5L277.67,198.64L279.22,244.93L280,214.07L280.78,187.07L281.56,241.07L282.33,171.64L283.11,190.93L283.89,175.5L284.67,206.36L285.44,225.64L286.22,148.5L287,225.64L287.78,221.79L288.56,190.93L289.33,210.21L290.11,221.79L290.89,244.93L291.67,190.93L292.44,202.5L293.22,256.5L294,206.36L295.56,217.93L296.33,202.5L297.89,252.64L298.67,179.36L299.44,252.64L300.22,225.64L301.78,194.79L302.56,214.07L303.33,198.64L304.11,233.36L304.89,217.93L305.67,179.36L306.44,248.79L307.22,229.5L308,206.36L308.78,217.93L309.56,248.79L310.33,229.5L311.11,140.79L311.89,210.21L312.67,190.93L313.44,233.36L314.22,217.93L315,233.36L315.78,214.07L316.56,252.64L317.33,198.64L318.11,237.21L318.89,241.07L319.67,210.21L320.44,190.93L321.22,198.64L322,198.64L322.78,241.07L323.56,244.93L324.33,217.93L325.11,214.07L325.89,229.5L326.67,217.93L327.44,244.93L328.22,244.93L329,210.21L329.78,221.79L330.56,248.79L332.11,198.64L332.89,202.5L333.67,206.36L334.44,233.36L335.22,256.5L336,225.64L336.78,229.5L337.56,248.79L338.33,214.07L339.11,229.5L339.89,244.93L340.67,206.36L342.22,248.79L343,206.36L343.78,214.07L344.56,237.21L345.33,198.64L346.11,244.93L346.89,206.36L347.67,229.5L348.44,214.07L349.22,229.5L350.78,217.93L351.56,248.79L353.89,190.93L354.67,183.21L355.44,225.64L356.22,214.07L357,187.07L357.78,214.07L358.56,256.5L359.33,225.64L360.11,241.07L360.89,202.5L362.44,252.64L363.22,233.36L364,206.36L364.78,217.93L365.56,237.21L366.33,210.21L367.11,206.36L367.89,217.93L368.67,206.36L369.44,248.79L371,225.64L371.78,244.93L372.56,237.21L373.33,198.64L374.11,241.07L374.89,233.36L375.67,210.21L376.44,225.64L377.22,248.79L378,221.79L378.78,202.5L379.56,233.36L380.33,229.5L381.11,256.5L382.67,210.21L383.44,256.5L384.22,241.07L385,202.5L385.78,129.21L386.56,202.5L387.33,229.5L388.11,214.07L388.89,252.64L389.67,214.07L390.44,214.07L391.22,252.64L392,210.21L392.78,244.93L394.33,187.07L395.11,225.64L395.89,237.21L396.67,194.79L397.44,252.64L398.22,171.64L399,210.21L399.78,210.21L400.56,194.79L401.33,225.64L402.11,248.79L402.89,229.5L403.67,214.07L404.44,244.93L405.22,248.79L406,233.36L406.78,225.64L407.56,198.64L408.33,198.64L409.11,241.07L409.89,237.21L410.67,221.79L411.44,233.36L412.22,221.79L413,202.5L413.78,252.64L416.11,194.79L416.89,248.79L418.44,117.64L419.22,233.36L420,221.79L420.78,225.64L421.56,233.36L422.33,221.79L423.11,221.79L423.89,229.5L424.67,221.79L425.44,237.21L426.22,233.36L427,206.36L427.78,225.64L428.56,214.07L429.33,214.07L430.11,237.21L430.89,237.21L431.67,187.07L432.44,214.07L433.22,121.5L434.78,217.93L435.56,248.79L436.33,206.36L437.11,221.79L437.89,244.93L438.67,210.21L439.44,241.07L440.22,241.07L441,167.79L441.78,229.5L443.33,198.64L444.11,229.5L444.89,221.79L445.67,225.64L446.44,194.79L447.22,233.36L448,129.21L448.78,210.21L449.56,244.93L450.33,202.5L451.11,194.79L451.89,241.07L452.67,217.93L453.44,225.64L454.22,252.64L455,187.07L455.78,198.64L456.56,248.79L457.33,202.5L458.11,256.5L458.89,252.64L459.67,221.79L460.44,233.36L461.22,229.5L462,206.36" style="vector-effect: none; fill: none; stroke: rgb(0, 150, 136); stroke-opacity: 1; stroke-width: 2px; opacity: 1;"/></g><g class="points"/><g class="text"/></g></g></g><g class="overplot"/><path class="xlines-above crisp" d="M79,370.5H542" style="fill: none; stroke-width: 1px; stroke: rgb(68, 68, 68); stroke-opacity: 1;"/><path class="ylines-above crisp" d="M79.5,100V370" style="fill: none; stroke-width: 1px; stroke: rgb(68, 68, 68); stroke-opacity: 1;"/><g class="overlines-above"/><g class="xaxislayer-above"><path class="xtick ticks crisp" d="M0,371v5" transform="translate(157,0)" style="stroke: rgb(68, 68, 68); stroke-opacity: 1; stroke-width: 1px;"/><path class="xtick ticks crisp" d="M0,371v5" transform="translate(234.78,0)" style="stroke: rgb(68, 68, 68); stroke-opacity: 1; stroke-width: 1px;"/><path class="xtick ticks crisp" d="M0,371v5" transform="translate(312.56,0)" style="stroke: rgb(68, 68, 68); stroke-opacity: 1; stroke-width: 1px;"/><path class="xtick ticks crisp" d="M0,371v5" transform="translate(390.33,0)" style="stroke: rgb(68, 68, 68); stroke-opacity: 1; stroke-width: 1px;"/><path class="xtick ticks crisp" d="M0,371v5" transform="translate(468.11,0)" style="stroke: rgb(68, 68, 68); stroke-opacity: 1; stroke-width: 1px;"/><g class="xtick"><text text-anchor="middle" x="0" y="390.4" transform="translate(157,0)" style="font-family: 'Open Sans', verdana, arial, sans-serif; font-size: 12px; fill: rgb(68, 68, 68); fill-opacity: 1; white-space: pre; opacity: 1;">100</text></g><g class="xtick"><text text-anchor="middle" x="0" y="390.4" style="font-family: 'Open Sans', verdana, arial, sans-serif; font-size: 12px; fill: rgb(68, 68, 68); fill-opacity: 1; white-space: pre; opacity: 1;" transform="translate(234.78,0)">200</text></g><g class="xtick"><text text-anchor="middle" x="0" y="390.4" style="font-family: 'Open Sans', verdana, arial, sans-serif; font-size: 12px; fill: rgb(68, 68, 68); fill-opacity: 1; white-space: pre; opacity: 1;" transform="translate(312.56,0)">300</text></g><g class="xtick"><text text-anchor="middle" x="0" y="390.4" style="font-family: 'Open Sans', verdana, arial, sans-serif; font-size: 12px; fill: rgb(68, 68, 68); fill-opacity: 1; white-space: pre; opacity: 1;" transform="translate(390.33,0)">400</text></g><g class="xtick"><text text-anchor="middle" x="0" y="390.4" style="font-family: 'Open Sans', verdana, arial, sans-serif; font-size: 12px; fill: rgb(68, 68, 68); fill-opacity: 1; white-space: pre; opacity: 1;" transform="translate(468.11,0)">500</text></g></g><g class="yaxislayer-above"><path class="ytick ticks crisp" d="M79,0h-5" transform="translate(0,356.5)" style="stroke: rgb(68, 68, 68); stroke-opacity: 1; stroke-width: 1px;"/><path class="ytick ticks crisp" d="M79,0h-5" transform="translate(0,317.93)" style="stroke: rgb(68, 68, 68); stroke-opacity: 1; stroke-width: 1px;"/><path class="ytick ticks crisp" d="M79,0h-5" transform="translate(0,279.36)" style="stroke: rgb(68, 68, 68); stroke-opacity: 1; stroke-width: 1px;"/><path class="ytick ticks crisp" d="M79,0h-5" transform="translate(0,240.79)" style="stroke: rgb(68, 68, 68); stroke-opacity: 1; stroke-width: 1px;"/><path class="ytick ticks crisp" d="M79,0h-5" transform="translate(0,202.20999999999998)" style="stroke: rgb(68, 68, 68); stroke-opacity: 1; stroke-width: 1px;"/><path class="ytick ticks crisp" d="M79,0h-5" transform="translate(0,163.64)" style="stroke: rgb(68, 68, 68); stroke-opacity: 1; stroke-width: 1px;"/><path class="ytick ticks crisp" d="M79,0h-5" transform="translate(0,125.07)" style="stroke: rgb(68, 68, 68); stroke-opacity: 1; stroke-width: 1px;"/><g class="ytick"><text text-anchor="end" x="71.6" y="4.199999999999999" transform="translate(0,356.5)" style="font-family: 'Open Sans', verdana, arial, sans-serif; font-size: 12px; fill: rgb(68, 68, 68); fill-opacity: 1; white-space: pre; opacity: 1;">0</text></g><g class="ytick"><text text-anchor="end" x="71.6" y="4.199999999999999" style="font-family: 'Open Sans', verdana, arial, sans-serif; font-size: 12px; fill: rgb(68, 68, 68); fill-opacity: 1; white-space: pre; opacity: 1;" transform="translate(0,317.93)">10</text></g><g class="ytick"><text text-anchor="end" x="71.6" y="4.199999999999999" style="font-family: 'Open Sans', verdana, arial, sans-serif; font-size: 12px; fill: rgb(68, 68, 68); fill-opacity: 1; white-space: pre; opacity: 1;" transform="translate(0,279.36)">20</text></g><g class="ytick"><text text-anchor="end" x="71.6" y="4.199999999999999" style="font-family: 'Open Sans', verdana, arial, sans-serif; font-size: 12px; fill: rgb(68, 68, 68); fill-opacity: 1; white-space: pre; opacity: 1;" transform="translate(0,240.79)">30</text></g><g class="ytick"><text text-anchor="end" x="71.6" y="4.199999999999999" style="font-family: 'Open Sans', verdana, arial, sans-serif; font-size: 12px; fill: rgb(68, 68, 68); fill-opacity: 1; white-space: pre; opacity: 1;" transform="translate(0,202.20999999999998)">40</text></g><g class="ytick"><text text-anchor="end" x="71.6" y="4.199999999999999" style="font-family: 'Open Sans', verdana, arial, sans-serif; font-size: 12px; fill: rgb(68, 68, 68); fill-opacity: 1; white-space: pre; opacity: 1;" transform="translate(0,163.64)">50</text></g><g class="ytick"><text text-anchor="end" x="71.6" y="4.199999999999999" style="font-family: 'Open Sans', verdana, arial, sans-serif; font-size: 12px; fill: rgb(68, 68, 68); fill-opacity: 1; white-space: pre; opacity: 1;" transform="translate(0,125.07)">60</text></g></g><g class="overaxes-above"/></g></g><g class="polarlayer"/><g class="smithlayer"/><g class="ternarylayer"/><g class="geolayer"/><g class="funnelarealayer"/><g class="pielayer"/><g class="iciclelayer"/><g class="treemaplayer"/><g class="sunburstlayer"/><g class="glimages"/><defs id="topdefs-8b5f32"><g class="clips"/><clipPath id="legend8b5f32"><rect width="137" height="67" x="0" y="0"/></clipPath></defs><g class="layer-above"><g class="imagelayer"/><g class="shapelayer"/></g><g class="infolayer"><g class="legend" pointer-events="all" transform="translate(551.24,100)"><rect class="bg" shape-rendering="crispEdges" style="stroke: rgb(68, 68, 68); stroke-opacity: 1; fill: rgb(255, 255, 255); fill-opacity: 1; stroke-width: 0px;" width="137" height="67" x="0" y="0"/><g class="scrollbox" transform="" clip-path="url(#legend8b5f32)"><g class="groups"><g class="traces" transform="translate(0,14.5)" style="opacity: 1;"><text class="legendtext" text-anchor="start" x="40" y="4.680000000000001" style="font-family: 'Open Sans', verdana, arial, sans-serif; font-size: 12px; fill: rgb(68, 68, 68); fill-opacity: 1; white-space: pre;">Replay Ratio = 1</text><g class="layers" style="opacity: 1;"><g class="legendfill"/><g class="legendlines"><path class="js-line" d="M5,0h30" style="fill: none; stroke: rgb(156, 39, 176); stroke-opacity: 1; stroke-width: 2px;"/></g><g class="legendsymbols"><g class="legendpoints"/></g></g><rect class="legendtoggle" x="0" y="-9.5" width="131.6279296875" height="19" style="fill: rgb(0, 0, 0); fill-opacity: 0;"/></g><g class="traces" transform="translate(0,33.5)" style="opacity: 1;"><text class="legendtext" text-anchor="start" x="40" y="4.680000000000001" style="font-family: 'Open Sans', verdana, arial, sans-serif; font-size: 12px; fill: rgb(68, 68, 68); fill-opacity: 1; white-space: pre;">Replay Ratio = 4</text><g class="layers" style="opacity: 1;"><g class="legendfill"/><g class="legendlines"><path class="js-line" d="M5,0h30" style="fill: none; stroke: rgb(33, 150, 243); stroke-opacity: 1; stroke-width: 2px;"/></g><g class="legendsymbols"><g class="legendpoints"/></g></g><rect class="legendtoggle" x="0" y="-9.5" width="131.6279296875" height="19" style="fill: rgb(0, 0, 0); fill-opacity: 0;"/></g><g class="traces" transform="translate(0,52.5)" style="opacity: 1;"><text class="legendtext" text-anchor="start" x="40" y="4.680000000000001" style="font-family: 'Open Sans', verdana, arial, sans-serif; font-size: 12px; fill: rgb(68, 68, 68); fill-opacity: 1; white-space: pre;">Replay Ratio = 2</text><g class="layers" style="opacity: 1;"><g class="legendfill"/><g class="legendlines"><path class="js-line" d="M5,0h30" style="fill: none; stroke: rgb(0, 150, 136); stroke-opacity: 1; stroke-width: 2px;"/></g><g class="legendsymbols"><g class="legendpoints"/></g></g><rect class="legendtoggle" x="0" y="-9.5" width="131.6279296875" height="19" style="fill: rgb(0, 0, 0); fill-opacity: 0;"/></g></g></g><rect class="scrollbar" rx="20" ry="3" width="0" height="0" style="fill: rgb(128, 139, 164); fill-opacity: 1;" x="0" y="0"/></g><g class="g-gtitle"><text class="gtitle" x="350" y="50" text-anchor="middle" dy="0em" style="font-family: 'Open Sans', verdana, arial, sans-serif; font-size: 17px; fill: rgb(68, 68, 68); opacity: 1; font-weight: normal; white-space: pre;">RDE on MsPacmanNoFrameskip-v4</text></g><g class="g-xtitle"><text class="xtitle" x="311" y="422" text-anchor="middle" style="font-family: 'Open Sans', verdana, arial, sans-serif; font-size: 14px; fill: rgb(68, 68, 68); opacity: 1; font-weight: normal; white-space: pre;">Episode Count</text></g><g class="g-ytitle"><text class="ytitle" transform="rotate(-90,42,235)" x="42" y="235" text-anchor="middle" style="font-family: 'Open Sans', verdana, arial, sans-serif; font-size: 14px; fill: rgb(68, 68, 68); opacity: 1; font-weight: normal; white-space: pre;">Episode Reward</text></g></g></svg>