<svg class="main-svg" xmlns="http://www.w3.org/2000/svg" xmlns:xlink="http://www.w3.org/1999/xlink" width="700" height="450" style="" viewBox="0 0 700 450"><rect x="0" y="0" width="700" height="450" style="fill: rgb(255, 255, 255); fill-opacity: 1;"/><defs id="defs-89b37e"><g class="clips"><clipPath id="clip89b37exyplot" class="plotclip"><rect width="462" height="270"/></clipPath><clipPath class="axesclip" id="clip89b37ex"><rect x="80" y="0" width="462" height="450"/></clipPath><clipPath class="axesclip" id="clip89b37ey"><rect x="0" y="100" width="700" height="270"/></clipPath><clipPath class="axesclip" id="clip89b37exy"><rect x="80" y="100" width="462" height="270"/></clipPath></g><g class="gradients"/><g class="patterns"/></defs><g class="bglayer"/><g class="layer-below"><g class="imagelayer"/><g class="shapelayer"/></g><g class="cartesianlayer"><g class="subplot xy"><g class="layer-subplot"><g class="shapelayer"/><g class="imagelayer"/></g><g class="minor-gridlayer"><g class="x"/><g class="y"/></g><g class="gridlayer"><g class="x"><path class="xgrid crisp" transform="translate(235.05,0)" d="M0,100v270" style="stroke: rgb(238, 238, 238); stroke-opacity: 1; stroke-width: 1px;"/><path class="xgrid crisp" transform="translate(393.27,0)" d="M0,100v270" style="stroke: rgb(238, 238, 238); stroke-opacity: 1; stroke-width: 1px;"/></g><g class="y"><path class="ygrid crisp" transform="translate(0,301.27)" d="M80,0h462" style="stroke: rgb(238, 238, 238); stroke-opacity: 1; stroke-width: 1px;"/><path class="ygrid crisp" transform="translate(0,246.05)" d="M80,0h462" style="stroke: rgb(238, 238, 238); stroke-opacity: 1; stroke-width: 1px;"/><path class="ygrid crisp" transform="translate(0,190.82)" d="M80,0h462" style="stroke: rgb(238, 238, 238); stroke-opacity: 1; stroke-width: 1px;"/><path class="ygrid crisp" transform="translate(0,135.59)" d="M80,0h462" style="stroke: rgb(238, 238, 238); stroke-opacity: 1; stroke-width: 1px;"/></g></g><g class="zerolinelayer"><path class="yzl zl crisp" transform="translate(0,356.5)" d="M80,0h462" style="stroke: rgb(68, 68, 68); stroke-opacity: 1; stroke-width: 1px;"/></g><path class="xlines-below"/><path class="ylines-below"/><g class="overlines-below"/><g class="xaxislayer-below"/><g class="yaxislayer-below"/><g class="overaxes-below"/><g class="plot" transform="translate(80,100)" clip-path="url(#clip89b37exyplot)"><g class="scatterlayer mlayer"><g class="trace scatter tracee2c074" style="stroke-miterlimit: 2; opacity: 1;"><g class="fills"/><g class="errorbars"/><g class="lines"><path class="js-line" d="M0,256.5L60.12,256.5L63.29,234.41L66.45,190.23L69.62,168.14L72.78,157.09L75.95,123.95L82.27,57.68L85.44,112.91L88.6,135L91.77,90.82L94.93,101.86L98.1,68.73L101.26,90.82L104.42,68.73L107.59,90.82L110.75,101.86L113.92,135L117.08,123.95L120.25,157.09L123.41,101.86L126.58,101.86L129.74,79.77L136.07,79.77L139.23,90.82L145.56,90.82L148.73,101.86L151.89,123.95L155.05,112.91L158.22,101.86L161.38,112.91L164.55,101.86L167.71,123.95L170.88,135L174.04,123.95L177.21,112.91L180.37,79.77L183.53,146.05L186.7,101.86L189.86,112.91L193.03,101.86L196.19,101.86L199.36,179.18L202.52,90.82L205.68,123.95L208.85,90.82L212.01,79.77L215.18,123.95L218.34,135L221.51,146.05L224.67,146.05L227.84,123.95L231,79.77L234.16,157.09L237.33,146.05L240.49,123.95L243.66,112.91L246.82,135L249.99,112.91L253.15,190.23L256.32,157.09L259.48,135L262.64,135L265.81,101.86L268.97,112.91L272.14,101.86L275.3,157.09L278.47,101.86L281.63,146.05L284.79,123.95L287.96,123.95L291.12,101.86L294.29,112.91L300.62,157.09L303.78,146.05L306.95,101.86L310.11,157.09L313.27,190.23L316.44,135L319.6,135L322.77,123.95L325.93,168.14L329.1,157.09L332.26,168.14L335.42,135L338.59,101.86L341.75,179.18L344.92,123.95L348.08,135L351.25,123.95L354.41,157.09L357.58,135L360.74,123.95L363.9,157.09L367.07,146.05L370.23,123.95L373.4,112.91L376.56,201.27L379.73,112.91L382.89,168.14L386.05,190.23L389.22,168.14L392.38,157.09L395.55,157.09L398.71,146.05L401.88,168.14L405.04,146.05L408.21,157.09L411.37,179.18L414.53,157.09L417.7,168.14L420.86,135L424.03,190.23L427.19,190.23L430.36,201.27L433.52,223.36L436.68,201.27L439.85,201.27L443.01,223.36L446.18,212.32L449.34,234.41L452.51,179.18L455.67,234.41L458.84,256.5L462,245.45" style="vector-effect: none; fill: none; stroke: rgb(156, 39, 176); stroke-opacity: 1; stroke-width: 2px; opacity: 1;"/></g><g class="points"/><g class="text"/></g><g class="trace scatter tracebc38cc" style="stroke-miterlimit: 2; opacity: 1;"><g class="fills"/><g class="errorbars"/><g class="lines"><path class="js-line" d="M0,256.5L3.16,256.5L6.33,245.45L9.49,201.27L12.66,201.27L15.82,168.14L18.99,157.09L22.15,256.5L25.32,256.5L28.48,79.77L31.64,79.77L34.81,35.59L37.97,46.64L41.14,24.55L44.3,13.5L50.63,256.5L53.79,256.5L60.12,256.5L63.29,245.45L66.45,256.5L69.62,234.41L72.78,245.45L75.95,245.45L79.11,256.5L82.27,256.5L85.44,256.5L88.6,245.45L91.77,234.41L94.93,245.45L101.26,223.36L104.42,234.41L107.59,234.41L110.75,223.36L113.92,245.45L117.08,245.45L123.41,223.36L126.58,245.45L129.74,245.45L132.9,201.27L136.07,234.41L139.23,245.45L142.4,223.36L145.56,223.36L148.73,256.5L151.89,212.32L155.05,245.45L158.22,201.27L161.38,223.36L164.55,256.5L167.71,223.36L170.88,256.5L174.04,245.45L177.21,201.27L180.37,245.45L183.53,245.45L186.7,256.5L189.86,245.45L196.19,245.45L199.36,223.36L202.52,135L205.68,90.82L208.85,123.95L212.01,123.95L215.18,123.95L218.34,90.82L221.51,135L224.67,135L227.84,123.95L231,101.86L237.33,101.86L240.49,112.91L243.66,90.82L246.82,79.77L249.99,101.86L253.15,112.91L256.32,79.77L259.48,101.86L262.64,101.86L265.81,112.91L268.97,101.86L272.14,112.91L275.3,123.95L278.47,112.91L281.63,101.86L284.79,157.09L287.96,101.86L291.12,123.95L294.29,123.95L297.45,146.05L300.62,90.82L303.78,123.95L306.95,90.82L310.11,146.05L313.27,101.86L316.44,123.95L319.6,123.95L322.77,90.82L325.93,101.86L329.1,101.86L332.26,123.95L335.42,90.82L338.59,101.86L341.75,157.09L348.08,135L351.25,135L354.41,123.95L357.58,146.05L360.74,101.86L363.9,135L367.07,135L370.23,123.95L373.4,35.59L376.56,112.91L379.73,68.73L382.89,90.82L386.05,101.86L389.22,79.77L395.55,79.77L398.71,68.73L401.88,101.86L405.04,68.73L408.21,57.68L411.37,90.82L414.53,101.86L417.7,57.68L420.86,68.73L424.03,135L427.19,101.86L430.36,101.86L433.52,90.82L436.68,90.82L439.85,90.82L443.01,123.95L446.18,79.77L449.34,101.86L452.51,90.82L455.67,101.86L458.84,57.68L462,79.77" style="vector-effect: none; fill: none; stroke: rgb(33, 150, 243); stroke-opacity: 1; stroke-width: 2px; opacity: 1;"/></g><g class="points"/><g class="text"/></g><g class="trace scatter trace89aa00" style="stroke-miterlimit: 2; opacity: 1;"><g class="fills"/><g class="errorbars"/><g class="lines"><path class="js-line" d="M0,256.5L44.3,256.5L47.47,245.45L53.79,245.45L56.96,256.5L60.12,234.41L63.29,245.45L69.62,223.36L72.78,256.5L75.95,223.36L79.11,212.32L82.27,223.36L85.44,245.45L88.6,245.45L91.77,256.5L94.93,245.45L98.1,223.36L101.26,245.45L104.42,245.45L113.92,245.45L117.08,234.41L120.25,245.45L123.41,245.45L126.58,212.32L129.74,256.5L132.9,256.5L136.07,245.45L142.4,245.45L145.56,256.5L148.73,256.5L151.89,245.45L161.38,245.45L164.55,256.5L167.71,245.45L170.88,245.45L174.04,245.45L177.21,234.41L180.37,223.36L183.53,256.5L186.7,245.45L189.86,245.45L193.03,223.36L196.19,245.45L202.52,245.45L205.68,256.5L208.85,256.5L212.01,245.45L215.18,256.5L218.34,256.5L221.51,234.41L224.67,245.45L227.84,245.45L231,256.5L259.48,256.5L262.64,245.45L265.81,256.5L268.97,256.5L370.23,256.5L373.4,245.45L376.56,256.5L379.73,256.5L389.22,256.5L392.38,245.45L395.55,256.5L398.71,245.45L401.88,256.5L405.04,256.5L439.85,256.5L443.01,245.45L446.18,245.45L449.34,256.5L452.51,256.5L455.67,245.45L458.84,256.5L462,256.5" style="vector-effect: none; fill: none; stroke: rgb(0, 150, 136); stroke-opacity: 1; stroke-width: 2px; opacity: 1;"/></g><g class="points"/><g class="text"/></g></g></g><g class="overplot"/><path class="xlines-above crisp" d="M79,370.5H542" style="fill: none; stroke-width: 1px; stroke: rgb(68, 68, 68); stroke-opacity: 1;"/><path class="ylines-above crisp" d="M79.5,100V370" style="fill: none; stroke-width: 1px; stroke: rgb(68, 68, 68); stroke-opacity: 1;"/><g class="overlines-above"/><g class="xaxislayer-above"><path class="xtick ticks crisp" d="M0,371v5" transform="translate(235.05,0)" style="stroke: rgb(68, 68, 68); stroke-opacity: 1; stroke-width: 1px;"/><path class="xtick ticks crisp" d="M0,371v5" transform="translate(393.27,0)" style="stroke: rgb(68, 68, 68); stroke-opacity: 1; stroke-width: 1px;"/><g class="xtick"><text text-anchor="middle" x="0" y="390.4" transform="translate(235.05,0)" style="font-family: 'Open Sans', verdana, arial, sans-serif; font-size: 12px; fill: rgb(68, 68, 68); fill-opacity: 1; white-space: pre; opacity: 1;">50</text></g><g class="xtick"><text text-anchor="middle" x="0" y="390.4" style="font-family: 'Open Sans', verdana, arial, sans-serif; font-size: 12px; fill: rgb(68, 68, 68); fill-opacity: 1; white-space: pre; opacity: 1;" transform="translate(393.27,0)">100</text></g></g><g class="yaxislayer-above"><path class="ytick ticks crisp" d="M79,0h-5" transform="translate(0,356.5)" style="stroke: rgb(68, 68, 68); stroke-opacity: 1; stroke-width: 1px;"/><path class="ytick ticks crisp" d="M79,0h-5" transform="translate(0,301.27)" style="stroke: rgb(68, 68, 68); stroke-opacity: 1; stroke-width: 1px;"/><path class="ytick ticks crisp" d="M79,0h-5" transform="translate(0,246.05)" style="stroke: rgb(68, 68, 68); stroke-opacity: 1; stroke-width: 1px;"/><path class="ytick ticks crisp" d="M79,0h-5" transform="translate(0,190.82)" style="stroke: rgb(68, 68, 68); stroke-opacity: 1; stroke-width: 1px;"/><path class="ytick ticks crisp" d="M79,0h-5" transform="translate(0,135.59)" style="stroke: rgb(68, 68, 68); stroke-opacity: 1; stroke-width: 1px;"/><g class="ytick"><text text-anchor="end" x="71.6" y="4.199999999999999" transform="translate(0,356.5)" style="font-family: 'Open Sans', verdana, arial, sans-serif; font-size: 12px; fill: rgb(68, 68, 68); fill-opacity: 1; white-space: pre; opacity: 1;">0</text></g><g class="ytick"><text text-anchor="end" x="71.6" y="4.199999999999999" style="font-family: 'Open Sans', verdana, arial, sans-serif; font-size: 12px; fill: rgb(68, 68, 68); fill-opacity: 1; white-space: pre; opacity: 1;" transform="translate(0,301.27)">5</text></g><g class="ytick"><text text-anchor="end" x="71.6" y="4.199999999999999" style="font-family: 'Open Sans', verdana, arial, sans-serif; font-size: 12px; fill: rgb(68, 68, 68); fill-opacity: 1; white-space: pre; opacity: 1;" transform="translate(0,246.05)">10</text></g><g class="ytick"><text text-anchor="end" x="71.6" y="4.199999999999999" style="font-family: 'Open Sans', verdana, arial, sans-serif; font-size: 12px; fill: rgb(68, 68, 68); fill-opacity: 1; white-space: pre; opacity: 1;" transform="translate(0,190.82)">15</text></g><g class="ytick"><text text-anchor="end" x="71.6" y="4.199999999999999" style="font-family: 'Open Sans', verdana, arial, sans-serif; font-size: 12px; fill: rgb(68, 68, 68); fill-opacity: 1; white-space: pre; opacity: 1;" transform="translate(0,135.59)">20</text></g></g><g class="overaxes-above"/></g></g><g class="polarlayer"/><g class="smithlayer"/><g class="ternarylayer"/><g class="geolayer"/><g class="funnelarealayer"/><g class="pielayer"/><g class="iciclelayer"/><g class="treemaplayer"/><g class="sunburstlayer"/><g class="glimages"/><defs id="topdefs-89b37e"><g class="clips"/><clipPath id="legend89b37e"><rect width="137" height="67" x="0" y="0"/></clipPath></defs><g class="layer-above"><g class="imagelayer"/><g class="shapelayer"/></g><g class="infolayer"><g class="legend" pointer-events="all" transform="translate(551.24,100)"><rect class="bg" shape-rendering="crispEdges" width="137" height="67" x="0" y="0" style="stroke: rgb(68, 68, 68); stroke-opacity: 1; fill: rgb(255, 255, 255); fill-opacity: 1; stroke-width: 0px;"/><g class="scrollbox" transform="" clip-path="url(#legend89b37e)"><g class="groups"><g class="traces" transform="translate(0,14.5)" style="opacity: 1;"><text class="legendtext" text-anchor="start" x="40" y="4.680000000000001" style="font-family: 'Open Sans', verdana, arial, sans-serif; font-size: 12px; fill: rgb(68, 68, 68); fill-opacity: 1; white-space: pre;">Replay Ratio = 1</text><g class="layers" style="opacity: 1;"><g class="legendfill"/><g class="legendlines"><path class="js-line" d="M5,0h30" style="fill: none; stroke: rgb(156, 39, 176); stroke-opacity: 1; stroke-width: 2px;"/></g><g class="legendsymbols"><g class="legendpoints"/></g></g><rect class="legendtoggle" x="0" y="-9.5" width="131.6279296875" height="19" style="fill: rgb(0, 0, 0); fill-opacity: 0;"/></g><g class="traces" transform="translate(0,33.5)" style="opacity: 1;"><text class="legendtext" text-anchor="start" x="40" y="4.680000000000001" style="font-family: 'Open Sans', verdana, arial, sans-serif; font-size: 12px; fill: rgb(68, 68, 68); fill-opacity: 1; white-space: pre;">Replay Ratio = 4</text><g class="layers" style="opacity: 1;"><g class="legendfill"/><g class="legendlines"><path class="js-line" d="M5,0h30" style="fill: none; stroke: rgb(33, 150, 243); stroke-opacity: 1; stroke-width: 2px;"/></g><g class="legendsymbols"><g class="legendpoints"/></g></g><rect class="legendtoggle" x="0" y="-9.5" width="131.6279296875" height="19" style="fill: rgb(0, 0, 0); fill-opacity: 0;"/></g><g class="traces" transform="translate(0,52.5)" style="opacity: 1;"><text class="legendtext" text-anchor="start" x="40" y="4.680000000000001" style="font-family: 'Open Sans', verdana, arial, sans-serif; font-size: 12px; fill: rgb(68, 68, 68); fill-opacity: 1; white-space: pre;">Replay Ratio = 2</text><g class="layers" style="opacity: 1;"><g class="legendfill"/><g class="legendlines"><path class="js-line" d="M5,0h30" style="fill: none; stroke: rgb(0, 150, 136); stroke-opacity: 1; stroke-width: 2px;"/></g><g class="legendsymbols"><g class="legendpoints"/></g></g><rect class="legendtoggle" x="0" y="-9.5" width="131.6279296875" height="19" style="fill: rgb(0, 0, 0); fill-opacity: 0;"/></g></g></g><rect class="scrollbar" rx="20" ry="3" width="0" height="0" x="0" y="0" style="fill: rgb(128, 139, 164); fill-opacity: 1;"/></g><g class="g-gtitle"><text class="gtitle" x="350" y="50" text-anchor="middle" dy="0em" style="font-family: 'Open Sans', verdana, arial, sans-serif; font-size: 17px; fill: rgb(68, 68, 68); opacity: 1; font-weight: normal; white-space: pre;">RDE on Freeway-v4</text></g><g class="g-xtitle"><text class="xtitle" x="311" y="422" text-anchor="middle" style="font-family: 'Open Sans', verdana, arial, sans-serif; font-size: 14px; fill: rgb(68, 68, 68); opacity: 1; font-weight: normal; white-space: pre;">Episode Count</text></g><g class="g-ytitle"><text class="ytitle" transform="rotate(-90,42,235)" x="42" y="235" text-anchor="middle" style="font-family: 'Open Sans', verdana, arial, sans-serif; font-size: 14px; fill: rgb(68, 68, 68); opacity: 1; font-weight: normal; white-space: pre;">Episode Reward</text></g></g></svg>